<?xml version="1.0" encoding="UTF-8" standalone="no"?>
<!-- Created with Inkscape (http://www.inkscape.org/) -->

<svg
   width="112.14286"
   height="117.42708"
   id="svg2"
   sodipodi:version="0.32"
   inkscape:version="1.4 (e7c3feb100, 2024-10-09)"
   sodipodi:docname="2x.svg"
   version="1.1"
   xmlns:inkscape="http://www.inkscape.org/namespaces/inkscape"
   xmlns:sodipodi="http://sodipodi.sourceforge.net/DTD/sodipodi-0.dtd"
   xmlns:xlink="http://www.w3.org/1999/xlink"
   xmlns="http://www.w3.org/2000/svg"
   xmlns:svg="http://www.w3.org/2000/svg"
   xmlns:rdf="http://www.w3.org/1999/02/22-rdf-syntax-ns#"
   xmlns:cc="http://creativecommons.org/ns#"
   xmlns:dc="http://purl.org/dc/elements/1.1/">
  <defs
     id="defs4">
    <linearGradient
       id="linearGradient2762">
      <stop
         style="stop-color:#ff6800;stop-opacity:1;"
         offset="0"
         id="stop2764" />
      <stop
         style="stop-color:#ff1100;stop-opacity:0.61403507;"
         offset="1"
         id="stop2766" />
    </linearGradient>
    <linearGradient
       id="linearGradient7874">
      <stop
         style="stop-color:#ffd3d3;stop-opacity:0.79215688;"
         offset="0"
         id="stop7876" />
      <stop
         style="stop-color:#f10;stop-opacity:0"
         offset="1"
         id="stop7878" />
    </linearGradient>
    <radialGradient
       inkscape:collect="always"
       xlink:href="#linearGradient2762"
       id="radialGradient2436"
       gradientUnits="userSpaceOnUse"
       gradientTransform="matrix(2.739384,1.408218,-1.636432,3.183326,-400.3585,-890.8032)"
       cx="255.18288"
       cy="176.28802"
       fx="255.18288"
       fy="176.28802"
       r="12.445148" />
    <radialGradient
       inkscape:collect="always"
       xlink:href="#linearGradient7874"
       id="radialGradient2438"
       gradientUnits="userSpaceOnUse"
       gradientTransform="matrix(1.996297,-0.02726133,0.00237573,0.17397,-859.4911,7.46051)"
       cx="433.02878"
       cy="49.637108"
       fx="433.02878"
       fy="49.637108"
       r="340.46094" />
    <radialGradient
       inkscape:collect="always"
       xlink:href="#linearGradient7874"
       id="radialGradient2658"
       gradientUnits="userSpaceOnUse"
       gradientTransform="matrix(0.82199,0,0,0.860722,56.09573,-80.52634)"
       cx="-66.071434"
       cy="98.790756"
       fx="-66.071434"
       fy="98.790756"
       r="68.214287" />
  </defs>
  <sodipodi:namedview
     id="base"
     pagecolor="#ffffff"
     bordercolor="#666666"
     borderopacity="1.0"
     inkscape:pageopacity="0.0"
     inkscape:pageshadow="2"
     inkscape:zoom="1.4"
     inkscape:cx="240"
     inkscape:cy="160"
     inkscape:document-units="px"
     inkscape:current-layer="g2482"
     inkscape:window-width="1400"
     inkscape:window-height="1031"
     inkscape:window-x="0"
     inkscape:window-y="0"
     inkscape:showpageshadow="2"
     inkscape:pagecheckerboard="0"
     inkscape:deskcolor="#d1d1d1"
     inkscape:window-maximized="0" />
  <metadata
     id="metadata7">
    <rdf:RDF>
      <cc:Work
         rdf:about="">
        <dc:format>image/svg+xml</dc:format>
        <dc:type
           rdf:resource="http://purl.org/dc/dcmitype/StillImage" />
      </cc:Work>
    </rdf:RDF>
  </metadata>
  <g
     inkscape:label="Layer 1"
     inkscape:groupmode="layer"
     id="layer1"
     transform="translate(54.285724,54.208497)">
    <g
       id="g2482">
      <path
         style="color:#000000;display:inline;overflow:visible;visibility:visible;fill:url(#radialGradient2658);fill-opacity:1;fill-rule:evenodd;stroke:none;stroke-width:8;stroke-linecap:butt;stroke-linejoin:miter;stroke-miterlimit:4;stroke-dashoffset:0;stroke-opacity:1;marker:none;marker-start:none;marker-mid:none;marker-end:none"
         d="M -54.285724,-54.208497 H 57.857135 V 63.218583 H -54.285724 Z"
         id="rect2647" />
      <path
         id="text1307"
         d="m -10.227076,22.837647 c -0.103617,0.725131 -0.466172,1.691945 -1.087666,2.900442 -0.897783,0.06908 -1.899125,-0.466123 -3.004029,-1.605602 -1.070426,-1.173966 -2.002709,-1.76096 -2.796853,-1.760983 -3.418398,0.345313 -8.459637,1.122216 -15.123733,2.330713 -1.173995,0.310781 -1.950899,-0.258948 -2.330712,-1.709189 -0.138121,-1.72643 0.241698,-4.24705 1.139459,-7.561867 0.897748,-3.314757 1.294833,-5.7663187 1.191253,-7.354691 0.586986,0.276269 0.828689,1.104966 0.72511,2.486093 -0.103595,1.381196 -0.06907,2.071776 0.103588,2.071744 0.138107,-0.0345 0.328017,-0.189878 0.56973,-0.466142 4.834055,-8.2524068 7.596377,-14.9165104 8.286976,-19.9923312 -1.7e-5,1.277627 -0.03455,3.0904013 -0.103587,5.4383283 0.276214,0.4489248 0.673299,0.3280732 1.191252,-0.3625552 2.55513,-2.4169847 3.832705,-5.1793076 3.832727,-8.2869759 -2.2e-5,-0.828641 -0.103609,-1.674603 -0.310761,-2.537887 -0.379842,-0.932225 -0.656074,-1.553748 -0.828698,-1.86457 -0.379841,-0.655991 -0.880512,-1.156662 -1.502015,-1.502014 -0.587013,-0.345228 -1.277594,-0.517874 -2.071744,-0.517937 -0.656069,6.3e-5 -1.53656,0.172709 -2.641473,0.517937 -1.312119,0.379881 -2.19261,0.587055 -2.641474,0.621523 -0.483419,0.41441 -1.087677,1.122254 -1.812776,2.123538 -0.276243,1.104988 -0.120863,1.933685 0.466142,2.486092 0.06905,0.03459 0.138105,0.05185 0.207175,0.05179 0.207162,5.7e-5 0.552453,-0.552408 1.035872,-1.657395 0.517923,-1.1394 1.104916,-1.6746 1.760982,-1.605602 -0.483421,0.72517 -0.915033,2.175389 -1.29484,4.350663 -0.345303,1.8991522 -0.932297,3.22852 -1.760982,3.9881073 -0.241715,0.1381677 -0.60427,0.2072257 -1.087666,0.2071744 -1.484759,5.13e-5 -3.24574,-0.5006197 -5.282948,-1.5020145 -2.278921,-1.1048764 -3.849992,-2.4342442 -4.713217,-3.9881072 -0.138117,-0.794111 0.06906,-1.674602 0.621523,-2.641474 0.483406,-0.794109 0.966812,-1.588276 1.450221,-2.382506 0.06905,-0.690519 0.224436,-1.432893 0.466142,-2.227124 0.06905,0.690644 -0.08633,1.433018 -0.466142,2.227124 -0.03453,0.759701 0.05179,1.346695 0.258968,1.760983 0.310759,0.552524 0.828694,0.776963 1.553807,0.673316 0.794165,-0.690521 1.65739,-2.261592 2.589681,-4.713217 0.794161,-2.106208 1.778239,-3.366517 2.952235,-3.780933 -0.621531,1.657461 -0.932293,2.865977 -0.932285,3.625552 -8e-6,0.690645 0.241695,0.932348 0.725111,0.72511 1.208507,-1.070336 3.228455,-2.296117 6.059852,-3.677345 2.831365,-1.415624 4.730461,-2.555081 5.697296,-3.418378 0.06904,0.897825 -0.345312,1.778316 -1.243047,2.641474 -1.174007,1.104997 -1.847323,1.830106 -2.01995,2.175331 0.138098,0.552531 0.569711,0.89782 1.29484,1.035872 0.621503,0.06912 1.26029,0.13818 1.916363,0.207174 0.897734,-0.310696 1.41567,-1.0876 1.553808,-2.330712 0.103565,-1.035804 0.207152,-2.071675 0.310762,-3.107616 0.172622,-0.586923 0.569706,-0.794098 1.191253,-0.621523 -0.207199,0.690651 -0.310786,1.398497 -0.310762,2.123537 -2.4e-5,1.208585 0.483383,3.004095 1.450221,5.386536 1.001317,2.382566 1.467459,4.247134 1.398427,5.593708 -2.6e-5,0.517993 -0.138143,1.415748 -0.414348,2.6932677 -0.276259,1.2776291 -0.414375,2.1926489 -0.41435,2.745061 -2.5e-5,0.4834585 0.06903,0.8805424 0.207175,1.1912528 0.103561,0.1726961 0.258942,0.2244896 0.466142,0.1553808 0.51791,-0.1725944 1.243019,-1.0530847 2.175332,-2.6414741 -0.517965,3.211254 -3.435668,6.3879251 -8.753119,9.5300233 -2.14082,2.140844 -4.402472,5.9563022 -6.784962,11.4463855 -0.345304,2.071775 -0.172659,3.34935 0.517936,3.832727 0.725096,-0.863196 1.398412,-2.347945 2.01995,-4.454249 0.621507,-2.1062383 1.622849,-3.9190129 3.004029,-5.4383288 -0.379838,0.794206 -0.863244,1.9854579 -1.45022,3.5737588 -0.03455,0.276267 -0.310779,1.277609 -0.828698,3.004029 -0.379836,1.312135 -0.569746,2.365271 -0.56973,3.15941 -1.6e-5,1.415719 0.51792,2.537912 1.553808,3.366583 0.414332,0.276259 0.98406,0.414374 1.70919,0.41435 1.864548,2.4e-5 2.883154,-0.604233 3.055822,-1.812777 0.172623,-1.691896 0.345268,-3.383818 0.517936,-5.075773 0.24168,-1.933593 0.759616,-3.5219296 1.553808,-4.7650112 -0.414373,1.0013788 -0.621547,1.8818692 -0.621523,2.6414742 -2.4e-5,0.690614 0.172622,1.20855 0.517936,1.553807 3.211176,1.484782 5.179331,4.920421 5.90447,10.306928 m -20.613853,-34.49454 c -0.207185,-0.276175 -0.466151,-0.379762 -0.776905,-0.310761 -0.414356,0.276288 -0.535209,0.656108 -0.362555,1.139459 0.172637,0.483462 0.483399,0.673372 0.932285,0.56973 0.414339,-0.483351 0.483398,-0.949493 0.207175,-1.398428 m 4.920392,30.7654 c -0.207189,-0.621496 -0.776917,-0.932257 -1.709189,-0.932285 -0.621535,0.345317 -0.863239,0.845989 -0.725111,1.502015 0.06905,0.207199 0.65604,0.379845 1.760983,0.517936 0.621509,-0.103563 0.845948,-0.466117 0.673317,-1.087666 m 69.507013,12.844814 c -1.415741,2.175342 -3.763715,5.282955 -7.04393,9.322848 -1.20856,0.759643 -2.693308,2.140805 -4.454249,4.143488 -0.621563,1.346632 -1.812814,1.812774 -3.573759,1.398428 -1.035907,-0.863228 -1.553843,-1.985421 -1.553808,-3.366585 -3.5e-5,-0.690578 0.138082,-1.657391 0.414348,-2.900441 0.345257,-1.415686 0.535167,-2.382499 0.56973,-2.900441 -0.276267,-1.001336 -0.448912,-2.106265 -0.517936,-3.314792 0.483373,0.897766 0.656018,2.002695 0.517936,3.314792 0.379784,1.243052 0.863191,2.106278 1.450221,2.589679 0.656015,0.276237 1.087629,-0.05179 1.294841,-0.984078 C 30.413599,35.181794 28.825264,30.175085 25.924858,24.23607 22.333805,16.984994 20.193005,12.1164 19.502451,9.6302736 l -0.828698,0.1553815 c -0.725135,1.4502539 -2.572439,3.7982289 -5.541915,7.0439299 -2.5897,2.831409 -4.1607706,5.300235 -4.7132194,7.406485 -0.3107768,0.552485 -1.4329704,1.847324 -3.3665842,3.88452 -1.4847605,1.553824 -2.2271348,2.934985 -2.2271249,4.143488 -9.9e-6,0.725123 0.2416933,1.484762 0.7251105,2.278919 0.8286862,-0.207164 1.2602991,-0.915009 1.29484,-2.123538 -1.19e-5,-1.346619 0.2762203,-2.22711 0.8286977,-2.641473 0.1726324,1.622879 0.7250969,3.832737 1.6573952,6.62958 0.379805,2.417042 0.1898953,3.867261 -0.5697296,4.350664 -0.3453042,0.172649 -0.6905945,0.258972 -1.0358721,0.258967 -0.8632386,5e-6 -1.7264645,-0.500667 -2.5896801,-1.502014 C 2.4105512,38.686495 1.702706,37.857798 1.0121334,37.029094 -4.4779911,31.36634 -7.2230498,26.756714 -7.2230498,23.200202 c 0,-1.277553 0.2589678,-2.555127 0.7769042,-3.832727 0.1035863,-0.379794 0.1553799,-0.794142 0.1553807,-1.243046 -8e-7,-0.48338 -0.1035879,-1.294812 -0.3107613,-2.434299 -0.1726458,-1.13943 -0.2589687,-2.002655 -0.2589687,-2.589681 0,-0.62149 0.069059,-1.208484 0.2071751,-1.760982 0.8632255,2.555182 1.7609802,6.508756 2.6932673,11.860735 0.4143453,0.828718 1.070397,1.48477 1.9681569,1.968157 1.03586595,0.172665 1.86456275,-0.103568 2.48609296,-0.828698 0.4488699,-0.828676 0.79416024,-2.468805 1.03587204,-4.920392 0.2071656,-2.209833 0.7596302,-3.815432 1.6573953,-4.816806 -0.3798296,2.002716 -0.5697393,3.142173 -0.5697296,3.418379 -9.7e-6,1.035897 0.3625452,1.899124 1.0876656,2.589679 0.5869828,0.03455 1.1049184,-0.189885 1.5538082,-0.673316 0.448865,-0.483381 0.880478,-0.949524 1.29484,-1.398428 1.8990832,-2.451534 3.5564771,-6.612283 4.9721851,-12.4822576 0.138099,-0.5524256 0.29348,-1.0876257 0.466145,-1.6056017 L 11.526234,6.0565194 C 11.146396,7.6448942 11.3881,8.8016168 12.251346,9.5266905 13.045495,9.2504938 13.684282,8.5944426 14.16771,7.5585335 14.547508,6.6953454 14.927328,5.814855 15.307169,4.9170602 15.445263,2.707242 14.892798,0.54917736 13.649773,-1.5571402 12.890115,-2.834668 11.491687,-4.5783842 9.4544901,-6.7882942 7.4172612,-9.0326297 6.0360998,-10.759081 5.3110024,-11.967654 c 0.4833941,0.656108 0.9322716,1.208573 1.3466337,1.657395 1.0703863,1.1395137 2.0199342,1.7437713 2.8486476,1.8127757 0.4833898,-0.1725915 0.6042423,-0.7595849 0.3625557,-1.7609817 -2.175346,-4.83401 -4.8513461,-7.458217 -8.0280084,-7.872628 -1.55381545,-0.069 -3.1248865,-0.138053 -4.7132179,-0.207175 -1.7264558,-0.241639 -2.8313854,-1.087601 -3.3147909,-2.537886 -0.2762328,-0.655986 -0.4143493,-1.329302 -0.4143484,-2.019951 -9e-7,-1.208448 0.4488769,-2.589609 1.3466333,-4.143488 0.7251082,-1.173915 1.4502179,-2.330638 2.1753316,-3.470172 0.1726413,0.310837 0.2589638,0.638863 0.2589681,0.984079 -4.3e-6,0.414423 -0.1726495,1.018681 -0.517936,1.812776 -0.3107651,0.794241 -0.4661458,1.398499 -0.4661425,1.812776 -3.3e-6,0.552536 0.1899064,1.053207 0.5697297,1.502015 0.863222,0.518005 1.7782413,0.621592 2.74506089,0.310762 2.00267741,-0.897686 4.02262591,-2.762254 6.05985161,-5.59371 2.1407874,-2.969422 4.1089417,-4.954842 5.9044705,-5.956264 -1.5883546,1.761061 -2.3825222,3.263075 -2.3825058,4.506044 -1.64e-5,0.20725 0.017249,0.39716 0.051794,0.569729 0.2416871,0.55254 0.8114162,0.863302 1.7091888,0.932285 1.312087,-0.586919 2.209841,-1.950816 2.693268,-4.091695 0.517915,-2.416953 1.173967,-3.97076 1.968157,-4.661424 -0.276254,0.518019 -0.587015,1.277658 -0.932285,2.278919 -0.345312,0.966894 -0.397105,2.140881 -0.15538,3.521964 0.31074,1.933704 0.46612,3.038633 0.466143,3.314792 -2.3e-5,0.897828 -0.207197,1.691996 -0.621524,2.382505 -0.207196,0.41442 -1.10495,1.450291 -2.693269,3.107616 -1.208534,1.243114 -1.8127926,2.382572 -1.8127753,3.418378 -1.73e-5,0.379884 0.06904,0.776969 0.2071742,1.191253 0.7941501,2.382567 2.2271071,5.800941 4.2988701,10.2551332 0.483385,0.3798734 0.880469,0.4834605 1.191253,0.3107614 0.06903,-0.2416493 0.103565,-0.5006171 0.103587,-0.7769043 -2.2e-5,-0.3797649 -0.155403,-0.9667583 -0.466142,-1.7609823 -0.276254,-0.828641 -0.414371,-1.450163 -0.41435,-1.864569 -2.1e-5,-0.345233 0.05177,-0.655994 0.155382,-0.932285 -1.415713,1.588394 -2.434319,2.64153 -3.055823,3.159409 0.103569,-0.241647 0.207156,-0.500615 0.310762,-0.776904 0.897736,-1.070343 2.296161,-2.606885 4.195281,-4.60963 -0.207197,0.690641 -0.310784,1.450281 -0.310761,2.278918 -2.3e-5,1.588395 0.414326,3.71193 1.243046,6.3706132 0.690557,2.1753819 1.381138,4.3679755 2.071744,6.57778779 0.690555,0.34533621 1.173961,0.36260079 1.450222,0.0517936 1.173959,-1.34658649 1.968126,-3.60823829 2.382505,-6.78496209 0.414318,-3.3147345 1.087635,-5.5763865 2.019951,-6.7849625 0.06902,0.34535 0.05176,0.863286 -0.05179,1.553809 -0.138148,0.863284 -0.207206,1.433013 -0.207174,1.709189 -3.2e-5,0.794223 0.224406,1.3984819 0.673316,1.8127753 1.657361,-0.6905263 2.486058,-2.3824483 2.486094,-5.0757733 -3.6e-5,-1.381102 -0.466178,-3.280198 -1.398428,-5.697295 -0.932317,-2.451497 -1.398459,-4.316065 -1.398427,-5.59371 -3.2e-5,-0.759568 0.103555,-1.501942 0.310761,-2.227125 0.172613,-1.035798 0.500639,-2.57234 0.984079,-4.609631 -0.103621,5.421136 1.018573,8.615072 3.366584,9.581817 0.82866,0.379888 1.484712,0.483475 1.968157,0.310762 0.586955,-0.552397 0.897716,-1.536475 0.932285,-2.952236 0.06902,-1.415619 0.241663,-2.244316 0.517936,-2.486092 -0.0691,1.415763 0.172604,3.263066 0.72511,5.541915 0.725069,2.865977 1.139418,4.71328 1.243047,5.541916 1.381119,2.244449 2.900396,3.366642 4.557837,3.366584 0.276185,-0.379761 0.414302,-0.828638 0.414349,-1.346634 -4.7e-5,-0.310701 -0.08637,-0.811373 -0.258968,-1.502015 -0.138163,-0.690519 -0.207221,-1.208454 -0.207174,-1.553807 -4.7e-5,-0.414286 0.06901,-0.794106 0.207174,-1.13946 1.760933,3.867317 2.641424,7.113045 2.641473,9.7371972 -4.9e-5,0.8632806 -0.103636,1.6056546 -0.310761,2.2271253 -0.552514,0.79422 -1.346682,1.1913038 -2.382506,1.1912528 -0.828744,5.1e-5 -1.519324,-0.2416522 -2.071744,-0.7251105 -1.415735,-1.2429936 -2.486135,-1.8645164 -3.211203,-1.8645698 -0.310803,5.34e-5 -0.621565,0.051847 -0.932285,0.1553807 -1.726493,0.6215761 -3.142183,2.0372668 -4.247076,4.2470757 -1.588371,3.2112494 -2.520656,4.98949459 -2.796854,5.3347411 -0.759673,2.1063149 -1.139492,4.4024957 -1.13946,6.8885493 -3.2e-5,3.6601152 0.776872,7.5964242 2.330713,11.8089412 0.207139,0.310786 0.673281,0.466167 1.398427,0.466143 0.379783,-0.414324 0.621486,-0.949524 0.72511,-1.605602 -0.138153,-1.415665 -0.172682,-2.727768 -0.103587,-3.936314 -3.7e-5,3.107644 0.03449,4.419747 0.103587,3.936314 0.621486,7.423768 2.952196,11.705369 6.992137,12.844813 1.346588,0.06907 2.192549,-0.20716 2.537886,-0.828697 0.82865,-0.93227 1.242999,-2.071728 1.243047,-3.418378 -4.8e-5,-0.621505 -0.1209,-1.553789 -0.362556,-2.796855 -0.207221,-1.277553 -0.310808,-2.227102 -0.310761,-2.848648 -4.7e-5,-1.381137 0.431566,-2.537861 1.29484,-3.470171 1.726403,4.247098 2.589629,7.889911 2.58968,10.92845 -5.1e-5,1.104945 -0.138167,2.071758 -0.414349,2.900442 M 34.677977,-11.19075 c 0.138074,-0.414293 -0.01731,-0.621467 -0.466143,-0.621524 -4.1e-5,0.62158 0.15534,0.828754 0.466143,0.621524 M 30.84525,-15.645 c 0.03449,-0.483346 -0.172683,-0.725049 -0.621523,-0.725111 -0.759676,6.2e-5 -1.001379,0.328087 -0.725111,0.984078 0.06902,0.621584 0.414312,0.932345 1.035872,0.932285 0.276195,-0.34523 0.379782,-0.742315 0.310762,-1.191252 M 7.5381273,-28.748782 c -1.45e-5,-0.725036 -0.3280404,-1.018533 -0.9840784,-0.880491 -0.6215363,0.621597 -0.8632395,1.381236 -0.7251105,2.278918 0.2071614,0.0346 0.5179226,0.10366 0.9322849,0.207175 0.1381023,-0.06899 0.3970701,-0.604186 0.776904,-1.605602 m -3.1076162,8.286976 c -0.6905921,-0.966747 -1.3984373,-1.346566 -2.1235377,-1.139459 -0.3107706,0.06913 -0.4661513,0.448945 -0.4661424,1.139459 0.1726363,0.20724 0.4833976,0.414415 0.9322849,0.621524 0.4833966,0.17271 0.863216,0.241768 1.1394592,0.207174 0.4833956,-0.03446 0.6560407,-0.310696 0.517936,-0.828698 M 23.80132,6.3154874 c 0.276201,-0.7596001 0.0345,-1.1394195 -0.72511,-1.1394593 -0.241734,3.98e-5 -0.414379,0.172685 -0.517937,0.517936 -0.241732,0.8287361 -0.189939,1.4329945 0.155382,1.8127759 0.138086,0.1036249 0.276202,0.1554185 0.414348,0.1553807 0.34526,3.78e-5 0.569699,-0.44884 0.673317,-1.3466333 M 36.387165,33.714304 c -4.3e-5,-0.414338 -0.259011,-0.656041 -0.776904,-0.725111 -0.517977,-0.103576 -0.776945,0.05181 -0.776903,0.466142 0.138073,0.310773 0.43157,0.569741 0.880491,0.776904 0.448834,0.138127 0.673273,-0.03452 0.673316,-0.517935 M -0.33450027,27.758039 c -0.0345358,-0.276215 -0.24170996,-0.397067 -0.62152329,-0.362555 -0.41435444,0.03455 -0.60426414,0.207192 -0.56972954,0.517936 0.1035815,0.448894 0.3625492,0.604275 0.77690394,0.466142 0.27622597,-0.414331 0.41434215,-0.621505 0.41434889,-0.621523"
         style="color:#000000;font-style:normal;font-variant:normal;font-weight:normal;font-stretch:normal;font-size:129.045px;line-height:125%;font-family:'Seaweed Fire AOE';text-align:start;writing-mode:lr-tb;text-anchor:start;display:inline;overflow:visible;visibility:visible;fill:url(#radialGradient2438);fill-opacity:1;fill-rule:nonzero;stroke:url(#radialGradient2436);stroke-width:0.585967;stroke-linecap:butt;stroke-linejoin:miter;stroke-miterlimit:4;stroke-dashoffset:0;stroke-opacity:1;marker:none;marker-start:none;marker-mid:none;marker-end:none" />
    </g>
  </g>
</svg>
