<?xml version="1.0" encoding="UTF-8" standalone="no"?>
<!-- Created with Inkscape (http://www.inkscape.org/) -->

<svg
   width="112.14286"
   height="117.42708"
   id="svg2660"
   sodipodi:version="0.32"
   inkscape:version="1.4 (e7c3feb100, 2024-10-09)"
   sodipodi:docname="3x.svg"
   version="1.1"
   xmlns:inkscape="http://www.inkscape.org/namespaces/inkscape"
   xmlns:sodipodi="http://sodipodi.sourceforge.net/DTD/sodipodi-0.dtd"
   xmlns:xlink="http://www.w3.org/1999/xlink"
   xmlns="http://www.w3.org/2000/svg"
   xmlns:svg="http://www.w3.org/2000/svg"
   xmlns:rdf="http://www.w3.org/1999/02/22-rdf-syntax-ns#"
   xmlns:cc="http://creativecommons.org/ns#"
   xmlns:dc="http://purl.org/dc/elements/1.1/">
  <defs
     id="defs2662">
    <linearGradient
       id="linearGradient2762">
      <stop
         style="stop-color:yellow;stop-opacity:1"
         offset="0"
         id="stop2764" />
      <stop
         style="stop-color:#888100;stop-opacity:0.6156863;"
         offset="1"
         id="stop2766" />
    </linearGradient>
    <linearGradient
       id="linearGradient7874">
      <stop
         style="stop-color:#ffffc1;stop-opacity:0.79215688;"
         offset="0"
         id="stop7876" />
      <stop
         style="stop-color:#e6d200;stop-opacity:0;"
         offset="1"
         id="stop7878" />
    </linearGradient>
    <radialGradient
       inkscape:collect="always"
       xlink:href="#linearGradient7874"
       id="radialGradient2658"
       gradientUnits="userSpaceOnUse"
       gradientTransform="matrix(0.82199,0,0,0.860722,57.16717,-78.38346)"
       cx="-66.071434"
       cy="98.790756"
       fx="-66.071434"
       fy="98.790756"
       r="68.214287" />
    <radialGradient
       inkscape:collect="always"
       xlink:href="#linearGradient2762"
       id="radialGradient2693"
       gradientUnits="userSpaceOnUse"
       gradientTransform="matrix(2.739384,1.408218,-1.636432,3.183326,-404.2871,-890.089)"
       cx="255.18288"
       cy="176.28802"
       fx="255.18288"
       fy="176.28802"
       r="12.445148" />
    <radialGradient
       inkscape:collect="always"
       xlink:href="#linearGradient7874"
       id="radialGradient2728"
       gradientUnits="userSpaceOnUse"
       gradientTransform="matrix(1.996297,-0.02726133,0.00237573,0.17397,-863.4197,8.17477)"
       cx="433.02878"
       cy="49.637108"
       fx="433.02878"
       fy="49.637108"
       r="340.46094" />
  </defs>
  <sodipodi:namedview
     id="base"
     pagecolor="#ffffff"
     bordercolor="#666666"
     borderopacity="1.0"
     inkscape:pageopacity="0.0"
     inkscape:pageshadow="2"
     inkscape:zoom="1.4"
     inkscape:cx="128.21429"
     inkscape:cy="135.71429"
     inkscape:document-units="px"
     inkscape:current-layer="layer1"
     inkscape:window-width="1239"
     inkscape:window-height="761"
     inkscape:window-x="88"
     inkscape:window-y="88"
     inkscape:showpageshadow="2"
     inkscape:pagecheckerboard="0"
     inkscape:deskcolor="#d1d1d1"
     inkscape:window-maximized="0" />
  <metadata
     id="metadata2665">
    <rdf:RDF>
      <cc:Work
         rdf:about="">
        <dc:format>image/svg+xml</dc:format>
        <dc:type
           rdf:resource="http://purl.org/dc/dcmitype/StillImage" />
      </cc:Work>
    </rdf:RDF>
  </metadata>
  <g
     inkscape:label="Layer 1"
     inkscape:groupmode="layer"
     id="layer1"
     transform="translate(53.214291,52.065647)">
    <path
       style="color:#000000;display:inline;overflow:visible;visibility:visible;fill:url(#radialGradient2658);fill-opacity:1;fill-rule:evenodd;stroke:none;stroke-width:8;stroke-linecap:butt;stroke-linejoin:miter;stroke-miterlimit:4;stroke-dashoffset:0;stroke-opacity:1;marker:none;marker-start:none;marker-mid:none;marker-end:none"
       d="M -53.214291,-52.065647 H 58.928572 V 65.361433 H -53.214291 Z"
       id="rect2647" />
    <path
       style="color:#000000;font-style:normal;font-variant:normal;font-weight:normal;font-stretch:normal;font-size:101.11px;line-height:125%;font-family:'Seaweed Fire AOE';text-align:start;writing-mode:lr-tb;text-anchor:start;display:inline;overflow:visible;visibility:visible;fill:url(#radialGradient2728);fill-opacity:1;fill-rule:nonzero;stroke:url(#radialGradient2693);stroke-width:0.585967;stroke-linecap:butt;stroke-linejoin:miter;stroke-miterlimit:4;stroke-dashoffset:0;stroke-opacity:1;marker:none;marker-start:none;marker-mid:none;marker-end:none"
       d="m -11.432902,19.064532 c -0.394988,2.731829 -2.8964,4.93702 -7.504241,6.615581 -0.724114,0.164584 -1.43175,0.246868 -2.12291,0.24685 -1.908991,1.8e-5 -4.245836,-0.658249 -7.010541,-1.9748 -2.731816,-1.349426 -4.262285,-2.024149 -4.591411,-2.024171 -0.658273,2.2e-5 -1.332996,0.493722 -2.02417,1.4811 -0.691185,0.954507 -1.332994,1.431749 -1.92543,1.431731 -0.329137,1.8e-5 -0.70764,-0.09872 -1.13551,-0.29622 -1.119055,-0.592421 -1.514015,-1.695016 -1.184881,-3.307791 0.526612,-0.855723 0.938029,-2.254539 1.234251,-4.19645 0.32913,-1.941859 0.658264,-3.159651 0.9874,-3.653381 -0.197483,1.876089 0.18102,2.995141 1.13551,3.357161 0.987395,-0.789893 1.481094,-1.892488 1.4811,-3.307791 -6e-6,-0.526582 -0.08229,-1.283588 -0.24685,-2.27102 -0.164572,-1.02028 -0.246855,-1.7608292 -0.24685,-2.2216502 -5e-6,-1.5139773 0.641804,-2.5836597 1.92543,-3.2090504 -0.460793,0.757044 -0.691186,1.5305066 -0.69118,2.3203903 -6e-6,0.9216081 0.477237,2.2710533 1.43173,4.0483403 0.954478,1.77735 1.431721,3.159709 1.43173,4.147081 -9e-6,0.954513 -0.329142,1.892542 -0.9874,2.81409 0.362038,0.658291 1.020304,1.10262 1.974801,1.33299 0.756995,0.06585 1.300065,-0.37848 1.62921,-1.33299 0.09873,-0.855721 0.197468,-1.695011 0.29622,-2.51787 0.131641,-0.987372 0.543057,-1.612725 1.23425,-1.876061 -0.329147,1.151995 -0.493713,2.188764 -0.4937,3.110311 -1.3e-5,1.612778 0.42786,2.764743 1.28362,3.4559 1.678564,0.888682 3.093836,1.053248 4.245821,0.4937 0.625334,-0.329111 1.645646,-1.349423 3.06094,-3.06094 0.164545,-0.427848 0.246828,-0.872178 0.24685,-1.33299 -2.2e-5,-0.493673 -0.164588,-1.217766 -0.4937,-2.172281 -0.296241,-0.954457 -0.444351,-1.695006 -0.44433,-2.22165 -2.1e-5,-0.296189 0.03289,-0.592408 0.09874,-0.88866 0.263285,1.87609 1.053205,2.945772 2.36976,3.20905 0.460763,-0.329104 0.641786,-0.83926 0.54307,-1.53047 -0.09876,-0.559496 -0.197504,-1.119022 -0.29622,-1.67858 -1.645689,-2.8634257 -5.364892,-5.3977501 -11.157621,-7.6029808 -1.283632,-0.7569667 -1.760874,-2.1557821 -1.43173,-4.19645044 0.394948,-1.15192221 1.135498,-2.61656426 2.22165,-4.39393056 -0.06584,1.5469732 0.13164,2.7647654 0.59244,3.65338047 0.625339,0.69122357 1.398802,0.74059353 2.32039,0.14811002 0.65825,-0.2961757 1.316516,-0.87215849 1.9748,-1.72795019 0.954468,-1.1848332 1.513994,-1.8760126 1.678581,-2.0735403 1.151945,-1.0531779 1.727928,-2.3861667 1.72795,-3.9989704 -2.2e-5,-1.5468735 -0.658288,-3.6368678 -1.9748,-6.2699908 -0.329153,-0.658208 -1.102616,-1.036711 -2.320391,-1.13551 -3.686307,0.757065 -5.842128,2.221707 -6.46747,4.39393 -1.1e-5,0.658321 0.625342,0.740605 1.87606,0.24685 -0.625366,0.625408 -1.168435,1.94194 -1.62921,3.9496009 -0.394971,1.7444558 -1.08615,2.9293348 -2.073541,3.5546404 h -1.72795 c -1.349453,-1.2835717 -3.455904,-2.9950636 -6.319361,-5.1344806 -0.921573,-0.789867 -1.349446,-1.6291567 -1.28362,-2.5178707 0.03291,-0.724037 0.34559,-1.59624 0.93803,-2.61661 0.493699,-0.822775 0.987399,-1.645608 1.481101,-2.4685 0.131651,-0.855686 0.296217,-1.694975 0.4937,-2.51787 0.09874,0.789981 -0.06583,1.62927 -0.4937,2.51787 -0.230396,1.481158 -0.263309,2.666037 -0.09874,3.55464 0.329131,0.526669 0.806374,0.658323 1.43173,0.39496 0.789916,-0.85569 1.629205,-2.567182 2.51787,-5.13448 0.789913,-2.270957 1.826683,-3.850796 3.11031,-4.739521 -1.382367,1.612818 -2.073547,2.896437 -2.07354,3.850861 -0.13166,0.822894 0.296213,1.448247 1.28362,1.87606 1.546917,-0.09868 2.945733,-1.168362 4.196451,-3.209051 1.382346,-2.238041 2.600138,-3.554573 3.65338,-3.9496 -0.658282,0.987466 -1.053242,1.777386 -1.18488,2.36976 -0.493714,0.954551 -0.164581,1.6951 0.9874,2.221651 1.316516,0.263369 3.307771,0.296282 5.973771,0.09874 0.987377,-0.658204 1.201314,-1.843083 0.64181,-3.554641 -0.559549,-1.744339 -0.411439,-2.945675 0.44433,-3.60401 0.09872,0.921642 0.197457,1.662191 0.29622,2.22165 0.164543,1.11912 0.872179,3.702814 2.12291,7.751091 0.954461,3.19265 1.382334,5.891541 1.28362,8.0966808 -0.09877,1.5469769 -0.954512,3.3242953 -2.56724,5.3319606 -1.974822,2.4356308 -3.143244,4.0648394 -3.50527,4.8876306 -0.230414,0.7899607 -0.181044,1.5634233 0.14811,2.3203903 0.329112,0.7241317 0.822812,1.0203514 1.4811,0.8886601 0.92155,-0.1645284 1.497533,-1.2012975 1.72795,-3.1103104 0.263283,-1.90893037 0.954462,-3.02798271 2.07354,-3.35716038 -0.394985,0.82287723 -0.641835,1.48114332 -0.74055,1.97480018 -0.296245,0.789962 -0.444355,1.6127946 -0.44433,2.4685003 -2.5e-5,1.2836591 0.493675,3.1268041 1.4811,5.5294407 0.987373,2.4027062 1.481073,4.2293942 1.481101,5.4800702 -2.8e-5,1.119082 -0.246878,2.188764 -0.74055,3.209051 -0.03294,0.03294 -0.378531,0.592465 -1.036771,1.67858 -0.427899,0.691204 -0.625378,1.217817 -0.59244,1.57984 0.03289,0.197503 0.148085,0.296243 0.34559,0.29622 0.493674,2.3e-5 1.382333,-0.740527 2.665981,-2.22165 M -29.699804,-9.6688114 c -1.053236,0.7241461 -1.250716,1.4482388 -0.592441,2.1722803 0.296211,-0.3949085 0.49369,-1.1190012 0.592441,-2.1722803 M 39.220723,31.308293 c -1.349494,2.073551 -3.587599,5.035748 -6.714321,8.886601 -1.152007,0.724097 -2.567279,2.040629 -4.24582,3.949601 -0.592477,1.283618 -1.727986,1.727948 -3.406531,1.33299 -0.987433,-0.822834 -1.481132,-1.892517 -1.4811,-3.20905 -3.2e-5,-0.658265 0.131621,-1.579838 0.39496,-2.764721 0.3291,-1.349441 0.510123,-2.271013 0.54307,-2.76472 -0.26334,-0.954479 -0.427906,-2.007705 -0.4937,-3.15968 0.460753,0.855756 0.62532,1.908981 0.4937,3.15968 0.362013,1.184886 0.822799,2.007719 1.38236,2.4685 0.625318,0.263311 1.036735,-0.04936 1.23425,-0.93803 C 26.664249,34.3857 25.150237,29.613271 22.385551,23.952163 18.962536,17.040388 16.921911,12.399612 16.26367,10.029821 l -0.78992,0.14811 c -0.691204,1.382392 -2.452066,3.620497 -5.282591,6.714321 -2.4685166,2.698917 -3.966072,5.052219 -4.4926701,7.059911 -0.2962345,0.526632 -1.3659169,1.760881 -3.2090503,3.70275 -1.4152837,1.481115 -2.12291971,2.797647 -2.12291028,3.9496 -9.43e-6,0.691192 0.2303837,1.415285 0.69118008,2.172281 0.7899092,-0.19747 1.2013255,-0.872193 1.2342501,-2.024171 -1.13e-5,-1.283607 0.2632951,-2.122896 0.7899201,-2.51787 0.1645544,1.54694 0.6911673,3.653391 1.5798402,6.319361 0.3620326,2.303939 0.1810095,3.686298 -0.54307,4.14708 -0.3291463,0.164571 -0.6582793,0.246854 -0.9874002,0.24685 -0.8228448,4e-6 -1.6456774,-0.477239 -2.46850025,-1.43173 C -0.02844076,37.7264 -0.7031635,36.936481 -1.3614219,36.146554 -6.594645,30.74878 -9.2112526,26.354853 -9.2112528,22.964762 c 2e-7,-1.217771 0.2468499,-2.435563 0.7405501,-3.65338 0.098739,-0.362022 0.1481093,-0.756982 0.14811,-1.18488 -7e-7,-0.460761 -0.098741,-1.234224 -0.29622,-2.32039 -0.164567,-1.086112 -0.2468503,-1.908944 -0.2468501,-2.468501 -2e-7,-0.592409 0.065827,-1.151935 0.1974801,-1.67858 0.8228322,2.435617 1.6785781,6.20419 2.5672403,11.305731 0.3949567,0.78994 1.0203094,1.415293 1.8760602,1.876061 0.9873943,0.164585 1.7773136,-0.09872 2.3697603,-0.78992 0.4278657,-0.7899 0.7569987,-2.353282 0.98740007,-4.690151 0.19747163,-2.106427 0.7240845,-3.636896 1.57984019,-4.591411 -0.36205612,1.909001 -0.5430793,2.99514 -0.54307007,3.258421 -9.23e-6,0.987425 0.34558047,1.810257 1.03677011,2.4685 0.5595159,0.03294 1.0532155,-0.181 1.4811002,-0.64181 0.4278612,-0.460762 0.8392775,-0.905092 1.2342501,-1.33299 1.8102188,-2.33682 3.3900574,-6.302873 4.7395206,-11.8981715 0.1316355,-0.5265758 0.2797453,-1.036732 0.44433,-1.5304702 l -0.44433,1.5304702 C 8.2986252,8.1373396 8.5290183,9.2399353 9.3518694,9.9310809 10.108857,9.6678082 10.717753,9.0424554 11.17856,8.0550207 11.540586,7.2322237 11.902632,6.3929344 12.2647,5.5371504 12.396332,3.4307371 11.869719,1.3736555 10.68486,-0.63410035 9.9607471,-1.8518483 8.6277583,-3.5139701 6.6858891,-5.6204709 4.7439884,-7.7597864 3.4274562,-9.4054516 2.7362886,-10.557471 c 0.4607745,0.6254065 0.8886474,1.1520194 1.2836201,1.5798397 1.0202994,1.0861917 1.9254153,1.6621745 2.7153504,1.7279502 0.4607704,-0.1645156 0.575967,-0.7240418 0.34559,-1.6785802 -2.0735543,-4.6078097 -4.6243354,-7.1092207 -7.65235089,-7.5042407 -1.48110721,-0.06577 -2.97866251,-0.131593 -4.49267051,-0.19748 -1.6456692,-0.230333 -2.698895,-1.036709 -3.1596804,-2.41913 -0.2633073,-0.625291 -0.3949605,-1.2671 -0.39496,-1.925431 -5e-7,-1.151901 0.4278725,-2.468433 1.2836201,-3.9496 0.6911777,-1.118984 1.3823571,-2.22158 2.0735403,-3.307791 0.1645627,0.296292 0.2468459,0.608969 0.24685,0.938031 -4.1e-6,0.39503 -0.1645706,0.971013 -0.4937001,1.72795 -0.2962233,0.757075 -0.4443331,1.333058 -0.44433,1.72795 -3.1e-6,0.52668 0.18102,1.003923 0.54307,1.43173 0.822829,0.493766 1.6950316,0.592506 2.6166104,0.29622 1.90896533,-0.85568 3.8343936,-2.632998 5.7762906,-5.33196 2.0406128,-2.830473 3.9166712,-4.722988 5.6281807,-5.677551 -1.5140297,1.678655 -2.2710357,3.110384 -2.2710203,4.29519 -1.54e-5,0.197553 0.016441,0.378576 0.04937,0.54307 0.2303777,0.526685 0.7734472,0.822905 1.6292102,0.888661 1.2506885,-0.559456 2.1064348,-1.859531 2.5672408,-3.900231 0.493679,-2.303856 1.119032,-3.784955 1.87606,-4.4433 -0.263328,0.493779 -0.559548,1.217871 -0.88866,2.17228 -0.329154,0.92165 -0.378524,2.040702 -0.14811,3.35716 0.296199,1.843219 0.444309,2.896445 0.44433,3.159681 -2.1e-5,0.855816 -0.197501,1.612822 -0.59244,2.27102 -0.197501,0.395028 -1.053246,1.382427 -2.5672407,2.9622 -1.1519834,1.184945 -1.7279663,2.271084 -1.7279502,3.258421 -1.61e-5,0.362108 0.065811,0.740611 0.19748,1.13551 0.7569898,2.271079 2.1228919,5.529496 4.0977109,9.7752608 0.460766,0.3620977 0.839269,0.4608376 1.13551,0.2962201 0.0658,-0.2303421 0.09872,-0.4771919 0.09874,-0.7405501 -2.2e-5,-0.3619946 -0.148132,-0.9215207 -0.44433,-1.6785802 -0.263328,-0.7898656 -0.394981,-1.3823056 -0.39496,-1.7773206 -2.1e-5,-0.329077 0.04935,-0.625297 0.14811,-0.88866 -1.349467,1.514068 -2.3204092,2.5179242 -2.9128307,3.0115706 0.098722,-0.23034 0.1974619,-0.4771898 0.29622,-0.7405496 0.8557277,-1.020259 2.1887167,-2.484901 3.9989707,-4.393931 -0.197502,0.658324 -0.296242,1.382417 -0.29622,2.17228 -2.2e-5,1.514068 0.394937,3.5382366 1.18488,6.072511 0.658243,2.0735882 1.316509,4.163583 1.9748,6.26999072 0.658241,0.32917679 1.119027,0.34563344 1.38236,0.04937001 1.119026,-1.28357513 1.876032,-3.43939663 2.271021,-6.46747073 0.39493,-3.1596271 1.03674,-5.315448 1.92543,-6.467471 0.0658,0.32919 0.04934,0.822889 -0.04937,1.4811 -0.131684,0.822888 -0.197511,1.365958 -0.19748,1.6292106 -3.1e-5,0.7570595 0.213906,1.3330423 0.64181,1.7279502 1.579807,-0.6582143 2.369727,-2.2709658 2.36976,-4.8382608 -3.3e-5,-1.316475 -0.444363,-3.126707 -1.33299,-5.4307 -0.888691,-2.336783 -1.333021,-4.114101 -1.33299,-5.331961 -3.1e-5,-0.724025 0.09871,-1.431661 0.29622,-2.12291 0.164535,-0.98733 0.477212,-2.451972 0.93803,-4.393931 -0.09877,5.167463 0.97091,8.211944 3.20905,9.133451 0.789884,0.362111 1.415237,0.460851 1.876061,0.29622 0.559489,-0.526548 0.855708,-1.464577 0.88866,-2.81409 0.06579,-1.349378 0.230355,-2.139297 0.4937,-2.36976 -0.06586,1.349515 0.164528,3.110377 0.69118,5.28259 0.69114,2.731869 1.0861,4.492731 1.18488,5.282591 1.316492,2.139424 2.764677,3.209106 4.34456,3.20905 0.263262,-0.36199 0.394915,-0.789863 0.39496,-1.28362 -4.5e-5,-0.296162 -0.08233,-0.773405 -0.24685,-1.43173 -0.131698,-0.658207 -0.197524,-1.151907 -0.19748,-1.4811 -4.4e-5,-0.3949 0.06578,-0.756946 0.19748,-1.08614 1.678534,3.686351 2.517823,6.780202 2.517871,9.2815608 -4.8e-5,0.8228845 -0.09879,1.5305205 -0.29622,2.1229102 -0.52666,0.7570558 -1.283666,1.1355588 -2.271021,1.1355102 -0.789964,4.86e-5 -1.44823,-0.2303445 -1.9748,-0.6911801 -1.349488,-1.1848297 -2.369801,-1.7772691 -3.06094,-1.7773202 -0.29626,5.11e-5 -0.592479,0.049421 -0.88866,0.14811 -1.645704,0.5924904 -2.99515,1.9419359 -4.048341,4.0483405 -1.514047,3.06098415 -2.402706,4.7560193 -2.66598,5.0851105 -0.724125,2.0077534 -1.086171,4.1964882 -1.08614,6.5662108 -3.1e-5,3.4888453 0.740518,7.2409623 2.22165,11.2563613 0.197447,0.296244 0.641776,0.444354 1.33299,0.44433 0.362012,-0.394936 0.592405,-0.905092 0.69118,-1.53047 -0.131688,-1.349421 -0.164602,-2.600126 -0.09874,-3.752121 -3.5e-5,2.962227 0.03288,4.212932 0.09874,3.752121 0.592404,7.076385 2.814052,11.157635 6.664951,12.243761 1.283577,0.06584 2.089953,-0.197467 2.41913,-0.78992 0.789875,-0.888645 1.184835,-1.974784 1.184881,-3.25842 -4.6e-5,-0.592423 -0.115243,-1.481082 -0.345591,-2.66598 -0.197525,-1.217773 -0.296265,-2.122889 -0.29622,-2.715351 -4.5e-5,-1.31651 0.411372,-2.419105 1.234251,-3.30779 1.645619,4.048362 2.468451,7.520715 2.4685,10.417071 -4.9e-5,1.053241 -0.131702,1.974813 -0.39496,2.76472 M 30.729082,-9.8169214 c 0.131613,-0.3949066 -0.0165,-0.5923856 -0.44433,-0.5924396 -4e-5,0.5924931 0.14807,0.7899729 0.44433,0.5924396 m -3.653381,-4.2458206 c 0.03288,-0.460728 -0.164602,-0.691122 -0.59244,-0.69118 -0.724128,5.8e-5 -0.954521,0.312735 -0.69118,0.93803 0.06579,0.592497 0.394925,0.888717 0.9874,0.88866 0.263271,-0.329076 0.362011,-0.707579 0.29622,-1.13551 M 4.8591988,-26.553353 c -1.39e-5,-0.691109 -0.3126903,-0.970873 -0.9380301,-0.83929 -0.5924524,0.59251 -0.8228456,1.316603 -0.6911801,2.17228 0.1974676,0.03298 0.4936873,0.09881 0.8886602,0.19748 0.13164,-0.06576 0.3784898,-0.575914 0.74055,-1.53047 m -2.9622003,7.899201 c -0.6582771,-0.921511 -1.33299979,-1.283557 -2.02417024,-1.086141 -0.29622867,0.06589 -0.44433854,0.427937 -0.44433005,1.086141 0.16455803,0.197542 0.46077777,0.395022 0.8886601,0.59244 0.46077688,0.164628 0.82282319,0.230455 1.08614009,0.19748 0.4607758,-0.03285 0.6253424,-0.296159 0.4937001,-0.78992 M 20.361381,6.8701405 c 0.263277,-0.7240558 0.03288,-1.0861022 -0.69118,-1.0861401 -0.230422,3.79e-5 -0.394989,0.1646044 -0.493701,0.4937001 -0.230421,0.7899567 -0.181051,1.3659395 0.148111,1.7279502 0.131624,0.098776 0.263278,0.1481455 0.39496,0.14811 0.329104,3.55e-5 0.54304,-0.4278374 0.64181,-1.2836202 M 32.358292,32.986874 c -4.1e-5,-0.394949 -0.246891,-0.625343 -0.74055,-0.691181 -0.49374,-0.09873 -0.74059,0.04938 -0.74055,0.444331 0.131613,0.29623 0.411376,0.54308 0.83929,0.74055 0.427832,0.131663 0.641769,-0.0329 0.64181,-0.4937 M -2.645042,27.309323 c -0.03292,-0.26329 -0.2303996,-0.378487 -0.5924401,-0.34559 -0.3949655,0.03293 -0.5759887,0.197496 -0.5430701,0.4937 0.098735,0.427889 0.3455844,0.575999 0.7405501,0.44433 0.2633004,-0.394944 0.3949536,-0.592424 0.3949601,-0.59244"
       id="text2679" />
  </g>
</svg>
