<?xml version="1.0" encoding="UTF-8" standalone="no"?>
<!-- Created with Inkscape (http://www.inkscape.org/) -->

<svg
   width="112.14286"
   height="117.42708"
   id="svg2696"
   sodipodi:version="0.32"
   inkscape:version="1.4 (e7c3feb100, 2024-10-09)"
   sodipodi:docname="4x.svg"
   version="1.1"
   xmlns:inkscape="http://www.inkscape.org/namespaces/inkscape"
   xmlns:sodipodi="http://sodipodi.sourceforge.net/DTD/sodipodi-0.dtd"
   xmlns:xlink="http://www.w3.org/1999/xlink"
   xmlns="http://www.w3.org/2000/svg"
   xmlns:svg="http://www.w3.org/2000/svg"
   xmlns:rdf="http://www.w3.org/1999/02/22-rdf-syntax-ns#"
   xmlns:cc="http://creativecommons.org/ns#"
   xmlns:dc="http://purl.org/dc/elements/1.1/">
  <defs
     id="defs2698">
    <linearGradient
       id="linearGradient7874">
      <stop
         style="stop-color:#fdfdff;stop-opacity:0.79215688;"
         offset="0"
         id="stop7876" />
      <stop
         style="stop-color:#0016ff;stop-opacity:0;"
         offset="1"
         id="stop7878" />
    </linearGradient>
    <radialGradient
       inkscape:collect="always"
       xlink:href="#linearGradient7874"
       id="radialGradient2658"
       gradientUnits="userSpaceOnUse"
       gradientTransform="matrix(0.82199,0,0,0.860722,51.99383,-78.98657)"
       cx="-66.071434"
       cy="98.790756"
       fx="-66.071434"
       fy="98.790756"
       r="68.214287" />
    <linearGradient
       id="linearGradient2762">
      <stop
         style="stop-color:#9499ff;stop-opacity:1;"
         offset="0"
         id="stop2764" />
      <stop
         style="stop-color:#060032;stop-opacity:0.6156863;"
         offset="1"
         id="stop2766" />
    </linearGradient>
    <radialGradient
       inkscape:collect="always"
       xlink:href="#linearGradient2762"
       id="radialGradient2731"
       gradientUnits="userSpaceOnUse"
       gradientTransform="matrix(1.996297,-0.02726133,0.00237573,0.17397,-864.5524,10.60209)"
       cx="433.02878"
       cy="49.637108"
       fx="433.02878"
       fy="49.637108"
       r="340.46094" />
    <radialGradient
       inkscape:collect="always"
       xlink:href="#linearGradient2762"
       id="radialGradient2733"
       gradientUnits="userSpaceOnUse"
       gradientTransform="matrix(2.739384,1.408218,-1.636432,3.183326,-405.4199,-887.6616)"
       cx="255.18288"
       cy="176.28802"
       fx="255.18288"
       fy="176.28802"
       r="12.445148" />
  </defs>
  <sodipodi:namedview
     id="base"
     pagecolor="#ffffff"
     bordercolor="#666666"
     borderopacity="1.0"
     inkscape:pageopacity="0.0"
     inkscape:pageshadow="2"
     inkscape:zoom="0.98994949"
     inkscape:cx="90.408653"
     inkscape:cy="157.5838"
     inkscape:document-units="px"
     inkscape:current-layer="layer1"
     inkscape:window-width="1239"
     inkscape:window-height="761"
     inkscape:window-x="110"
     inkscape:window-y="110"
     inkscape:showpageshadow="2"
     inkscape:pagecheckerboard="0"
     inkscape:deskcolor="#d1d1d1"
     inkscape:window-maximized="0" />
  <metadata
     id="metadata2701">
    <rdf:RDF>
      <cc:Work
         rdf:about="">
        <dc:format>image/svg+xml</dc:format>
        <dc:type
           rdf:resource="http://purl.org/dc/dcmitype/StillImage" />
      </cc:Work>
    </rdf:RDF>
  </metadata>
  <g
     inkscape:label="Layer 1"
     inkscape:groupmode="layer"
     id="layer1"
     transform="translate(58.387602,52.668742)">
    <path
       style="color:#000000;display:inline;overflow:visible;visibility:visible;fill:url(#radialGradient2658);fill-opacity:1;fill-rule:evenodd;stroke:none;stroke-width:8;stroke-linecap:butt;stroke-linejoin:miter;stroke-miterlimit:4;stroke-dashoffset:0;stroke-opacity:1;marker:none;marker-start:none;marker-mid:none;marker-end:none"
       d="M -58.387602,-52.668742 H 53.755258 V 64.758338 H -58.387602 Z"
       id="rect2647" />
    <path
       style="color:#000000;font-style:normal;font-variant:normal;font-weight:normal;font-stretch:normal;font-size:108.16px;line-height:125%;font-family:'Seaweed Fire AOE';text-align:start;writing-mode:lr-tb;text-anchor:start;display:inline;overflow:visible;visibility:visible;fill:url(#radialGradient2731);fill-opacity:1;fill-rule:nonzero;stroke:url(#radialGradient2733);stroke-width:0.585967;stroke-linecap:butt;stroke-linejoin:miter;stroke-miterlimit:4;stroke-dashoffset:0;stroke-opacity:1;marker:none;marker-start:none;marker-mid:none;marker-end:none"
       d="m -15.425274,-8.2807608 c -0.528151,1.690046 -0.792212,3.679306 -0.792184,5.9677867 -2.8e-5,0.9858768 0.07039,2.49982706 0.211249,4.5418553 0.140804,2.042117 0.211221,3.5736711 0.211249,4.5946671 -2.8e-5,0.7746191 -0.03524,1.4963861 -0.105625,2.1653041 -0.422526,1.1266976 -1.09148,1.8132566 -2.006866,2.0596776 -1.056271,-0.07038 -1.936474,-0.950584 -2.640613,-2.6406126 -0.704187,-1.6899531 -1.390746,-2.5349491 -2.059679,-2.5349891 -0.492936,4e-5 -1.091474,0.264101 -1.795617,0.792184 -0.176061,0.281705 -0.264081,0.5809741 -0.264061,0.8978081 -2e-5,0.704202 0.281645,1.056284 0.844996,1.056246 0.246436,3.8e-5 0.545706,-0.123191 0.897808,-0.369686 -1.443555,3.2743956 -2.042093,7.8866626 -1.795617,13.8368146 0.140813,0.598563 0.457687,0.897832 0.950621,0.897808 1.232265,-0.140809 1.813199,-0.616119 1.742805,-1.425931 -0.633769,-3.415165 -0.105647,-5.334009 1.584368,-5.756537 -0.316897,0.633777 -0.475334,1.302732 -0.47531,2.006866 -2.4e-5,0.668983 0.193621,1.654811 0.580935,2.957487 0.387265,1.267519 0.58091,2.218139 0.580935,2.851863 -2.5e-5,0.668977 -0.140857,1.28512 -0.422498,1.848429 -0.246482,0.316894 -1.32033,0.68658 -3.221549,1.109058 -2.147718,0.492934 -4.224998,0.739391 -6.231848,0.739372 -2.112503,1.9e-5 -3.820098,-0.316855 -5.12279,-0.950621 -0.56334,-0.56331 -0.845005,-1.161849 -0.844997,-1.795617 -8e-6,-0.668933 0.369677,-1.496325 1.109058,-2.482177 0.95061,-1.302677 1.496337,-2.130069 1.637181,-2.482177 0.0352,-0.563303 0.123217,-1.10903 0.264061,-1.63718 0.105613,0.492942 0.01759,1.038668 -0.264061,1.63718 -0.07043,0.985855 0.0352,1.74283 0.316873,2.270928 0.880192,0.84502 1.601959,1.109081 2.165303,0.792184 0.809774,-0.387266 1.232271,-1.126637 1.267495,-2.218116 0.03519,-1.056218 -0.404909,-2.482148 -1.320307,-4.277794 -0.880217,-1.795585 -1.320319,-3.151098 -1.320307,-4.066544 -1.2e-5,-0.844962 0.264049,-1.672353 0.792184,-2.4821766 -0.07043,0.281702 0.0352,0.9682606 0.316874,2.0596776 0.352068,1.267528 0.739357,1.901275 1.16187,1.901242 0.176026,3.3e-5 0.352067,-0.105591 0.528123,-0.316873 0.84498,-1.26746 1.267477,-2.781411 1.267494,-4.5418556 -1.7e-5,-1.9716181 -0.633763,-3.4503601 -1.901242,-4.4362302 -1.126675,-0.281623 -3.450413,-0.404852 -6.971219,-0.369686 -2.957492,0.03525 -5.19321,-0.316831 -6.707159,-1.0562458 -0.668956,-0.4224541 -1.091453,-1.1618252 -1.267494,-2.21811544 0.105624,-1.0561985 0.56333,-2.35889986 1.373119,-3.90810796 1.091451,-1.9363982 1.68999,-3.0278508 1.795617,-3.2743608 0.31687,0.316926 0.475307,0.7042159 0.47531,1.16187 -3e-6,0.2113007 -0.05282,0.5457781 -0.158436,1.0034331 -0.07042,0.4225486 -0.105628,0.7394219 -0.105625,0.9506209 -3e-6,0.3873395 0.140829,0.7218169 0.422498,1.0034331 0.492911,-0.1407836 0.897804,-0.5632814 1.214682,-1.2674945 0.387285,-0.8449453 0.721763,-1.3730675 1.003434,-1.5843681 1.58436,-1.3026495 2.587792,-3.6615955 3.010299,-7.0768447 0.457697,-3.591172 1.24988,-6.00293 2.376552,-7.235281 -0.387301,1.232351 -0.580945,2.376616 -0.580935,3.432798 -10e-6,0.98589 0.193634,1.725261 0.580935,2.218115 0.140822,0.105685 0.281654,0.158497 0.422498,0.158437 0.422487,6e-5 0.915401,-0.492854 1.478744,-1.478744 0.774566,-1.267431 1.26748,-2.024406 1.478744,-2.270927 1.056229,-0.950556 1.866017,-2.622943 2.429364,-5.017166 0.63373,-2.534917 1.337893,-4.277721 2.112491,-5.228415 -0.704182,1.690065 -1.056264,3.133599 -1.056246,4.330606 -1.8e-5,0.457776 0.05279,0.86267 0.158437,1.214683 0.59852,0.563399 0.950602,0.721835 1.056246,0.47531 0.38727,-0.739303 0.792164,-1.496278 1.214682,-2.270928 0.457685,-0.809716 1.003412,-1.320235 1.63718,-1.531555 -0.950642,1.690063 -1.566784,4.154633 -1.848429,7.393717 -0.246477,2.359011 -0.316894,5.386911 -0.211249,9.0837112 0.105604,6.0206484 0.158416,8.62605116 0.158436,7.8162161 0.246437,0.88025136 0.668935,1.53160206 1.267495,1.95405396 0.73935,0.38733544 1.373096,0.0704621 1.901242,-0.9506209 0.07039,-0.4576591 0.105601,-0.96817716 0.105624,-1.53155576 -2.3e-5,-0.4576576 -0.03523,-1.1618205 -0.105624,-2.1124908 -0.07044,-0.9857777 -0.105648,-1.7075447 -0.105625,-2.1653036 -2.3e-5,-2.112436 0.545703,-3.73201 1.637181,-4.8587282 l 0.05281,3.9081082 c 0.140808,0.387343 0.492889,0.845049 1.056245,1.3731186 0.45768,5.21e-5 1.4083,-0.8801516 2.851863,-2.6406136 M -27.20241,-13.086678 c -0.176058,-0.316813 -0.387307,-0.47525 -0.633748,-0.47531 -0.457722,6e-5 -0.915428,0.369746 -1.373119,1.109058 -1.654798,2.218172 -3.291976,4.4362852 -4.911541,6.654346 -1.971666,2.6758713 -2.922286,4.4186745 -2.851863,5.22841476 0.105618,0.4225448 0.475303,0.7394181 1.109058,0.9506209 0.98582,0.2817113 2.077272,-0.1055783 3.274361,-1.16187 0.387278,-0.95057256 1.249877,-2.13004546 2.587801,-3.53842206 -0.316887,1.1619196 -0.316887,2.218164 0,3.1687362 0.316859,0.73941866 0.721753,1.07389606 1.214682,1.00343316 0.950605,-0.88015696 1.425915,-1.98921356 1.425932,-3.32717306 -1.7e-5,-0.5984885 -0.14085,-1.4962962 -0.422498,-2.6934257 -0.246474,-1.197024 -0.369702,-2.112436 -0.369686,-2.746238 -1.6e-5,-0.457651 0.0528,-0.880148 0.158436,-1.2674952 0.246441,-0.63369 0.510502,-1.601914 0.792185,-2.904675 m 66.701896,46.316362 c -1.443585,2.218126 -3.837739,5.386859 -7.182468,9.506209 -1.23233,0.774583 -2.74628,2.182908 -4.541856,4.224981 -0.633786,1.373118 -1.848467,1.848428 -3.644046,1.425932 -1.056281,-0.880206 -1.584403,-2.024471 -1.584369,-3.432798 -3.4e-5,-0.704161 0.140798,-1.689989 0.422499,-2.957487 0.352046,-1.44353 0.545691,-2.429358 0.580935,-2.957487 -0.281701,-1.021029 -0.457742,-2.14769 -0.528123,-3.379986 0.492879,0.915423 0.668919,2.042084 0.528123,3.379986 0.387253,1.2675 0.880168,2.147704 1.478743,2.640613 0.668918,0.28167 1.10902,-0.05281 1.320307,-1.003433 C 26.067527,36.521659 24.447953,31.416478 21.490502,25.360656 17.828821,17.966966 15.645916,13.002618 14.94178,10.467595 l -0.844996,0.158437 c -0.739397,1.478778 -2.623033,3.872932 -5.6509131,7.182469 -2.6406306,2.887096 -4.2426017,5.404479 -4.8059162,7.552155 -0.3168891,0.563351 -1.4611539,1.883656 -3.43279761,3.96092 -1.51396259,1.584384 -2.27093779,2.992709 -2.27092769,4.224982 -1.01e-5,0.739384 0.246447,1.513963 0.7393718,2.323739 0.84498469,-0.211238 1.28508649,-0.933005 1.32030679,-2.165303 -1.22e-5,-1.373105 0.281653,-2.270912 0.8449963,-2.693425 0.17602781,1.654798 0.73935811,3.908119 1.68999271,6.75997 0.3872749,2.464579 0.1936301,3.943321 -0.580935,4.436231 -0.3520956,0.176045 -0.704177,0.264065 -1.05624541,0.264061 -0.8802167,4e-6 -1.7604203,-0.510514 -2.64061359,-1.531556 -0.7393814,-0.844989 -1.4611484,-1.689985 -2.1653031,-2.534989 -5.5981038,-5.774127 -8.3971509,-10.474415 -8.3971509,-14.100876 0,-1.302679 0.264061,-2.60538 0.792184,-3.908108 0.105624,-0.387263 0.158436,-0.809761 0.158437,-1.267494 -1e-6,-0.492887 -0.105626,-1.320278 -0.316874,-2.482177 -0.176041,-1.161839 -0.264062,-2.042043 -0.264061,-2.640614 -1e-6,-0.633714 0.07042,-1.232252 0.211249,-1.795617 0.880203,2.605437 1.7956151,6.63677 2.7462381,12.09401 0.422494,0.845018 1.0914491,1.513973 2.0068661,2.006866 1.0562392,0.176061 1.9012347,-0.105604 2.534989,-0.844996 0.4576982,-0.844974 0.8097797,-2.517361 1.0562455,-5.017166 0.2112401,-2.253295 0.7745704,-3.890474 1.6899926,-4.911541 -0.3873,2.042104 -0.5809448,3.203972 -0.580935,3.48561 -9.8e-6,1.056272 0.3696757,1.936476 1.1090577,2.640614 0.59852749,0.03523 1.12664969,-0.19362 1.58436809,-0.68656 0.4576934,-0.492888 0.89779521,-0.968198 1.32030681,-1.425931 1.9364341,-2.499752 3.6264254,-6.742333 5.0699784,-12.7277577 0.140813,-0.56329 0.29925,-1.109016 0.47531,-1.63718 l -0.47531,1.63718 C 6.4213823,8.4431634 6.6678393,9.6226364 7.5480623,10.361971 8.3578299,10.080342 9.0091809,9.4113874 9.5021159,8.3551044 9.8893839,7.4749394 10.276674,6.5771313 10.663986,5.6616793 10.804796,3.4083982 10.241466,1.2078892 8.9739939,-0.93985514 8.1993929,-2.242509 6.7734643,-4.0205204 4.6962001,-6.2738948 2.6189027,-8.5623708 1.2105769,-10.322779 0.47121839,-11.555122 c 0.4929014,0.669013 0.95060731,1.232343 1.37311911,1.6899932 1.0914385,1.161925 2.0596625,1.778068 2.9046749,1.848429 0.4928969,-0.175986 0.6161259,-0.774524 0.3696859,-1.795617 -2.2181305,-4.9290842 -4.94676171,-7.6049032 -8.185902,-8.0274652 -1.5843756,-0.07035 -3.1863461,-0.140768 -4.8059171,-0.211249 -1.7604111,-0.246393 -2.8870722,-1.108992 -3.3799852,-2.587801 -0.281666,-0.668888 -0.422499,-1.355447 -0.422498,-2.059679 -10e-7,-1.232216 0.457705,-2.640542 1.373119,-4.224982 0.7393691,-1.197003 1.4787401,-2.376476 2.2181151,-3.538422 0.1760371,0.316951 0.2640571,0.651428 0.2640621,1.003433 -5e-6,0.422574 -0.1760451,1.038717 -0.5281231,1.84843 -0.316877,0.809861 -0.475314,1.426004 -0.47531,1.848429 -4e-6,0.563403 0.193641,1.073921 0.580935,1.531556 0.8801991,0.528193 1.8132151,0.633818 2.79905,0.316874 2.0420657,-0.915341 4.1017422,-2.816581 6.17903569,-5.703725 2.18289211,-3.027825 4.18975641,-5.052293 6.02059851,-6.073411 -1.619593,1.795697 -2.4293806,3.327251 -2.4293641,4.594667 -1.65e-5,0.211327 0.017588,0.404971 0.052812,0.580935 0.2464405,0.563407 0.8273748,0.880281 1.7428048,0.950621 1.337891,-0.598462 2.2533026,-1.989184 2.7462376,-4.172169 0.528101,-2.46449 1.1970564,-4.048857 2.0068674,-4.753105 -0.281689,0.528207 -0.598562,1.302787 -0.9506214,2.32374 -0.352104,0.985911 -0.404916,2.182988 -0.158437,3.591235 0.3168514,1.971735 0.4752884,3.098395 0.4753104,3.379985 -2.2e-5,0.915487 -0.211271,1.725275 -0.6337474,2.429364 -0.211271,0.422571 -1.126682,1.478816 -2.7462376,3.168737 -1.232304,1.267563 -1.848447,2.429432 -1.84843,3.485609 -1.7e-5,0.387357 0.0704,0.79225 0.21125,1.214683 0.80977,2.429427 2.270908,5.915033 4.3834176,10.4568292 0.4928924,0.387345 0.8977864,0.492969 1.2146824,0.316874 0.07039,-0.246403 0.105602,-0.510464 0.105625,-0.792184 -2.3e-5,-0.387234 -0.15846,-0.985773 -0.475311,-1.7956172 -0.281687,-0.844939 -0.42252,-1.478685 -0.422498,-1.901242 -2.2e-5,-0.352022 0.05279,-0.668896 0.158437,-0.950621 -1.4435564,1.619635 -2.482197,2.693483 -3.115924,3.221549 0.105605,-0.246401 0.21123,-0.510462 0.316874,-0.792185 0.9153916,-1.091394 2.3413216,-2.658157 4.277794,-4.700292 -0.211273,0.704226 -0.316898,1.478805 -0.316874,2.32374 -2.4e-5,1.619635 0.422474,3.7849362 1.267494,6.4959102 0.704139,2.2181662 1.408302,4.4538835 2.112491,6.70715796 0.704136,0.3521282 1.19705,0.3697323 1.478744,0.0528122 1.197049,-1.37307086 2.006836,-3.67920436 2.429364,-6.91840716 0.422467,-3.3799292 1.109026,-5.6860622 2.059679,-6.9184082 0.07038,0.352142 0.05278,0.880264 -0.05281,1.584368 -0.140866,0.880263 -0.211282,1.461197 -0.211249,1.742805 -3.3e-5,0.8098452 0.22882,1.4259872 0.686559,1.8484302 1.689958,-0.704108 2.534953,-2.4293072 2.534989,-5.1756032 -3.6e-5,-1.408265 -0.475346,-3.344713 -1.425931,-5.80935 -0.950655,-2.499711 -1.425964,-4.400951 -1.425932,-5.703725 -3.2e-5,-0.774507 0.105592,-1.531482 0.316874,-2.270927 0.176008,-1.05617 0.510485,-2.622933 1.003433,-4.700292 -0.105658,5.527757 1.038606,8.784511 3.432798,9.77027 0.844958,0.387358 1.513912,0.492983 2.006866,0.316873 0.598499,-0.563261 0.915372,-1.566693 0.950621,-3.010299 0.07038,-1.443462 0.246416,-2.288458 0.528123,-2.534989 -0.07046,1.443608 0.175999,3.327244 0.739372,5.650913 0.739329,2.922345 1.161826,4.80598 1.267494,5.650913 1.408283,2.288592 2.957441,3.432857 4.64748,3.432797 0.281617,-0.387229 0.42245,-0.844935 0.422498,-1.373119 -4.8e-5,-0.316812 -0.08807,-0.82733 -0.264061,-1.531556 -0.140881,-0.7041 -0.211297,-1.232222 -0.211249,-1.584368 -4.8e-5,-0.422433 0.07037,-0.809723 0.211249,-1.16187 1.795567,3.943378 2.693375,7.252944 2.693425,9.9287072 -5e-5,0.880259 -0.105675,1.637235 -0.316873,2.270928 -0.563381,0.8098405 -1.373168,1.2147342 -2.429365,1.2146822 -0.845043,5.2e-5 -1.549206,-0.246405 -2.11249,-0.7393722 -1.44358,-1.26744 -2.535033,-1.901187 -3.274361,-1.901241 -0.316916,5.4e-5 -0.633789,0.052866 -0.950621,0.158436 -1.760449,0.633802 -3.203983,2.0773355 -4.330606,4.3306066 -1.619612,3.27440766 -2.570232,5.0876272 -2.851863,5.4396639 -0.774614,2.1477415 -1.161903,4.4890836 -1.16187,7.0240327 -3.3e-5,3.7321006 0.79215,7.7458286 2.376552,12.0411966 0.211214,0.316899 0.686523,0.475336 1.425932,0.475311 0.387252,-0.422473 0.633709,-0.968199 0.739371,-1.637181 -0.14087,-1.443507 -0.176078,-2.781416 -0.105624,-4.013732 -3.8e-5,3.168764 0.03517,4.506673 0.105624,4.013732 0.633709,7.569778 3.010259,11.935588 7.129657,13.097444 1.373073,0.07043 2.235672,-0.211236 2.587801,-0.844997 0.844948,-0.950605 1.267446,-2.112474 1.267495,-3.48561 -4.9e-5,-0.633728 -0.123278,-1.584348 -0.369686,-2.851862 -0.211297,-1.302681 -0.316922,-2.270905 -0.316874,-2.904675 -4.8e-5,-1.408302 0.440054,-2.587775 1.320307,-3.538422 1.760358,4.330629 2.640561,8.045088 2.640614,11.143389 -5.3e-5,1.126677 -0.140885,2.112505 -0.422499,2.957487 m -9.08371,-43.992622 c 0.14079,-0.42244 -0.01765,-0.633689 -0.475311,-0.633747 -4.2e-5,0.633805 0.158395,0.845053 0.475311,0.633747 m -3.908108,-4.541855 c 0.03517,-0.492852 -0.17608,-0.739309 -0.633748,-0.739372 -0.774617,6.3e-5 -1.021074,0.33454 -0.739371,1.003433 0.07038,0.633809 0.42246,0.950682 1.056245,0.950621 0.281627,-0.352021 0.387251,-0.756914 0.316874,-1.214682 M 2.7421461,-28.666297 c -1.49e-5,-0.739296 -0.3344923,-1.038566 -1.0034332,-0.897809 -0.6337605,0.633823 -0.88021751,1.408402 -0.73937181,2.32374 0.21123581,0.03528 0.52810911,0.105698 0.95062091,0.211249 0.1408185,-0.07034 0.4048796,-0.616069 0.7921841,-1.63718 m -3.16873631,8.449963 c -0.70417459,-0.985761 -1.42594159,-1.373051 -2.16530309,-1.16187 -0.3168829,0.07048 -0.4753195,0.457774 -0.4753104,1.16187 0.1760316,0.211315 0.4929049,0.422564 0.9506209,0.633747 0.492904,0.176107 0.8801935,0.246523 1.16186989,0.211249 0.4929028,-0.03514 0.6689436,-0.316807 0.5281227,-0.844996 M 19.325199,7.0876104 c 0.281634,-0.7745401 0.03518,-1.1618301 -0.739372,-1.1618701 -0.246488,4e-5 -0.422528,0.176081 -0.528123,0.528123 -0.246487,0.8450351 -0.193675,1.4611781 0.158437,1.8484291 0.140802,0.105663 0.281635,0.158475 0.422498,0.158437 0.352051,3.8e-5 0.580904,-0.457668 0.68656,-1.373119 M 32.158581,35.025301 c -4.5e-5,-0.422486 -0.264106,-0.668943 -0.792184,-0.739372 -0.528166,-0.105612 -0.792227,0.05282 -0.792184,0.475311 0.140789,0.316885 0.440059,0.580946 0.897808,0.792184 0.457662,0.140843 0.686515,-0.0352 0.68656,-0.528123 M -5.2853191,28.95189 c -0.035215,-0.281648 -0.2464639,-0.404876 -0.6337472,-0.369686 -0.4225045,0.03523 -0.6161485,0.211267 -0.5809355,0.528123 0.105619,0.457723 0.36968,0.61616 0.7921845,0.47531 0.2816588,-0.422481 0.4224913,-0.633729 0.4224982,-0.633747"
       id="text2718" />
  </g>
</svg>
