<?xml version="1.0" encoding="UTF-8" standalone="no"?>
<!-- Created with Inkscape (http://www.inkscape.org/) -->

<svg
   width="349.76984"
   height="223.19055"
   id="svg2"
   sodipodi:version="0.32"
   inkscape:version="1.4 (e7c3feb100, 2024-10-09)"
   sodipodi:docname="cassette.svg"
   version="1.1"
   xmlns:inkscape="http://www.inkscape.org/namespaces/inkscape"
   xmlns:sodipodi="http://sodipodi.sourceforge.net/DTD/sodipodi-0.dtd"
   xmlns="http://www.w3.org/2000/svg"
   xmlns:svg="http://www.w3.org/2000/svg"
   xmlns:rdf="http://www.w3.org/1999/02/22-rdf-syntax-ns#"
   xmlns:cc="http://creativecommons.org/ns#"
   xmlns:dc="http://purl.org/dc/elements/1.1/">
  <defs
     id="defs4" />
  <sodipodi:namedview
     id="base"
     pagecolor="#ffffff"
     bordercolor="#666666"
     borderopacity="1.0"
     inkscape:pageopacity="0.0"
     inkscape:pageshadow="2"
     inkscape:zoom="1.2444656"
     inkscape:cx="147.45285"
     inkscape:cy="131.78347"
     inkscape:document-units="px"
     inkscape:current-layer="layer1"
     inkscape:window-width="1239"
     inkscape:window-height="761"
     inkscape:window-x="156"
     inkscape:window-y="141"
     inkscape:showpageshadow="2"
     inkscape:pagecheckerboard="0"
     inkscape:deskcolor="#d1d1d1"
     inkscape:window-maximized="0" />
  <metadata
     id="metadata7">
    <rdf:RDF>
      <cc:Work
         rdf:about="">
        <dc:format>image/svg+xml</dc:format>
        <dc:type
           rdf:resource="http://purl.org/dc/dcmitype/StillImage" />
      </cc:Work>
    </rdf:RDF>
  </metadata>
  <g
     inkscape:label="Layer 1"
     inkscape:groupmode="layer"
     id="layer1"
     transform="translate(172.93329,103.70882)">
    <path
       style="fill:#000002;fill-opacity:0.235294"
       d="m -169.469,116.70331 c -3.69119,-2.70082 -3.78043,-5.74488 -3.1956,-108.993161 0.40438,-71.393681 1.28455,-107.037635 2.68476,-108.724799 2.70352,-3.25753 336.04735,-3.73013 342.11089,-0.48502 4.99448,2.67299 4.91661,10.924442 -0.1286,13.62456 -4.2666,2.283429 -10.60935,0.04177 -12.39035,-4.379024 -0.75576,-1.875934 -1.03119,-1.892131 -1.14858,-0.06751 -0.19429,3.019546 8.27373,8.700379 11.8442,7.945737 1.47006,-0.310702 3.31957,-1.445198 4.11003,-2.521107 0.79046,-1.075908 1.67075,27.973611 1.95619,64.554486 0.90678,116.20396 0.65198,131.202488 -2.32325,136.761788 l -2.70936,5.06246 H 2.8347835 c -142.4952235,0 -169.0927035,-0.42888 -172.3037835,-2.77841 z m 92.242255,-3.57923 3.726534,-4.40144 -4.255901,3.5948 c -5.418214,4.5766 -10.616161,3.58164 -13.760942,-2.63403 -1.873919,-3.70381 -2.472457,-4.03188 -2.494386,-1.36725 -0.07449,9.05651 10.599006,12.1139 16.784695,4.80792 z m 69.6259048,3.06515 c -1.4121196,-0.56509 -3.0993388,-0.49561 -3.7493828,0.15442 -0.650025,0.65004 0.505363,1.11237 2.5675075,1.02743 2.2788712,-0.0939 2.7423919,-0.5574 1.1818753,-1.18185 z m 27.5090132,0.0407 c -1.344886,-0.54266 -3.545606,-0.54266 -4.890491,0 -1.344885,0.54267 -0.244525,0.98669 2.445246,0.98669 2.689769,0 3.79013,-0.44402 2.445245,-0.98669 z m 39.52943,-0.52547 c 0.619018,-1.00157 0.0948,-2.45802 -1.164896,-3.23655 -1.388919,-0.8584 -1.767541,-0.56958 -0.961999,0.73379 0.874459,1.41492 -1.862944,2.40031 -8.011602,2.88394 l -9.339919,0.73463 9.176478,0.35261 c 5.047066,0.19394 9.682938,-0.46687 10.301938,-1.46842 z m 35.714142,-0.62422 c 0.05117,-1.34489 0.665264,-4.20582 1.364643,-6.35764 0.936255,-2.88058 0.655913,-2.7404 -1.062997,0.53158 -3.511647,6.68444 -11.320607,7.91666 -15.722225,2.4809 -3.94557,-4.87257 -4.711069,-3.88622 -1.557328,2.00661 2.360522,4.41068 16.817675,5.55047 16.977907,1.33855 z M 117.87377,97.086439 c -2.46101,-10.814617 -4.49317,-22.523881 -4.5159,-26.020583 l -0.0413,-6.357638 H 2.0792417 -109.15805 l -1.25039,9.122526 c -1.55462,11.342282 -0.16113,13.610942 1.67713,2.730401 l 1.34698,-7.972675 108.36945142,0.06579 108.36944858,0.06579 1.29825,5.172575 c 0.71403,2.844916 1.3854,8.324359 1.49193,12.176521 0.10654,3.852162 0.74336,7.444071 1.41516,7.982025 0.67177,0.537954 2.14968,5.366278 3.28422,10.729629 1.53338,7.24896 1.47728,10.11338 -0.21869,11.16152 -1.34318,0.83014 -0.63551,1.28605 1.72073,1.10854 l 4.00218,-0.30147 z m 46.30389,19.700501 c 0,-0.4062 -1.5405,-1.94671 -3.42334,-3.42334 -3.10264,-2.43326 -3.17183,-2.36407 -0.73858,0.73858 2.55552,3.25853 4.16192,4.29479 4.16192,2.68476 z m -203.194899,-4.64096 c 2.433254,-3.10264 2.364063,-3.17183 -0.738582,-0.73858 -3.258534,2.55552 -4.29479,4.16193 -2.684762,4.16193 0.406204,0 1.946709,-1.54051 3.423344,-3.42335 z m 91.287025,-1.32278 c -0.315378,-0.19272 -2.994213,-1.86484 -5.952961,-3.71581 -3.25601,-2.03695 -5.37954,-2.50315 -5.37954,-1.181 0,1.20144 1.750678,2.64224 3.890386,3.20179 2.139727,0.55955 3.414423,1.78749 2.83269,2.72876 -0.581714,0.94126 0.346423,1.17256 2.062574,0.51403 1.716152,-0.65856 2.862229,-1.35504 2.546851,-1.54777 z m -168.602546,-4.50506 c -0.65002,-0.65002 -1.11237,0.50536 -1.02743,2.56751 0.0939,2.27887 0.5574,2.74239 1.18186,1.18187 0.56508,-1.41212 0.4956,-3.09933 -0.15443,-3.74938 z m 74.718552,2.99136 c 4.613455,-4.61346 2.224646,-17.256218 -3.241398,-17.155043 -2.851058,0.05276 -2.827408,0.284685 0.209294,2.0534 2.028263,1.181347 3.423344,4.330686 3.423344,7.728033 0,7.38941 -7.863284,10.10671 -13.772191,4.75921 -4.552597,-4.12002 -5.188048,-2.54069 -0.759552,1.88781 3.648404,3.6484 10.848714,4.01838 14.140503,0.72659 z m 74.726707,-1.68041 c 0,-1.13941 -0.880288,-1.5276 -1.956197,-0.86265 -1.075908,0.66495 -1.956196,1.5972 -1.956196,2.07165 0,0.47446 0.880288,0.86265 1.956196,0.86265 1.075909,0 1.956197,-0.93225 1.956197,-2.07165 z M 166.92152,107.4364 c -0.95896,-1.55163 -0.0709,-1.91692 2.82154,-1.16053 2.32154,0.60708 3.72767,0.30561 3.12473,-0.66996 -1.37587,-2.22623 -8.69013,-2.34708 -8.69013,-0.1436 0,1.68827 2.03112,4.23843 3.37577,4.23843 0.42215,0 0.13778,-1.01897 -0.63191,-2.26434 z m -326.79663,-2.1371 c -0.49871,-0.80694 -2.12327,-1.46715 -3.61014,-1.46715 -1.48687,0 -3.11143,0.66021 -3.61014,1.46715 -0.49871,0.80693 1.12585,1.46714 3.61014,1.46714 2.48429,0 4.10885,-0.66021 3.61014,-1.46714 z m 322.16107,-2.44525 c 2.65458,-3.618984 2.61307,-3.711042 -0.55354,-1.22763 -1.88284,1.47663 -3.42334,3.604 -3.42334,4.72748 0,1.12348 0.2491,1.67591 0.55354,1.22763 0.30444,-0.4483 1.84495,-2.57566 3.42334,-4.72748 z M 87.146598,98.487975 c 2.55849,0.489089 4.651796,0.131026 4.651796,-0.795683 0,-2.324783 -7.276073,-2.116232 -11.865779,0.340085 -2.08108,1.113761 -3.783793,3.510353 -3.783793,5.325763 0,2.59157 0.681715,2.32745 3.17299,-1.22935 2.245068,-3.205287 4.533368,-4.270006 7.824786,-3.640815 z M -114.26289,97.474509 c -0.54266,-1.344885 -0.98666,-0.244524 -0.98666,2.445246 0,2.689765 0.444,3.790135 0.98666,2.445245 0.54267,-1.34488 0.54267,-3.545606 0,-4.890491 z m 38.593844,3.574601 c -0.587387,-1.530689 -2.49104,-3.329137 -4.230372,-3.996592 -2.598064,-0.996956 -2.51696,-0.500297 0.454424,2.783062 4.261007,4.70833 5.237442,5.02214 3.775948,1.21353 z m 21.002235,-6.508896 c 2.433254,-3.102645 2.364063,-3.171835 -0.738582,-0.738581 -3.258534,2.555516 -4.29479,4.161925 -2.684762,4.161925 0.406204,0 1.946709,-1.540504 3.423344,-3.423344 z M 57.704686,94.079119 c 0,-2.297357 -0.718198,-3.16626 -1.757799,-2.126659 -0.966791,0.966791 -1.166362,2.71479 -0.443469,3.884458 1.839352,2.976119 2.201268,2.68713 2.201268,-1.757799 z M 8.3631122,91.134339 c 1.7423448,-1.742345 3.1904778,-2.095947 3.5963888,-0.878175 0.373751,1.121272 0.697032,-2.783883 0.718374,-8.678118 0.02134,-5.894236 -0.615419,-10.312462 -1.415015,-9.818268 -0.799614,0.494174 -0.902882,2.410836 -0.229481,4.259207 1.049245,2.880049 0.547422,2.801156 -3.5087709,-0.551687 L 2.7914537,71.554905 6.2147976,75.621329 C 10.662836,80.904938 10.582945,87.539281 6.0420068,89.969522 0.18904725,93.101921 -5.8366835,90.307201 -7.7946211,83.552083 -8.9899941,79.427931 -9.6286726,78.720688 -9.7473942,81.389664 -10.194718,91.445688 1.6685382,97.828913 8.3631122,91.134339 Z m 74.1433488,1.621276 c -1.344885,-0.542668 -3.545606,-0.542668 -4.890492,0 -1.344885,0.542669 -0.244524,0.986686 2.445246,0.986686 2.68977,0 3.790131,-0.444017 2.445246,-0.986686 z M -112.42036,86.756176 c -0.65003,-0.650025 -1.11238,0.505364 -1.02744,2.567508 0.0939,2.278871 0.5574,2.742392 1.18186,1.181875 0.56508,-1.412119 0.4956,-3.099359 -0.15442,-3.749383 z m 150.42335,3.382596 c -0.66495,-1.075908 -1.597195,-1.956196 -2.071651,-1.956196 -0.474456,0 -0.862644,0.880288 -0.862644,1.956196 0,1.075908 0.932245,1.956197 2.071652,1.956197 1.139406,0 1.527594,-0.880289 0.862643,-1.956197 z m 17.605769,-1.956196 c 1.947374,-2.151816 3.100532,-3.912393 2.562578,-3.912393 -0.537954,0 -2.571401,1.760577 -4.518775,3.912393 -1.947374,2.151816 -3.100532,3.912393 -2.562578,3.912393 0.537954,0 2.571401,-1.760577 4.518775,-3.912393 z m -93.897432,0 c -0.664951,-1.075908 -1.597196,-1.956197 -2.071652,-1.956197 -0.474456,0 -0.862643,0.880289 -0.862643,1.956197 0,1.075908 0.932245,1.956196 2.071651,1.956196 1.139406,0 1.527594,-0.880288 0.862644,-1.956196 z m -8.802885,-0.768805 c 0,-0.422851 -1.366149,-1.293046 -3.035899,-1.933798 -1.740859,-0.668022 -2.526076,-0.340085 -1.840742,0.768805 1.148796,1.858797 4.876641,2.749336 4.876641,1.164993 z M 1.8133555,72.716143 c 0,-0.975184 -1.76057692,-1.312647 -3.9123931,-0.749947 -2.1518161,0.562719 -3.912393,1.360593 -3.912393,1.773057 0,0.412464 1.7605769,0.749947 3.912393,0.749947 2.15181618,0 3.9123931,-0.797874 3.9123931,-1.773057 z M -96.48552,55.429371 c -8.33829,-0.366689 -21.98276,-0.366689 -30.32105,0 -8.33828,0.366689 -1.51605,0.666711 15.16053,0.666711 16.676573,0 23.498808,-0.300022 15.16052,-0.666711 z m 40.128927,0.07703 c -2.406005,-0.464323 -6.807447,-0.476353 -9.780983,-0.0267 -2.973536,0.449632 -1.004996,0.829545 4.374544,0.844236 5.379541,0.01467 7.812443,-0.353211 5.406439,-0.817534 z m 81.178066,0.03296 c -1.8703,-0.489616 -5.391454,-0.507379 -7.824785,-0.03948 -2.433333,0.467903 -0.903098,0.868512 3.400534,0.890226 4.303632,0.02171 6.294551,-0.361133 4.424251,-0.85075 z M 158.98754,55.416284 c 0.50014,-0.806931 -17.71388,-1.242458 -40.47564,-0.967867 -78.632448,0.948677 -86.145514,1.595278 -23.405617,2.014374 34.634537,0.231359 63.381097,-0.239576 63.881257,-1.046507 z m -6.33557,-4.514627 c 3.40036,-1.819811 3.70091,-4.596241 3.70091,-34.189073 v -32.208422 l -9.29193,-0.192392 c -5.11057,-0.105831 -16.11421,-0.325903 -24.45254,-0.48905 l -15.1606,-0.296657 -0.0299,18.5838671 C 107.40151,12.331056 106.55369,22.014229 105.53389,23.628091 103.93487,26.158607 90.057164,26.654112 4.6823524,27.229018 -49.766187,27.595668 -96.453907,27.358832 -99.068129,26.702704 -103.72329,25.534346 -103.82126,25.08714 -103.82126,5.0069593 V -15.495838 h -25.43055 -25.43056 l 0.0299,30.810094 c 0.0165,16.945552 0.70474,31.871762 1.52946,33.169327 2.11005,3.31988 16.25282,3.660395 168.352126,4.053297 C 102.4048,52.762078 150.23923,52.192903 152.65192,50.901657 Z M -74.08707,46.71121 c -3.433144,-3.433145 -2.871676,-8.308945 1.402222,-12.176776 3.012444,-2.726214 4.561654,-2.958825 7.879579,-1.183127 2.271457,1.215639 3.586745,3.089128 2.92287,4.163295 -0.771113,1.247701 -2.257705,1.081072 -4.116267,-0.461408 -2.332178,-1.935539 -3.261743,-1.85737 -4.686382,0.394056 -0.977433,1.544691 -1.790624,3.416771 -1.807115,4.160204 -0.0599,2.703033 4.117129,3.823093 6.59336,1.767991 3.349009,-2.779423 5.694215,-0.307456 2.901177,3.057965 -2.703679,3.257733 -7.977409,3.389854 -11.089444,0.2778 z m 17.605769,0 c -1.29109,-1.29109 -2.347436,-4.196042 -2.347436,-6.455449 0,-10.218173 11.035413,-10.5885 11.325654,-0.38005 0.228797,8.046991 -4.310655,11.503081 -8.978218,6.835499 z m 5.47735,-3.521154 c 0,-1.075908 -0.880288,-1.956196 -1.956196,-1.956196 -1.075908,0 -1.956197,0.880288 -1.956197,1.956196 0,1.075908 0.880289,1.956197 1.956197,1.956197 1.075908,0 1.956196,-0.880289 1.956196,-1.956197 z m 9.840881,3.949424 c -1.281152,-0.79181 -2.038826,-3.985007 -1.683698,-7.095986 0.520211,-4.557096 1.5961,-5.656322 5.536193,-5.656322 4.044397,0 4.99325,1.0557 5.484412,6.102061 0.456361,4.688671 -0.286407,6.332267 -3.206793,7.095966 -2.090392,0.546659 -4.848942,0.346071 -6.130114,-0.445719 z m 5.808691,-6.883719 c 0,-2.68977 -0.880288,-4.890491 -1.956196,-4.890491 -1.075908,0 -1.956197,2.200721 -1.956197,4.890491 0,2.689771 0.880289,4.890492 1.956197,4.890492 1.075908,0 1.956196,-2.200721 1.956196,-4.890492 z m -68.466881,-0.978098 c 0,-7.623337 0.1745,-7.824786 6.777872,-7.824786 8.152312,0 12.251111,5.422694 8.871704,11.737179 -1.475364,2.756731 -4.095924,3.912393 -8.871704,3.912393 -6.603372,0 -6.777872,-0.201449 -6.777872,-7.824786 z m 11.391562,0.651159 c -0.951788,-4.907647 -5.522969,-5.581517 -5.522969,-0.814169 0,2.402855 1.263097,4.075403 3.077723,4.075403 1.821689,0 2.819623,-1.330937 2.445246,-3.261234 z m 73.70299,5.104812 c -8.849638,-1.111902 -8.306363,-1.258186 5.70558,-1.536259 8.5175924,-0.169016 15.0999393,0.0793 14.6274005,0.551823 -1.74052586,1.740526 -10.8174537,2.179985 -20.3329805,0.984436 z m 49.06982,-1.141108 c -1.645533,-4.288237 3.89686,-12.439649 8.458085,-12.439649 5.06336,0 10.099353,8.063677 7.706416,12.339609 -2.480653,4.432683 -14.473428,4.506882 -16.164501,0.10004 z m 24.043024,2.394835 c -0.134489,-0.627607 -0.464597,-2.021397 -0.733574,-3.097305 -0.268977,-1.075908 -0.599085,-2.836485 -0.733573,-3.912393 -0.134489,-1.075908 -1.564958,-1.956196 -3.17882,-1.956196 -1.613862,0 -2.934294,-1.320433 -2.934294,-2.934295 0,-2.385973 3.216847,-2.934295 17.214529,-2.934295 10.780814,0 18.091844,0.877335 19.561965,2.347436 1.825777,1.825777 2.347436,1.825777 2.347436,0 0,-1.29109 1.320432,-2.347436 2.934294,-2.347436 1.613862,0 2.934295,1.456858 2.934295,3.237486 0,3.012503 0.248594,3.012503 3.577375,0 1.967562,-1.780628 5.185001,-3.237486 7.149881,-3.237486 3.45155,0 3.45077,0.134508 -0.0233,3.973289 -3.370156,3.723973 -3.38917,4.179884 -0.30319,7.265862 2.07887,2.07887 3.29259,2.416979 3.29259,0.917221 0,-1.306465 1.32043,-2.375389 2.93429,-2.375389 1.61387,0 2.9343,1.186472 2.9343,2.6366 0,3.776027 -11.906567,3.685064 -16.114561,-0.123103 -3.16047,-2.860194 -3.447405,-2.850413 -3.447405,0.117606 0,1.780628 -1.320433,3.237486 -2.934295,3.237486 -1.613862,0 -2.934294,-1.056346 -2.934294,-2.347436 0,-1.825777 -0.521659,-1.825777 -2.347436,0 -1.29109,1.29109 -5.692532,2.347436 -9.780983,2.347436 -6.624992,0 -7.433546,-0.531948 -7.433546,-4.890491 0,-6.079018 -5.340476,-6.630333 -6.221586,-0.642278 -0.559746,3.80402 -5.150254,7.563751 -5.760118,4.717681 z m 25.186949,-6.520649 c 0.477547,-1.434244 -0.87082,-2.445245 -3.261253,-2.445245 -2.402855,0 -4.075403,1.263096 -4.075403,3.077723 0,3.595254 6.104194,3.069018 7.336656,-0.632478 z M -84.259291,39.277663 c 0,-1.075908 0.828331,-1.956196 1.840741,-1.956196 1.01241,0 2.3848,0.880288 3.04975,1.956196 0.66495,1.075908 -0.163382,1.956197 -1.840742,1.956197 -1.67736,0 -3.049749,-0.880289 -3.049749,-1.956197 z m 64.554896,-0.30591 c -2.15e-4,-0.706206 -1.898646,-0.787604 -4.218695,-0.180909 -3.004679,0.785745 -3.792909,0.414831 -2.739751,-1.289231 0.997347,-1.613745 5.838249,-2.191508 14.874371,-1.775288 8.928159,0.411251 12.74436584,1.269454 11.44247793,2.57324 C -2.4872643,40.443987 -19.70373,41.0418 -19.704395,38.971753 Z M 111.81179,9.9347161 c 0,-5.3795404 0.68091,-9.78098253 1.51312,-9.78098253 0.83222,0 1.39087,1.54050473 1.24144,3.42334393 -0.17048,2.147982 1.00367,3.3221302 3.15165,3.1516477 4.70172,-0.3731445 4.32757,2.5132235 -0.48905,3.7727988 -5.30221,1.386552 -4.96532,6.783072 0.48905,7.833627 3.93524,0.757948 3.85556,0.875966 -0.75239,1.114152 -4.91597,0.25411 -5.15382,-0.184997 -5.15382,-9.5145869 z m 11.9801,6.8126689 c -0.57258,-1.492108 -0.47854,-3.623072 0.20896,-4.735482 1.95968,-3.1708181 9.42633,-1.152023 11.04938,2.987484 1.33229,3.397952 1.47822,3.337603 1.60318,-0.663229 0.10331,-3.306989 1.30803,-4.4014419 4.84486,-4.4014419 3.75638,0 4.49905,0.7965239 3.67626,3.9428699 -1.51318,5.786449 -4.45174,6.778984 -4.59523,1.552125 -0.12083,-4.401814 -0.16621,-4.412475 -1.78119,-0.418118 -1.95457,4.83427 -13.31303,6.14813 -15.00622,1.735792 z m 5.17424,-0.94408 c 0,-1.075908 -0.93225,-1.956196 -2.07165,-1.956196 -1.13941,0 -1.5276,0.880288 -0.86265,1.956196 0.66495,1.075908 1.5972,1.956197 2.07165,1.956197 0.47446,0 0.86265,-0.880289 0.86265,-1.956197 z M 123.09754,4.0661266 c 0,-2.9302846 1.18616,-3.77039272 4.89049,-3.46381761 2.95908,0.24489624 4.89049,1.61288401 4.89049,3.46381761 0,1.8509531 -1.93141,3.2189213 -4.89049,3.4638176 -3.70433,0.3065751 -4.89049,-0.5335331 -4.89049,-3.4638176 z m -269.95512,-8.8028843 c 0,-1.7931866 1.10036,-2.8935471 2.44525,-2.4452455 2.76932,0.9231095 2.4649,4.0688495 -0.48905,5.053501 -1.07591,0.3586491 -1.9562,-0.8150688 -1.9562,-2.6082555 z m 6.2243,1.094981 c 0.38606,-3.9287467 -0.74445,-5.9854723 -3.29,-5.9854723 -1.61387,0 -2.9343,-0.751336 -2.9343,-1.669614 0,-0.918297 4.84159,-1.653025 10.75908,-1.63272 5.9175,0.02029 10.75908,0.771622 10.75908,1.669614 0,0.897992 -3.13296,1.63272 -6.96214,1.63272 -3.93131,0 -6.45881,0.8144039 -5.80593,1.8707695 0.6359,1.0289203 2.45506,1.3723306 4.04256,0.7631514 3.62489,-1.3910122 16.5503,0.9317755 16.5503,2.9742011 0,0.8351394 -5.2259,1.508071 -11.61314,1.4953949 -6.38721,-0.012676 -11.5647,-0.5157904 -11.50551,-1.1180446 z m 255.41698,0.3127763 c -7.94918,-1.6638234 -2.49824,-3.648013 8.80289,-3.2043085 6.72442,0.2640278 14.35359,0.5561858 16.95371,0.649242 2.6001,0.093076 4.15971,0.7369579 3.46579,1.430899 -1.39483,1.3948072 -23.80969,2.2570987 -29.22239,1.1241675 z m -238.16692,-7.4735316 c 0,-1.376869 2.82815,-2.345871 6.84669,-2.345871 3.76567,0 6.84668,0.695956 6.84668,1.54655 0,0.850613 -3.08101,1.9062545 -6.84668,2.3458707 -4.46289,0.5210329 -6.84669,-0.01743 -6.84669,-1.5465497 z m 234.74358,-0.683573 c 0,-1.022367 3.95987,-1.682583 8.79971,-1.467148 11.45717,0.51 11.45985,3.326004 0.003,3.326004 -4.84158,0 -8.80288,-0.836489 -8.80288,-1.858856 z M 44.849678,20.753284 c 0,-0.394682 -0.534316,-2.110032 -1.187392,-3.811883 -1.030309,-2.684958 -6.593947,-3.094292 -42.058224,-3.094292 -22.478967,0 -40.870834,0.368156 -40.870834,0.8181 0,0.449965 -0.519566,2.172083 -1.154586,3.826927 -0.967985,2.522535 1.324247,3.101687 14.182425,3.583341 18.2606642,0.684043 71.088611,-0.298535 71.088611,-1.322193 z M -74.478309,19.715698 c -1.613862,-1.042966 -3.814583,-1.896278 -4.890491,-1.896278 -1.075908,0 -0.635764,0.853312 0.978098,1.896278 1.613862,1.042966 3.814583,1.896278 4.890491,1.896278 1.075908,0 0.635764,-0.853312 -0.978098,-1.896278 z m 15.899105,-3.423344 c 2.433254,-3.102645 2.364063,-3.171836 -0.738582,-0.738581 -3.258534,2.555516 -4.29479,4.161925 -2.684762,4.161925 0.406204,0 1.946709,-1.540505 3.423344,-3.423344 z m -4.837831,-3.423539 c 5.962663,-2.491353 6.649895,-3.3843175 4.550974,-5.9133666 -2.045282,-2.4643968 -1.962085,-2.7831199 0.481655,-1.845378 3.302431,1.2672828 6.304117,-6.1378404 3.252509,-8.0238486 -0.992457,-0.6133654 -1.399522,-1.7704361 -0.904584,-2.5712442 0.968571,-1.5672068 -11.634988,-1.0084584 -16.126004,0.7149116 -1.590897,0.6104898 -2.211441,2.3742943 -1.493517,4.24514199 0.687759,1.79226721 -0.223456,4.80477071 -2.070751,6.84602271 -3.112309,3.4390717 -3.507167,3.4569317 -6.978047,0.3158279 -3.467045,-3.1376414 -3.604468,-3.1351375 -2.384819,0.043232 1.1924,3.1073204 9.538806,8.8615692 13.119389,9.0448652 0.841477,0.04307 4.690431,-1.242185 8.553195,-2.856164 z m -13.01747,-2.818644 c 0,-3.2388943 2.854482,-3.7035497 5.456673,-0.8882308 2.095341,2.2669578 1.846943,2.7289728 -1.467148,2.7289728 -2.194246,0 -3.989525,-0.828332 -3.989525,-1.840742 z m 158.997891,0.862643 c -0.237678,-2.1518158 0.05575,-2.8120321 0.652059,-1.467147 1.595806,3.599088 6.22585,2.974533 7.250877,-0.9780983 C 90.954608,6.5847296 91.159226,2.451795 90.92102,-0.71673475 90.350594,-8.3044884 82.860278,-11.085144 71.865143,-7.7909281 c -6.590387,1.9745261 -7.369481,2.7545398 -5.273671,5.2798134 1.992738,2.40113342 1.926482,3.30004484 -0.349416,4.7401771 -1.544691,0.9774332 -3.605153,1.7906436 -4.578849,1.8071148 -0.973678,0.016471 -0.179834,1.7874159 1.764078,3.935437 2.89924,3.2036238 4.07421,3.4672798 6.538039,1.4671474 2.511483,-2.0388262 2.801352,-1.8981366 1.769165,0.8586134 -1.364389,3.643964 1.368085,5.465437 7.348628,4.898629 2.655517,-0.251665 3.773562,-1.627673 3.480269,-4.28319 z m 20.972184,-40.102029 c 0,-1.075908 -3.741223,-1.831273 -8.313832,-1.678592 l -8.313835,0.277584 7.824786,1.401008 c 4.303632,0.770546 8.044861,1.525931 8.313831,1.678613 0.26898,0.152661 0.48905,-0.602705 0.48905,-1.678613 z m -190.277333,-1.355624 c -1.903321,-0.495974 -4.544186,-0.463364 -5.86859,0.07248 -1.324404,0.535861 0.232846,0.941654 3.46057,0.901787 3.227725,-0.03987 4.31134,-0.47829 2.40802,-0.974264 z m 64.591711,-0.08226 c -5.110564,-0.402977 -13.473304,-0.402977 -18.583867,0 -5.110563,0.402976 -0.929193,0.732674 9.291933,0.732674 10.221128,0 14.402498,-0.329698 9.291934,-0.732674 z m 25.4305548,0.08942 c -1.8828391,-0.492022 -4.9638486,-0.492022 -6.8466878,0 -1.8828391,0.492043 -0.3423343,0.894628 3.42334393,0.894628 3.76567827,0 5.30618307,-0.402585 3.42334387,-0.894628 z m 21.4809342,-0.0072 c -1.90332,-0.495974 -4.544185,-0.463364 -5.868589,0.07248 -1.324403,0.535861 0.232846,0.941654 3.46057,0.901787 3.227724,-0.03987 4.31134,-0.47829 2.408019,-0.974264 z m 26.44588,0.06008 c -1.344885,-0.542669 -3.545607,-0.542669 -4.890492,0 -1.344885,0.542668 -0.244524,0.986686 2.445246,0.986686 2.68977,0 3.790131,-0.444018 2.445246,-0.986686 z M 155.91719,-59.51026 155.37478,-84.940815 1.3994634,-85.441699 c -147.3265034,-0.479249 -154.0578134,-0.346756 -155.8856434,3.068607 -1.05067,1.963219 -1.59199,5.269622 -1.20292,7.347572 0.38907,2.07795 0.77475,12.140821 0.85707,22.361947 l 0.14966,18.583867 H 0.88862225 156.45963 Z m -39.17729,13.229287 c 5.64852,-0.395152 14.89155,-0.395152 20.54006,0 5.64852,0.395152 1.02701,0.718472 -10.27003,0.718472 -11.29703,0 -15.91855,-0.32332 -10.27003,-0.718472 z M -146.85758,-65.07965 v -10.664322 l 9.29193,-0.852256 c 5.11057,-0.468725 10.0054,-0.240026 10.87741,0.508219 0.87202,0.748246 1.31216,5.664637 0.9781,10.925299 l -0.60738,9.564843 -10.27003,0.59128 -10.27003,0.591279 z m 9.55275,2.635095 c 1.84699,0 4.41449,1.056346 5.70558,2.347436 3.21022,3.210216 2.94578,0.571522 -0.63709,-6.356974 -3.81599,-7.379301 -5.88602,-7.285247 -8.56129,0.389048 -2.11011,6.053118 -2.78465,10.855346 -0.85201,6.065735 0.54267,-1.344885 2.49785,-2.445245 4.34481,-2.445245 z m -0.47919,-4.890491 c 0.61932,-1.613863 1.47196,-2.934295 1.89481,-2.934295 0.42284,0 0.76881,1.320432 0.76881,2.934295 0,1.613862 -0.85267,2.934294 -1.89479,2.934294 -1.04215,0 -1.38812,-1.320432 -0.76883,-2.934294 z m 185.078944,11.366812 c 1.882839,-0.492023 4.963848,-0.492023 6.846687,0 1.88284,0.492042 0.342335,0.894627 -3.423343,0.894627 -3.765679,0 -5.306184,-0.402585 -3.423344,-0.894627 z m 26.443688,-0.06925 c 3.51597,-0.435372 8.7977,-0.426393 11.737179,0.01995 2.939479,0.446365 0.06277,0.802568 -6.392674,0.791594 -6.455449,-0.01097 -8.860475,-0.376176 -5.344505,-0.811547 z m 26.414368,0.235839 c 0.65004,-0.650025 2.33724,-0.719529 3.74938,-0.154423 1.56052,0.624457 1.097,1.087998 -1.18188,1.181856 -2.06214,0.08494 -3.217528,-0.377409 -2.5675,-1.027433 z M -1.6099884,-67.705413 c 1.88283911,-0.492023 4.9638486,-0.492023 6.8466877,0 1.8828392,0.492042 0.3423344,0.894627 -3.4233438,0.894627 -3.7656783,0 -5.3061831,-0.402585 -3.4233439,-0.894627 z M -118.00368,-77.433481 c 1.34488,-0.542668 3.54561,-0.542668 4.89049,0 1.34489,0.542669 0.24452,0.986686 -2.44525,0.986686 -2.68977,0 -3.79013,-0.444017 -2.44524,-0.986686 z m 32.317989,0.113675 c 0.650044,-0.650025 2.337263,-0.719528 3.749383,-0.154422 1.560517,0.624457 1.096996,1.087997 -1.181875,1.181856 -2.062144,0.08494 -3.217533,-0.377409 -2.567508,-1.027434 z m 19.580236,-0.258414 c 5.143036,-0.404306 13.065632,-0.399416 17.605768,0.01084 4.540156,0.410253 0.332221,0.741046 -9.350952,0.73508 -9.683172,-0.0059 -13.397833,-0.341611 -8.254816,-0.745918 z m 30.262027,0.05974 c 2.420793,-0.466279 6.382091,-0.466279 8.802884,0 2.420794,0.466259 0.440145,0.847757 -4.401442,0.847757 -4.841586,0 -6.822235,-0.381498 -4.401442,-0.847757 z m 56.597362,-0.08408 c 22.790257,-0.312737 60.642659,-0.313108 84.116446,-8.41e-4 23.47379,0.312268 4.82721,0.568138 -41.436835,0.568588 -46.264047,4.7e-4 -65.4698669,-0.255009 -42.679611,-0.567747 z M -156.63856,-89.831306 c 2.66719,-4.983704 1.57589,-4.983704 -2.9343,0 -1.94737,2.151816 -2.55491,3.912393 -1.3501,3.912393 1.2048,0 3.13279,-1.760577 4.2844,-3.912393 z m 317.65024,-8.904489 c 0.66802,-1.740855 0.34008,-2.526075 -0.76881,-1.840745 -1.06358,0.657324 -1.93379,2.023492 -1.93379,3.035902 0,2.813852 1.40214,2.193797 2.7026,-1.195157 z m -321.56264,0.310898 c 0,-0.422852 -1.36614,-1.293046 -3.03589,-1.933803 -1.74086,-0.66802 -2.52608,-0.34008 -1.84075,0.76881 1.1488,1.858797 4.87664,2.749336 4.87664,1.164993 z m 330.56926,-1.997823 c -1.26685,-1.26685 -2.58963,-1.26685 -3.85648,0 -1.26688,1.266871 -0.60551,1.928261 1.92824,1.928261 2.53374,0 3.19511,-0.66139 1.92824,-1.928261 z M 4.2586011,-100.90784 c -1.3448851,-0.54267 -3.54560618,-0.54267 -4.89049129,0 -1.34488511,0.54267 -0.24452457,0.986687 2.44524569,0.986687 2.6897702,0 3.7901307,-0.444017 2.4452456,-0.986687 z"
       id="path1317" />
  </g>
</svg>
