<?xml version="1.0" encoding="UTF-8" standalone="no"?>
<!-- Created with Sodipodi ("http://www.sodipodi.com/") -->

<svg
   width="385.0784"
   height="456.03787"
   id="svg1406"
   sodipodi:version="0.32"
   inkscape:version="1.4 (e7c3feb100, 2024-10-09)"
   sodipodi:docname="koopa2.svg"
   version="1.0"
   xmlns:inkscape="http://www.inkscape.org/namespaces/inkscape"
   xmlns:sodipodi="http://sodipodi.sourceforge.net/DTD/sodipodi-0.dtd"
   xmlns:xlink="http://www.w3.org/1999/xlink"
   xmlns="http://www.w3.org/2000/svg"
   xmlns:svg="http://www.w3.org/2000/svg"
   xmlns:rdf="http://www.w3.org/1999/02/22-rdf-syntax-ns#"
   xmlns:cc="http://creativecommons.org/ns#"
   xmlns:dc="http://purl.org/dc/elements/1.1/">
  <metadata
     id="metadata1485">
    <rdf:RDF>
      <cc:Work
         rdf:about="">
        <dc:format>image/svg+xml</dc:format>
        <dc:type
           rdf:resource="http://purl.org/dc/dcmitype/StillImage" />
      </cc:Work>
    </rdf:RDF>
  </metadata>
  <sodipodi:namedview
     inkscape:cy="456"
     inkscape:cx="578"
     inkscape:zoom="0.25"
     inkscape:window-height="789"
     inkscape:window-width="1239"
     inkscape:pageshadow="2"
     inkscape:pageopacity="0.0"
     borderopacity="1.0"
     bordercolor="#666666"
     pagecolor="#ffffff"
     id="base"
     inkscape:window-x="671"
     inkscape:window-y="76"
     inkscape:current-layer="svg1406"
     inkscape:guide-points="true"
     inkscape:showpageshadow="true"
     inkscape:pagecheckerboard="0"
     inkscape:deskcolor="#d1d1d1"
     inkscape:window-maximized="0" />
  <defs
     id="defs1408">
    <linearGradient
       id="linearGradient4135">
      <stop
         style="stop-color:#12ff1c;stop-opacity:1;"
         offset="0"
         id="stop4137" />
      <stop
         style="stop-color:#026e00;stop-opacity:1;"
         offset="1"
         id="stop4139" />
    </linearGradient>
    <radialGradient
       inkscape:collect="always"
       xlink:href="#linearGradient4135"
       id="radialGradient4499"
       gradientUnits="userSpaceOnUse"
       cx="229.10258"
       cy="21.084126"
       fx="229.10258"
       fy="21.084126"
       r="47.140621"
       gradientTransform="translate(-207.41782,263.56106)" />
  </defs>
  <g
     id="g1416"
     transform="rotate(58.478856,57.955047,148.35871)">
    <g
       id="g1628"
       transform="rotate(-68.122039,51.726591,176.55775)">
      <path
         id="path1418"
         d="m 318.066,509.335 c -14.593,0 -26.496,2.668 -26.496,5.94 0,3.271 11.903,5.939 26.496,5.939 14.594,0 26.496,-2.668 26.496,-5.939 0,-3.272 -11.902,-5.94 -26.496,-5.94 z"
         style="fill:#000000;stroke:none" />
      <path
         id="path1420"
         d="m 348.522,424.591 c 17.712,5.184 18.432,35.136 -4.32,50.76 -14.184,36.503 -22.392,46.368 -63.72,38.88 z"
         style="fill:#ffffff;stroke:#000000;stroke-width:7.2;stroke-linejoin:bevel" />
      <path
         id="path1422"
         d="m 349.674,425.958 c -9.504,36.361 -25.272,74.305 -55.08,86.545 -29.808,12.239 -54.648,-30.672 -14.76,-56.232 -60.12,2.088 44.712,-93.384 39.384,-38.232 12.312,-5.977 22.68,-0.36 30.456,7.919 z"
         style="fill:#009933;stroke:#000000;stroke-width:7.2;stroke-linejoin:bevel" />
      <path
         id="path1424"
         d="m 200.058,390.319 -21.6,15.912 23.616,30.6 34.704,-28.584 z"
         style="fill:#ffb200;stroke:#000000;stroke-width:7.2" />
      <path
         id="path1426"
         d="m 161.898,261.079 c -23.976,14.616 -17.208,24.696 -6.192,34.056 -10.296,63.719 34.776,115.128 95.472,120.888 l 47.736,-20.16 -87.192,-155.592 z"
         style="fill:#ffffff;stroke:#000000;stroke-width:7.2" />
      <path
         id="path1428"
         d="m 187.314,385.999 c 18.648,-1.656 42.048,-12.96 54.864,-26.496"
         style="fill:none;stroke:#000000;stroke-width:3.6" />
      <path
         id="path1430"
         d="m 220.074,406.951 c 12.96,-1.873 24.696,-9 34.704,-17.712"
         style="fill:none;stroke:#000000;stroke-width:3.6" />
      <path
         id="path1432"
         d="m 177.162,309.031 c 18,-4.177 27.648,-7.776 38.232,-16.056"
         style="fill:none;stroke:#000000;stroke-width:3.6" />
      <path
         id="path1434"
         d="m 220.722,274.327 c 6.861,0 12.456,7.649 12.456,17.027 0,9.379 -5.595,17.029 -12.456,17.029 -6.86,0 -12.456,-7.65 -12.456,-17.029 0,-9.378 5.596,-17.027 12.456,-17.027 z"
         style="fill:#000000;stroke:#000000;stroke-width:7.2" />
      <path
         id="path1436"
         d="m 230.226,240.271 c 17.352,97.127 44.568,140.112 89.064,145.08 108.432,-131.76 0.792,-192.817 -89.064,-145.08 z"
         style="fill:#009933;stroke:#000000;stroke-width:7.2" />
      <path
         id="path1438"
         d="m 300.642,227.959 -7.2,37.584 -40.896,17.928 m 55.296,86.688 17.928,-62.064 33.048,3.527 m -65.448,-46.151 31.68,43.344"
         style="fill:none;stroke:#000000;stroke-width:5.04" />
      <path
         id="path1440"
         d="m 255.354,372.319 c 4.957,0 9,5.935 9,13.212 0,7.276 -4.043,13.211 -9,13.211 -4.957,0 -9,-5.935 -9,-13.211 0,-7.277 4.043,-13.212 9,-13.212 z"
         style="fill:#000000;stroke:#000000;stroke-width:7.2" />
      <path
         id="path1442"
         d="m 260.538,379.302 c -21.024,13.753 -15.84,54.505 11.52,58.609 13.104,1.944 27.504,-17.208 25.344,-30.169 -2.016,-12.383 -31.824,-31.68 -36.864,-28.44 z"
         style="fill:#ffb200;stroke:#000000;stroke-width:7.2" />
      <path
         id="path1444"
         d="m 239.586,332.647 c -7.2,14.543 -24.984,21.024 -39.6,22.535 -7.272,22.753 -42.12,36.937 -55.08,9.865 -17.928,-5.112 -18.432,-21.384 -7.416,-30.96 -8.136,-15.984 3.312,-27.504 21.024,-23.976 12.096,-12.817 19.296,-11.736 31.536,5.183 h 18.72 c 0.936,-17.711 7.992,-31.391 25.776,-39.672 z"
         style="fill:#ffb200;stroke:#000000;stroke-width:7.2" />
      <path
         id="path1446"
         d="m 343.986,357.703 c 11.952,78.912 -88.56,47.52 -106.488,-12.096 -17.928,-59.545 -5.688,-93.312 -34.416,-98.136 -17.064,-2.88 19.296,-24.696 25.848,-23.112 43.488,10.8 17.856,80.784 38.088,103.968 20.232,23.183 58.968,57.096 76.968,29.376 z"
         style="fill:#ffffff;stroke:#000000;stroke-width:7.2" />
      <path
         id="path1448"
         d="m 187.739,275.118 c 14.351,-5.711 24.555,-14.141 22.715,-18.765 -1.84,-4.624 -15.046,-3.737 -29.397,1.974 -14.351,5.711 -24.556,14.14 -22.716,18.764 1.84,4.624 15.046,3.738 29.398,-1.973 z"
         style="fill:#000000;stroke:#000000;stroke-width:7.2" />
      <path
         id="path1450"
         d="m 152.538,294.703 c 5.4,6.408 15.552,4.176 22.752,-0.289 -6.696,0.216 -14.76,0.073 -19.584,-4.247 z"
         style="fill:#000000;stroke:none" />
      <path
         id="path1452"
         d="m 119.778,115.351 c -92.4477,7.271 -113.75967,122.76 -27.7196,142.632 5.0399,1.152 2.5199,-6.984 4.896,-11.809 18.8636,7.345 37.5836,7.705 60.6956,3.745 4.608,6.192 8.784,16.992 8.424,25.344 11.232,0.432 24.48,-6.192 39.096,-14.112 -3.528,-5.473 -4.104,-11.016 -5.328,-20.664 31.32,-24.264 75.672,-80.064 13.248,-120.6 -4.68,-39.2405 -15.84,-53.7125 -36.36,-54.5765 z"
         style="fill:#ffb200;stroke:#000000;stroke-width:7.2" />
      <path
         id="path1454"
         d="m 106.89,400.398 c 37.44,11.737 49.824,39.672 63.144,81.937 8.064,-3.384 16.2,-9.216 21.528,-23.832 47.448,-1.872 -25.272,-90.864 -24.696,-49.176 -13.968,-36.504 -53.568,-37.656 -59.976,-8.929 z"
         style="fill:#009933;stroke:#000000;stroke-width:7.2;stroke-linejoin:bevel" />
      <path
         id="path1456"
         d="M 167.226,133.279 C 211.002,-40.9615 65.7783,60.5585 119.85,143.791 c 16.56,-10.729 32.832,-15.481 47.376,-10.512 z"
         style="fill:#ffffff;stroke:none" />
      <path
         id="path1458"
         d="M 167.226,133.279 C 211.002,-40.9615 65.7783,60.5585 119.85,143.791"
         style="fill:none;stroke:#000000;stroke-width:7.2" />
      <path
         id="path1460"
         d="m 132.594,469.663 c 4.392,9.36 10.728,18.432 20.088,20.592 5.472,1.296 13.032,-1.944 13.896,-6.912 2.016,-12.024 -6.552,-34.2 -12.888,-41.688 -13.32,-15.912 -23.688,-33.336 -43.56,-39.096 -6.696,-1.872 -14.2557,12.816 -12.1676,19.511 6.4796,21.169 19.1516,33.552 34.6316,47.593 z"
         style="fill:#ffffff;stroke:#000000;stroke-width:7.2" />
      <path
         id="path1462"
         d="m 101.562,414.151 c 17.136,2.088 41.76,33.264 44.208,46.944 9,9.576 10.584,16.344 10.584,26.423"
         style="fill:#ffffff;stroke:#000000;stroke-width:5.76" />
      <path
         id="path1464"
         d="m 134.754,469.159 11.016,-5.832"
         style="fill:#ffffff;stroke:#000000;stroke-width:7.2" />
      <path
         id="path1466"
         d="m 90.6903,151.638 c 11.7357,-2.591 9.216,-15.552 2.736,-16.776 -6.4799,-1.224 -16.848,7.417 -11.52,20.016 2.52,-8.639 5.4721,-16.199 10.008,-14.543 4.536,1.656 1.5841,7.848 -1.224,11.303 z"
         style="fill:#000000;stroke:#000000;stroke-width:0.216" />
      <path
         id="path1468"
         d="m 175.866,135.943 c -24.48,-16.704 -65.808,5.112 -60.408,15.84 13.392,-13.681 28.944,-16.704 60.408,-15.84 z"
         style="fill:#000000;stroke:#000000;stroke-width:0.216" />
      <path
         id="path1470"
         d="m 129.174,83.0225 c 5.176,0 9.396,7.7624 9.396,17.2805 0,9.517 -4.22,17.28 -9.396,17.28 -5.175,0 -9.396,-7.763 -9.396,-17.28 0,-9.5181 4.221,-17.2805 9.396,-17.2805 z"
         style="fill:#000000;stroke:none" />
      <path
         id="path1472"
         d="m 131.37,91.3026 c 2.142,0 3.888,2.5066 3.888,5.5799 0,3.0734 -1.746,5.5805 -3.888,5.5805 -2.141,0 -3.888,-2.5071 -3.888,-5.5805 0,-3.0733 1.747,-5.5799 3.888,-5.5799 z"
         style="fill:#ffffff;stroke:none" />
      <path
         id="path1474"
         d="m 94.3623,258.127 c -1.224,-12.528 8.8557,-32.76 18.5757,-40.464"
         style="fill:none;stroke:#000000;stroke-width:7.2" />
      <path
         id="path1476"
         d="m 128.202,226.519 c -27.792,-4.032 -26.136,-38.592 -18,-47.233 -1.296,19.873 4.824,35.497 18,47.233 z"
         style="fill:#000000;stroke:#000000;stroke-width:0.216" />
      <path
         id="path1478"
         d="m 278.826,452.599 c 3.744,0.864 7.2,0.216 10.008,-0.72 -2.232,3.384 -4.896,6.048 -7.416,7.92 z"
         style="fill:#000000;stroke:none" />
      <path
         id="path1480"
         d="m 315.618,417.174 c -0.216,3.025 -0.648,5.617 -1.08,8.209 2.88,-1.368 5.256,-3.024 7.272,-4.824 z"
         style="fill:#000000;stroke:none" />
      <path
         id="path1482"
         d="m 163.122,409.543 c 1.368,3.6 2.952,8.28 3.6,12.456 3.24,-4.608 3.816,-8.856 3.672,-13.608 z"
         style="fill:#000000;stroke:none" />
    </g>
  </g>
  <circle
     style="fill:url(#radialGradient4499);fill-opacity:1;stroke:#000000;stroke-width:6.6;stroke-miterlimit:4;stroke-dasharray:none;stroke-dashoffset:0;stroke-opacity:1"
     id="path3260"
     cx="47.140621"
     cy="305.8584"
     r="43.840622" />
</svg>
