<?xml version="1.0" encoding="UTF-8" standalone="no"?>
<!-- Created with Inkscape (http://www.inkscape.org/) -->

<svg
   width="65.279198mm"
   height="57.136139mm"
   id="svg1901"
   sodipodi:version="0.32"
   inkscape:version="1.4 (e7c3feb100, 2024-10-09)"
   sodipodi:docname="loading.svg"
   inkscape:output_extension="org.inkscape.output.svg.inkscape"
   sodipodi:modified="true"
   version="1.1"
   xmlns:inkscape="http://www.inkscape.org/namespaces/inkscape"
   xmlns:sodipodi="http://sodipodi.sourceforge.net/DTD/sodipodi-0.dtd"
   xmlns="http://www.w3.org/2000/svg"
   xmlns:svg="http://www.w3.org/2000/svg"
   xmlns:rdf="http://www.w3.org/1999/02/22-rdf-syntax-ns#"
   xmlns:cc="http://creativecommons.org/ns#"
   xmlns:dc="http://purl.org/dc/elements/1.1/">
  <defs
     id="defs1903" />
  <sodipodi:namedview
     id="base"
     pagecolor="#ffffff"
     bordercolor="#666666"
     borderopacity="1.0"
     inkscape:pageopacity="0.0"
     inkscape:pageshadow="2"
     inkscape:zoom="2"
     inkscape:cx="91.75"
     inkscape:cy="61"
     inkscape:document-units="px"
     inkscape:current-layer="layer1"
     gridtolerance="10000"
     inkscape:window-width="1239"
     inkscape:window-height="761"
     inkscape:window-x="671"
     inkscape:window-y="198"
     inkscape:showpageshadow="2"
     inkscape:pagecheckerboard="0"
     inkscape:deskcolor="#d1d1d1"
     inkscape:window-maximized="0" />
  <metadata
     id="metadata1906">
    <rdf:RDF>
      <cc:Work
         rdf:about="">
        <dc:format>image/svg+xml</dc:format>
        <dc:type
           rdf:resource="http://purl.org/dc/dcmitype/StillImage" />
      </cc:Work>
    </rdf:RDF>
  </metadata>
  <g
     inkscape:label="Taso 1"
     inkscape:groupmode="layer"
     id="layer1"
     style="opacity:1"
     transform="translate(121.45711,115.36408)">
    <path
       style="color:#000000;display:inline;overflow:visible;visibility:visible;opacity:1;fill:#000000;fill-opacity:1;fill-rule:evenodd;stroke:#929200;stroke-width:2;stroke-linecap:butt;stroke-linejoin:miter;stroke-miterlimit:4;stroke-dasharray:none;stroke-dashoffset:0;stroke-opacity:1;marker:none;marker-start:none;marker-mid:none;marker-end:none;enable-background:accumulate"
       d="m -51.967273,37.018591 c -2.200305,7.952401 1.481313,20.390433 -2.693669,27.668931 -4.054329,5.413777 -11.3602,6.317643 -17.518721,7.746142 -21.194125,2.906051 -33.236637,-3.532251 -37.441037,3.560756 -2.79427,5.01585 0.10632,11.651387 5.1844,13.919315 6.173165,3.277251 12.846567,6.275806 19.87401,6.875279 5.349541,0.32715 -0.883005,0.496533 13.417143,-7.23282 7.46696,-6.208423 10.392211,-16.064258 16.897864,-23.064118 7.360791,-6.752162 17.77666,-8.382906 27.399821,-8.781794 10.633691,0.742199 21.1203949,2.87193 31.6095476,4.623779 4.7166925,1.159013 9.4333914,2.318033 14.1500844,3.477054 -13.5747917,1.114375 -27.0835527,-1.040296 -40.418731,-3.348191 -4.773475,0.01251 -11.010723,-1.889377 -15.56066,-0.445667 -5.590394,1.533982 -9.202456,3.836357 -11.96672,8.977415 -5.037415,7.108363 -8.442124,16.304363 -16.6837,20.368185 -5.703802,1.681829 -11.772048,6.168675 -15.845147,7.232361 -6.818533,1.322097 -9.754216,1.414182 -19.253872,-0.221459 -6.06122,-2.012113 -12.3517,-4.383645 -17.04895,-8.831854 -3.88115,-4.74363 -3.55622,-12.785455 2.02488,-16.132464 4.67465,-2.884389 10.61324,-3.697461 16.070717,-3.996123 9.412105,-0.602189 19.156895,3.334548 28.278515,0.937365 4.379761,-1.261496 8.372994,-4.513156 9.453932,-9.127782 1.955499,-6.061847 2.651086,-14.621727 3.850545,-20.867273 3.284234,-0.595616 2.935518,-2.741411 6.219748,-3.337037 z"
       id="path10712"
       sodipodi:nodetypes="cccccccccccccccccccccccc" />
    <path
       style="color:#000000;display:inline;overflow:visible;visibility:visible;opacity:1;fill:#ffff80;fill-opacity:1;fill-rule:evenodd;stroke:none;stroke-width:23.2028;stroke-linecap:butt;stroke-linejoin:miter;stroke-miterlimit:4;stroke-dasharray:none;stroke-dashoffset:0;stroke-opacity:1;marker:none;marker-start:none;marker-mid:none;marker-end:none;enable-background:accumulate"
       d="m -72.418396,-89.220621 -27.549,85.5401319 174.939214,56.3408111 27.549002,-85.54013 z m 24.09574,47.512911 101.401093,32.302236 -6.181432,22.499683 -102.58384,-33.038087 z"
       id="rect9884"
       sodipodi:nodetypes="cccccccccc" />
    <path
       style="fill:#000000;stroke:#8c8c00;stroke-width:2;stroke-miterlimit:4;stroke-dasharray:none;stroke-opacity:1"
       d="m 15.20636,-68.622063 c -89.87981,-28.946632 -91.679263,-29.48859 -93.806529,-28.813717 l -2.170008,0.676501 -17.308037,52.50192 c -18.631236,56.540298 -20.289276,62.227794 -19.043976,64.986682 l 0.79233,1.741467 92.212902,29.698027 92.233005,29.704501 1.992875,-1.021929 c 1.828596,-0.93769 2.243693,-1.725574 5.151658,-9.52129 1.743073,-4.672817 10.078102,-30.660017 18.510001,-57.749403 l 15.324649,-49.236412 -1.12618,-1.738068 c -1.09336,-1.673247 -3.50674,-2.482571 -92.76269,-31.228279 z m 90.66051,30.041035 c 0.15772,0.0433 0.27991,0.114387 0.38256,0.189756 0.36532,0.268227 -0.39531,0.644564 -1.71422,0.845475 -1.31891,0.200911 -2.32023,0.10973 -2.21904,-0.204446 0.21942,-0.681312 2.44667,-1.133854 3.5507,-0.830785 z M -74.840703,-95.47077 c 0.62079,0.193952 1.038792,0.631799 0.924865,0.985544 -0.252622,0.784401 -0.325164,0.761038 -1.286313,-0.414274 -0.652867,-0.798335 -0.603137,-0.872627 0.361448,-0.57127 z m 10.646021,10.682616 32.864118,10.850401 c 18.066986,5.965291 52.397363,17.106003 76.277342,24.832033 29.934219,9.684794 43.426849,14.008206 43.426849,14.008206 l 2.684947,5.301391 c 2.419205,4.770031 2.615478,5.607561 1.913631,8.247393 -0.429287,1.61468 -5.559889,17.5941397 -11.417652,35.520902 L 70.901745,46.567174 57.058842,41.953652 C 49.45425,39.411105 43.193997,37.231916 43.133507,37.113935 43.072997,36.995945 11.927908,26.87499 -26.068408,14.62716 -64.064724,2.3793297 -95.737234,-8.0216369 -96.465338,-8.4884988 c -0.904608,-0.5800475 -1.16952,-1.3279707 -0.832175,-2.3754322 1.893369,-5.814691 2.275167,-6.973178 3.812587,-11.838143 l 9.029807,-28.037705 9.029799,-28.037705 5.625371,-3.002097 z m 65.0826377,53.392605 c -20.8489987,-6.675113 -39.0633327,-12.182072 -41.7167747,-12.636677 -5.928062,-1.015662 -9.933022,0.127798 -13.888746,4.001058 -6.316516,6.184865 -6.366585,17.118385 -0.08673,23.619568 2.027057,2.098495 3.357898,2.672564 16.574582,7.2901382 21.712281,7.5857245 31.588189,10.7851431 54.990763,17.7768398 0,0 16.204847,4.804778 21.413319,6.386141 C 45.1858,17.170293 52.063218,9.195567 53.588854,-0.4471936 55.84304,-7.9650532 50.837095,-14.995635 46.355331,-16.353056 38.455847,-19.102361 17.923011,-25.946563 0.8879587,-31.395549 Z m -39.9267207,-8.00061 c 1.708892,0.584559 2.617545,1.309216 4.036058,2.897054 2.648301,2.964387 3.490542,6.022071 1.934439,7.011822 -0.559498,0.355887 -1.315686,1.798267 -1.676794,3.208966 -0.526037,2.05496 -0.839881,2.454121 -1.635211,2.046641 -0.568745,-0.291368 -1.315769,-0.0014 -1.749297,0.678893 -0.493816,0.774944 -0.448266,1.297553 0.142019,1.487659 1.418643,0.456887 0.737224,1.350232 -2.101586,2.805957 -2.911339,1.492903 -3.636628,1.490265 -3.719653,-0.02223 -0.07476,-1.361731 -2.676526,-1.485244 -2.993024,-0.143146 -0.330224,1.400232 -1.287377,1.276345 -3.657642,-0.490292 -1.39208,-1.037545 -1.878031,-1.883219 -1.590811,-2.775043 0.227363,-0.705948 0.284796,-1.752184 0.129844,-2.331806 -0.2372,-0.88731 -0.424887,-0.947755 -1.145628,-0.368959 -0.691008,0.554923 -0.943778,0.376918 -1.384415,-0.86735 -0.950571,-2.684219 -0.137417,-5.965064 2.425711,-9.667154 3.039594,-4.390277 5.637096,-5.332971 10.970325,-4.031444 0.796694,0.194426 1.446034,0.365574 2.015665,0.560431 z m 79.900225,25.843531 c 1.642759,0.480057 3.157739,1.34863 4.513668,2.585022 3.313653,3.0215255 4.135587,5.886465 2.818722,9.9142561 -0.967134,2.9581375 -1.164793,3.1569608 -2.438153,2.5422793 -1.034707,-0.4994743 -1.488169,-0.3385542 -1.796649,0.6192762 -0.226647,0.7037662 -0.008,1.5127587 0.48574,1.7980079 0.75533,0.4363674 0.591677,0.7803926 -1.065973,2.2077832 C 41.147442,8.0354215 39.219951,8.3987094 38.866772,6.9679244 38.480118,5.401521 35.76965,5.7357071 35.678877,7.3609703 35.636782,8.1146822 35.511644,8.669102 35.397465,8.57916 35.283294,8.4892142 34.497907,8.0660743 33.658423,7.6419674 29.85258,5.719275 29.338637,5.2478014 30.059101,4.3531654 31.060712,3.1094467 30.175248,1.0680307 28.862429,1.5941427 c -1.447812,0.5802212 -2.0722,-1.408716 -1.476988,-4.7127052 0.403176,-2.2380489 0.6318,-2.6174845 1.327936,-2.0568671 0.544955,0.438862 1.134237,0.2617364 1.630745,-0.5174225 0.582849,-0.9146505 0.463838,-1.3147212 -0.477225,-1.6177996 -3.178915,-1.0237997 -0.607743,-4.8428923 4.164013,-6.1791123 2.404263,-0.673263 4.718438,-0.680082 6.83055,-0.06286 z m -60.953965,-19.098394 20.3620386,6.757436 20.3685094,6.737337 -0.598231,1.582005 c -0.331177,0.869411 -1.40555,3.957389 -2.387496,6.862174 l -1.789262,5.2801691 -20.2595035,-6.5247631 -20.2595055,-6.524764 2.278489,-7.074746 z m -16.144146,-0.429941 c -0.07817,-0.01432 -0.179327,0.02484 -0.292969,0.08311 -0.421334,0.216045 -0.682408,0.753325 -0.568586,1.214434 0.310066,1.256074 0.659513,1.144831 1.011762,-0.317471 0.140408,-0.582849 0.08432,-0.937134 -0.150207,-0.980076 z m -15.162355,-1.067635 c -0.233567,-0.08261 -0.617726,0.04353 -0.97804,0.350515 -0.558072,0.475491 -0.644824,1.004968 -0.25212,1.471642 0.653079,0.776086 1.899595,-0.713024 1.405254,-1.677032 -0.03853,-0.07515 -0.09724,-0.117587 -0.175094,-0.145125 z m 3.488222,64.523565 c 1.337765,0.497908 2.463688,1.359817 2.693876,2.242958 0.370679,1.422098 -0.914686,4.798138 -2.042032,5.37623 -1.32006,0.676927 -5.493392,-0.667148 -6.170306,-1.987205 -0.28778,-0.561181 -0.157332,-2.12891 0.278398,-3.481865 0.670913,-2.083177 1.101031,-2.486406 2.758374,-2.572251 0.809249,-0.04192 1.679031,0.123387 2.48169,0.422133 z M 6.0389235,48.21583 C 7.1724784,48.580898 8.215012,49.187262 8.552948,49.846279 9.195764,51.0998 8.47323,53.568518 7.0423492,54.949988 5.6676104,56.277242 1.0370612,54.969557 0.941532,53.229186 0.8381269,51.345332 1.9366675,48.62471 3.025801,48.066212 3.6848215,47.72827 4.9053687,47.850753 6.0389235,48.21583 Z m 18.3984525,8.032811 c 1.982458,0.638474 3.649095,3.960818 2.99902,5.97931 -1.212852,3.765951 -6.790368,4.383775 -8.350929,0.926401 -1.470085,-3.256891 2.158251,-7.934256 5.351909,-6.905711 z m -92.86901,-29.864964 c 1.160462,0.386685 2.178201,1.114803 2.584873,2.030386 1.67854,3.779045 -1.830056,8.106504 -5.592414,6.894804 -0.884339,-0.28481 -2.000315,-1.283104 -2.479941,-2.218428 -1.113403,-2.171267 -0.03315,-5.763892 2.021964,-6.691511 0.994226,-0.448766 2.30506,-0.401937 3.465518,-0.01525 z M -112.35658,14.610862 c 1.33835,0.476899 2.7989,1.57249 2.60633,2.170397 -0.11762,0.365224 -0.75308,0.119407 -1.55543,-0.611859 -1.03662,-0.944817 -1.6517,-1.110083 -2.605,-0.728048 -0.88751,0.355671 -1.17439,0.271377 -1.00426,-0.25688 0.13145,-0.408155 0.7237,-0.761965 1.32075,-0.794727 0.35229,-0.01934 0.79149,0.06215 1.23761,0.221117 z M 69.651236,73.93805 c 0.455038,0.131258 0.859256,0.321398 1.134039,0.542694 0.465727,0.375056 0.74018,1.007962 0.608723,1.416133 -0.170131,0.52827 -0.452286,0.429287 -0.965414,-0.377475 -0.551188,-0.866565 -1.147107,-1.091329 -2.540272,-0.929033 -1.07831,0.125603 -1.737784,-0.04566 -1.620166,-0.410868 0.192559,-0.597899 2.017972,-0.635231 3.38309,-0.241451 z"
       id="path9498"
       sodipodi:nodetypes="cccccccccscccccsssccsscccsccscccszscccccccsssscsccccssssssssssssssssccsssssssssssssssssccccccccccccsssccsssccsssssccssssccssccssssccsssssccsssssc" />
    <path
       style="opacity:1;fill:none;stroke:none;stroke-opacity:1"
       d="m 31.37855,-86.40694 c -89.87981,-28.94663 -91.679263,-29.48859 -93.806529,-28.81372 l -2.170008,0.6765 -17.308037,52.501923 C -100.53726,-5.501939 -102.1953,0.18555703 -100.95,2.944445 l 0.79233,1.741467 92.2128999,29.698027 92.2330101,29.704501 1.99287,-1.021929 c 1.8286,-0.93769 2.24369,-1.725574 5.15166,-9.52129 1.74307,-4.672817 10.0781,-30.660017 18.51,-57.749403 l 15.32465,-49.236412 -1.12618,-1.738068 c -1.09336,-1.673247 -3.50674,-2.482571 -92.76269,-31.228278 z m 90.66051,30.041034 c 0.15772,0.0433 0.27991,0.114387 0.38256,0.189756 0.36532,0.268227 -0.39531,0.644564 -1.71422,0.845475 -1.31891,0.200911 -2.32023,0.10973 -2.21904,-0.204446 0.21942,-0.681312 2.44667,-1.133854 3.5507,-0.830785 z M -58.668513,-113.25565 c 0.62079,0.19395 1.038792,0.6318 0.924865,0.98555 -0.252622,0.7844 -0.325164,0.76103 -1.286313,-0.41428 -0.652867,-0.79833 -0.603137,-0.87262 0.361448,-0.57127 z m 10.646021,10.68262 32.864122,10.8504 c 18.0669799,5.96529 52.39736,17.106002 76.27734,24.832032 29.93422,9.684794 43.42685,14.008206 43.42685,14.008206 l 2.68494,5.301391 c 2.41921,4.770031 2.61548,5.607561 1.91363,8.247393 -0.42928,1.61468 -5.55988,17.59414 -11.41765,35.520902 L 87.07393,28.782296 73.23103,24.168774 C 65.62644,21.626227 59.36619,19.447038 59.3057,19.329057 59.24519,19.211067 28.1001,9.090112 -9.8962201,-3.157718 -47.892534,-15.405548 -79.565044,-25.806515 -80.293148,-26.273377 c -0.904608,-0.580047 -1.16952,-1.32797 -0.832175,-2.375432 1.893369,-5.814691 2.275167,-6.973178 3.812587,-11.838143 l 9.029807,-28.037705 9.029799,-28.037703 5.625371,-3.0021 z m 65.082642,53.392603 c -20.8490001,-6.675113 -39.063337,-12.182072 -41.716779,-12.636677 -5.928062,-1.015662 -9.933022,0.127798 -13.888746,4.001058 -6.316516,6.184865 -6.366585,17.118385 -0.08673,23.619568 2.027057,2.098495 3.357898,2.672564 16.574582,7.290138 21.71227587,7.585725 31.5881859,10.785143 54.990766,17.77684 0,0 16.20484,4.804778 21.41332,6.386141 7.01143,2.12877403 13.88884,-5.845952 15.41448,-15.488713 2.25419,-7.517859 -2.75176,-14.548441 -7.23352,-15.905862 -7.89949,-2.749305 -28.43232,-9.593507 -45.46737,-15.042493 z m -39.926725,-8.00061 c 1.708892,0.584559 2.617545,1.309216 4.036055,2.897054 2.6483,2.964387 3.49054,6.022071 1.93444,7.011822 -0.5595,0.355887 -1.31568,1.798267 -1.67679,3.208966 -0.52604,2.05496 -0.83988,2.454121 -1.63521,2.046641 -0.568748,-0.291368 -1.315772,-0.0014 -1.7493,0.678893 -0.493816,0.774944 -0.448266,1.297553 0.142019,1.487659 1.418641,0.456887 0.737224,1.350232 -2.101586,2.805957 -2.911339,1.492903 -3.636628,1.490265 -3.719653,-0.02223 -0.07476,-1.361731 -2.676526,-1.485244 -2.993024,-0.143146 -0.330224,1.400232 -1.287377,1.276345 -3.657642,-0.490292 -1.39208,-1.037545 -1.878031,-1.883219 -1.590811,-2.775043 0.227363,-0.705948 0.284796,-1.752184 0.129844,-2.331806 -0.2372,-0.88731 -0.424887,-0.947755 -1.145628,-0.368959 -0.691008,0.554923 -0.943778,0.376918 -1.384415,-0.86735 -0.950571,-2.684219 -0.137417,-5.965064 2.425711,-9.667154 3.039594,-4.390277 5.637096,-5.332971 10.970325,-4.031444 0.796694,0.194426 1.446034,0.365574 2.015665,0.560432 z m 79.900225,25.843531 c 1.64276,0.480057 3.15774,1.34863 4.51367,2.585022 3.31365,3.021526 4.13558,5.886465 2.81872,9.914256 -0.96713,2.958138 -1.16479,3.156961 -2.43815,2.542279 -1.03471,-0.499474 -1.48817,-0.338554 -1.79665,0.619277 -0.22665,0.703766 -0.008,1.512758 0.48574,1.798008 0.75533,0.436367 0.59167,0.780392 -1.06598,2.207783 -2.23137,1.921425 -4.15886,2.284712 -4.51204,0.853927 -0.38665,-1.566403 -3.09712,-1.232217 -3.18789,0.393046 -0.0421,0.753712 -0.16724,1.308132 -0.28142,1.21819 -0.11417,-0.089946 -0.89955,-0.513086 -1.73904,-0.937193 -3.80584,-1.922692 -4.31978,-2.394166 -3.59932,-3.288802 1.00161,-1.243718 0.11615,-3.285134 -1.19667,-2.759022 -1.44781,0.580221 -2.0722,-1.408716 -1.47699,-4.712705 0.40318,-2.238049 0.6318,-2.617485 1.32794,-2.056868 0.54495,0.438862 1.13423,0.261737 1.63074,-0.517422 0.58285,-0.914651 0.46384,-1.314721 -0.47722,-1.6178 -3.17892,-1.023799 -0.60775,-4.842892 4.16401,-6.179112 2.40426,-0.673263 4.71844,-0.680082 6.83055,-0.06286 z M -3.9203201,-50.4359 l 20.3620401,6.757436 20.36851,6.737337 -0.59823,1.582005 c -0.33118,0.869411 -1.40555,3.957389 -2.38749,6.862174 l -1.78927,5.280169 -20.2595,-6.524763 -20.2595101,-6.524764 2.27849,-7.074746 z M -20.06446,-50.865841 c -0.07818,-0.01432 -0.17933,0.02484 -0.29297,0.08311 -0.421334,0.216045 -0.682408,0.753325 -0.568586,1.214434 0.310066,1.256074 0.659516,1.144831 1.011766,-0.317471 0.1404,-0.582849 0.08432,-0.937134 -0.15021,-0.980076 z m -15.162356,-1.067635 c -0.233567,-0.08261 -0.617726,0.04353 -0.97804,0.350515 -0.558072,0.475491 -0.644824,1.004968 -0.25212,1.471642 0.653079,0.776086 1.899595,-0.713024 1.405254,-1.677032 -0.03853,-0.07515 -0.09724,-0.117587 -0.175094,-0.145125 z m 3.488222,64.523565 c 1.337765,0.497908 2.463688,1.359817 2.693876,2.242958 0.370679,1.422098 -0.914686,4.798138 -2.042032,5.37623 -1.32006,0.676927 -5.493392,-0.667148 -6.170306,-1.987205 -0.28778,-0.561181 -0.157332,-2.12891 0.278398,-3.481865 0.670913,-2.083177 1.101031,-2.486406 2.758374,-2.572251 0.809249,-0.04192 1.679031,0.123387 2.48169,0.422133 z M 22.21111,30.430952 c 1.13356,0.365068 2.17609,0.971432 2.51403,1.630449 0.64281,1.253521 -0.07972,3.722239 -1.5106,5.103709 -1.37474,1.327254 -6.00529,0.01957 -6.10082,-1.720802 -0.1034,-1.883854 0.99514,-4.604476 2.08427,-5.162974 0.65902,-0.337942 1.87957,-0.215459 3.01312,0.149618 z m 18.39846,8.032811 c 1.98245,0.638474 3.64909,3.960818 2.99902,5.97931 -1.21286,3.765951 -6.79037,4.383775 -8.35093,0.926401 -1.47009,-3.256891 2.15825,-7.934256 5.35191,-6.905711 z M -52.259444,8.598799 c 1.160462,0.386685 2.178201,1.114803 2.584873,2.030386 1.67854,3.779045 -1.830056,8.106504 -5.592414,6.894804 -0.884339,-0.28481 -2.000315,-1.283104 -2.479941,-2.218428 -1.113403,-2.171267 -0.03315,-5.763892 2.021964,-6.691511 0.994226,-0.448766 2.30506,-0.401937 3.465518,-0.015251 z M -96.18439,-3.174016 c 1.33835,0.476899 2.7989,1.57249 2.60633,2.170397 -0.11762,0.36522403 -0.75308,0.11940703 -1.55543,-0.611859 -1.03662,-0.944817 -1.6517,-1.110083 -2.605,-0.728048 -0.88751,0.355671 -1.17439,0.271377 -1.00426,-0.25688 0.13145,-0.408155 0.7237,-0.761965 1.32075,-0.794727 0.35229,-0.01934 0.79149,0.06215 1.23761,0.221117 z M 85.82343,56.153172 c 0.45503,0.131258 0.85925,0.321398 1.13403,0.542694 0.46573,0.375056 0.74018,1.007962 0.60873,1.416133 -0.17013,0.52827 -0.45229,0.429287 -0.96542,-0.377475 -0.55118,-0.866565 -1.1471,-1.091329 -2.54027,-0.929033 -1.07831,0.125603 -1.73778,-0.04566 -1.62016,-0.410868 0.19255,-0.597899 2.01797,-0.635231 3.38309,-0.241451 z"
       id="path3264"
       sodipodi:nodetypes="cccccccccscccccsssccsscccsccscccszscccccccsssscsccccssssssssssssssssccsssssssssssssssssccccccccccccsssccsssccsssssccssssccssccssssccsssssccsssssc" />
  </g>
</svg>
