<?xml version="1.0" encoding="UTF-8" standalone="no"?>
<!-- Created with Inkscape (http://www.inkscape.org/) -->

<svg
   version="1.0"
   width="571.96667"
   height="138.93883"
   id="svg2"
   sodipodi:version="0.32"
   inkscape:version="1.4 (e7c3feb100, 2024-10-09)"
   sodipodi:docname="logo.svg"
   xmlns:inkscape="http://www.inkscape.org/namespaces/inkscape"
   xmlns:sodipodi="http://sodipodi.sourceforge.net/DTD/sodipodi-0.dtd"
   xmlns:xlink="http://www.w3.org/1999/xlink"
   xmlns="http://www.w3.org/2000/svg"
   xmlns:svg="http://www.w3.org/2000/svg"
   xmlns:rdf="http://www.w3.org/1999/02/22-rdf-syntax-ns#"
   xmlns:cc="http://creativecommons.org/ns#"
   xmlns:dc="http://purl.org/dc/elements/1.1/">
  <metadata
     id="metadata2595">
    <rdf:RDF>
      <cc:Work
         rdf:about="">
        <dc:format>image/svg+xml</dc:format>
        <dc:type
           rdf:resource="http://purl.org/dc/dcmitype/StillImage" />
      </cc:Work>
    </rdf:RDF>
  </metadata>
  <sodipodi:namedview
     inkscape:window-height="761"
     inkscape:window-width="1239"
     inkscape:pageshadow="2"
     inkscape:pageopacity="0.0"
     borderopacity="1.0"
     bordercolor="#666666"
     pagecolor="#ffffff"
     id="base"
     inkscape:zoom="0.70811644"
     inkscape:cx="209.71127"
     inkscape:cy="87.556222"
     inkscape:window-x="671"
     inkscape:window-y="116"
     inkscape:current-layer="svg2"
     inkscape:showpageshadow="2"
     inkscape:pagecheckerboard="0"
     inkscape:deskcolor="#d1d1d1"
     inkscape:window-maximized="0" />
  <defs
     id="defs4">
    <linearGradient
       id="linearGradient7874">
      <stop
         style="stop-color:yellow;stop-opacity:0.40206185"
         offset="0"
         id="stop7876" />
      <stop
         style="stop-color:#f10;stop-opacity:0"
         offset="1"
         id="stop7878" />
    </linearGradient>
    <linearGradient
       id="linearGradient2762">
      <stop
         style="stop-color:yellow;stop-opacity:1"
         offset="0"
         id="stop2764" />
      <stop
         style="stop-color:#f10;stop-opacity:0.14432989"
         offset="1"
         id="stop2766" />
    </linearGradient>
    <radialGradient
       cx="431.67523"
       cy="198.44926"
       r="340.46094"
       fx="431.67523"
       fy="198.44926"
       id="radialGradient3671"
       xlink:href="#linearGradient2762"
       gradientUnits="userSpaceOnUse"
       gradientTransform="matrix(6.959562,0.01257299,-1.615974e-4,0.08944947,-2814.294,-20.09596)" />
    <radialGradient
       cx="431.67523"
       cy="198.44926"
       r="340.46094"
       fx="431.67523"
       fy="198.44926"
       id="radialGradient3731"
       xlink:href="#linearGradient2762"
       gradientUnits="userSpaceOnUse"
       gradientTransform="matrix(2.428837,0.00438788,-5.639633e-5,0.03121722,-1044.092,21.26704)" />
    <radialGradient
       cx="431.67523"
       cy="198.44926"
       r="340.46094"
       fx="431.67523"
       fy="198.44926"
       id="radialGradient3735"
       xlink:href="#linearGradient2762"
       gradientUnits="userSpaceOnUse"
       gradientTransform="matrix(2.428837,0.00438788,-5.639633e-5,0.03121722,-1044.092,21.26704)" />
    <radialGradient
       cx="431.67523"
       cy="198.44926"
       r="340.46094"
       fx="431.67523"
       fy="198.44926"
       id="radialGradient3739"
       xlink:href="#linearGradient2762"
       gradientUnits="userSpaceOnUse"
       gradientTransform="matrix(6.959562,0.01257299,-1.615974e-4,0.08944947,-3071.681,-12.31776)" />
    <radialGradient
       cx="431.67523"
       cy="198.44926"
       r="340.46094"
       fx="431.67523"
       fy="198.44926"
       id="radialGradient3743"
       xlink:href="#linearGradient2762"
       gradientUnits="userSpaceOnUse"
       gradientTransform="matrix(6.959562,0.01257299,-1.615974e-4,0.08944947,-3081.58,-26.45986)" />
    <radialGradient
       cx="431.67523"
       cy="198.44926"
       r="340.46094"
       fx="431.67523"
       fy="198.44926"
       id="radialGradient3747"
       xlink:href="#linearGradient2762"
       gradientUnits="userSpaceOnUse"
       gradientTransform="matrix(6.959562,0.01257299,-1.615974e-4,0.08944947,-3092.894,-15.14616)" />
    <radialGradient
       cx="431.67523"
       cy="198.44926"
       r="340.46094"
       fx="431.67523"
       fy="198.44926"
       id="radialGradient3751"
       xlink:href="#linearGradient2762"
       gradientUnits="userSpaceOnUse"
       gradientTransform="matrix(6.959562,0.01257299,-1.615974e-4,0.08944947,-3099.965,-20.80296)" />
    <radialGradient
       cx="431.67523"
       cy="198.44926"
       r="340.46094"
       fx="431.67523"
       fy="198.44926"
       id="radialGradient3755"
       xlink:href="#linearGradient2762"
       gradientUnits="userSpaceOnUse"
       gradientTransform="matrix(6.959562,0.01257299,-1.615974e-4,0.08944947,-2834.093,-24.33856)" />
    <radialGradient
       cx="431.67523"
       cy="198.44926"
       r="340.46094"
       fx="431.67523"
       fy="198.44926"
       id="radialGradient3759"
       xlink:href="#linearGradient2762"
       gradientUnits="userSpaceOnUse"
       gradientTransform="matrix(6.959562,0.01257299,-1.615974e-4,0.08944947,-2827.022,-22.92436)" />
    <radialGradient
       cx="431.67523"
       cy="198.44926"
       r="340.46094"
       fx="431.67523"
       fy="198.44926"
       id="radialGradient3763"
       xlink:href="#linearGradient2762"
       gradientUnits="userSpaceOnUse"
       gradientTransform="matrix(6.959562,0.01257299,-1.615974e-4,0.08944947,-2851.064,-11.61066)" />
    <radialGradient
       cx="431.67523"
       cy="198.44926"
       r="340.46094"
       fx="431.67523"
       fy="198.44926"
       id="radialGradient3767"
       xlink:href="#linearGradient2762"
       gradientUnits="userSpaceOnUse"
       gradientTransform="matrix(6.959562,0.01257299,-1.615974e-4,0.08944947,-2878.641,-38.48076)" />
    <radialGradient
       cx="255.18288"
       cy="176.28802"
       r="12.445148"
       fx="255.18288"
       fy="176.28802"
       id="radialGradient3251"
       xlink:href="#linearGradient2762"
       gradientUnits="userSpaceOnUse"
       gradientTransform="matrix(1,0,0,0.910386,-241.73,-131.7239)" />
    <radialGradient
       cx="300.0618"
       cy="154.67436"
       r="24.515625"
       fx="300.0618"
       fy="154.67436"
       id="radialGradient3253"
       xlink:href="#linearGradient2762"
       gradientUnits="userSpaceOnUse"
       gradientTransform="matrix(1,0,0,1.397924,-241.73,-209.0705)" />
    <radialGradient
       cx="330.62839"
       cy="139.31743"
       r="15.692658"
       fx="330.62839"
       fy="139.31743"
       id="radialGradient3255"
       xlink:href="#linearGradient2762"
       gradientUnits="userSpaceOnUse"
       gradientTransform="matrix(1,0,0,2.207308,-241.73,-315.7209)" />
    <radialGradient
       cx="368.65448"
       cy="153.20116"
       r="31.530029"
       fx="368.65448"
       fy="153.20116"
       id="radialGradient3257"
       xlink:href="#linearGradient2762"
       gradientUnits="userSpaceOnUse"
       gradientTransform="matrix(1,0,0,1.136965,-241.73,-168.5051)" />
    <radialGradient
       cx="69.479897"
       cy="146.89619"
       r="24.515623"
       fx="69.479897"
       fy="146.89619"
       id="radialGradient3259"
       xlink:href="#linearGradient2762"
       gradientUnits="userSpaceOnUse"
       gradientTransform="matrix(1,0,0,1.397924,-241.73,-205.9754)" />
    <radialGradient
       cx="113.07224"
       cy="132.92053"
       r="30.984428"
       fx="113.07224"
       fy="132.92053"
       id="radialGradient3261"
       xlink:href="#linearGradient2762"
       gradientUnits="userSpaceOnUse"
       gradientTransform="matrix(1,0,0,1.156986,-241.73,-168.3885)" />
    <radialGradient
       cx="161.79419"
       cy="144.14194"
       r="22.792969"
       fx="161.79419"
       fy="144.14194"
       id="radialGradient3263"
       xlink:href="#linearGradient2762"
       gradientUnits="userSpaceOnUse"
       gradientTransform="matrix(1,0,0,1.707721,-241.73,-249.5342)" />
    <radialGradient
       cx="203.67519"
       cy="154.67216"
       r="32.636711"
       fx="203.67519"
       fy="154.67216"
       id="radialGradient3265"
       xlink:href="#linearGradient2762"
       gradientUnits="userSpaceOnUse"
       gradientTransform="matrix(1,0,0,1.075477,-241.73,-159.1961)" />
    <radialGradient
       cx="237.56378"
       cy="128.9449"
       r="28.545973"
       fx="237.56378"
       fy="128.9449"
       id="radialGradient3267"
       xlink:href="#linearGradient2762"
       gradientUnits="userSpaceOnUse"
       gradientTransform="matrix(1,0,0,1.240375,-241.73,-178.517)" />
    <radialGradient
       cx="232.86505"
       cy="175.56206"
       r="9.3900862"
       fx="232.86505"
       fy="175.56206"
       id="radialGradient3269"
       xlink:href="#linearGradient2762"
       gradientUnits="userSpaceOnUse"
       gradientTransform="matrix(1,0,0,1.28609,-241.73,-197.7484)" />
    <radialGradient
       cx="417.92203"
       cy="147.67744"
       r="22.792969"
       fx="417.92203"
       fy="147.67744"
       id="radialGradient3271"
       xlink:href="#linearGradient2762"
       gradientUnits="userSpaceOnUse"
       gradientTransform="matrix(1,0,0,1.707721,-241.73,-252.0364)" />
    <radialGradient
       cx="-178.89803"
       cy="80.090385"
       r="34.648232"
       fx="-178.89803"
       fy="80.090385"
       id="radialGradient8836"
       xlink:href="#linearGradient7874"
       gradientUnits="userSpaceOnUse"
       gradientTransform="translate(-0.707107,-77.78174)" />
    <radialGradient
       cx="-178.89803"
       cy="80.090385"
       r="34.648232"
       fx="-178.89803"
       fy="80.090385"
       id="radialGradient8840"
       xlink:href="#linearGradient7874"
       gradientUnits="userSpaceOnUse"
       gradientTransform="translate(58.68987,-93.33809)" />
    <radialGradient
       cx="-178.89803"
       cy="80.090385"
       r="34.648232"
       fx="-178.89803"
       fy="80.090385"
       id="radialGradient8844"
       xlink:href="#linearGradient7874"
       gradientUnits="userSpaceOnUse"
       gradientTransform="translate(98.99496,-82.73149)" />
    <radialGradient
       cx="-178.89803"
       cy="80.090385"
       r="34.648232"
       fx="-178.89803"
       fy="80.090385"
       id="radialGradient8848"
       xlink:href="#linearGradient7874"
       gradientUnits="userSpaceOnUse"
       gradientTransform="translate(137.1787,-72.12489)" />
    <radialGradient
       cx="-178.89803"
       cy="80.090385"
       r="34.648232"
       fx="-178.89803"
       fy="80.090385"
       id="radialGradient8852"
       xlink:href="#linearGradient7874"
       gradientUnits="userSpaceOnUse"
       gradientTransform="translate(192.333,-94.75231)" />
    <radialGradient
       cx="-178.89803"
       cy="80.090385"
       r="34.648232"
       fx="-178.89803"
       fy="80.090385"
       id="radialGradient8856"
       xlink:href="#linearGradient7874"
       gradientUnits="userSpaceOnUse"
       gradientTransform="translate(229.1026,-67.17514)" />
    <radialGradient
       cx="-178.89803"
       cy="80.090385"
       r="34.648232"
       fx="-178.89803"
       fy="80.090385"
       id="radialGradient8860"
       xlink:href="#linearGradient7874"
       gradientUnits="userSpaceOnUse"
       gradientTransform="translate(266.5793,-82.73149)" />
    <radialGradient
       cx="-178.89803"
       cy="80.090385"
       r="34.648232"
       fx="-178.89803"
       fy="80.090385"
       id="radialGradient8864"
       xlink:href="#linearGradient7874"
       gradientUnits="userSpaceOnUse"
       gradientTransform="translate(312.5412,-72.12489)" />
    <radialGradient
       cx="-178.89803"
       cy="80.090385"
       r="34.648232"
       fx="-178.89803"
       fy="80.090385"
       id="radialGradient8868"
       xlink:href="#linearGradient7874"
       gradientUnits="userSpaceOnUse"
       gradientTransform="translate(350.0179,-78.48885)" />
  </defs>
  <g
     id="layer1"
     transform="matrix(1.361756,0,0,1.361756,291.7608,74.168979)">
    <path
       d="m 136.47161,-33.046703 h 69.29646 V 36.24977 h -69.29646 z"
       style="fill:url(#radialGradient8868);fill-opacity:1;stroke:none;stroke-width:3;stroke-miterlimit:4;stroke-opacity:1"
       id="path8866" />
    <path
       d="m 191.69594,-37.534957 -0.63281,-0.48349 c 0.0468,0.02937 0.0703,0.04402 0.0703,0.04395 0.18746,0.11728 0.37496,0.2638 0.5625,0.43954 z m 6.53906,74.8976 c -0.14067,0.46883 -0.56254,0.79116 -1.26562,0.96698 -1.4063,-0.08791 -2.90629,-0.55675 -4.5,-1.40653 -1.40629,-0.70326 -2.7891,-1.40653 -4.14844,-2.10979 -2.53128,-0.82047 -5.81253,-1.2307 -9.84375,-1.23071 -2.06252,10e-6 -4.98049,0.13186 -8.75391,0.39559 -3.77345,0.26372 -6.36329,0.39558 -7.76953,0.39558 -3.42188,0 -5.55469,-0.5421 -6.39844,-1.62629 -0.65625,-0.87908 -0.98437,-2.06583 -0.98437,-3.56028 0,-1.93396 -0.0703,-3.13537 -0.21094,-3.60422 1.03125,0.32234 1.75781,1.04025 2.17969,2.15374 0.60937,1.46514 1.00781,2.28561 1.19531,2.46142 0.42187,0.05862 0.79687,0.01466 1.125,-0.13186 0.1875,-0.1172 0.39843,-0.30767 0.63281,-0.5714 0.28125,-0.41023 0.44531,-0.63 0.49219,-0.65931 0.32812,-1.81675 0.49218,-3.75073 0.49219,-5.80193 -1e-5,-3.10606 -0.46876,-7.23773 -1.40625,-12.395021 -1.17188,-6.2414398 -1.85157,-10.28519978 -2.03906,-12.1312998 1.31249,3.10611 2.34374,4.65915 3.09375,4.65912 0.0937,3e-5 0.16405,-0.01462 0.21093,-0.04395 0.51562,-0.3516 0.72656,-0.8937 0.63282,-1.6263 -0.23439,-1.17206998 -0.35157,-1.74346998 -0.35157,-1.71420998 -0.0469,-0.23438 -0.46875,-1.53835002 -1.26562,-3.91190002 -0.51563,-1.553 -0.77344,-2.85697 -0.77344,-3.9118999 0.84375,0.9670299 1.52343,1.4505199 2.03906,1.4504799 0.23437,4e-5 0.42187,-0.10252 0.5625,-0.30768 0.70312,-1.1427599 0.79687,-2.8716197 0.28125,-5.1865692 -0.28125,-1.40648 -1.61719,-3.56023 -4.00781,-6.46124 -2.20313,-2.66648 -3.30469,-4.87883 -3.30469,-6.63705 0,-0.7032 0.12891,-1.40647 0.38672,-2.10979 0.25781,-0.7032 0.80859,-1.47972 1.65235,-2.32956 0.74999,-0.7032 1.49999,-1.42112 2.25,-2.15375 -0.70313,1.31869 -1.0547,2.5494 -1.05469,3.69214 -1e-5,1.43589 0.63281,2.44683 1.89844,3.03282 2.71874,0.99635 4.71092,0.92309 5.97656,-0.21977 1.49999,-1.55298 2.99998,-3.10602 4.5,-4.65912 1.92186,-1.75809 4.03123,-2.87159 6.32812,-3.3405 0.93748,6e-5 1.57029,0.11727 1.89844,0.35163 -1.50002,0.4103 -2.6719,0.90845 -3.51562,1.49443 -0.65627,0.76194 -0.67971,2.06591 -0.0703,3.91191 0.65623,1.40659 2.41404,2.19776 5.27344,2.37351 3.09372,-0.29296 5.76559,-0.87901 8.01563,-1.75816 2.85933,-1.11343 4.10152,-2.4467 3.72656,-3.99981 -0.14066,-0.52738 -0.0469,-1.34785 0.28125,-2.46142 0.37496,-1.25995 0.56246,-2.10972 0.5625,-2.54933 -4e-5,-0.67389 -0.18754,-1.21599 -0.5625,-1.6263 l 2.74219,2.10979 c 1.26558,2.34428 1.61714,5.68478 1.05468,10.02151 -0.14066,1.05495 -0.65629,3.07684 -1.54687,6.06565 -0.98442,3.22334 -1.71098,5.09871 -2.17969,5.62611 -0.37504,0.41029 -1.40629,0.46889 -3.09375,0.17581 -1.54691,-0.41018 -2.49613,-1.56764 -2.84766,-3.47236 -0.35159,-1.90462 -1.30081,-3.07672 -2.84765,-3.51632 -2.01565,-0.99623 -5.39065,-1.46507 -10.125,-1.40652 -2.53127,0.29308 -4.33595,1.36262 -5.41406,3.20864 l -0.49219,5.05471 c 0.0469,0.20516 0.32811,0.48354 0.84375,0.83512 0.60936,-0.20507 1.05467,-0.58601 1.33594,-1.1428 0.42186,-0.82043 0.65623,-1.27462 0.70312,-1.36258 0.56248,-0.26367 1.92186,-1.05484 4.07813,-2.37351 0.0469,0.32238 -0.18752,0.73262 -0.70313,1.23071 -0.70314,0.70332 -1.10158,1.1282 -1.19531,1.27467 -0.79689,0.90842 -1.21877,2.34426 -1.26563,4.30748 -0.0469,2.1098395 -0.3047,3.6042792 -0.77343,4.4833092 -1.40627,2.43216 -2.41408,4.498 -3.02344,6.19751002 0.14061,0.99632996 0.8203,1.61167998 2.03906,1.84606998 0.70311,0.29306 1.47655,0.43957 2.32031,0.43954 0.84374,3e-5 1.64061,-0.14648 2.39063,-0.43954 3.60935,-2.16835998 5.24997,-4.93746 4.92187,-8.3073 -2e-5,-0.17578 -0.30471,-0.68857 -0.91406,-1.5383899 0.18748,-0.11717 0.39841,-0.17577 0.63281,-0.17581 0.60935,4e-5 1.17185,0.38097 1.6875,1.1427999 0.18748,0.76191 0.84373,2.22704 1.96875,4.39539 0.98435,1.7875 1.47654,3.26729002 1.47657,4.43936 -3e-5,0.49818 -0.12894,1.12818 -0.38672,1.89002 -0.25784,0.7619 -0.38675,1.36261 -0.38672,1.80211 -3e-5,0.43958 0.082,1.09888 0.24609,1.97794 0.16404,0.8791 0.24607,1.52376 0.2461,1.93397 -3e-5,1.3479498 -0.77347,2.3295908 -2.32032,2.9449108 -0.2344,0.05863 -0.46877,0.08794 -0.70312,0.08791 -1.12503,3e-5 -2.13284,-0.51277 -3.02344,-1.538391 -0.37502,-2.5786098 -1.7344,-4.2635098 -4.07812,-5.0547098 -1.1719,0.05864 -2.36721,0.11724 -3.58594,0.17582 -1.50002,0.08794 -2.25001,0.32236 -2.25,0.70326 -1e-5,0.08794 0.0234,0.17585 0.0703,0.26373 0.51561,0.73259 0.77342,1.52376 0.77344,2.37351 -2e-5,0.8205 -0.3633,2.0512098 -1.08985,3.6921408 -0.72657,1.64097 -1.08985,2.87168 -1.08984,3.69213 -10e-6,0.67399 0.16405,1.31864 0.49219,1.93398 0.0469,0.02932 0.4453,0.10257 1.19531,0.21977 2.10936,-1.61163 3.2578,-2.50536 3.44531,-2.6812 1.21874,-1.11347 1.9453,-2.13907 2.17969,-3.07677 -1.17189,5.15728 -2.53127,8.84941 -4.07812,11.0764 -0.18752,0.26374 -0.28127,0.58607 -0.28125,0.96699 -2e-5,2.0512 1.47654,3.70679 4.42968,4.9668 1.78123,0.79118 4.14842,1.18676 7.10157,1.18676 2.34372,0 3.98434,-0.21977 4.92187,-0.65931 1.78122,-1.02559 2.67184,-2.53467 2.67188,-4.52726 -4e-5,-0.82047 -0.1641,-1.61164 -0.49219,-2.37352 -0.98441,-1.2307 -1.35941,-2.75443 -1.125,-4.57121 0.65622,-1.46512 1.59371,-2.62257 2.8125,-3.47237 -0.42191,3.78006 0.2109,6.30009 1.89844,7.56009 3.89058,2.87167 6.2812,6.30008 7.17187,10.28523 z m -9.70312,-58.76649 c -0.0938,-0.55669 -0.79691,-0.79111 -2.10938,-0.70326 -0.75003,0.20517 -1.03128,0.54215 -0.84375,1.01094 0.70309,0.61541 1.40622,0.90844 2.10938,0.87908 0.84371,-0.29297 1.12496,-0.68856 0.84375,-1.18676 z m -16.875,-3.86795 c 0.1406,-0.23436 0.21092,-0.43948 0.21093,-0.61535 -1e-5,-0.17576 -0.0703,-0.39553 -0.21093,-0.65931 -2e-5,-0.17576 -0.14065,-0.27832 -0.42188,-0.30768 -0.42189,-0.05855 -0.65627,-0.1025 -0.70312,-0.13186 -0.4219,0.05866 -1.05471,0.48355 -1.89844,1.27466 -0.32814,0.52751 -0.25783,0.89379 0.21094,1.09885 0.74998,0.29309 1.68748,0.07332 2.8125,-0.65931 z m -10.61719,4.30749 c -0.28126,-0.73251 -0.91407,-1.06949 -1.89844,-1.01094 -0.42188,0.20518 -0.5625,0.79123 -0.42187,1.75816 0.46874,0.5275 1.05468,0.79123 1.75781,0.79117 0.74999,-0.35157 0.93749,-0.86437 0.5625,-1.53839 z M 190.36,29.758603 c -0.0938,-0.20512 -0.32816,-0.29302 -0.70312,-0.26373 -0.28129,0.05861 -0.51566,0.19048 -0.70313,0.39558 -0.46878,0.49816 -0.21097,0.74723 0.77344,0.74723 0.56246,-0.05861 0.7734,-0.35164 0.63281,-0.87908 z m -22.92187,-7.69195 c -0.28127,-0.17581 -0.44533,-0.26371 -0.49219,-0.26373 -0.0469,0.02932 -0.16408,0.30769 -0.35156,0.83513 0.28123,0.20513 0.51561,0.20513 0.70312,0 0.14061,-0.17581 0.18749,-0.36627 0.14063,-0.5714 z m 1.54687,7.29636 c -0.28126,-0.41023 -0.75001,-0.61535 -1.40625,-0.61536 -0.65626,0.11722 -0.93751,0.51281 -0.84375,1.18676 0.37499,0.58606 0.93749,0.82048 1.6875,0.70327 0.89061,-0.14651 1.07811,-0.5714 0.5625,-1.27467 z"
       style="font-style:normal;font-weight:normal;font-size:144px;font-family:'Seaweed Fire AOE';fill:url(#radialGradient3751);fill-opacity:1;stroke:url(#radialGradient3271);stroke-width:1.5;stroke-linecap:butt;stroke-linejoin:miter;stroke-miterlimit:4;stroke-dasharray:none;stroke-opacity:1"
       id="text1872" />
    <path
       d="M 98.994949,-26.682742 H 168.29141 V 42.613731 H 98.994949 Z"
       style="fill:url(#radialGradient8864);fill-opacity:1;stroke:none;stroke-width:3;stroke-miterlimit:4;stroke-opacity:1"
       id="path8862" />
    <path
       d="M 53.033011,-37.289343 H 122.32947 V 32.00713 H 53.033011 Z"
       style="fill:url(#radialGradient8860);fill-opacity:1;stroke:none;stroke-width:3;stroke-miterlimit:4;stroke-opacity:1"
       id="path8858" />
    <path
       d="M 15.556349,-21.732993 H 84.852804 V 47.56348 H 15.556349 Z"
       style="fill:url(#radialGradient8856);fill-opacity:1;stroke:none;stroke-width:3;stroke-miterlimit:4;stroke-opacity:1"
       id="path8854" />
    <path
       d="M -21.213199,-49.31016 H 48.083256 V 19.98631 H -21.213199 Z"
       style="fill:url(#radialGradient8852);fill-opacity:1;stroke:none;stroke-width:3;stroke-miterlimit:4;stroke-opacity:1"
       id="path8850" />
    <path
       d="M -76.367526,-26.682737 H -7.0710718 V 42.613731 H -76.367526 Z"
       style="fill:url(#radialGradient8848);fill-opacity:1;stroke:none;stroke-width:3;stroke-miterlimit:4;stroke-opacity:1"
       id="path8846" />
    <path
       d="m -114.55129,-37.289339 h 69.296455 v 69.296463 h -69.296455 z"
       style="fill:url(#radialGradient8844);fill-opacity:1;stroke:none;stroke-width:3;stroke-miterlimit:4;stroke-opacity:1"
       id="path8842" />
    <path
       d="m -154.85638,-47.895941 h 69.29646 v 69.296465 h -69.29646 z"
       style="fill:url(#radialGradient8840);fill-opacity:1;stroke:none;stroke-width:3;stroke-miterlimit:4;stroke-opacity:1"
       id="path8838" />
    <path
       d="m -214.25336,-32.33959 h 69.29646 v 69.296466 h -69.29646 z"
       style="fill:url(#radialGradient8836);fill-opacity:1;stroke:none;stroke-width:3;stroke-miterlimit:4;stroke-opacity:1"
       id="rect8823" />
    <path
       d="m 156.7076,20.575131 c 0.35295,1.535201 -3.5992,2.566636 -3.89251,3.004988 -1.42599,2.131149 1.00828,2.607244 -3.16353,6.387274 -4.54693,4.10238 -6.73616,7.426 -7.34549,9.7116 -0.0938,0.41024 -1.17192,0.77652 -3.23437,1.09885 -1.82817,0 -3.21098,-0.67396 -4.14844,-2.02188 -0.18754,-0.93768 0.0703,-2.31491 0.77344,-4.13168 1.34721,-2.425857 0.84173,-3.847225 0.42187,-6.59309 0.90479,2.143494 0.7047,8.8657 4.64063,3.99981 0.32808,-0.58605 0.49214,-1.18675 0.49218,-1.80212 -4e-5,-0.99627 -0.58598,-2.19768 -1.75781,-3.60422 -1.45317,-1.72884 -2.29692,-2.87165 -2.53125,-3.42841 -1.50004,-1.55302 -3.02347,-3.09141 -4.57031,-4.61517 -1.59379,-1.78744 -2.57816,-3.45769 -2.95313,-5.01076 -0.0938,-0.38091 -0.4219,-0.57137 -0.98437,-0.5714 -0.42191,3e-5 -1.21878,0.13921 -2.39063,0.41756 -1.1719,0.27841 -2.03909,0.41759 -2.60156,0.41757 -1.5469,0.05863 -3.11721,0.11723 -4.71094,0.17581 -1.78127,0.17584 -2.9297,0.77655 -3.44531,1.80212 -0.0938,0.23444 0.0469,0.38096 0.42188,0.43954 0.3281,0.05863 0.76169,0.02932 1.30078,-0.08791 0.53904,-0.11719 0.99607,-0.293 1.37109,-0.52745 -0.6094,1.81679 -1.85158,4.49798 -3.72656,8.04358 -1.50002,4.01447 -2.06252,7.0766 -1.6875,9.18638 1.17186,1.37724 3.25779,1.99259 6.25781,1.84607 0.7031,-0.20511 0.91404,-0.80582 0.63281,-1.80211 -0.42189,-0.55675 -0.82033,-1.09884 -1.19531,-1.6263 -0.56252,-0.70325 -0.84377,-1.28931 -0.84375,-1.75816 -2e-5,-0.52744 0.35154,-0.99628 1.05469,-1.40653 -0.0938,0.967 0.98435,2.16841 3.23437,3.60423 2.24998,1.43584 3.37497,2.60794 3.375,3.51632 -3e-5,0.55675 -0.25784,1.12816 -0.77343,1.7142 -0.84378,0.76188 -2.08597,1.14281 -3.72657,1.14281 -0.56252,0 -1.44143,-0.05861 -2.63672,-0.17582 -1.19533,-0.11721 -2.07423,-0.17581 -2.63671,-0.17581 -0.65627,0 -1.21877,0.04396 -1.6875,0.13186 -1.68752,-0.26372 -4.34767,-0.30768 -7.98047,-0.13186 -3.63282,0.17581 -6.339846,0.08791 -8.121096,-0.26373 -1.64062,-0.52744 -2.15625,-1.55303 -1.54687,-3.07678 0.32812,-0.76186 1.17187,-1.7728 2.53125,-3.03282 2.017356,-1.368492 2.507166,-3.096858 3.304686,-5.14262 -0.002,2.067213 -0.81215,3.355298 1.26562,4.57121 0.32812,0.11723 1.28905,0.01467 2.88281,-0.30767 1.54687,-1.28931 2.3203,-3.19398 2.32032,-5.71402 -2e-5,-0.70325 -0.0469,-1.61163 -0.14063,-2.72515 -0.14064,-1.3186 -0.23439,-2.16837 -0.28125,-2.54933 -1.26564,-5.88981 -1.89845,-8.937281 -1.89844,-9.142431 -1e-5,-1.4357998 0.25781,-2.7397698 0.77344,-3.9118998 0.46874,0.20515 0.70311,0.55678 0.70313,1.05489 -2e-5,0.20516 -0.0469,0.52748 -0.14063,0.96699 -0.0938,0.43957 -0.14064,0.7619 -0.14062,0.96699 -2e-5,0.7911998 0.42186,1.3625998 1.26562,1.7142098 0.32811,0.08793 0.93749,-0.1758 1.82813,-0.79118 0.65623,-1.3478898 0.98436,-2.7544198 0.98437,-4.2195798 -1e-5,-1.58231 -0.5508,-3.88989 -1.65234,-6.92275998 -1.10158,-3.03278002 -1.6758,-5.32570002 -1.72266,-6.87879002 1.59374,2.57868 2.62499,3.86799 3.09375,3.86795 0.14061,-0.05856 0.18749,-0.26368 0.14063,-0.61536 -0.14064,-0.4688 -0.21096,-0.99624 -0.21094,-1.58234 -2e-5,-0.61531 0.11717,-1.56764 0.35156,-2.8570097 0.23436,-1.2892695 0.35155,-2.2562495 0.35156,-2.9009595 -1e-5,-1.87532 -0.89064,-3.22324 -2.67187,-4.04377 -2.25001,-0.99623 -4.50001,-1.99252 -6.75,-2.98887 -2.671876,-1.17205 -4.007816,-2.60788 -4.007806,-4.30749 -1e-5,-0.93762 1.40624,-2.76904 4.218746,-5.49425 0.18749,1.58241 0.46874,3.22336 0.84375,4.92285 0.89061,0.4982 2.01561,0.74728 3.375,0.74721 1.73436,7e-5 3.39842,-0.30761 4.99218,-0.92303 1.92186,-1.17204 3.8203,-2.34415 5.69532,-3.51632 2.34372,-1.34785 4.59372,-2.03647 6.75,-2.06584 1.21872,-0.02923 2.0859,0.19054 2.60156,0.65931 -1.12503,0.02937 -1.99222,0.17589 -2.60156,0.43954 -2.8594,0.87915 -4.38284,2.13916 -4.57032,3.78005 0.0937,0.79123 1.35935,1.49449 3.79688,2.10979 3.79684,0.17588 6.30465,-0.11715 7.52344,-0.87908 0.93746,-1.08414 2.76558,-2.60787 5.48437,-4.57122 0.93746,-0.35156 1.5234,-0.43947 1.75781,-0.26372 -0.70316,0.58612 -1.14848,1.08426 -1.33593,1.49443 -0.23442,0.76194 -0.35161,1.52381 -0.35157,2.28561 -4e-5,2.43218 1.17184,4.38081 3.51563,5.84588 1.87495,1.99264 3.25776,4.30755 4.14844,6.94473 0.4687,0.61541 1.0312,0.73262 1.6875,0.35163 1.03119,-0.55669 1.54682,-1.40647 1.54687,-2.54933 -5e-5,-0.26367 -0.0352,-0.65925 -0.10547,-1.18676 -0.0704,-0.52739 -0.10552,-0.92297 -0.10547,-1.18675 -5e-5,-1.02554 0.39839,-1.81671 1.19532,-2.37352 0.37494,0.93774 0.49213,1.56775 0.35156,1.89002 -0.0938,1.14286 0.11713,2.68125 0.63281,4.61517 0.56245,2.0512395 0.8437,3.5310193 0.84375,4.4393492 -5e-5,0.87913 -0.14068,1.71425 -0.42187,2.50538 -1.87506,1.96332 -4.12505,5.39173002 -6.75,10.28524 -2.43755,4.57124 -4.7813,7.8970908 -7.03125,9.9775508 -0.0938,0.11724 -0.14067,0.26375 -0.14063,0.43954 -4e-5,0.8205 0.9023,1.99993 2.70703,3.5383 1.80465,1.53841 3.62105,2.68853 5.44922,3.45038 0.42183,0.05863 0.82026,0.08793 1.19531,0.08791 2.29683,2e-5 4.24214,-0.87906 5.83594,-2.63724 0.89057,-1.11348 1.80463,-2.22698 2.74219,-3.3405 1.07806,-1.28929 2.11349,-1.156332 3.47293,-1.801012 0.0715,1.83419 -1.0757,3.364496 -0.81359,5.64113 z m -21.78434,-40.849378 c -4e-5,-0.58599 -0.0703,-0.93762 -0.21094,-1.05489 -0.23441,-0.29297 -0.67972,-0.46878 -1.33594,-0.52745 -0.65628,-0.02924 -1.14847,0.11727 -1.47656,0.43954 -0.37503,0.35169 -0.14066,0.76193 0.70313,1.23071 1.21871,0.35169 1.99214,0.32239 2.32031,-0.08791 z m 11.39062,14.9443592 c 1.07808,-2.16835 1.17183,-3.2525499 0.28125,-3.2525999 -0.0938,5e-5 -0.18755,0.0147 -0.28125,0.04396 -1.07817,0.6447 -1.26567,1.7581999 -0.5625,3.3404999 0.32808,5e-5 0.51558,-0.04391 0.5625,-0.13186 z M 111.5092,-18.032587 c -0.65627,-0.73251 -1.38283,-0.99624 -2.17969,-0.79118 -0.42189,0.17588 -0.58595,0.4396 -0.49219,0.79118 0.89061,0.67401 1.52342,1.01099 1.89844,1.01094 0.18748,5e-5 0.39842,-0.0439 0.63281,-0.13186 z m 27.91406,18.76834918 c 0.56245,-0.79113995 0.8437,-1.59695996 0.84375,-2.41746998 -5e-5,-1.14276 -0.70317,-2.63719 -2.10938,-4.48331 -1.45316,-1.9925299 -2.25004,-3.4869597 -2.39062,-4.4832992 1.12496,1.3186595 2.08589,1.9779795 2.88281,1.9779295 0.28121,5e-5 0.49215,-0.05856 0.63281,-0.17582 0.42183,-0.61531 0.18746,-1.7581095 -0.70312,-3.4284095 -1.87504,-3.57487 -6.65629,-5.65536 -14.34375,-6.24147 -3.51565,-0.29297 -5.64846,-0.24901 -6.39844,0.13186 -0.98439,0.61542 -1.47658,1.4945 -1.47656,2.63724 -2e-5,0.84984 0.28123,1.80217 0.84375,2.85701 0.0469,0.14657 0.16404,0.21983 0.35156,0.21977 0.0937,6e-5 0.42185,-0.12448 0.98438,-0.37361 0.56247,-0.24902 1.0781,-0.3882 1.54687,-0.41756 -2.4844,4.6591695 -3.56252,8.2340892 -3.23437,10.7247792 -0.0938,0.14655 -0.14065,0.27841 -0.14063,0.39558 -2e-5,0.43958 0.48045,0.71795 1.44141,0.83513 0.96091,0.11725 1.44138,0.33702 1.4414,0.65930002 -2e-5,0.17586 -0.0938,0.39563 -0.28125,0.65931 -0.65627,1.14284996 -1.28908,2.28564998 -1.89843,3.42841998 -0.7969,1.46516 -1.19534,2.68122 -1.19532,3.64817 -2e-5,1.40657 0.74998,2.56402 2.25,3.4723698 3.3281,0.82051 5.9531,0.71795 7.875,-0.30768 2.06247,-0.6153198 3.84372,-1.8899798 5.34375,-3.8239898 1.87497,-2.51999 3.16403,-4.01443 3.86719,-4.48331 -0.0938,0.26376 -0.14066,0.51284 -0.14062,0.74722 -4e-5,0.90842 0.56246,1.47982 1.6875,1.7142 1.17183,-0.4395 1.94527,-1.59696 2.32031,-3.47236002 z m 8.57812,24.26260082 c -0.6563,-0.52743 -1.42973,-0.64464 -2.32031,-0.35163 -0.79692,0.20513 -1.07817,0.58607 -0.84375,1.1428 0.74995,0.73258 1.38276,1.02561 1.89844,0.87908 1.0312,-0.29301 1.45307,-0.84976 1.26562,-1.67025 z m -40.99218,7.91172 c -0.51564,-0.26372 -1.00783,-0.36628 -1.47657,-0.30768 -0.14063,0.05861 -1.125,0.19048 -2.95312,0.39559 -1.17188,0.17582 -1.78126,0.60071 -1.82813,1.27466 0.42187,0.32234 1.875,0.36629 4.35938,0.13186 1.45311,-0.32232 2.08592,-0.82046 1.89844,-1.49443 z"
       style="font-style:normal;font-weight:normal;font-size:144px;font-family:'Seaweed Fire AOE';fill:url(#radialGradient3747);fill-opacity:1;stroke:url(#radialGradient3257);stroke-width:1.5;stroke-linecap:butt;stroke-linejoin:miter;stroke-miterlimit:4;stroke-dasharray:none;stroke-opacity:1"
       id="path3701"
       sodipodi:nodetypes="csccccccsscccssscccssccccccscsscssscsccccccsccscsssccsscccsssccsccscccccccccccscccssscccscccsscsccccccccccccscccccccscccsccsccccscssccsssccsccccsccccccsccccccccc" />
    <path
       d="m 103.83853,20.981013 c -0.28128,0.93769 -1.1719,1.72886 -2.67187,2.37351 -1.546906,0.41025 -3.750026,0.73258 -6.609376,0.967 -3.51564,0.32233 -5.76564,0.55675 -6.75,0.70326 -0.84376,0.02931 -2.14454,0.14652 -3.90234,0.35163 -1.75782,0.20512 -3.08204,0.30768 -3.97266,0.30768 -1.3125,0 -2.50782,-0.17582 -3.58594,-0.52745 -1.59375,-0.79117 -2.39062,-1.72885 -2.39062,-2.81305 0,-0.76187 0.53906,-1.90467 1.61719,-3.42842 1.21874,-1.64093 2.058848,-3.421261 2.063711,-4.975709 0.28125,2.25632 1.405029,5.415259 2.647219,5.766889 1.24219,0.35163 1.89844,0.10255 2.46094,-0.92304 0.5625,-1.02559 0.77343,-2.857 0.77344,-4.43935 -1e-5,-1.69954 -0.43361,-4.248871 -1.30078,-7.6479908 -0.8672,-3.39909 -1.30079,-5.97772002 -1.30078,-7.7359 -1e-5,-0.79115 0.0703,-1.55302 0.21093,-2.28561 0.04687,0.67399 0.16406,1.28935 0.35157,1.84606 0.46874,1.31865002 1.24217,2.30028998 2.32031,2.94492 0.42186,0.08794 0.79686,-0.13183 1.125,-0.65931002 -0.09376,-1.14277996 -0.04689,-2.71046998 0.14062,-4.70307998 0.18749,-2.28557 0.28124,-3.82395 0.28125,-4.6151699 -1e-5,-2.4906793 -0.51563,-4.5858193 -1.54687,-6.2854193 -0.51564,-0.79112 -0.82032,-1.90462 -0.91406,-3.3405 -0.14064,-2.22695 -0.21095,-3.39906 -0.21094,-3.51632 0.37499,1.40658 1.14843,2.10984 2.32031,2.10979 0.18749,5e-5 0.37499,-0.0146 0.5625,-0.04395 0.37499,-0.5274 0.56249,-1.27461 0.5625,-2.24165 -10e-6,-1.52369 -10e-6,-2.28556 0,-2.28561 -0.32814,-1.08414 -0.63282,-2.16834 -0.91406,-3.2526 -0.56251,-1.23065 -1.50001,-1.88996 -2.8125,-1.97792 -1.82813,-0.08785 -3.37501,-0.68856 -4.64063,-1.80212 -0.75,-0.84971 -1.125,-1.8167 -1.125,-2.90096 0,-1.11344 0.42187,-2.05112 1.26563,-2.81306 l 2.17969,1.89003 c 1.40624,0.55681 2.24999,0.83518 2.53125,0.83512 3.51561,-0.11715 6.79685,-1.37716 9.84375,-3.78004 0.42185,-0.23436 0.79685,-0.54203 1.125,-0.92304 0.84372,-0.8497 1.28904,-1.9339 1.33593,-3.25259 0.51561,0.3224 1.07811,1.11357 1.6875,2.37351 -2e-5,0.87915 0.50389,2.13917 1.51172,3.78005 1.00779,1.64101 1.51169,2.87172 1.51172,3.69213 -3e-5,0.73263 -0.25784,1.43589 -0.77344,2.10979 -3.42189,1.43589 -5.78908,3.44312 -7.10156,6.0217 -0.93752,1.75821 -1.47658,4.26359 -1.61719,7.51613 0.09374,0.17586 0.30467,0.39564 0.63282,0.65931 1.40623,0.35168 3.18748,-0.73252 5.34375,-3.2526 -0.2344,0.58611 -1.12503,1.90472 -2.67188,3.95587 -1.31252,1.67029 -1.96877,3.06216 -1.96875,4.17563 -2e-5,0.52748 0.09373,1.02562 0.28125,1.4944295 0.14061,0.82051 0.21092,1.6702898 0.21094,2.5493297 -2e-5,1.8168 -0.3633,4.52729 -1.08985,8.13149 -0.72657,3.60425 -1.08986,6.31475 -1.08984,8.13149 -2e-5,0.58607 0.02342,1.1574698 0.07031,1.7141998 0.23436,0.35165 0.4453,0.527471 0.63282,0.527451 0.60935,2e-5 1.4531,-0.556731 2.53125,-1.6702508 0.1406,0.8497998 -0.35159,2.0951508 -1.47657,3.7360908 -1.17189,1.72887 -1.75783,2.95958 -1.75781,3.69213 -2e-5,1.20142 1.0078,2.19771 3.02344,2.98888 0.42185,0.05861 0.82029,0.08791 1.19531,0.0879 2.67185,10e-6 4.14841,-0.73256 4.42969,-2.1977 0.04685,-0.02929 0.04685,-0.46883 0,-1.31862 -0.0469,-0.55673 0.23435,-0.93767 0.84375,-1.1428 0.18747,0.29304 1.101526,1.14281 2.742186,2.54933 1.26559,1.08421 1.87497,2.00724 1.82812,2.7691 z m -8.367186,-55.77761 c -0.14064,-0.43947 -0.75002,-0.74715 -1.82812,-0.92303 -1.03127,0.14658 -1.42971,0.60077 -1.19531,1.36257 0.1406,0.49821 0.82029,0.70333 2.03906,0.61536 0.37498,-0.05855 0.7031,-0.41018 0.98437,-1.0549 z m -1.82812,5.05471 c -0.14065,-0.35157 -0.63283,-0.48343 -1.47656,-0.39559 -0.6094,0.26379 -0.96096,0.63007 -1.05469,1.09885 0.23436,0.381 0.63279,0.52751 1.19531,0.43954 0.89061,-0.08785 1.33592,-0.46878 1.33594,-1.1428 z m -8.71875,50.50313 c -0.09376,-0.20511 -0.46876,-0.30767 -1.125,-0.30768 -0.79689,0.35164 -1.07814,0.74723 -0.84375,1.18676 -1e-5,0.17583 0.4453,0.26373 1.33594,0.26372 0.51561,-0.49813 0.72655,-0.87907 0.63281,-1.1428 z"
       style="font-style:normal;font-weight:normal;font-size:144px;font-family:'Seaweed Fire AOE';fill:url(#radialGradient3743);fill-opacity:1;stroke:url(#radialGradient3255);stroke-width:1.5;stroke-linecap:butt;stroke-linejoin:miter;stroke-miterlimit:4;stroke-dasharray:none;stroke-opacity:1"
       id="path3703"
       sodipodi:nodetypes="ccccsscscczzssscccccscccscsscccscccccccssccccccscssscsccscscccscccccccccccccccccccc" />
    <path
       d="m 75.066154,-7.8638478 c -0.32817,0.43959 -1.00786,0.99634 -2.03907,1.67025 -0.56254,0.08796 -1.45316,-0.08786 -2.67187,-0.52744 -0.70316,-0.41019 -1.19535,-1.5676499 -1.47656,-3.4723692 -0.18754,-1.43578 -1.35941,-2.19764 -3.51563,-2.28561 -0.84378,0.26378 -2.13284,0.48355 -3.86719,0.65931 -1.82815,-0.41018 -3.84377,-0.6739 -6.04687,-0.79117 -2.39065,-0.11715 -3.89064,0.02936 -4.5,0.43954 -1.45314,1.02565 -2.06252,1.83147 -1.82813,2.4174695 0.32811,0.70332 0.74999,1.05495 1.26563,1.0549 0.23436,5e-5 0.49217,-0.11716 0.77344,-0.35164 -0.14065,0.7033198 -0.77346,1.9340297 -1.89844,3.6921397 -0.98439,1.49448 -1.38283,2.7838 -1.19531,3.86795 0.09373,0.32237 0.364014,0.68333534 1.100339,0.72675828 1.748055,0.10308706 4.44158,-1.57455118 5.504505,-3.23422968 -0.959344,1.8165172 -4.717191,9.149778 -4.917344,11.0784914 0.04686,0.76191 0.84373,1.39192 2.39062,1.89003 3.1406,4e-5 5.08592,-0.42485 5.83594,-1.27467 0.28122,-0.29299 1.24216,-1.93393 2.88281,-4.92284 1.12497,-1.96324002 2.67185,-3.41371998 4.64063,-4.35145 -0.46879,0.43959 -0.96097,1.17215002 -1.47657,2.19769998 -0.14065,0.26377 -0.21096,0.52749002 -0.21093,0.79117002 -3e-5,0.41028 0.23434,0.93773 0.70312,1.58235 0.56247,0.7326 0.89059,1.26005 0.98438,1.58234 0.04684,0.64469 -0.07035,2.43215 -0.35157,5.36239 -0.2344,2.1684308 -0.0469,3.9412308 0.5625,5.3184308 0.60935,1.49446 -0.07034,2.43215 -2.03906,2.81305 -1.26565,3e-5 -2.25003,-0.17579 -2.95312,-0.52744 -1.5469,-1.78744 -2.46097,-2.81303 -2.74219,-3.07679 -1.3594,-1.11346 -2.92971,-1.68487 -4.71094,-1.7142 -1.87502,0.26376 -2.81252,1.11353 -2.8125,2.54933 -2e-5,0.23445 0.02342,0.60806 0.07031,1.12083 0.04686,0.51283 0.0703,0.88643 0.07032,1.12083 -2e-5,0.55677 -0.09377,1.01097 -0.28125,1.36257 -0.56252,1.02562 -0.77346,2.38819 -0.63282,4.08772 0.14061,0.8498 0.58592,1.27468 1.33594,1.27467 0.28123,10e-6 0.60936,-0.07324 0.98438,-0.21977 0.04685,0.99631 -0.18752,2.35888 -0.70313,4.08772 -0.51564,1.84608 -0.77345,3.194 -0.77344,4.04376 -1e-5,0.82049 0.14061,1.59701 0.42188,2.32956 0.23436,0.61537 0.91404,0.74723 2.03906,0.39559 0.79686,-0.41023 1.30076,-1.24535 1.51172,-2.50538 0.21092,-1.26 0.7617,-2.09512 1.65234,-2.50537 -0.14064,0.26374 -0.21096,0.55676 -0.21093,0.87908 -3e-5,0.55676 0.29294,1.56037 0.8789,3.01085 0.58592,1.45048 0.87888,2.55666 0.87891,3.31852 -3e-5,0.9963 -0.35159,1.86072 -1.05469,2.59329 -0.7969,0.55675 -1.94533,0.87908 -3.44531,0.96698 -1.40627,0.05861 -2.62502,-0.09523 -3.65625,-0.46151 -1.03127,-0.36628 -2.43751,-0.57872 -4.21875,-0.63734 -1.45314,-0.0586 -2.90626,-0.10255 -4.35938,-0.13186 -1.17188,-0.17581 -2.34375,-0.33697 -3.51562,-0.48349 -1.35938,-0.26372 -2.20313,-0.74722 -2.53125,-1.45049 -0.23438,-0.43953 -0.35156,-0.93767 -0.35156,-1.49443 0,-0.58604 0.1875,-1.49442 0.5625,-2.72515 0.37499,-1.2307 0.56249,-2.15373 0.5625,-2.76909 -10e-6,-0.73256 -0.18751,-1.39187 -0.5625,-1.97794 0.84374,1.20143 1.75781,3.09145 2.74218,5.67007 0.75,0.64466 1.42969,0.74722 2.03907,0.30767 0.84374,-1.08418 1.46483,-2.84234 1.86328,-5.27448 0.39843,-2.43209 0.94921,-4.16095 1.65234,-5.18656 0.09374,-0.49813 0.14062,-1.01093 0.14063,-1.53839 -10e-6,-1.49442 -0.46876,-3.72141 -1.40625,-6.68101 -0.93751,-2.95953 -1.40626,-5.186541 -1.40625,-6.6810108 -10e-6,-1.5237 0.35155,-2.94488 1.05468,-4.26353 -0.28125,2.37355 0.35156,3.79473 1.89844,4.26353 l 0.77344,-0.5714 c 0.09374,-3.98512 -0.53907,-7.01794 -1.89844,-9.09846998 -1.17188,-1.81672002 -1.75782,-2.79836002 -1.75781,-2.94492002 -10e-6,-0.73252 0.74999,-1.21601 2.25,-1.45048 0.14061,-0.29298 0.21093,-0.57135 0.21094,-0.83513 -10e-6,-0.64461 -0.4922,-1.39182 -1.47657,-2.2416499 -1.3125,-1.1720498 -2.0625,-1.8899698 -2.25,-2.1537493 -2.0625,-1.61159 -3.09375,-3.4723 -3.09375,-5.58215 0,-0.76181 0.14063,-1.55298 0.42188,-2.37352 0.1875,-0.55669 0.79687,-1.28925 1.82812,-2.1977 1.26562,-1.08413 2.491064,-3.237284 2.772324,-3.618284 -0.647035,1.640226 -0.547606,5.68405 0.110496,7.266464 1.64061,1.23077 4.07811,1.50915 7.3125,0.83513 1.6406,-0.35157 3.60935,-1.12809 5.90625,-2.32956 3.04685,-1.61159 4.87497,-2.53462 5.48437,-2.7691 -1.68752,0.96705 -2.53127,1.86078 -2.53125,2.68119 -2e-5,0.23448 0.07029,0.45425 0.21094,0.65931 1.2656,0.96705 2.97653,1.45054 5.13281,1.45048 1.21872,6e-5 2.36716,-0.17575 3.44531,-0.52745 2.34372,-0.7618 5.01559,-2.31484 8.01563,-4.65912 3.2812,-2.60787 6.206201,-5.472938 6.875289,-4.536189 -0.756062,1.53416 -6.383099,17.9861082 -6.383099,17.9861082 z m -0.5625,-9.6698792 c -4e-5,-0.35157 -0.32817,-0.52738 -0.98438,-0.52744 -0.70316,6e-5 -1.21879,0.21983 -1.54687,0.65931 -0.46879,0.26378 -0.49223,0.61541 -0.07032,1.05489 0.60934,0.08797 1.19528,0.0074 1.75782,-0.24175 0.56246,-0.24901 0.84371,-0.56401 0.84375,-0.94501 z m -2.32032,5.18657 c -3e-5,-0.02924 -0.28128,-0.1611 -0.84375,-0.39558 -0.42191,0.05866 -0.63285,0.39564 -0.63281,1.01094 0.04684,0.20517 0.3984,0.30773 1.05469,0.30768 0.37496,-0.26367 0.51559,-0.57135 0.42187,-0.92304 z m -16.24218,-3.86795 c -0.28128,-0.14645 -0.51565,-0.17575 -0.70313,-0.0879 -0.18752,0.11727 -0.2344,0.27843 -0.14062,0.48349 0.37497,-0.02924 0.65622,-0.16111 0.84375,-0.39559 z m -12.51563,3.86795 c -0.32813,-0.43948 -0.82032,-0.6153 -1.47656,-0.52744 -0.46876,0.11726 -0.70313,0.5275 -0.70313,1.23071 0.14062,0.23447 0.30468,0.45424 0.49219,0.65931 0.23437,0.29308 0.58593,0.39564 1.05469,0.30768 0.28124,-0.11716 0.49218,-0.67391 0.63281,-1.67026 z m 16.59375,25.40541 c -3e-5,-0.3516 -0.39846,-0.49811 -1.19531,-0.43954 -0.0469,0.02933 0.02341,0.24911 0.21094,0.65931 0.5156,0.32236 0.84372,0.2491 0.98437,-0.21977 z m -10.33594,23.64725 c -0.09376,-0.29302 -0.37501,-0.51279 -0.84375,-0.65932 -0.14064,0.17583 -0.1172,0.37362 0.07032,0.59338 0.18748,0.21978 0.44529,0.24176 0.77343,0.06594 z m -6.60937,-1.0549 c -0.42189,-0.26371 -0.77345,-0.36628 -1.05469,-0.30768 -1e-5,1e-5 -0.25782,0.27839 -0.77344,0.83513 0.1875,0.35164 0.63281,0.4835 1.33594,0.39558 0.42187,-0.23441 0.58593,-0.54209 0.49219,-0.92303 z"
       style="font-style:normal;font-weight:normal;font-size:144px;font-family:'Seaweed Fire AOE';fill:url(#radialGradient3739);fill-opacity:1;stroke:url(#radialGradient3253);stroke-width:1.5;stroke-linecap:butt;stroke-linejoin:miter;stroke-miterlimit:4;stroke-dasharray:none;stroke-opacity:1"
       id="path3705"
       sodipodi:nodetypes="cccccccccscccscccccccsccccccccsssccsccsscscsssccsccccssscccscsssccccscsccssccccccscssccccsccscccccccccccccccccccccccccccscccscccc" />
    <path
       d="m 25.071017,-0.87431854 c -0.532264,1.52123079 -2.425703,3.30006074 -3.128773,3.76888074 -1.2188,0.55677 -2.32036,1.42119 -3.30468,2.59329 -1.45318,1.69956 -2.32037,2.66655 -2.60157,2.90096 -3.18754,4.0730708 -8.4844115,6.3586808 -15.89062148,6.8568208 -2.76566002,-0.23442 -5.53128002,-0.48349 -8.29687952,-0.74722 -3.281269,-0.32232 -5.789079,-0.98163 -7.523429,-1.97793 -0.84377,-0.23441 -0.523472,3.301535 -2.325814,3.537275 -1.802343,0.23574 -9.251138,-0.213164 -10.38657,-1.609043 -2.682336,-3.297614 0.988705,-9.9204376 2.668684,-12.3602648 0.155471,2.8584317 -0.08926,7.3189937 1.6062,6.564082 1.695458,-0.7549117 1.89842,-0.55674 2.74218,-1.67025 0.70312,-0.87907 1.10155,-1.67024 1.19532,-2.37351 0.23436,-2.16838 0.4453,-4.35142998 0.63281,-6.54915 0.56248,-2.37349 1.89842,-4.26351 4.00781,-5.67006 0.28123,-0.02928 0.65623,-0.07323 1.125,-0.13186 -1.03127,1.05492 -1.54689,1.89004 -1.54687,2.50537 -2e-5,0.43956 0.23435,0.70329 0.70312,0.79118 0.70311,0.11723 2.06248,1.15747 4.07813,3.12073 0.04685,0.49816002 0.07029,1.04026002 0.07031,1.62630002 -2e-5,0.67397996 -0.08205,1.69955998 -0.2461,3.07676998 -0.16408,1.37724 -0.24611,2.40283 -0.24609,3.07679 -2e-5,1.40653 0.28123,2.63724 0.84375,3.6921298 1.6405995,1.377231 4.3593485,1.875371 8.1562485,1.494431 1.54684,-0.615341 2.90622002,-1.7581508 4.07813,-3.4284008 1.2655901,-1.87537 2.43746,-3.13538 3.51562,-3.78005 -0.56254,0.67398 -1.1719099,1.71422 -1.8281199,3.12073 -0.14067,1.23072 0.30465,1.99259 1.3359299,2.28561 1.35934,-0.0586 2.55465,-0.55674 3.58594,-1.49444 0.70308,-0.84976 1.42965,-1.68489 2.1796905,-2.50537 0.89058,-0.99628 1.33589,-2.00722 1.33594,-3.03283 -5e-5,-0.93767 -0.57427,-2.33687002 -1.7226605,-4.1976 -1.14848,-1.8607 -1.7227,-3.33316 -1.72266,-4.41738 -4e-5,-0.38091 0.04684,-0.76184 0.14063,-1.1428 -4e-5,0.05863 -0.02348,-0.45417 -0.07031,-1.5383899 -5e-5,-0.6446298 0.30464,-1.0695198 0.91406,-1.2746698 -4e-5,1.3772498 0.37496,2.4467997 1.1250005,3.2086497 0.32808,0.73258 1.14839,1.64096 2.46094,2.72514 0.656201,0.02932 1.101511,-0.21975 1.335931,-0.74722 0.14058,-0.35161 0.21089,-0.71789 0.21094,-1.09884 -5e-5,-1.2893 -1.0313,-2.7837299 -3.093751,-4.4833092 -2.2500405,-1.90465 -3.5391005,-3.31117 -3.8671905,-4.21959 -0.75004,-2.13906 -3.04691,-3.86791 -6.89061996,-5.18656 -5.15628004,-1.81673 -8.20314954,-3.04744 -9.14062904,-3.69214 -2.4375195,-1.40649 -4.8984495,-2.79836 -7.3828095,-4.17563 -3.00001,-1.90463 -4.45314,-3.8386 -4.35937,-5.80193 0.04686,-1.11345 0.82029,-2.813 2.32031,-5.09866 1.45311,-2.16834 2.10936,-3.88254 1.96875,-5.14262 -0.04689,-0.29296 -0.09377,-0.57134 -0.14063,-0.83512 0.09374,0.26378 0.14061,0.54216 0.14063,0.83512 0.42186,1.69962 0.96092,2.54939 1.61719,2.54934 0.23435,5e-5 0.46873,-0.10251 0.70312,-0.30768 5.343729,-4.80558 10.2187185,-7.369556 14.62499854,-7.691946 0.93746996,7e-5 1.40622006,0.17588 1.40625006,0.52745 -1.0312801,0.32239 -2.06253008,0.63007 -3.09375008,0.923026 -1.12503002,0.49821 -1.80472002,1.31868 -2.03906002,2.46142 -3e-5,0.93775 0.53903,1.4359 1.61719,1.49444 4.4062101,-0.41018 8.39058,-0.62995 11.9531205,-0.65931 1.96871,-0.02924 2.999951,-0.49808 3.093751,-1.40653 0.14058,-1.23065 -1.125041,-2.329486 -3.7968715,-3.296546 -2.67192,-0.96692 -3.93754,-2.09507 -3.79688,-3.38445 0.04684,-0.14645 0.51559,-0.46878 1.40625,-0.96699 0.09371,1.31869 0.63277,2.16846 1.61719,2.54933 0.60933,0.29309 2.2499505,0.87915 4.9218715,1.75816 2.10933,0.90845 3.35152,1.479846 3.72657,1.714196 1.31244,0.76194 2.01557,1.58241 2.10937,2.46143 -0.51568,1.5531 -1.66411,3.28195 -3.44531,5.18657 -1.50005,1.5824 -3.02349,3.17939 -4.570311,4.79098 -0.56255,0.82053 -1.14849,1.65565 -1.75782,2.50538 -0.8437905,0.96704 -1.9687905,1.36262 -3.3750005,1.18676 -1.82816,-0.58601 -2.74222,-1.81672 -2.74218,-3.69214 -4e-5,-0.17576 -4e-5,-0.43216 0,-0.76919 -4e-5,-0.33693 -4e-5,-0.59333 0,-0.7692 -4e-5,-1.7874 -0.7969199,-2.98881 -2.39063,-3.60422 -1.82815998,-0.32227 -3.49222,-0.48344 -4.99219,-0.4835 -2.53127,6e-5 -4.5234595,0.4396 -5.976559,1.31862 -2.8125195,1.64101 -4.2187695,3.57498 -4.2187495,5.80193 -2e-5,0.6154 0.11717,1.23076 0.35156,1.84607 0.09373,0.29307 0.56248,0.65936 1.40625,1.09884 0.79686,0.43959 1.33592,0.26377 1.61719,-0.52744 0.5624795,-1.75811 0.8437295,-3.13533 0.8437495,-4.13168 -2e-5,-0.6153 -0.14065,-0.99623 -0.42187,-1.1428 1.17185,-0.14646 1.9452795,0.20517 2.3203095,1.0549 0.04685,0.49819 -3e-5,1.43588 -0.14063,2.81305 -0.09377,1.23076 -0.07033,2.1831 0.07032,2.85701 0.18747,1.05494 0.6093395,1.94867 1.2656195,2.68119 1.31247,1.40658 3.84372,2.71054 7.59375,3.91191 3.93746,1.26005 6.56246,2.54937 7.875,3.86795 1.8280805,1.02563 4.1483915,2.65192 6.9609415,4.87889 0.18745,0.17585 0.42182,0.1905 0.70312,0.04395 0.2812,-0.14647 0.44527,-0.30764 0.49219,-0.48349 -0.0938,-1.40649 0.04683,-3.64815 0.42188,-6.72496 2.39057,4.42474 3.58588,8.05827 3.58593,10.90059 -5e-5,0.7032895 -0.07036,1.3332995 -0.21093,1.8900193 -1.64068,5.1572899 -2.46099,8.01429992 -2.46094,8.57102992 -5e-5,0.79118996 0.25776,1.18676998 0.77344,1.18675998 0.14057,1e-5 0.28119,-0.01464 0.42187,-0.04396 1.033187,-0.73562707 1.451955,-1.82532419 0.98438,-2.94492 0.46869,-1.52371 2.481941,-4.0773109 2.87181,-5.612024 0.383261,-1.5087013 2.498253,3.0229842 1.311643,6.41436326 z M 8.7234925,-38.378227 c -0.09379,-0.586 -0.63285,-0.80577 -1.61718,-0.65931 -0.18754,0.29308 -0.46879,0.73262 -0.84375,1.31862 -4e-5,0.61541 0.42183,0.89378 1.26562,0.83512 0.70308,-0.26367 1.10152,-0.76181 1.19531,-1.49443 z M -15.745256,-1.2810678 c -0.04689,-0.2051 -0.25783,-0.35161 -0.63281,-0.43954 -0.37502,-0.05858 -0.65627,0.01467 -0.84375,0.21977 -0.51564,0.55677002 -0.35158,0.90840002 0.49219,1.05490002 0.28123,0.02932 0.60936,-0.24905 0.98437,-0.83513002 z m 2.03907,7.38427 c -0.09377,-0.38092 -0.44534,-0.60069 -1.05469,-0.65931 -0.56252,0.23444 -0.89064,0.63002 -0.98438,1.18676 0.18749,0.58606 0.58592,0.79118 1.19532,0.61536 0.18748,-0.26372 0.46873,-0.64465 0.84375,-1.14281 z"
       style="font-style:normal;font-weight:normal;font-size:144px;font-family:'Seaweed Fire AOE';fill:url(#radialGradient3767);fill-opacity:1;stroke:url(#radialGradient3267);stroke-width:1.5;stroke-linecap:butt;stroke-linejoin:miter;stroke-miterlimit:4;stroke-dasharray:none;stroke-opacity:1"
       id="path3683"
       sodipodi:nodetypes="ccccccczzczcccccsccsssccccccccsssccccccsccccccccccsccccccccsccccccccccssscscscccscccccsccsccscsscczsccccccccsccccccccc" />
    <path
       d="m -6.2384075,-4.3876278 c -0.04694,0.38098 -0.46881,0.65936 -1.2656195,0.83513 -0.79694,0.17586 -1.4531895,0.13191 -1.9687495,-0.13186 -2.1094395,-1.81672 -4.2188095,-3.63348 -6.3281295,-5.4502997 -2.62505,-2.1390395 -5.64849,-3.1792795 -9.07031,-3.1207295 -5.85942,0.11727 -9.75004,1.26007 -11.67188,3.4284095 -1.17191,1.9633297 -1.24222,3.5456697 -0.21093,4.7470297 0.18746,0.17587 0.37496,0.26377 0.5625,0.26372 0.28121,5e-5 0.78512,-0.65193 1.51171,-1.95595 0.72653,-1.30392 1.55856,-2.08776 2.4961,-2.3515399 1.12496,6e-5 1.75777,0.04401 1.89844,0.13187 -1.50004,0.2930699 -2.34379,0.9523799 -2.53125,1.9779299 -0.18754,3.25264 -1.10161,7.9264 -2.74219,14.02132 -1.78129,6.3294008 -2.7891,11.0178208 -3.02344,14.0652808 -0.18753,2.16841 -3e-5,3.53098 0.5625,4.08771 0.14059,0.11723 0.28122,0.17584 0.42188,0.17582 0.14059,2e-5 0.36324,-0.24173 0.66796,-0.72524 0.30466,-0.48347 0.6445,-0.72522 1.01954,-0.72524 0.09371,0.9377 -0.28129,2.37353 -1.125,4.30749 -0.89066,2.0219 -1.33598,3.51633 -1.33594,4.48331 -4e-5,1.11351 0.3984,2.12445 1.19531,3.03282 1.40621,0.90839 2.39059,1.0256 2.95313,0.35163 0.37496,-0.43953 0.56246,-0.96697 0.5625,-1.58234 -4e-5,-0.29302 -0.05864,-0.73988 -0.17579,-1.3406 -0.11722,-0.60069 -0.17582,-1.04756 -0.17578,-1.34059 -4e-5,-0.58604 0.18746,-1.09884 0.5625,-1.53839 -0.18754,0.76188 0.42184,1.96329 1.82813,3.60422 1.40621,1.72887 2.10933,3.01818 2.10937,3.86795 -4e-5,0.52746 -0.18754,1.0256 -0.5625,1.49444 -0.14066,0.17582 -1.80472,0.42489 -4.99218,0.74722 -3.65629,0.35164 -7.12503,0.52745 -10.40625,0.52745 -4.26565,0 -7.47659,-0.32233 -9.63282,-0.96699 -1.17189,-0.49814 -1.75782,-1.26001 -1.75781,-2.28561 -1e-5,-1.02559 0.46873,-1.97792 1.40625,-2.85701 0.74998,-0.64465 1.80467,-1.69954 3.16406,-3.16469 -0.65627,1.20143 -0.98439,2.32957 -0.98437,3.38446 -2e-5,1.34793 0.60935,2.28562 1.82812,2.81306 0.42186,0.20512 1.49998,0.10256 3.23438,-0.30768 1.54685,-1.02558 2.55466,-2.44676 3.02344,-4.26354 0.18747,-1.64093 0.37497,-3.28188 0.5625,-4.92284 -0.51566,-2.60792 -1.07816,-6.57843 -1.6875,-11.91153 -3e-5,-0.52743 0.02341,-1.06952 0.07031,-1.6263 -0.0469,0.8205 -0.07034,1.3626 -0.07031,1.6263 0.14059,1.14283 0.70309,1.91934 1.6875,2.32956 0.37497,0.02933 0.91403,-0.27835 1.61718,-0.92304 0.37497,-1.31859 0.56247,-2.71046 0.5625,-4.17563 -3e-5,-2.40278 -0.78518,-5.9117708 -2.35547,-10.5269808 -1.57033,-4.61511998 -2.37893,-8.0362 -2.42578,-10.26325 1.17185,0.23447 1.94529,1.0989 2.32032,2.59328 0.32809,1.31867 0.89059,1.90472 1.6875,1.75816 0.65622,-0.14646 0.98434,-0.62996 0.98437,-1.45048 -3e-5,-0.23437 -0.32815,-1.55299 -0.98437,-3.95586 -1.54691,-2.3148497 -3.56253,-3.5162592 -6.04688,-3.6042292 -3.89064,-0.11715 -6.3047,0.14657 -7.24219,0.79118 -3.14063,2.8130992 -5.41407,5.1426592 -6.82031,6.9886792 -0.75001,0.93773 -2.36719,1.11355 -4.85156,0.52745 -1.17188,-0.5274 -1.75782,-1.37718 -1.75781,-2.54933 -1e-5,-0.73252 0.25781,-1.33322 0.77343,-1.80212 2.20312,-2.0804297 2.8125,-4.8788292 1.82813,-8.3952092 0.84374,2.34427 1.61718,3.51638 2.32031,3.51632 0.14062,6e-5 0.25781,-0.0439 0.35156,-0.13186 0.93749,-0.67391 1.61718,-1.7581 2.03907,-3.2526 0.46874,-1.75809 0.91405,-2.9009 1.33593,-3.42841 -0.04688,1.14287 0.28124,1.81683 0.98438,2.02189 0.32811,0.08797 0.65624,0.13192 0.98437,0.13186 0.56249,6e-5 1.30077,-0.20506 2.21485,-0.61536 0.91404,-0.41017 1.65232,-0.62994 2.21484,-0.65931 -0.89064,0.67402 -1.33595,1.28938 -1.33594,1.84607 -1e-5,0.55681 0.4453,0.99635 1.33594,1.31862 2.39061,0.05866 4.91013,-0.99623 7.55859,-3.16469 2.64841,-2.16833 5.19138,-3.19392 7.62891,-3.07678 l -3.02344,1.93398 c -1.50002,0.93775 -1.99221,1.84613 -1.47656,2.72515 1.68747,0.93774 3.86716,1.40658 6.53906,1.40652 3.37497,6e-5 7.07809,-0.6739 11.10938,-2.02188 2.48433,-0.58599 4.07807,-1.93391 4.78125,-4.04377 0.14057,-0.49808 -0.08208,-1.12076 -0.66797,-1.86804 -0.58599,-0.74715 -0.87896,-1.29658 -0.87891,-1.64828 -5e-5,-0.99622 1.00777,-1.84599 3.02344,-2.54933 1.7812,1.64102 4.05463,4.21965 6.82031,7.7359 1.12494,2.19777 2.53119,4.48337 4.2187495,6.85683 2.0624395,3.0475295 3.093689,5.4210392 3.093749,7.1205392 -6e-5,0.35169 -0.0235,0.71796 -0.07031,1.09885 z M -18.121216,-18.145227 c -0.18756,-0.52738 -0.77349,-0.82041 -1.75781,-0.87908 -0.60943,0.14658 -1.03131,0.3224 -1.26563,0.52745 -0.04693,0.14658 -0.25786,0.41763 -0.63281,0.81315 -0.37505,0.39565 -0.56255,0.696 -0.5625,0.90106 -5e-5,0.23448 0.23432,0.4396 0.70312,0.61535 0.79683,0.29309 1.73433,0.16123 2.8125,-0.39558 0.4687,-0.26366 0.70307,-0.79111 0.70313,-1.58235 z m -24.25781,6.85683 c -0.32816,-0.46879 -0.82035,-0.64461 -1.47657,-0.52745 -0.70315,0.26378 -0.6094,0.57146 0.28125,0.92303 0.23435,0.17587 0.53904,0.21983 0.91407,0.13186 0.37497,-0.11715 0.46872,-0.29297 0.28125,-0.52744 z"
       style="font-style:normal;font-weight:normal;font-size:144px;font-family:'Seaweed Fire AOE';fill:url(#radialGradient3763);fill-opacity:1;stroke:url(#radialGradient3265);stroke-width:1.5;stroke-linecap:butt;stroke-linejoin:miter;stroke-miterlimit:4;stroke-dasharray:none;stroke-opacity:1"
       id="path3685" />
    <path
       d="m -64.431906,-41.070467 -0.63281,-0.48349 c 0.04683,0.02937 0.07027,0.04402 0.07031,0.04395 0.18746,0.11728 0.37496,0.2638 0.5625,0.43954 z m 6.53906,74.8976 c -0.14067,0.46883 -0.56254,0.79116 -1.26562,0.96698 -1.4063,-0.08791 -2.90629,-0.55675 -4.5,-1.40653 -1.40629,-0.70326 -2.7891,-1.40653 -4.14844,-2.10979 -2.53128,-0.82047 -5.81253,-1.2307 -9.84375,-1.23071 -2.06252,10e-6 -4.98049,0.13186 -8.75391,0.39559 -3.77345,0.26372 -6.36329,0.39558 -7.76953,0.39558 -3.421876,0 -5.55469,-0.5421 -6.398444,-1.62629 -0.65625,-0.87908 -0.98437,-2.06583 -0.98437,-3.56028 0,-1.93396 -0.0703,-3.13537 -0.21094,-3.60422 1.03125,0.32234 1.75781,1.04025 2.179694,2.15374 0.60937,1.46514 1.007814,2.28561 1.195314,2.46142 0.42187,0.05862 0.79687,0.01466 1.125,-0.13186 0.187496,-0.1172 0.398426,-0.30767 0.632806,-0.5714 0.28125,-0.41023 0.44531,-0.63 0.49219,-0.65931 0.32812,-1.81675 0.49218,-3.75073 0.49219,-5.80193 -1e-5,-3.10606 -0.46876,-7.23773 -1.40625,-12.3950208 -1.171876,-6.24144002 -1.85157,-10.2852 -2.03906,-12.1313 1.312494,3.10611 2.34374,4.65915002 3.09375,4.65912002 0.09374,3e-5 0.16405,-0.01462 0.21093,-0.04395 0.51562,-0.3516 0.72656,-0.89370002 0.63282,-1.62630002 -0.23439,-1.17207 -0.35157,-1.74347 -0.35157,-1.71421 -0.04688,-0.23438 -0.46875,-1.53835 -1.26562,-3.9119 -0.515626,-1.5529997 -0.773436,-2.8569692 -0.773436,-3.9118992 0.843746,0.96703 1.523426,1.45052 2.039056,1.45048 0.23437,4e-5 0.42187,-0.10252 0.5625,-0.30768 0.70312,-1.14276 0.79687,-2.87162 0.28125,-5.18657 -0.28125,-1.40648 -1.61719,-3.56023 -4.00781,-6.46124 -2.203134,-2.66648 -3.304694,-4.87883 -3.304694,-6.63705 0,-0.7032 0.12891,-1.40647 0.38672,-2.10979 0.25781,-0.7032 0.80859,-1.47972 1.652354,-2.32956 0.74999,-0.7032 1.499994,-1.42112 2.250004,-2.15375 -0.70313,1.31869 -1.054704,2.5494 -1.054694,3.69214 -1e-5,1.43589 0.632814,2.44683 1.89844,3.03282 2.71874,0.99635 4.71092,0.92309 5.97656,-0.21977 1.49999,-1.55298 2.99998,-3.10602 4.5,-4.65912 1.92186,-1.75809 4.03123,-2.87159 6.32812,-3.3405 0.93748,6e-5 1.57029,0.11727 1.89844,0.35163 -1.50002,0.4103 -2.6719,0.90845 -3.51562,1.49443 -0.65627,0.76194 -0.67971,2.06591 -0.07032,3.91191 0.65623,1.40659 2.41404,2.19776 5.27344,2.37351 3.09372,-0.29296 5.76559,-0.87901 8.01563,-1.75816 2.85933,-1.11343 4.10152,-2.4467 3.72656,-3.99981 -0.14066,-0.52738 -0.04691,-1.34785 0.28125,-2.46142 0.37496,-1.25995 0.56246,-2.10972 0.5625,-2.54933 -4e-5,-0.67389 -0.18754,-1.21599 -0.5625,-1.6263 l 2.74219,2.10979 c 1.26558,2.34428 1.61714,5.68478 1.05468,10.02151 -0.14066,1.05495 -0.65629,3.07684 -1.54687,6.06565 -0.98442,3.22334 -1.71098,5.09871 -2.17969,5.62611 -0.37504,0.41029 -1.40629,0.46889 -3.09375,0.17581 -1.54691,-0.41018 -2.49613,-1.56764 -2.84766,-3.47236 -0.35159,-1.90462 -1.30081,-3.07672 -2.84765,-3.51632 -2.01565,-0.99623 -5.39065,-1.46507 -10.125,-1.40652 -2.53127,0.29308 -4.33595,1.36262 -5.41406,3.20864 l -0.49219,5.05471 c 0.04686,0.20516 0.32811,0.48354 0.84375,0.83512 0.60936,-0.20507 1.05467,-0.58601 1.33594,-1.1428 0.42186,-0.82043 0.65623,-1.27462 0.70312,-1.36258 0.56248,-0.26367 1.92186,-1.05484 4.07813,-2.37351 0.04685,0.32238 -0.18752,0.73262 -0.70313,1.23071 -0.70314,0.70332 -1.10158,1.1282 -1.19531,1.27467 -0.79689,0.90842 -1.21877,2.34426 -1.26563,4.30748 -0.04689,2.10984 -0.3047,3.60428 -0.77343,4.4833095 -1.40627,2.4321597 -2.41408,4.4979997 -3.02344,6.1975097 0.14061,0.99633 0.8203,1.61168 2.03906,1.84607 0.70311,0.29306 1.47655,0.43957 2.32031,0.43954 0.84374,3e-5 1.64061,-0.14648 2.39063,-0.43954 3.60935,-2.16836 5.24997,-4.93746 4.92187,-8.3072992 -2e-5,-0.17578 -0.30471,-0.68857 -0.91406,-1.53839 0.18748,-0.11717 0.39841,-0.17577 0.63281,-0.17581 0.60935,4e-5 1.17185,0.38097 1.6875,1.1428 0.18748,0.76191 0.84373,2.2270393 1.96875,4.3953892 0.98435,1.7875 1.47654,3.26729 1.47657,4.43936 -3e-5,0.49818 -0.12894,1.12818002 -0.38672,1.89002003 -0.25784,0.76189995 -0.38675,1.36260997 -0.38672,1.80210997 -3e-5,0.43958 0.082,1.09888 0.24609,1.97794 0.16404,0.8791 0.24607,1.52376 0.2461,1.93397 -3e-5,1.34795 -0.77347,2.32959 -2.32032,2.94491 -0.2344,0.05863 -0.46877,0.08794 -0.70312,0.08791 -1.12503,3e-5 -2.13284,-0.51277 -3.02344,-1.53839 -0.37502,-2.57861 -1.7344,-4.26351 -4.07812,-5.05471 -1.1719,0.05864 -2.36721,0.11724 -3.58594,0.17582 -1.50002,0.08794 -2.25001,0.32236 -2.25,0.70326 -1e-5,0.08794 0.02342,0.17585 0.07031,0.26373 0.51561,0.73259 0.77342,1.52376 0.77344,2.37351 -2e-5,0.8205 -0.3633,2.05121 -1.08985,3.69214 -0.72657,1.6409698 -1.08985,2.8716808 -1.08984,3.6921308 -10e-6,0.67399 0.16405,1.31864 0.49219,1.93398 0.04686,0.02932 0.4453,0.10257 1.19531,0.21977 2.10936,-1.61163 3.2578,-2.50536 3.44531,-2.6812 1.21874,-1.113471 1.9453,-2.139071 2.17969,-3.0767708 -1.17189,5.1572808 -2.53127,8.8494108 -4.07812,11.0764008 -0.18752,0.26374 -0.28127,0.58607 -0.28125,0.96699 -2e-5,2.0512 1.47654,3.70679 4.42968,4.9668 1.78123,0.79118 4.14842,1.18676 7.10157,1.18676 2.34372,0 3.98434,-0.21977 4.92187,-0.65931 1.78122,-1.02559 2.67184,-2.53467 2.67188,-4.52726 -4e-5,-0.82047 -0.1641,-1.61164 -0.49219,-2.37352 -0.98441,-1.2307 -1.35941,-2.75443 -1.125,-4.57121 0.65622,-1.46512 1.59371,-2.62257 2.8125,-3.47237 -0.42191,3.78006 0.2109,6.30009 1.89844,7.56009 3.89058,2.87167 6.2812,6.30008 7.17187,10.28523 z m -9.70312,-58.76649 c -0.09379,-0.55669 -0.79691,-0.79111 -2.10938,-0.70326 -0.75003,0.20517 -1.03128,0.54215 -0.84375,1.01094 0.70309,0.61541 1.40622,0.90844 2.10938,0.87908 0.84371,-0.29297 1.12496,-0.68856 0.84375,-1.18676 z m -16.875,-3.86795 c 0.1406,-0.23436 0.21092,-0.43948 0.21093,-0.61535 -1e-5,-0.17576 -0.07033,-0.39553 -0.21093,-0.65931 -2e-5,-0.17576 -0.14065,-0.27832 -0.42188,-0.30768 -0.42189,-0.05855 -0.65627,-0.1025 -0.70312,-0.13186 -0.4219,0.05866 -1.05471,0.48355 -1.89844,1.27466 -0.32814,0.52751 -0.25783,0.89379 0.21094,1.09885 0.74998,0.29309 1.68748,0.07332 2.8125,-0.65931 z m -10.61719,4.30749 c -0.28126,-0.73251 -0.91407,-1.06949 -1.89844,-1.01094 -0.421876,0.20518 -0.562496,0.79123 -0.421866,1.75816 0.468736,0.5275 1.054676,0.79123 1.757806,0.79117 0.74999,-0.35157 0.93749,-0.86437 0.5625,-1.53839 z m 29.32031,50.72291 c -0.09379,-0.20512 -0.32816,-0.29302 -0.70312,-0.26373 -0.28129,0.05861 -0.51566,0.19048 -0.70313,0.39558 -0.46878,0.49816 -0.21097,0.74723 0.77344,0.74723 0.56246,-0.05861 0.7734,-0.35164 0.63281,-0.87908 z m -22.92187,-7.69195 c -0.28127,-0.17581 -0.44533,-0.26371 -0.49219,-0.26373 -0.04689,0.02932 -0.16408,0.30769 -0.35156,0.83513 0.28123,0.20513 0.51561,0.20513 0.70312,0 0.14061,-0.17581 0.18749,-0.36627 0.14063,-0.5714 z m 1.54687,7.29636 c -0.28126,-0.41023 -0.75001,-0.61535 -1.40625,-0.61536 -0.65626,0.11722 -0.93751,0.51281 -0.84375,1.18676 0.37499,0.58606 0.93749,0.82048 1.6875,0.70327 0.89061,-0.14651 1.07811,-0.5714 0.5625,-1.27467 z"
       style="font-style:normal;font-weight:normal;font-size:144px;font-family:'Seaweed Fire AOE';fill:url(#radialGradient3755);fill-opacity:1;stroke:url(#radialGradient3263);stroke-width:1.5;stroke-linecap:butt;stroke-linejoin:miter;stroke-miterlimit:4;stroke-dasharray:none;stroke-opacity:1"
       id="path3687" />
    <path
       d="m -0.05561747,30.644693 c -0.83433001,1.07378 -1.87312003,2.75603 -3.11639003,5.04674 -0.01638,0.13294 0.08995,0.19942 0.319,0.19941 0.13086,1e-5 0.29445,-0.02556 0.49077,-0.0767 -0.08182,0.17386 -0.17179,0.59826 -0.26992,1.27319 -0.06546,0.52155 -0.28631,0.92038 -0.66255,1.19649 -1.53776,1.11468 -3.65625,1.63623 -6.355479,1.56464 -2.2084795,-0.06136 -3.7789395,-0.54711 -4.7113995,-1.45726 -1.78314,-1.73849 -2.96917,-3.80933 -3.55809,-6.21255 0.17994,0.37838 0.35172,0.56758 0.51531,0.56757 0.03272,10e-6 0.05725,-0.0051 0.07361,-0.01534 0.13087,-0.07158 0.19631,-0.67494 0.19631,-1.81008 0,-2.6793 -0.28628,-4.82685 -0.85885,-6.44264 0.37625,0.68518 0.66254,1.02776 0.85885,1.02776 0.08179,-0.02044 0.13087,-0.07158 0.14723,-0.1534 0.47441,-1.40101 0.94883,-2.79692 1.42324,-4.18772 0.70343,-1.57485 1.70951,-2.77646 3.01824,-3.60481 -0.26175,0.35795 -0.39262,0.67496 -0.39262,0.95105 0,0.35796 0.17995,0.62384 0.53985,0.79767 0.80159,0.04092 1.62772,-0.17383 2.4783895,-0.64427 0.60528,-0.3988 1.21057,-0.80275 1.8158495,-1.21183 0.04907,0.09206 0.02453,0.25057 -0.07361,0.47553 -0.09816,0.26591 -0.14724,0.43465 -0.14723,0.50621 -1e-5,0.19432 0.17176,0.28636 0.51531,0.27611 0.27809,-0.0102 0.6788895,0.05882 1.2023895,0.20709 0.52348,0.1483 0.89973,0.22245 1.12877,0.22242 0.35989,3e-5 0.67071,-0.1227 0.93247,-0.36815 0.0327,-0.1227 0.04906,-0.26075 0.04907,-0.41417 -1e-5,-0.18405 -0.04909,-0.47039 -0.14723,-0.85901 -0.09817,-0.38859 -0.14724,-0.68516 -0.14723,-0.8897 -1e-5,-0.13293 0.01635,-0.26075 0.04908,-0.3835 0.27809,0.38863 0.44986,0.68519 0.51531,0.8897 0.09814,0.36818 0.7116,1.83567 1.84039,4.40247 0.76886,1.77942 1.15329,3.31849 1.15331,4.61723 -2e-5,0.21477 -0.0082,0.42441 -0.02453,0.62892 -0.01638,0.21477 -0.01638,1.0789 0,2.5924 -2e-5,0.08182 0.07359,0.13807 0.22084,0.16874 0.13086002,0.03069 0.19629002,0.01023 0.19631002,-0.06137 0.0327,-0.18405 0.05724,-0.82832 0.07362,-1.93279 -2e-5,-0.77719 0.13903,-1.40612 0.41715,-1.88677 0.40896,1.27832 0.61344,2.41345 0.61346,3.4054 -2e-5,0.66473 -0.10635,1.1965 -0.31899999,1.59532 z m -2.94462003,-4.00364 c -0.11453,-0.18407 -0.26994,-0.25054 -0.46624,-0.19942 -0.19632,0.06138 -0.26994,0.20966 -0.22084,0.44485 -2e-5,-0.01021 0.12267,0.04603 0.36808,0.16874 0.21265,10e-6 0.31898,-0.13805 0.319,-0.41417 z m -0.02454,-1.33455 c -0.21269,-1.11466 -0.3681,-1.84585 -0.46623,-2.19357 -0.24541,-0.80787 -0.59712,-1.48792 -1.05516,-2.04016 -0.26176,-0.41927 -0.75253,-0.72095 -1.47231,-0.90505 -0.26176,-0.07156 -0.93248,-0.17382 -2.0121695,-0.30679 -1.9630995,0.18409 -2.952809,0.28125 -2.969169,0.29145 -1.12878,0.19433 -1.93037,0.58293 -2.40477,1.16582 -0.57257,0.91016 -0.85886,1.36013 -0.85886,1.34988 0,0.09206 0.06545,0.12785 0.19632,0.10738 0.22902,-0.02043 0.45805,-0.12782 0.68708,-0.32213 0.22902,-0.19428 0.41715,-0.317 0.56439,-0.36815 -1.71771,2.18847 -2.57656,3.99854 -2.57656,5.43023 0,0.35793 0.05726,0.67495 0.17178,0.95106 0.04907,0.06136 0.09815,0.09204 0.14723,0.09203 0.09815,10e-6 0.21266,-0.19941 0.34354,-0.59824 0.16358,-0.46018 0.31082,-0.74652 0.44169,-0.85903 -0.37626,1.45217 -0.56439,2.77138 -0.56439,3.95763 0,0.94083 0.13905,1.67714 0.41716,2.20891 0.14723,0.18408 0.31899,0.72096 0.51531,1.61066 0.16359,0.68517 0.42532,1.02776 0.78523,1.02775 0.0818,1e-5 0.15541,-0.0051 0.22085,-0.01534 0.29445,-0.10226 0.50713,-0.30679 0.638,-0.61358 0.17995,-0.46019 0.28628,-0.71074 0.31901,-0.75165 0.01635,0.52155 0.07361,0.99708 0.17176,1.42659 0.22902,1.02265 0.66254,1.7027 1.30055,2.04017 0.7034295,0.10226 1.1123995,0.09203 1.2269195,-0.03068 0.11451,-0.24543 -0.01636,-0.54199 -0.39261,-0.8897 0.1145,-0.06135 0.22902,-0.09203 0.34354,-0.09204 0.14722,10e-6 0.34353,0.10483 0.58893,0.31446 0.2453695,0.20965 0.4662195,0.31447 0.6625295,0.31447 0.09815,0 0.20448,-0.02045 0.31901,-0.06136 1.0469595,-0.5829 1.6440595,-1.55952 1.7913095,-2.92987 0.17993,-1.65667 0.45804,-2.72533 0.83431,-3.20598 0.03271,0.40906 0.13086,0.99708 0.29446,1.76406 0.1145,0.08182 0.27809,0.04602 0.49078,-0.10738 0.70342,-1.13513 1.05514,-2.21912 1.05515,-3.25201 -1e-5,-0.62379 -0.13907,-1.19647 -0.41715,-1.71803 -1.01428,-1.88165 -1.5214,-3.20085 -1.52139,-3.95763 -10e-6,-0.22495 0.02452,-0.45506 0.07361,-0.69028 0.03271,-0.28632 0.03271,-0.64424 0,-1.07376 0.42532,0.28635 0.66253,0.72097 0.71162,1.30386 0.09814,0.96129 0.14722,1.4675 0.14723,1.51862 0.09814,0.26591 0.36807,0.41419 0.80977,0.44485 0.32717,2e-5 0.4744,-0.11247 0.4417,-0.33747 z m -0.26993,11.382 c -0.03273,-0.01022 -0.045,-0.05368 -0.0368,-0.13039 0.00816,-0.07669 -0.03682,-0.11504 -0.13497,-0.11504 -0.04909,0.30679 -0.04909,0.47041 0,0.49086 0.09815,10e-6 0.14313,-0.03578 0.13497,-0.10737 -0.0082,-0.07158 0.00407,-0.1176 0.0368,-0.13806 z m -0.88338,1.01242 c -0.09817,-0.10227 -0.22086,-0.13806 -0.36808,-0.10738 -0.14725,0.05113 -0.26994,0.21476 -0.36809,0.49086 0,0.16363 0.14723,0.2301 0.44171,0.19942 0.24536,-0.09203 0.34352,-0.28634 0.29446,-0.5829 z m -8.3676485,-0.813 c -0.04908,-0.12271 -0.13906,-0.17385 -0.26992,-0.1534 -0.06545,0.02046 -0.09817,0.10227 -0.09816,0.24543 0.04907,0.06136 0.13905,0.08693 0.26992,0.0767 0.11451,-0.01022 0.14723,-0.06647 0.09816,-0.16873 z"
       style="font-style:normal;font-weight:normal;font-size:144px;font-family:'Seaweed Fire AOE';fill:url(#radialGradient3735);fill-opacity:1;stroke:url(#radialGradient3269);stroke-width:0.523489;stroke-linecap:butt;stroke-linejoin:miter;stroke-miterlimit:4;stroke-dasharray:none;stroke-opacity:1"
       id="path3681" />
    <path
       d="m -106.0874,9.8163922 c -4.54693,4.1023808 -7.12505,7.2963708 -7.73438,9.5819708 -0.0938,0.41024 -1.17192,0.77653 -3.23437,1.09885 -1.82817,0 -3.21098,-0.67396 -4.14844,-2.02188 -0.18754,-0.93768 0.0703,-2.3149 0.77344,-4.13168 0.74996,-2.02187 1.12496,-3.443051 1.125,-4.263531 -0.37504,-0.8204598 -0.60942,-1.5969798 -0.70313,-2.3295598 0.51559,0.67397 0.74996,1.45049 0.70313,2.3295598 0.60933,1.26002 1.42964,2.109801 2.46093,2.549331 0.60933,0.08791 1.10152,-0.20511 1.47657,-0.87908 0.32808,-0.586041 0.49214,-1.186751 0.49218,-1.8021108 -4e-5,-0.99628 -0.58598,-2.19769 -1.75781,-3.60423 -1.45317,-1.72884 -2.29692,-2.87165 -2.53125,-3.42841 -1.50004,-1.55302 -3.02347,-3.09140998 -4.57031,-4.61517 -1.59379,-1.78744 -2.57816,-3.45769 -2.95313,-5.01076 -0.0938,-0.3809 -0.4219,-0.57137 -0.98437,-0.5714 -0.42191,3e-5 -1.21878,0.13922 -2.39063,0.41757 -1.1719,0.2784 -2.03909,0.41758 -2.60156,0.41756 -1.5469,0.05863 -3.11721,0.11724 -4.71094,0.17582 -1.78127,0.17584 -2.9297,0.77654 -3.44531,1.80211 -0.0938,0.23444 0.0469,0.38096 0.42188,0.43954 0.3281,0.05863 0.76169,0.02933 1.30078,-0.08791 0.53904,-0.11719 0.99607,-0.293 1.37109,-0.52745 -0.6094,1.81679 -1.85158,4.49798002 -3.72656,8.04358 -1.50002,4.01448 -2.06252,7.0766098 -1.6875,9.1863808 1.17186,1.37724 3.25779,1.99259 6.25781,1.84608 0.7031,-0.20512 0.91404,-0.80583 0.63281,-1.80212 -0.42189,-0.55674 -0.82033,-1.09884 -1.19531,-1.626301 -0.56252,-0.70325 -0.84377,-1.2892998 -0.84375,-1.7581598 -2e-5,-0.52743 0.35154,-0.99628 1.05469,-1.40653 -0.0938,0.967 0.98435,2.1684098 3.23437,3.6042308 2.24998,1.43584 3.37497,2.60794 3.375,3.51632 -3e-5,0.55676 -0.25784,1.12816 -0.77343,1.7142 -0.84378,0.76188 -2.08597,1.14281 -3.72657,1.14281 -0.56252,0 -1.44143,-0.0586 -2.63672,-0.17581 -1.19533,-0.11722 -2.07423,-0.17582 -2.63671,-0.17582 -0.65627,0 -1.21877,0.04396 -1.6875,0.13186 -1.68752,-0.26372 -4.34767,-0.30768 -7.98047,-0.13186 -3.63283,0.17582 -6.33986,0.08791 -8.1211,-0.26373 0.49197,-1.85039 -2.44163,3.10086 0.98437,-6.109601 2.01736,-1.3684862 2.50717,-3.0968564 3.30469,-5.1426198 -0.30028,1.995679 -1.11972,3.5299039 1.26562,4.5712198 0.32812,0.11722 1.28906,0.01466 2.88282,-0.30768 1.54687,-1.2893098 2.3203,-3.1939798 2.32032,-5.7140198 -2e-5,-0.70324 -0.0469,-1.61163 -0.14063,-2.72514 -0.14064,-1.31861002 -0.23439,-2.16837998 -0.28125,-2.54933998 -1.26564,-5.88980002 -1.89845,-8.93727972 -1.89844,-9.14242972 -10e-6,-1.4357895 0.25781,-2.7397595 0.77344,-3.9118995 0.46874,0.20515 0.70311,0.55678 0.70313,1.0549 -2e-5,0.20515 -0.0469,0.52747 -0.14063,0.96698 -0.0938,0.43957 -0.14064,0.7619 -0.14062,0.96699 -2e-5,0.7912 0.42186,1.3625995 1.26562,1.7142095 0.32811,0.08793 0.93749,-0.17579 1.82813,-0.79118 0.65623,-1.3478895 0.98436,-2.7544195 0.98437,-4.2195795 -1e-5,-1.58231 -0.5508,-3.88989 -1.65234,-6.92275 -1.10158,-3.03278 -1.6758,-5.32571 -1.72266,-6.8788 1.59374,2.57868 2.62499,3.868 3.09375,3.86795 0.14061,-0.05856 0.18749,-0.26368 0.14063,-0.61536 -0.14064,-0.4688 -0.21096,-0.99624 -0.21094,-1.58234 -2e-5,-0.61531 0.11717,-1.56764 0.35156,-2.85701 0.23436,-1.28927 0.35155,-2.25625 0.35156,-2.90096 -10e-6,-1.87532 -0.89064,-3.22324 -2.67187,-4.04377 -2.25001,-0.99623 -4.50001,-1.99252 -6.75001,-2.98887 -2.67188,-1.17205 -4.00781,-2.60788 -4.00781,-4.30749 0,-0.93762 1.40625,-2.76904 4.21875,-5.494247 0.18749,1.582407 0.46874,3.223357 0.84375,4.922847 0.89062,0.49821 2.01562,0.74728 3.37501,0.74721 1.73436,7e-5 3.39842,-0.30761 4.99218,-0.92303 1.92186,-1.17204 3.8203,-2.34415 5.69532,-3.516317 2.34372,-1.34785 4.59372,-2.03646 6.75,-2.06584 1.21872,-0.02923 2.0859,0.19054 2.60156,0.65931 -1.12503,0.02938 -1.99222,0.17589 -2.60156,0.43954 -2.8594,0.87915 -4.38284,2.139157 -4.57032,3.780047 0.0937,0.79123 1.35935,1.4945 3.79688,2.10979 3.79684,0.17588 6.30465,-0.11715 7.52344,-0.87908 0.93746,-1.08413 2.76558,-2.60787 5.48437,-4.571217 0.93746,-0.35156 1.5234,-0.43947 1.75781,-0.26372 -0.70316,0.58612 -1.14848,1.084267 -1.33593,1.494437 -0.23442,0.76193 -0.35161,1.5238 -0.35157,2.2856 -4e-5,2.43219 1.17184,4.38081 3.51563,5.84588 1.87495,1.99264 3.25776,4.30755 4.14844,6.94473 0.4687,0.61541 1.0312,0.73262 1.6875,0.35164 1.03119,-0.5567 1.54682,-1.40648 1.54687,-2.54934 -5e-5,-0.26367 -0.0352,-0.65925 -0.10547,-1.18675 -0.0704,-0.5274 -0.10552,-0.92298 -0.10547,-1.18676 -5e-5,-1.02554 0.39839,-1.81671 1.19532,-2.37352 0.37494,0.93775 0.49213,1.56775 0.35156,1.89003 -0.0938,1.14285 0.11713,2.68124 0.63281,4.61516 0.56245,2.05124 0.8437,3.53103 0.84375,4.43936 -5e-5,0.87913 -0.14068,1.71425 -0.42187,2.50537 -1.87506,1.96333 -4.12505,5.39173 -6.75,10.28524 -2.43755,4.57124 -4.7813,7.8970892 -7.03125,9.9775492 -0.0938,0.11724 -0.14067,0.26375 -0.14063,0.43954 -4e-5,0.8205 0.9023,1.99993 2.70703,3.5383 1.80465,1.53840998 3.62105,2.68854 5.44922,3.45039 0.42183,0.05862 0.82026,0.08792 1.19531,0.0879 2.29683,2e-5 4.24214,-0.87906 5.83594,-2.63723998 0.89057,-1.11347002 4.39723,-6.89365552 5.334793,-8.00718552 -1.724063,10.2526303 -1.383133,10.8884505 -6.600413,18.0286955 z m -15.11719,-50.3712692 c -4e-5,-0.58599 -0.0704,-0.93762 -0.21094,-1.05489 -0.23441,-0.29297 -0.67972,-0.46878 -1.33594,-0.52745 -0.65628,-0.02924 -1.14847,0.11727 -1.47656,0.43954 -0.37503,0.35169 -0.14066,0.76193 0.70313,1.23071 1.21871,0.35169 1.99214,0.32239 2.32031,-0.08791 z m 11.39062,14.94436 c 1.07808,-2.16835 1.17183,-3.25255 0.28125,-3.2526 -0.0938,5e-5 -0.18755,0.01471 -0.28125,0.04396 -1.07817,0.6447 -1.26567,1.7582 -0.5625,3.3405 0.32808,5e-5 0.51558,-0.0439 0.5625,-0.13186 z m -34.80468,-12.7027 c -0.65627,-0.73251 -1.38283,-0.99623 -2.17969,-0.79117 -0.42189,0.17587 -0.58595,0.43959 -0.49219,0.79117 0.89061,0.67402 1.52342,1.011 1.89844,1.01094 0.18748,6e-5 0.39842,-0.0439 0.63281,-0.13186 z m 27.91406,18.76835 c 0.56245,-0.79113 0.8437,-1.59695 0.84375,-2.41747 -5e-5,-1.14276 -0.70317,-2.63719 -2.10938,-4.48331 -1.45316,-1.99253 -2.25004,-3.48696 -2.39062,-4.4833 1.12496,1.31867 2.08589,1.97798 2.88281,1.97793 0.28121,5e-5 0.49215,-0.05856 0.63281,-0.17582 0.42183,-0.61531 0.18746,-1.75811 -0.70312,-3.42841 -1.87504,-3.57487 -6.65629,-5.65535 -14.34375,-6.24147 -3.51565,-0.29296 -5.64846,-0.24901 -6.39844,0.13187 -0.98439,0.61541 -1.47658,1.49449 -1.47656,2.63724 -2e-5,0.84983 0.28123,1.80216 0.84375,2.857 0.0469,0.14657 0.16404,0.21983 0.35156,0.21977 0.0937,6e-5 0.42185,-0.12448 0.98438,-0.3736 0.56247,-0.24902 1.0781,-0.38821 1.54687,-0.41757 -2.4844,4.65917 -3.56252,8.23409 -3.23437,10.72478 -0.0938,0.14655 -0.14065,0.27841 -0.14063,0.39558 -2e-5,0.43958 0.48045,0.71796 1.44141,0.83513 0.96091,0.11725 1.44138,0.33702 1.4414,0.6593 -2e-5,0.17586 -0.0938,0.39563 -0.28125,0.65932 -0.65627,1.14284 -1.28908,2.28564 -1.89843,3.42841 -0.7969,1.46516 -1.19534,2.68122 -1.19532,3.64818 -2e-5,1.40656 0.74998,2.56401 2.25,3.4723595 3.3281,0.82051 5.9531,0.71795 7.875,-0.3076795 2.06247,-0.61532 3.84372,-1.88998 5.34375,-3.82399 1.87497,-2.51999 3.16403,-4.01443 3.86719,-4.48331 -0.0938,0.26377 -0.14066,0.51284 -0.14062,0.74722 -4e-5,0.90842 0.56246,1.47982 1.6875,1.7142 1.17183,-0.43949 1.94527,-1.59695 2.32031,-3.47236 z m 8.57812,24.2625992 c -0.6563,-0.52743 -1.42973,-0.64464 -2.32031,-0.35163 -0.79692,0.20513 -1.07817,0.58607 -0.84375,1.1428 0.74995,0.73259 1.38276,1.02561 1.89844,0.87908 1.0312,-0.29301 1.45307,-0.84976 1.26562,-1.67025 z m -40.99218,7.9117208 c -0.51564,-0.26372 -1.00783,-0.36627 -1.47657,-0.30768 -0.14063,0.05862 -1.125,0.19048 -2.95313,0.39559 -1.17188,0.17582 -1.78125,0.60071 -1.82812,1.27466 0.42187,0.32234 1.87499,0.36629 4.35938,0.13187 1.45311,-0.32233 2.08592,-0.82047 1.89844,-1.49444 z"
       style="font-style:normal;font-weight:normal;font-size:144px;font-family:'Seaweed Fire AOE';fill:url(#radialGradient3759);fill-opacity:1;stroke:url(#radialGradient3261);stroke-width:1.5;stroke-linecap:butt;stroke-linejoin:miter;stroke-miterlimit:4;stroke-dasharray:none;stroke-opacity:1"
       id="path3689"
       sodipodi:nodetypes="cccccccccsscccssscccssccccccscsscssscscccccsccscsssccsscccsssccsccscccccccccccscccssscccscccsscscccccccccccscccccccscccsccsccccscssccsssccsccccsccccccsccccccccc" />
    <path
       d="m -155.51574,-15.642007 c -0.32816,0.43959 -1.00785,0.99634 -2.03906,1.67025 -0.56254,0.08796 -1.45316,-0.08786 -2.67188,-0.52744 -0.70316,-0.41019 -1.19534,-1.56765 -1.47656,-3.47237 -0.18753,-1.43578 -1.35941,-2.19764 -3.51562,-2.28561 -0.84378,0.26378 -2.13285,0.48355 -3.86719,0.65931 -1.82815,-0.41018 -3.84377,-0.6739 -6.04688,-0.79117 -2.39064,-0.11715 -3.89064,0.02936 -4.5,0.43954 -1.45314,1.02565 -2.06251,1.83147 -1.82812,2.41747 0.32811,0.70332 0.74998,1.05495 1.26562,1.0549 0.23436,5e-5 0.49217,-0.11716 0.77344,-0.35164 -0.14064,0.70332 -0.77345,1.93403 -1.89844,3.69214 -0.98439,1.49448 -1.38282,2.7838 -1.19531,3.8679495 0.0937,0.32237 0.4453,0.7472598 1.05469,1.2746698 1.87498,-0.3809 3.37498,-1.2306698 4.5,-2.5493393 0.37498,-0.586 0.72654,-1.0988 1.05469,-1.53838 -0.2344,0.55679 -0.58596,1.06959 -1.05469,1.53838 -2.67189,4.2489292 -3.96095,7.5308292 -3.86719,9.84568922 0.0469,0.76191 0.84373,1.39191996 2.39063,1.89002998 3.1406,4e-5 5.08591,-0.42485002 5.83593,-1.27466997 0.28123,-0.29299001 1.24217,-1.93393003 2.88282,-4.92284003 1.12497,-1.96324 2.67184,-3.4137199 4.64062,-4.3514497 -0.46878,0.43959 -0.96097,1.1721498 -1.47656,2.1976997 -0.14066,0.26377 -0.21097,0.52749 -0.21094,0.79117 -3e-5,0.41028 0.23435,0.93773 0.70313,1.58235 0.56247,0.7326 0.89059,1.26005 0.98437,1.58234 0.0468,0.64469 -0.0703,2.43215002 -0.35156,5.36239 -0.23441,2.16843 -0.0469,3.94123 0.5625,5.31843 0.60934,1.49446 -0.0703,2.43215 -2.03906,2.8130498 -1.26566,3e-5 -2.25003,-0.17579 -2.95313,-0.5274398 -1.5469,-1.78744 -2.46096,-2.81303 -2.74219,-3.07679 -1.35939,-1.11346 -2.9297,-1.68487 -4.71093,-1.7142 -1.87502,0.26376 -2.81252,1.11353 -2.8125,2.54933 -2e-5,0.23445 0.0234,0.60806 0.0703,1.12083 0.0469,0.51283 0.0703,0.88643 0.0703,1.12083 -2e-5,0.5567698 -0.0938,1.0109698 -0.28125,1.3625698 -0.56251,1.025621 -0.77345,2.388191 -0.63281,4.087721 0.14061,0.8498 0.58592,1.27468 1.33594,1.27467 0.28123,10e-6 0.60935,-0.07324 0.98437,-0.21977 0.0469,0.99631 -0.18752,2.35888 -0.70312,4.08772 -0.51565,1.84608 -0.77346,3.194 -0.77344,4.04376 -2e-5,0.82049 0.14061,1.59701 0.42187,2.32956 0.23436,0.61537 0.91405,0.74723 2.03907,0.39559 0.79685,-0.41023 1.30076,-1.24535 1.51171,-2.50538 0.21092,-1.26 0.7617,-2.09512 1.65235,-2.50537 -0.14065,0.26374 -0.21096,0.55676 -0.21094,0.87908 -2e-5,0.55676 0.29295,1.56037 0.87891,3.01085 0.58591,1.45048 0.87888,2.55666 0.8789,3.31852 -2e-5,0.9963 -0.35158,1.86072 -1.05468,2.59329 -0.7969,0.55675 -1.94534,0.87908 -3.44532,0.96698 -1.40626,0.05861 -2.62501,-0.09523 -3.65625,-0.46151 -1.03126,-0.36628 -2.43751,-0.57872 -4.21875,-0.63734 -1.45313,-0.0586 -2.90625,-0.10255 -4.35937,-0.13186 -1.17188,-0.17581 -2.34376,-0.33697 -3.51563,-0.48349 -1.35937,-0.26372 -2.20312,-0.74722 -2.53125,-1.45049 -0.23437,-0.43953 -0.35156,-0.93767 -0.35156,-1.49443 0,-0.58604 0.1875,-1.49442 0.5625,-2.72515 0.375,-1.2307 0.5625,-2.15373 0.5625,-2.76909 0,-0.73256 -0.1875,-1.39187 -0.5625,-1.97794 0.84375,1.20143 1.75781,3.09145 2.74219,5.67007 0.74999,0.64466 1.42968,0.74722 2.03906,0.30767 0.84374,-1.08418 1.46484,-2.84234 1.86328,-5.27448 0.39843,-2.43209 0.94921,-4.16095 1.65235,-5.18656 0.0937,-0.49813 0.14061,-1.01093 0.14062,-1.53839 -1e-5,-1.49442 -0.46876,-3.721411 -1.40625,-6.6810108 -0.93751,-2.95953 -1.40626,-5.18654 -1.40625,-6.68101 -1e-5,-1.52369998 0.35156,-2.94488 1.05469,-4.26353 -0.28126,2.37355002 0.35155,3.79472998 1.89844,4.26353 l 0.77343,-0.57140002 c 0.0937,-3.98511998 -0.53907,-7.01793998 -1.89843,-9.09846988 -1.17189,-1.8167193 -1.75782,-2.7983593 -1.75782,-2.9449193 0,-0.73252 0.75,-1.21601 2.25,-1.45048 0.14062,-0.29298 0.21093,-0.57135 0.21094,-0.83513 -1e-5,-0.64461 -0.49219,-1.39182 -1.47656,-2.24165 -1.31251,-1.17205 -2.06251,-1.88997 -2.25,-2.15375 -2.0625,-1.61159 -3.09375,-3.4723 -3.09375,-5.58215 0,-0.76181 0.14062,-1.55298 0.42187,-2.37352 0.1875,-0.55669 0.79688,-1.28925 1.82813,-2.1977 1.50211,-1.007285 2.26263,-2.136805 2.88281,-3.73609 -0.71674,2.517038 -1.68698,4.953607 0,7.38427 1.64062,1.23077 4.07811,1.50915 7.3125,0.83513 1.64061,-0.35157 3.60936,-1.12809 5.90625,-2.32956 3.04685,-1.61159 4.87498,-2.53462 5.48438,-2.7691 -1.68753,0.96705 -2.53128,1.86078 -2.53125,2.68119 -3e-5,0.23448 0.0703,0.45425 0.21093,0.65931 1.2656,0.96705 2.97654,1.45054 5.13282,1.45048 1.21872,6e-5 2.36715,-0.17575 3.44531,-0.52745 2.34371,-0.7618 5.01559,-2.31484 8.01562,-4.65912 3.28121,-2.60787 5.78903,-4.29277 7.52345,-5.05471 z m -0.5625,-9.66988 c -4e-5,-0.35157 -0.32816,-0.52738 -0.98437,-0.52744 -0.70317,6e-5 -1.21879,0.21983 -1.54688,0.65931 -0.46879,0.26378 -0.49222,0.61541 -0.0703,1.05489 0.60934,0.08797 1.19527,0.0074 1.75781,-0.24175 0.56246,-0.24901 0.84371,-0.56401 0.84375,-0.94501 z m -2.32031,5.18657 c -4e-5,-0.02924 -0.28129,-0.1611 -0.84375,-0.39558 -0.42191,0.05866 -0.63285,0.39564 -0.63281,1.01094 0.0468,0.20517 0.3984,0.30773 1.05468,0.30768 0.37497,-0.26367 0.51559,-0.57135 0.42188,-0.92304 z m -16.24219,-3.86795 c -0.28127,-0.14645 -0.51564,-0.17575 -0.70312,-0.0879 -0.18752,0.11727 -0.2344,0.27843 -0.14063,0.48349 0.37498,-0.02924 0.65623,-0.16111 0.84375,-0.39559 z m -12.51562,3.86795 c -0.32814,-0.43948 -0.82032,-0.6153 -1.47657,-0.52744 -0.46875,0.11726 -0.70313,0.5275 -0.70312,1.23071 0.14062,0.23447 0.30468,0.45424 0.49219,0.65931 0.23436,0.29308 0.58593,0.39564 1.05468,0.30768 0.28124,-0.11716 0.49218,-0.67391 0.63282,-1.67026 z m 16.59375,25.4054092 c -3e-5,-0.3516 -0.39847,-0.49811 -1.19532,-0.43954 -0.0469,0.02933 0.0234,0.24911 0.21094,0.65931 0.5156,0.32236 0.84373,0.2491 0.98438,-0.21977 z m -10.33594,23.6472508 c -0.0938,-0.29302 -0.37502,-0.51279 -0.84375,-0.65932 -0.14064,0.17583 -0.1172,0.37362 0.0703,0.59338 0.18749,0.21978 0.4453,0.24176 0.77344,0.06594 z m -6.60938,-1.0549 c -0.42188,-0.26371 -0.77344,-0.36628 -1.05468,-0.30768 -1e-5,10e-6 -0.25782,0.27839 -0.77344,0.83513 0.18749,0.35164 0.6328,0.4835 1.33594,0.39558 0.42186,-0.23441 0.58592,-0.54209 0.49218,-0.92303 z"
       style="font-style:normal;font-weight:normal;font-size:144px;font-family:'Seaweed Fire AOE';fill:url(#radialGradient3671);fill-opacity:1;stroke:url(#radialGradient3259);stroke-width:1.5;stroke-linecap:butt;stroke-linejoin:miter;stroke-miterlimit:4;stroke-dasharray:none;stroke-opacity:1"
       id="path3691"
       sodipodi:nodetypes="cccccccccscccccccccccccsccccccccsssccsccsscscsssccsccccssscccscsssccccscsccssccccccscssccccsccscccccccccccccccccccccccccccscccscccc" />
    <path
       d="m 25.636254,20.152383 c -0.09818,0.42953 -0.16361,0.68519 -0.19631,0.76699 -0.14725,0.28636 -0.37629,0.43464 -0.68708,0.44484 -1.73408,0.04093 -2.74016,0.35284 -3.01824,0.93573 -0.26177,0.93061 -0.30267,1.52886 -0.12269,1.79473 0.08177,0.1125 0.15539,0.16875 0.22085,0.16873 0.1472,2e-5 0.3476,-0.31444 0.60118,-0.94338 0.25355,-0.62892 0.46213,-0.97916 0.62574,-1.05076 -0.06545,0.59315 -0.38446,1.79475 -0.957,3.6048 -0.45807,1.49308 -0.66256,2.68956 -0.61347,3.58947 -2e-5,0.20454 0.04088,0.30681 0.1227,0.3068 0.17993,10e-6 0.47439,-0.46529 0.88338,-1.3959 0.03269,0.79766 -0.13906,2.22937 -0.5153,4.29509 -0.37628,2.11687 -0.55623,3.56391 -0.53986,4.34111 0.04906,0.26589 0.29445,0.47553 0.73616,0.62892 0.5889,0.10227 1.07967,-0.02044 1.47231,-0.36814 0.06542,-0.42951 0.22901,-1.07889 0.49077,-1.94814 0.94881,1.09424 1.42322,2.02484 1.42325,2.79182 -3e-5,0.18407 -0.03275,0.3528 -0.09817,0.50621 -0.19632,0.47041 -0.76071,0.68005 -1.69315,0.62891 -0.32721,-0.01022 -0.79343,0.02046 -1.3987,0.09204 -0.65438,0.08182 -1.11243,0.12272 -1.37416,0.12272 -0.58894,0 -1.07153,-0.12272 -1.44777,-0.36815 -0.86705,-0.80788 -1.88949,-2.40832 -3.06733,-4.8013 -1.14513,-2.32139 -2.24938,-3.91671 -3.3127,-4.78596 0.40897,-0.11249 0.61346,-0.19941 0.61347,-0.26077 -10e-6,-0.05112 -0.02456,-0.09715 -0.07362,-0.13807 -0.31083,-0.29655 -1.439601,-1.53394 -3.386321,-3.71218 -1.3414505,-1.48281 -2.1594005,-2.23446 -2.4538505,-2.25493 -0.24539,-0.01021 -0.41716,0.08694 -0.51532,0.29145 0,0.26591 0,0.53179 0,0.79766 0.01636,0.36818 0.1227,0.59826 0.31901,0.69029 0.1963,0.02047 0.40897,-0.08691 0.638,-0.32214 -0.03272,0.5318 -0.22086,1.21186 -0.56438,2.04018 -0.39263,0.96129 -0.62165,1.62601 -0.68709,1.99415 0,-0.0818 -0.0409,0.53178 -0.12269,1.84075 -0.04908,0.72609 0,1.32945 0.14723,1.81008 0.03272,0.09204 0.07361,0.14317 0.12269,0.15339 0.01636,1e-5 0.31082,-0.38859 0.8834,-1.16581 -0.04909,0.62383 -0.35991,1.59022 -0.93247,2.89919 -0.53985,1.24763 -0.80978,2.21914 -0.80977,2.91453 -1e-5,0.36815 0.04907,0.72097 0.14723,1.05843 0.1145,0.19431 0.33535,0.31703 0.66254,0.36815 0.40897,0.02046 0.76069,-0.0409 1.05515,-0.18407 0.37626,-0.1534 0.60528,-0.37838 0.68709,-0.67494 0.1145,-0.42951 0.21265,-0.69028 0.29445,-0.78232 0.638,0.6954 0.9570005,1.29875 0.9570205,1.81007 -2e-5,0.55223 -0.4253505,0.88459 -1.2760105,0.99707 -2.65017,-0.03067 -4.26972,0.02046 -4.85864,0.15341 -1.0142599,0.02045 -1.8158499,-0.22499 -2.40477,-0.73631 -0.22903,-0.1943 -0.34355,-0.40394 -0.34355,-0.62893 0,-0.2352 0.17996,-0.57523 0.53985,-1.02008 0.3599101,-0.44484 0.5643901,-0.77976 0.6134701,-1.00474 -0.01636,-0.08181 -0.01636,-0.16362 0,-0.24544 0.01635,0.08182 0.01635,0.16363 0,0.24544 0.01635,0.59313 0.21266,0.8897 0.58892,0.88969 0.09816,1e-5 0.18813,-0.01533 0.26993,-0.04602 0.8342999,-0.40905 1.2514599,-1.07376 1.2514599,-1.99414 0,-0.32725 -0.05726,-0.7363 -0.17177,-1.22717 -0.29446,-1.37034 -0.44169,-2.36741 -0.44169,-2.99123 0,-0.67494 0.10633,-1.29875 0.319,-1.87144 -0.04908,0.95107 0.14723,1.56465 0.58893,1.84076 0.11451,0.05114 0.23719,0.0358 0.36808,-0.04602 0.13087,-0.0818 0.19629,-0.16361 0.1963,-0.24543 0.01635,-0.28634 0.07361,-0.77209 0.17177,-1.45727 0.09815,-0.65448 0.14723,-1.15557 0.14724,-1.50328 -1e-5,-0.73629 -0.17996,-1.3601 -0.53986,-1.87144 -0.01636,-0.57266 -0.21266,-1.34987 -0.58892,-2.33161 0.2781,0.25566 0.53984,0.3835 0.78523,0.38348 0.11451,2e-5 0.22085,-0.03067 0.31901,-0.09204 0.17994,-0.47039 0.06543,-0.88457 -0.34354,-1.2425 -0.2454,-0.16362 -0.89976,-0.26076 -1.9630899,-0.29146 -0.86703,-0.03066 -1.3578,-0.25052 -1.47231,-0.6596 -0.06543,-0.18406 -0.09816,-0.37324 -0.09816,-0.56757 0,-0.65447 0.3190001,-1.28339 0.9570101,-1.88677 -0.04908,0.9613 0.14723,1.48285 0.58893,1.56464 0.9651699,0.05115 1.9303499,-0.23008 2.8955399,-0.84368 1.276,-0.82831 2.02852,-1.27828 2.25755,-1.34989 -0.40898,0.31704 -0.61347,0.57781 -0.61346,0.78232 -10e-6,0.21477 0.24947,0.37585 0.74842,0.4832 0.49894,0.1074 0.84657,0.10996 1.04289,0.0077 0.4580504,-0.1636 0.7443304,-0.42437 0.8588504,-0.78232 0.06543,-0.14314 0.02044,-0.33745 -0.13497,-0.58291 -0.15541,-0.2454 -0.23311,-0.40903 -0.23311,-0.49086 0,-0.12269 0.08178,-0.23008 0.24539,-0.32214 0.1963,0.25568 0.38442,0.46533 0.56438,0.62893 0.40897,0.48066 0.61346,0.95619 0.61346,1.42659 0,0.31704 -0.11452,0.59826 -0.34354,0.84367 -0.7198,0.76701 -1.07969,1.29878 -1.07969,1.59533 0,0.18409 0.07361,0.36816 0.22084,0.55222 0.24538,0.13297 0.44169,0.10229 0.58893,-0.09203 0.04907,-0.23519 0.26992,-0.53688 0.66255,-0.90504 0.44168,0.92039 0.99788,2.28561 1.668611,4.09568 0.26174,0.57269 0.53166,1.14025 0.80978,1.70269 0.32717,0.67496 0.61345,0.97664 0.85885,0.90504 0.19629,-0.20451 0.38442,-0.41927 0.56438,-0.64426 -10e-6,-0.11248 -0.02455,-0.22497 -0.07361,-0.33748 0.27809,0.39885 0.54801,1.23741 0.80977,2.5157 0.22901,1.08401 0.65435,1.88679 1.276,2.40833 0.03271,0.02046 0.1963,0.1534 0.49077,0.39882 0.17994,0.16364 0.37625,0.24545 0.58893,0.24544 0.08178,10e-6 0.1554,-0.0051 0.22085,-0.01534 l 0.41716,-0.29145 c 0.32715,-0.57267 0.49075,-1.18114 0.49077,-1.82542 -2e-5,-0.67493 -0.25768,-1.67201 -0.77297,-2.99123 -0.51532,-1.31919 -0.77299,-2.31627 -0.77296,-2.99122 -3e-5,-0.6238 0.15539,-1.21693 0.46623,-1.7794 -0.22905,1.28855 -0.20451,2.22938 0.07362,2.82249 0.24536,0.15341 0.43349,0.19944 0.56438,0.13806 l 0.24539,-0.18408 c 0.29444,-0.48063 0.44167,-0.96637 0.44169,-1.45726 -2e-5,-0.70561 -0.47035,-1.71546 -1.41097,-3.02958 -0.94066,-1.31407 -1.4028,-2.34439 -1.38642,-3.09093 l 0.12268,-0.32213 c 0.1145,0.32727 0.22901,0.56759 0.34354,0.72096 0.1963,0.39886 0.94063,0.71587 2.23302,0.95106 0.45803,-0.03066 0.71159,-0.12269 0.76069,-0.27611 0.13085,-0.33746 0.0082,-0.7414 -0.36808,-1.21184 0.42532,0.10228 1.01424,0.40908 1.76677,0.92038 0.68706,0.47043 1.33325,0.75166 1.93856,0.84368 0.21264,0.05115 0.44985,-0.04088 0.71162,-0.27611 0.09812,-0.10225 0.20445,-0.43973 0.31899,-1.01242 0.17992,0.17388 0.37623,0.66474 0.58893,1.4726 z m -5.54572,0.82835 c -0.06545,-0.06135 -0.1636,-0.0818 -0.29446,-0.06136 -0.11453,0.05115 -0.15542,0.12273 -0.12269,0.21475 0.04906,0.09206 0.14722,0.14319 0.29446,0.15339 0.11449,-0.08178 0.15539,-0.18405 0.12269,-0.30678 z m -10.6497215,0.5829 c -0.04909,-0.11247 -0.13906,-0.15849 -0.26993,-0.13805 -0.26176,0.06137 -0.28629,0.1483 -0.07361,0.26077 0.21265,10e-6 0.32717,-0.04088 0.34354,-0.12272 z m 11.9993415,16.3367 c -0.14724,-0.21475 -0.33538,-0.31701 -0.56438,-0.30679 -0.14725,0.04091 -0.22087,0.17385 -0.22085,0.39883 0.0327,0.09203 0.20448,0.1534 0.51531,0.18407 0.06541,-0.06135 0.15539,-0.15339 0.26992,-0.27611 z m -16.9070615,0.10738 c -0.04908,-0.22498 -0.22085,-0.30168 -0.51531,-0.2301 -0.3926199,0.17385 -0.5562099,0.38861 -0.4907699,0.64427 0.11451,0.20453 0.3026399,0.28123 0.5643899,0.23009 0.34354,-0.11249 0.49076,-0.32724 0.44169,-0.64426 z"
       style="font-style:normal;font-weight:normal;font-size:144px;font-family:'Seaweed Fire AOE';fill:url(#radialGradient3731);fill-opacity:1;stroke:url(#radialGradient3251);stroke-width:0.523489;stroke-linecap:butt;stroke-linejoin:miter;stroke-miterlimit:4;stroke-dasharray:none;stroke-opacity:1"
       id="path3707" />
  </g>
</svg>
