<?xml version="1.0" encoding="UTF-8" standalone="no"?>
<!-- Created with Inkscape (http://www.inkscape.org/) -->

<svg
   version="1.0"
   width="251.82468"
   height="366.41891"
   id="svg2"
   sodipodi:version="0.32"
   inkscape:version="1.4 (e7c3feb100, 2024-10-09)"
   sodipodi:docname="neck.svg"
   inkscape:output_extension="org.inkscape.output.svg.inkscape"
   sodipodi:modified="true"
   xmlns:inkscape="http://www.inkscape.org/namespaces/inkscape"
   xmlns:sodipodi="http://sodipodi.sourceforge.net/DTD/sodipodi-0.dtd"
   xmlns:xlink="http://www.w3.org/1999/xlink"
   xmlns="http://www.w3.org/2000/svg"
   xmlns:svg="http://www.w3.org/2000/svg"
   xmlns:rdf="http://www.w3.org/1999/02/22-rdf-syntax-ns#"
   xmlns:cc="http://creativecommons.org/ns#"
   xmlns:dc="http://purl.org/dc/elements/1.1/">
  <metadata
     id="metadata3009">
    <rdf:RDF>
      <cc:Work
         rdf:about="">
        <dc:format>image/svg+xml</dc:format>
        <dc:type
           rdf:resource="http://purl.org/dc/dcmitype/StillImage" />
      </cc:Work>
    </rdf:RDF>
  </metadata>
  <sodipodi:namedview
     inkscape:window-height="761"
     inkscape:window-width="1239"
     inkscape:pageshadow="2"
     inkscape:pageopacity="0.0"
     borderopacity="1.0"
     bordercolor="#666666"
     pagecolor="#ffffff"
     id="base"
     inkscape:zoom="0.7107819"
     inkscape:cx="270.82851"
     inkscape:cy="99.889994"
     inkscape:window-x="671"
     inkscape:window-y="176"
     inkscape:current-layer="layer1"
     inkscape:showpageshadow="2"
     inkscape:pagecheckerboard="0"
     inkscape:deskcolor="#d1d1d1"
     inkscape:window-maximized="0" />
  <defs
     id="defs4">
    <linearGradient
       id="linearGradient3591">
      <stop
         style="stop-color:#000000;stop-opacity:0;"
         offset="0"
         id="stop3593" />
      <stop
         id="stop3599"
         offset="0.1021521"
         style="stop-color:#2a0000;stop-opacity:1;" />
      <stop
         style="stop-color:#440000;stop-opacity:1;"
         offset="0.8938309"
         id="stop3601" />
      <stop
         style="stop-color:#000000;stop-opacity:0;"
         offset="1"
         id="stop3595" />
    </linearGradient>
    <linearGradient
       id="linearGradient3016">
      <stop
         style="stop-color:#4b0000;stop-opacity:1;"
         offset="0"
         id="stop3018" />
      <stop
         id="stop3024"
         offset="0.5"
         style="stop-color:#840000;stop-opacity:1;" />
      <stop
         style="stop-color:#4b0000;stop-opacity:1;"
         offset="1"
         id="stop3020" />
    </linearGradient>
    <linearGradient
       inkscape:collect="always"
       xlink:href="#linearGradient3016"
       id="linearGradient3628"
       gradientUnits="userSpaceOnUse"
       gradientTransform="translate(-10.04059,46.9656)"
       x1="-196.5988"
       y1="-0.14184041"
       x2="198.1898"
       y2="-0.14184041" />
    <linearGradient
       inkscape:collect="always"
       xlink:href="#linearGradient3591"
       id="linearGradient3634"
       gradientUnits="userSpaceOnUse"
       gradientTransform="matrix(3.0257258,0,0,5.4091743,-63.584545,300.34828)"
       x1="-96.498459"
       y1="-27.276505"
       x2="112.41573"
       y2="-27.276505" />
  </defs>
  <g
     id="layer1"
     transform="matrix(0.398383,0,0,0.255506,141.65001,144.1669)">
    <path
       style="color:#000000;display:inline;overflow:visible;visibility:visible;fill:url(#linearGradient3634);fill-opacity:1;fill-rule:nonzero;stroke:none;stroke-width:10;stroke-linecap:butt;stroke-linejoin:round;stroke-miterlimit:4;stroke-dashoffset:0;stroke-opacity:1;marker:none;marker-start:none;marker-mid:none;marker-end:none"
       d="M -355.56239,-564.24076 H 276.55465 V 869.85053 h -632.11704 z"
       id="rect2620" />
    <g
       id="g3036"
       transform="matrix(0.9754363,0,0,1,-8.5040986,133.06924)">
      <path
         d="m -206.63939,73.35264 c 4.97487,-39.03605 13.03894,-76.19509 25.46875,-113.34375 42.0016,-85.7864 57.30253,-101.26372 101.0625,-185.8125 27.82733,-47.1477 76.30398,-144.48872 85.3125,-189.78125 5.87211,-35.14513 1.22523,-37.29071 23.91518,-41.16071 25.75403,1.24347 44.10353,2.66503 48.11888,9.10296 27.38473,51.95867 75.22521,81.88362 88.65362,192.1726 13.42841,110.28897 -9.58258,86.2281 -31.85487,33.09454 -30.58135,-23.10609 -83.69742,-29.6022 -117.8547,6.24334 -18.80133,35.49568 -27.5945,80.23053 -25.79061,120.07852 12.10478,105.10237 81.14365,188.52615 128.6875,279.125 21.14226,36.94228 48.3988,99.23102 61.86607,139.28124 8.64533,114.29893 25.07472,32.30173 -61.30357,-2.875 -43.27262,-4.63656 -96.72161,32.58971 -101.21429,77.90179 -5.42594,53.98768 11.08098,99.24647 38.65179,143.65179 10.86808,20.25518 3.54973,18.50752 -23.59375,17.94643 C 3.11693,563.81478 2.48192,549.75215 6.85615,529.7321 8.56991,480.10818 -42.03483,455.58025 -85.3001,458.62496 c -44.55646,11.43004 -74.67687,35.14422 -89.77679,100.97768 -8.14385,5.29594 -9.09206,-1.50954 -20.95535,0.067 0.29534,-32.75765 11.88714,-66.64383 23.99999,-96.47767 34.83432,-72.72716 75.08864,-140.87726 111.08929,-212.97323 23.61872,-41.71045 39.50518,-104.69072 32.36161,-153.0357 -17.06572,-50.86633 -87.85843,-68.00242 -146.39733,-1.08929 -9.82565,24.73537 -22.23992,32.42227 -31.66071,-22.74107 z m 17.82144,-541.36161 23.62945,1.42857 -11.42857,59.1384 z"
         style="fill:url(#linearGradient3628);fill-opacity:1"
         id="path2056" />
      <path
         d="M 233.73789,352.7678 C 228.81746,297.90709 210.02556,245.79581 193.89294,193.35509 181.5727,151.35196 153.38715,102.30551 144.35976,53.03148 c -9.0274,-49.27403 -2.96594,-102.22627 8.96859,-148.49779 11.93454,-46.27152 27.64804,-78.94773 25.10579,-119.95175 2.44484,-48.83362 -37.94178,-133.68147 -44.5176,-150.4194 -6.81822,-17.35494 40.85346,-108.88827 11.51831,-98.19271 -33.60306,-9.26063 -21.14588,42.79858 -31.62812,62.61183 -17.14456,-10.1482 -42.42312,-88.25275 -57.21288,-54.59845 16.0456,28.35078 66.54597,76.07219 45.00012,110.47747 -15.81978,28.03566 -29.03623,72.78847 -38.65741,90.82427 -45.85109,7.15035 -60.64281,57.54321 -72.72155,93.48284 -16.623,84.26195 19.73106,168.24908 63.19346,238.66919 42.38157,68.67624 88.20669,137.05921 109.91986,215.66894 5.75101,14.57789 25.78938,86.01469 2.26317,40.41059 C 145.89767,296.9814 95.35213,302.33772 64.39638,319.71579 27.45429,338.88021 5.46118,380.30658 11.50777,421.70824 10.97281,469.66919 38.42409,511.72121 58.22226,553.66061 105.95291,576.94222 48.04024,514.19365 45.63301,492.93586 27.90389,455.89107 17.12254,409.32948 33.72227,370.48502 c 17.57713,-32.66961 58.15352,-53.36695 94.6477,-45.59365 37.89713,14.99506 39.27485,60.33352 35.72337,94.74342 -2.76508,47.06379 -26.9877,88.40457 -40.37107,132.78823 29.88256,29.9216 37.32991,-17.8089 47.00004,-41.26477 11.66802,-39.01009 26.9224,-78.01229 23.65493,-119.56547 C 196.99688,327.08157 173.51165,265.49562 148.45667,207.22067 103.04296,106.96999 20.71694,22.79043 2.21521,-88.73221 c -5.3949,-38.56003 2.5281,-83.04023 14.85862,-106.37274 12.63587,-23.91028 26.28482,-38.31976 42.37188,-45.06166 -3.19866,12.18668 -20.48655,143.13959 -17.40886,157.78038 7.35136,-44.44789 29.59235,-149.53308 37.8071,-158.07512 26.3947,2.6012 61.94871,20.9962 62.84972,49.5542 1.81682,62.82781 -31.19426,98.68652 -27.6742,184.48644 3.52007,87.2285 53.2945,180.52575 86.05144,269.18851 21.77679,60.00053 25.49782,124.34403 28.82034,187.50563 2.66831,-31.56111 3.48847,-65.45783 3.84664,-97.50563 z m -74.44135,-545.75001 c -5.45976,-25.04804 -39.58738,-59.02215 -75.51184,-62.13794 10.85058,-22.26675 28.37895,-60.51551 39.11103,-86.95755 16.7843,34.60853 38.96415,67.45349 37.53786,108.59314 -0.10922,13.50151 0.0625,27.03998 -1.13705,40.50235 z M 5.90069,-461.94649 c -10.26537,-5.83363 -5.58117,75.63443 -24.3608,105.80803 -18.77963,30.1736 -29.57925,71.89063 -44.94939,94.94969 -15.37014,23.05907 -36.72058,86.19587 -51.02404,34.97137 -22.58922,-59.05948 -48.31836,-119.72219 -43.25978,-184.55286 0.77658,-7.28041 -1.65688,-44.69993 -2.42236,-52.87902 -0.78209,-8.3566 -2.15392,-10.88947 -12.34034,-3.40436 -3.40345,26.58397 -13.89148,16.80094 -9.45185,-2.75 -12.66137,-6.10109 -14.20872,-0.40072 -16.84936,7.65991 -5.79488,17.68911 7.35597,75.89907 8.98235,98.91152 5.89531,65.54731 46.26098,121.08738 62.49382,184 7.01121,38.95056 -35.18525,72.93712 -47.75848,109.96875 -12.57324,37.03163 -22.86586,63.53072 -31.8461,110.53125 -8.98025,47.00053 0.98163,107.83223 -1.02253,169.91635 -2.00415,62.08412 3.81808,135.41035 -6.15814,202.25127 -8.21888,38.44907 -20.00855,75.85793 -30.97825,113.76188 -18.39346,36.03217 7.94619,56.37501 17.378,12.5705 18.95044,-65.60668 39.54562,-140.2472 43.9641,-201.82148 4.41847,-61.57429 5.40383,-113.84174 5.66088,-160.7077 0.25705,-46.86596 2.87439,-87.80647 40.87669,-109.16349 27.559,13.5538 19.59317,70.46991 23.77306,101.69267 -1.92389,25.44805 5.61845,28.38437 7.26962,0.92249 8.9324,-36.71975 -1.22671,-75.06174 3.56324,-112.00839 34.88338,-13.94164 68.25202,20.24137 69.93612,54.24489 5.12586,44.56272 -8.36023,87.69551 -29.7063,126.3343 -35.01115,69.936 -72.11024,138.41117 -107.63258,208.03842 -14.77091,34.05362 -28.43566,68.92832 -30.4918,106.46829 18.33957,28.25645 16.47017,-20.46763 22.2438,-37.70546 14.73765,-72.87011 62.97177,-132.18741 93.13179,-198.73203 26.59648,-51.33973 58.21132,-101.81871 65.9423,-160.21273 2.69979,-36.63893 3.39207,-84.77661 -29.58027,-108.66067 -35.63647,-20.62697 -83.30802,-10.2584 -112.19403,16.86154 -10.93419,14.47485 -36.0832,68.62096 -38.24435,20.94935 3.03994,-64.32196 26.82836,-125.05502 55.32444,-181.9794 18.96643,-38.68525 44.9205,-73.64582 65.84705,-111.38371 35.52433,-53.31844 59.19504,-112.68001 88.42432,-169.27706 3.91275,-15.0705 16.64069,-110.23565 -4.54083,-85.57411 z m 8.90235,977.71428 c -4.43762,-38.65703 -40.61348,-70.12781 -79.95276,-66.65884 -55.14714,-5.2046 -101.63901,43.68502 -108.36649,97.01598 -7.63617,49.26218 15.04786,8.9389 19.30906,-25.46732 14.34089,-46.1041 69.14252,-67.14527 113.04188,-51.47972 37.38793,9.52298 44.2799,51.74073 41.88753,84.5899 25.31737,30.51509 14.11666,-23.00211 14.08077,-38 z m -253.50583,-989.85714 c -26.52272,2.15283 -8.91982,71.12784 -12.56429,101.54111 -3.66079,30.54941 1.12378,106.97211 11.55456,147.5677 4.00636,-35.48103 -2.3197,-60.44391 0.52831,-91.25167 2.84801,-30.80775 1.96074,-104.31271 10.44985,-147.14286 -3.32281,0 -3.78847,-10.71428 -9.96843,-10.71428 z"
         style="fill:#590000;fill-opacity:1;stroke:none"
         id="path2058" />
    </g>
  </g>
</svg>
