<?xml version="1.0" encoding="UTF-8" standalone="no"?>
<!-- Created with Inkscape (http://www.inkscape.org/) -->

<svg
   version="1.0"
   width="301.93076"
   height="413.06433"
   id="svg3777"
   sodipodi:version="0.32"
   inkscape:version="1.4 (e7c3feb100, 2024-10-09)"
   sodipodi:docname="pose.svg"
   xmlns:inkscape="http://www.inkscape.org/namespaces/inkscape"
   xmlns:sodipodi="http://sodipodi.sourceforge.net/DTD/sodipodi-0.dtd"
   xmlns:xlink="http://www.w3.org/1999/xlink"
   xmlns="http://www.w3.org/2000/svg"
   xmlns:svg="http://www.w3.org/2000/svg"
   xmlns:rdf="http://www.w3.org/1999/02/22-rdf-syntax-ns#"
   xmlns:cc="http://creativecommons.org/ns#"
   xmlns:dc="http://purl.org/dc/elements/1.1/">
  <metadata
     id="metadata2390">
    <rdf:RDF>
      <cc:Work
         rdf:about="">
        <dc:format>image/svg+xml</dc:format>
        <dc:type
           rdf:resource="http://purl.org/dc/dcmitype/StillImage" />
      </cc:Work>
    </rdf:RDF>
  </metadata>
  <sodipodi:namedview
     inkscape:window-height="1031"
     inkscape:window-width="1400"
     inkscape:pageshadow="2"
     inkscape:pageopacity="0.0"
     borderopacity="1.0"
     bordercolor="#666666"
     pagecolor="#ffffff"
     id="base"
     inkscape:zoom="2.0103948"
     inkscape:cx="150.21925"
     inkscape:cy="335.75495"
     inkscape:window-x="0"
     inkscape:window-y="0"
     inkscape:current-layer="svg3777"
     inkscape:showpageshadow="2"
     inkscape:pagecheckerboard="0"
     inkscape:deskcolor="#d1d1d1"
     inkscape:window-maximized="0" />
  <defs
     id="defs3779">
    <linearGradient
       id="linearGradient2355">
      <stop
         style="stop-color:#000000;stop-opacity:0.41520467;"
         offset="0"
         id="stop2357" />
      <stop
         style="stop-color:#000000;stop-opacity:0;"
         offset="1"
         id="stop2359" />
    </linearGradient>
    <radialGradient
       inkscape:collect="always"
       xlink:href="#linearGradient2355"
       id="radialGradient2361"
       cx="-294.96695"
       cy="34.651642"
       fx="-294.96695"
       fy="34.651642"
       r="165.6391"
       gradientTransform="matrix(0.297297,0,0,0.138138,136.93696,358.53609)"
       gradientUnits="userSpaceOnUse" />
    <radialGradient
       inkscape:collect="always"
       xlink:href="#linearGradient2355"
       id="radialGradient2365"
       gradientUnits="userSpaceOnUse"
       gradientTransform="matrix(0.297297,0,0,0.138138,158.32582,352.56709)"
       cx="-294.96695"
       cy="34.651642"
       fx="-294.96695"
       fy="34.651642"
       r="165.6391" />
    <radialGradient
       inkscape:collect="always"
       xlink:href="#linearGradient2355"
       id="radialGradient2369"
       gradientUnits="userSpaceOnUse"
       gradientTransform="matrix(0.297297,0,0,0.138138,198.11899,347.57229)"
       cx="-294.96695"
       cy="34.651642"
       fx="-294.96695"
       fy="34.651642"
       r="165.6391" />
    <radialGradient
       inkscape:collect="always"
       xlink:href="#linearGradient2355"
       id="radialGradient2373"
       gradientUnits="userSpaceOnUse"
       gradientTransform="matrix(0.459459,0,0,0.231231,281.78607,349.82839)"
       cx="-294.96695"
       cy="34.651642"
       fx="-294.96695"
       fy="34.651642"
       r="165.6391" />
    <radialGradient
       inkscape:collect="always"
       xlink:href="#linearGradient2355"
       id="radialGradient2377"
       gradientUnits="userSpaceOnUse"
       gradientTransform="matrix(0.297297,0,0,0.138138,340.37957,385.39649)"
       cx="-294.96695"
       cy="34.651642"
       fx="-294.96695"
       fy="34.651642"
       r="165.6391" />
    <radialGradient
       inkscape:collect="always"
       xlink:href="#linearGradient2355"
       id="radialGradient2381"
       gradientUnits="userSpaceOnUse"
       gradientTransform="matrix(0.297297,0,0,0.138138,318.49327,379.42749)"
       cx="-294.96695"
       cy="34.651642"
       fx="-294.96695"
       fy="34.651642"
       r="165.6391" />
    <radialGradient
       inkscape:collect="always"
       xlink:href="#linearGradient2355"
       id="radialGradient2385"
       gradientUnits="userSpaceOnUse"
       gradientTransform="matrix(0.297297,0,0,0.138138,295.61227,366.49479)"
       cx="-294.96695"
       cy="34.651642"
       fx="-294.96695"
       fy="34.651642"
       r="165.6391" />
  </defs>
  <path
     d="m 174.83641,65.339402 9.85682,3.28561 19.30295,77.211788 -13.55314,24.64206 -80.0867,16.42804 -2.00217,-22.48588 1.54013,-9.9595 z"
     style="fill:#ffff80;fill-opacity:1;fill-rule:evenodd;stroke:none;stroke-width:0.821402;stroke-linecap:butt;stroke-linejoin:miter;stroke-miterlimit:4;stroke-dasharray:none;stroke-opacity:1"
     id="path2099" />
  <path
     d="m 128.42719,40.389312 3.49096,16.73607 32.13735,3.49096 6.67389,-18.78957 z"
     style="fill:#ffff80;fill-opacity:1;fill-rule:evenodd;stroke:none;stroke-width:0.821402;stroke-linecap:butt;stroke-linejoin:miter;stroke-miterlimit:4;stroke-dasharray:none;stroke-opacity:1"
     id="path2986" />
  <path
     d="m 236.62289,393.17748 c -2.59931,-0.24802 -4.86064,-2.4445 -6.53161,-4.31616 -0.13018,-0.51867 1.35921,-3.39364 2.6911,-5.19462 3.41464,-6.31636 14.23751,-14.55347 14.83632,-16.11859 0.43092,-1.12631 -10.06961,-13.99823 -17.44444,-17.66496 -1.55011,-3.13902 -2.5571,-6.53682 -4.28391,-9.61577 -6.25038,-5.80247 -13.14019,-10.99316 -20.00777,-16.06247 -5.27147,-3.60633 -9.89944,-8.073 -15.08368,-11.786 -3.8274,-2.74176 -6.80153,-6.4365 -9.75483,-10.05531 -5.29848,-8.35275 -9.19657,-18.68219 -10.78816,-28.4073 -0.002,-0.29072 -0.15829,-0.86871 -0.34697,-1.2844 -1.914,-6.92719 -2.15967,-14.16979 -3.97232,-21.11874 -1.05458,-4.70873 -3.25231,-9.0094 -4.92458,-13.48742 -2.41198,-5.47524 -5.6991,-10.93264 -10.39199,-14.70051 -4.82025,2.21262 -8.53965,6.43686 -11.92739,10.40375 -7.55658,9.13958 -13.31636,19.56263 -19.39952,29.69957 -0.63906,1.1572 -0.86862,1.00489 -1.85535,0.93497 -0.75095,-0.0532 -4.57442,7.06997 -7.99393,10.54013 -1.897,1.92511 -3.09123,4.29792 -4.37558,6.62974 -5.805286,9.5613 -12.732785,18.46437 -17.336752,28.72437 -0.09635,0.42252 -0.477021,1.18279 -0.845937,1.6895 -3.669926,5.33399 -6.473288,11.19627 -9.801979,16.74922 -1.161536,1.73374 -1.811175,3.71437 -2.646401,5.60201 -0.46093,0.9418 -0.358493,0.90602 -1.140353,0.93959 -0.503987,0.0217 -4.523419,4.62723 -7.195744,7.26518 -1.437182,1.41869 -1.373614,1.39312 -1.307623,3.56548 0.02283,0.75159 -0.04753,1.63631 -0.156362,1.96606 -0.253879,0.76925 -5.482028,6.00413 -5.996423,6.00413 -1.03753,-0.49963 -1.552187,-0.72732 -2.690962,-0.27402 -0.537978,0.33679 -1.389739,1.06291 -1.623896,1.1654 -0.982857,0.43016 -1.902548,1.41827 -3.309806,3.556 -2.792923,3.44745 -10.139482,8.08454 -11.641022,8.35723 -1.57258,0.28559 -6.06418,0.20542 -9.04324,-0.37587 -2.03265,-0.63998 -7.4569,-1.06705 -6.94341,-4.1215 0.76302,-1.77196 1.39382,-3.58925 2.10976,-5.37285 3.64099,-7.95489 11.26859,-13.2983 17.87159,-18.66876 2.35073,-1.82934 2.44918,-1.94886 2.30549,-2.79932 -0.0961,-0.56891 -0.0377,-0.7872 0.34447,-1.28831 2.365198,-3.9425 4.273134,-8.14016 6.349433,-12.23935 0.640767,-2.35459 0.953228,-4.79067 1.765365,-7.10951 0.289257,-0.79507 0.4813,-1.59287 0.794953,-2.38188 0.477859,-0.99242 0.945598,-1.98934 1.333817,-3.01745 1.578587,-2.03618 2.952751,-4.20577 4.19844,-6.47039 1.033858,-2.38986 2.015877,-4.78798 3.15949,-7.12813 3.715423,-7.03566 7.495983,-14.03584 11.156397,-21.10377 2.092941,-3.46504 4.818673,-6.48553 7.180664,-9.76565 2.440352,-4.23068 6.077241,-7.73293 8.583174,-11.88707 3.027581,-6.13221 4.778687,-12.78429 7.337905,-19.1131 2.452752,-6.67619 5.294312,-13.23102 7.823942,-19.88747 -0.7591,-1.72166 -2.0718,-3.14276 -2.60685,-4.92634 0.30065,-1.91118 1.07628,-3.69342 1.28928,-5.15681 0.6664,-4.57835 0.97885,-9.37747 1.13109,-14.05011 0.13623,-5.01462 1.29565,-9.83669 1.43137,-14.8755 -0.30834,-3.18746 0.82571,-6.16275 1.2449,-9.26938 0.0786,-1.69587 0.77908,-2.77435 2.22523,-1.54627 0.064,0.20161 0.0254,2.26323 -0.0858,4.58138 -0.3461,7.21769 -0.50083,13.79966 -0.3321,14.12739 0.80553,0.61005 1.68229,1.84506 2.67425,1.51937 16.35223,-5.36905 27.79296,-8.98199 44.72246,-14.5446 4.14617,-1.36233 -1.13886,-5.41242 1.3836,-10.10865 3.23635,-6.0253 5.53941,-6.74729 9.21474,-8.88689 3.33708,-1.94269 14.67204,2.20528 12.22574,4.88391 -1.48661,1.62779 -4.26027,-0.0987 -4.80612,0.72692 -1.49167,2.25617 -0.0431,3.03357 3.87113,6.28111 4.02776,-1.36588 10.2301,-2.90969 15.63564,-4.73899 -2.72146,-13.62991 -2.78949,-14.10795 -4.73184,-24.53015 0.43823,-1.3881 2.01102,-2.8973 2.09646,-4.0391 0.14771,-1.97378 -5.83158,-38.817938 -6.02914,-39.944318 0.25757,-2.15822 1.24297,-4.06937 1.10132,-5.05641 -0.14021,-0.97704 -1.70001,-10.26692 -2.34723,-14.8639 5.35678,2.76121 14.83851,7.6326 20.2803,13.98176 2.76725,5.59195 2.33914,12.20812 2.93723,18.270658 1.46116,7.07059 0.96152,13.99019 0.45014,21.07424 -0.31873,7.22379 -2.61429,14.28156 -2.41769,21.51885 0.13621,4.34998 -0.0716,7.41289 -0.60877,8.97432 -0.30285,0.8802 -0.3578,1.49517 -0.35675,3.99151 0.1782,4.2558 -1.38946,8.2787 -2.606,12.28771 -0.3009,1.76035 -2.2535,1.81377 -2.17732,3.50535 0.54349,2.59778 1.65544,5.13893 2.05595,7.77243 -0.71091,0.60835 -1.56928,1.03934 -2.3132,1.60388 1.82018,8.4132 2.48326,17.06891 3.72153,25.59524 l 0.39193,10.6325 c -1.89647,2.04195 -3.5588,4.25776 -4.95526,6.66393 -0.18428,3.37502 0.0706,6.81063 0.0987,10.20596 -0.24871,13.19637 3.43161,26.25363 4.00274,39.37418 -0.0923,2.4369 1.30625,4.52995 2.27831,6.68684 1.75738,3.96692 1.92667,4.21186 3.0186,4.36786 5.63588,2.22758 10.96609,6.08284 15.27844,10.3802 16.45856,16.61154 32.47332,34.16157 46.739,52.76877 1.43413,1.94057 1.81244,2.25143 3.29007,2.70365 0.7336,0.22452 1.80175,0.62097 2.37369,0.88103 2.19203,1.44533 2.79366,4.62455 3.60547,7.05994 1.07232,4.46658 3.07709,8.87332 3.37734,13.50032 -0.10092,0.40212 -4.69543,4.7304 -6.74931,6.35824 l -0.86071,0.68216 c -2.06866,-0.0194 -3.80082,-0.40584 -4.95252,1.52307 -4.79044,6.06068 -12.40725,9.51958 -19.80757,11.4064 -4.8715,0.98739 -9.63893,-0.12741 -14.4829,-0.32934 z M 123.74345,160.95574 c -1.13749,0.34712 -1.4866,0.15319 -2.49656,-1.38686 -1.57607,-1.59961 -0.81725,-6.21598 -2.75239,-7.05781 -1.23593,0.66769 -4.75329,2.38019 -6.66825,3.4966 -0.97557,0.57309 -1.17201,0.59577 -1.54067,0.17784 0.18377,-4.12647 1.07146,-7.55021 -0.52711,-11.95986 -0.79849,-2.03202 -1.04931,-2.02071 -1.65744,-2.56825 -2.3002,-2.07108 -6.74377,-17.31641 -8.501861,-25.61967 0.09213,-1.24995 2.385991,-4.27773 3.123021,-6.63127 -0.31135,-0.79385 -2.17223,-0.72361 -1.49298,-1.56602 0.6428,-0.79721 3.41333,-2.81892 3.49592,-3.40522 0.0846,-0.60076 0.002,-4.860388 0.17784,-7.426548 0.15559,-1.0927 2.71553,-4.20589 3.8236,-6.44736 -1.05266,-1.48577 -2.50665,-2.52181 -3.02507,-4.253 0.52964,-4.31408 1.40695,-8.60503 2.29884,-12.86099 0.40995,-1.71387 0.68442,-1.59564 0.34402,-2.77312 -0.32089,-1.10997 4.74534,-7.3606 5.69138,-8.19451 0.83329,-0.73453 11.81846,-0.97959 17.76332,-1.23204 0.51912,-0.68477 -0.28456,-4.80692 -1.34592,-7.88356 -0.89469,-3.11583 -1.15544,-6.28788 -2.28506,-9.33154 -1.20676,-1.92565 0.15025,-11.4416 0.0194,-17.05626 -1.15174,-3.44108 4.89959,-11.47631 7.21525,-17.0564001 2.03332,-2.82782 4.53342,-5.80635 7.40246,-7.81184 0.98934,0 5.20381,2.40255 5.51034,2.89851 4.8771,-1.93583 9.67784,-4.67898004 15.04941,-4.59391004 3.77495,1.93320004 6.66107,9.12180004 7.26589,9.72031014 1.63889,1.62183 3.01963,-2.2294001 4.86671,-2.5209501 1.52486,0.4089 2.34881,6.8063801 3.40706,10.3459901 0.62951,1.5912 0.62165,3.28346 1.23294,4.85355 1.00401,4.44408 -0.60509,10.32451 -1.70755,14.70904 -0.32915,2.61904 -1.24027,5.00021 -2.11617,7.46936 -2.3187,3.50704 -1.26924,8.37898 -3.3822,11.8421 -0.39355,0.56181 -0.71554,1.20614 -0.71554,1.43183 0.5431,1.84559 1.31727,3.70562 2.40724,5.3068 2.92377,7.37708 3.05846,15.67373 5.33032,23.301 0.84236,1.02724 1.69759,2.00328 2.29601,3.18467 1.45169,7.78764 2.7549,15.355548 4.19733,23.166138 -17.49956,10.4093 -36.7502,21.32536 -54.41498,31.50412 l -2.58154,1.4783 0.3743,0.6554 c 0.98323,2.05959 1.16603,4.37548 1.67625,6.57989 0.35632,1.39028 0.66295,4.48073 0.74141,7.47245 0.0477,1.81802 0.043,1.84171 -0.45079,2.26748 -3.01514,1.15662 -5.01882,-3.08698 -8.04817,-2.22439 z M 157.17273,58.121962 c 1.6737,-0.50019 3.00772,-1.08155 4.11485,-2.18731 1.09649,-1.09512 1.01069,-2.60169 1.53371,-4.71293 0.18698,-0.75474 0.59906,-0.85304 2.64899,-2.78111 1.26123,-1.18626 2.12108,-1.90789 2.61974,-2.58147 0.27365,-0.36965 -0.0339,-0.5135 -0.40307,-0.5135 -0.11955,0 -0.88795,0.87362 -1.88681,1.85176 -1.43289,1.40315 -2.06865,1.70507 -2.46446,1.70507 -0.27591,0 -0.60541,-0.125 -0.7322,-0.27778 -0.27267,-0.32855 -0.8943,-0.76641 -1.67596,-1.21076 -0.005,-0.003 -0.01,-0.006 -0.0151,-0.009 -0.96329,-0.54628 -2.16652,-1.10137 -3.25881,-1.47432 -0.89415,-0.30531 -1.93363,-0.46344 -3.07434,-0.47388 -1.12125,-0.0103 -2.34032,0.12215 -3.61533,0.39774 -3.47649,0.75143 -3.35558,0.73989 -4.73659,0.45195 -1.42559,-0.29725 -2.63162,-0.90926 -4.64709,-2.35821 -1.95185,-1.4032 -3.24703,-1.18062 -6.9466,-1.56923 -1.82446,-0.19165 -3.25928,-1.00417 -4.15503,-1.20091 -0.65748,-0.14441 -1.20895,0.23543 -1.0534,0.72555 0.49183,0.57442 1.34484,0.46881 1.84828,1.02869 0.0539,0.21472 0.12081,1.61393 -0.0306,2.48191 -0.54374,3.11807 -0.30895,5.93985 0.77142,7.30695 1.07443,1.35959 3.48335,2.61119 5.87819,2.61294 1.29759,9.4e-4 1.66488,0.0753 2.59362,-0.36409 1.61869,-0.76578 2.54432,-2.37436 3.59501,-5.35663 0.224,-0.63579 0.28444,-1.22171 0.79794,-1.67164 0.48494,-0.42491 1.12087,-0.2124 2.00287,0.0326 0.82927,0.23034 1.02458,0.56586 1.28704,3.33881 0.32946,3.48072 1.15783,5.20623 2.94004,6.12419 1.92766,0.99289 4.02982,1.29196 6.06359,0.68417 z m -3.5833,-0.408 c -3.95631,-1.12368 -4.2496,-2.99603 -4.68418,-6.35897 -0.2852,-2.16127 0.42465,-3.71794 1.02285,-4.0316 0.68643,-0.35992 3.1947,-0.92537 5.97703,-0.41561 2.85332,0.52276 3.55246,0.67999 5.56267,2.42892 0.38773,0.44845 0.48275,1.60838 0.37122,2.8578 -0.14789,1.65667 -0.97019,3.04753 -2.3746,4.2195 -1.6956,1.59273 -3.70683,1.62454 -5.87499,1.29996 z m -17.86253,-3.41104 c -2.05373,-0.5797 -2.82038,-1.23054 -3.45168,-2.42204 -0.50903,-0.96074 -0.87727,-1.19353 -0.77401,-3.58528 0.15343,-3.5536 1.16732,-4.58138 2.3631,-4.81881 0.4549,-0.0903 2.12663,-0.54422 4.08167,0.14848 2.27301,0.80536 3.91433,1.27399 5.38524,3.13701 0.55618,0.70445 -0.33709,3.91453 -0.65967,5.03891 -0.30869,1.076 -1.54874,2.07856 -2.99416,2.54902 -1.09719,0.51852 -2.83609,0.26484 -3.95049,-0.0473 z"
     style="fill:#000000;stroke:#ffff80;stroke-width:0.821402;stroke-miterlimit:4;stroke-dasharray:none;stroke-opacity:1"
     id="path2095" />
  <path
     d="m 120.19393,175.85998 c -0.0302,-0.78045 -0.007,-1.52075 0.0525,-1.6451 0.11291,-0.23772 1.77058,-0.96847 1.94927,-0.85929 0.1383,0.0845 0.12981,2.83753 -0.009,3.05676 -0.0885,0.13939 -1.66478,0.86664 -1.8784,0.86664 -0.0324,0 -0.0837,-0.63855 -0.11392,-1.41901 z m -9.58369,0.48189 c -0.10319,-0.10321 -0.0975,-1.76542 0.008,-2.40496 0.0849,-0.51354 0.13733,-0.55659 1.26338,-1.03785 l 0.44993,-0.19229 v 1.50201 1.50205 l -0.82176,0.35456 c -0.45196,0.19502 -0.85691,0.31943 -0.89986,0.27648 z m 12.13518,-1.7016 0.0386,-1.80809 0.96889,-0.40855 c 0.53288,-0.2247 1.04684,-0.37863 1.14213,-0.34207 0.24455,0.0938 0.24472,3.3045 1.8e-4,3.50739 -0.14935,0.12392 -1.97368,0.8594 -2.13169,0.8594 -0.0312,0 -0.0394,-0.81364 -0.0181,-1.80808 z m -9.91424,0.73842 c -0.12776,-0.12776 -0.0961,-2.57319 0.036,-2.78154 0.15365,-0.24229 1.53387,-0.87667 1.69318,-0.77822 0.1516,0.0937 0.16424,2.55362 0.0143,2.78949 -0.13897,0.21867 -1.63441,0.87936 -1.74349,0.77027 z m 12.71236,-0.35824 c -0.0384,-0.10008 -0.052,-0.85844 -0.0303,-1.68528 l 0.0396,-1.50333 0.96022,-0.39324 c 0.52813,-0.21629 1.00385,-0.34566 1.05716,-0.28749 0.17353,0.18934 0.23712,2.93255 0.0729,3.14358 -0.11973,0.1538 -1.76423,0.9077 -1.98001,0.9077 -0.0273,0 -0.0811,-0.0819 -0.11952,-0.18194 z m -10.44289,-2.03977 v -1.53322 l 0.86525,-0.39297 c 0.61423,-0.27896 0.89475,-0.34677 0.96695,-0.23373 0.12102,0.18945 0.13712,2.24397 0.021,2.67704 -0.0447,0.16653 -0.24628,0.36294 -0.44804,0.43646 -0.20175,0.0735 -0.60045,0.23403 -0.88598,0.35667 l -0.51915,0.22298 z m 13.56419,0.87193 c -0.002,-0.0571 -0.0356,-0.75796 -0.0757,-1.55744 -0.04,-0.79948 -0.0232,-1.52394 0.0375,-1.60987 0.0607,-0.0859 0.56417,-0.34889 1.11894,-0.58431 l 1.00866,-0.42806 0.13347,0.35106 c 0.15541,0.40879 0.17733,2.82653 0.0275,3.03713 -0.0945,0.13281 -1.9231,0.89532 -2.14712,0.89532 -0.0552,0 -0.10171,-0.0467 -0.1033,-0.10383 z m -11.21072,-1.94453 v -1.51325 l 0.81334,-0.36501 c 0.44733,-0.20076 0.88553,-0.36501 0.97376,-0.36501 0.11408,0 0.14908,0.42939 0.12114,1.48647 l -0.0393,1.48647 -0.62298,0.29413 c -1.32888,0.62742 -1.24596,0.69557 -1.24596,-1.0238 z m 14.1962,0.76753 c -0.11714,-0.3736 -0.21134,-3.08854 -0.11187,-3.22426 0.16614,-0.22668 2.17015,-1.0228 2.28817,-0.909 0.14471,0.13953 0.30071,2.66243 0.19153,3.09746 -0.0535,0.21332 -0.23759,0.40442 -0.4696,0.48758 -0.20984,0.0752 -0.71061,0.26823 -1.11279,0.42889 -0.54552,0.21791 -0.74501,0.24823 -0.78544,0.11933 z m -20.97974,-3.13791 c 0,-1.66889 0.0389,-3.13577 0.0865,-3.25976 0.0833,-0.21709 1.27673,-0.90475 1.57018,-0.90475 0.15664,0 0.2096,5.89522 0.0566,6.2941 -0.0833,0.21709 -1.27673,0.90476 -1.57018,0.90476 -0.0941,0 -0.14304,-1.03866 -0.14304,-3.03435 z m 9.49734,2.65634 c -0.11045,-0.11048 -0.10782,-2.5815 0.003,-2.87046 0.0735,-0.19158 1.8338,-1.11363 1.92775,-1.00977 0.0379,0.0419 0.11178,2.71995 0.0823,2.98259 -0.0174,0.15464 -0.58254,0.45405 -1.63241,0.86479 -0.16349,0.064 -0.33482,0.0787 -0.38072,0.0328 z m -7.32845,-0.68336 c -0.11683,-0.11683 -0.11776,-0.86934 -0.003,-1.9724 l 0.0898,-0.85935 0.79338,-0.4005 c 0.43637,-0.22027 0.83202,-0.36186 0.87926,-0.31462 0.12909,0.12909 0.0991,2.57326 -0.0341,2.78341 -0.0637,0.1004 -0.44267,0.33403 -0.84227,0.51916 -0.82748,0.38338 -0.76249,0.3654 -0.8836,0.2443 z m 21.86134,-0.0664 c -0.0998,-0.30877 -0.17917,-3.14247 -0.0918,-3.27955 0.1627,-0.25537 2.24365,-1.03023 2.38558,-0.8883 0.16522,0.16521 0.33112,2.62562 0.20967,3.10951 -0.0815,0.32455 -0.4124,0.49846 -2.20174,1.15701 -0.14526,0.0535 -0.26519,0.0142 -0.30169,-0.0987 z m -11.90469,-0.35993 c -0.0447,-0.0447 -0.0813,-0.7601 -0.0813,-1.58974 v -1.50844 l 0.89681,-0.40665 c 0.49326,-0.22364 0.95377,-0.40663 1.02337,-0.40663 0.18155,0 0.35284,2.68974 0.18985,2.98101 -0.145,0.2591 -1.89669,1.0625 -2.02874,0.93045 z m -7.69547,-1.95121 v -1.48551 l 0.88527,-0.43654 c 0.4869,-0.2401 0.92298,-0.39883 0.96908,-0.35274 0.16466,0.16466 0.0878,2.60985 -0.0892,2.84039 -0.0952,0.12391 -0.53126,0.38157 -0.96908,0.57259 l -0.79602,0.34731 z m 22.78973,0.98159 c -0.13734,-0.46564 -0.14812,-3.21162 -0.0131,-3.3432 0.29091,-0.28356 2.32355,-0.99579 2.45807,-0.86129 0.16874,0.16874 0.29568,3.21473 0.14255,3.42065 -0.0884,0.11883 -2.27055,1.02611 -2.46798,1.02611 -0.0264,0 -0.0802,-0.10901 -0.11952,-0.24227 z m -12.46828,-0.14226 c -0.11508,-0.1151 -0.0887,-2.98464 0.029,-3.15113 0.10907,-0.15431 1.70811,-0.8944 1.93244,-0.8944 0.14724,0 0.34448,2.56061 0.23023,2.98881 -0.0713,0.2673 -2.03454,1.21386 -2.19169,1.05672 z m -7.96798,-1.9651 v -1.52269 l 0.84771,-0.42793 c 0.51253,-0.25872 0.89779,-0.37785 0.97436,-0.30127 0.0697,0.0696 0.1087,0.74081 0.0868,1.49145 -0.0444,1.51962 -0.0299,1.4981 -1.39012,2.06642 l -0.5187,0.21672 z m 11.02325,0.25573 c -0.11923,-0.59616 -0.10511,-2.65014 0.0194,-2.82542 0.0559,-0.0787 0.62611,-0.37699 1.26705,-0.6628 0.90008,-0.40135 1.1911,-0.47905 1.27844,-0.34138 0.14245,0.22451 0.14958,2.8897 0.008,3.11185 -0.0806,0.12684 -2.25792,1.15038 -2.44707,1.15038 -0.0218,0 -0.0786,-0.19468 -0.12617,-0.43263 z m -8.31296,-0.0873 c -0.11696,-0.11697 -0.0937,-2.70598 0.026,-2.88857 0.14671,-0.22384 1.78272,-1.02488 1.88477,-0.92282 0.17101,0.171 0.0929,2.90723 -0.0872,3.05563 -0.29283,0.24125 -1.73885,0.84053 -1.82361,0.75576 z m 23.10762,-0.0355 c -0.12138,-0.1964 -0.29637,-3.13414 -0.2026,-3.40143 0.10992,-0.31335 2.58343,-1.31626 2.74607,-1.11342 0.16862,0.21029 0.33464,3.29537 0.18897,3.51153 -0.0846,0.12559 -2.41547,1.14347 -2.61842,1.14347 -0.0151,0 -0.0664,-0.0631 -0.11402,-0.14015 z m -30.35665,-1.68859 0.0395,-1.41342 0.78658,-0.44189 c 0.43262,-0.24305 0.82198,-0.40649 0.86525,-0.36322 0.11597,0.11598 0.0917,2.56744 -0.0273,2.74855 -0.0954,0.14521 -1.45307,0.8834 -1.62478,0.8834 -0.0433,0 -0.0609,-0.63603 -0.0392,-1.41342 z m 18.87515,0.68978 c -0.10743,-0.34391 -0.18574,-2.97693 -0.093,-3.12698 0.14819,-0.23979 2.21268,-1.13623 2.29817,-0.99792 0.13175,0.21318 0.23354,3.11022 0.11475,3.26602 -0.062,0.0814 -0.362,0.24766 -0.66656,0.36951 -0.30458,0.12185 -0.78878,0.32145 -1.07605,0.44356 -0.40825,0.17357 -0.53429,0.18355 -0.57731,0.0458 z m -9.11283,-1.51126 c -0.0426,-0.77235 -0.0474,-1.48234 -0.0108,-1.57775 0.0892,-0.23242 1.88756,-1.03513 2.02579,-0.90421 0.0599,0.0567 0.091,0.75189 0.0692,1.54476 l -0.0397,1.44161 -0.83063,0.44604 c -0.45684,0.24532 -0.89945,0.44779 -0.98355,0.44992 -0.0969,0.002 -0.18129,-0.51082 -0.23031,-1.40037 z m 24.18349,1.07857 c -0.10069,-0.26239 -0.29281,-3.16497 -0.22721,-3.43289 0.0828,-0.33808 2.67631,-1.3924 2.89905,-1.17851 0.1103,0.10593 0.1821,0.76009 0.20765,1.89192 l 0.0391,1.73 -0.48454,0.23366 c -0.2665,0.12851 -0.90769,0.3915 -1.42488,0.58437 -0.7221,0.26932 -0.95631,0.30911 -1.00914,0.17145 z m -31.75842,-1.30096 c 0.001,-0.74238 0.0479,-1.41948 0.10383,-1.50468 0.15714,-0.2393 1.54896,-0.90367 1.69896,-0.81098 0.14655,0.0906 0.18513,2.2616 0.0466,2.62263 -0.0716,0.18649 -1.53189,1.04281 -1.77834,1.04281 -0.0402,0 -0.0722,-0.60741 -0.071,-1.34978 z m 19.73123,0.3461 c -0.0974,-0.30744 -0.17317,-2.99084 -0.0881,-3.12001 0.13454,-0.2043 2.2892,-1.13228 2.38355,-1.02656 0.0477,0.0535 0.12684,0.7535 0.1758,1.55564 0.066,1.08123 0.0436,1.51674 -0.0865,1.6839 -0.13982,0.17965 -2.03303,1.08008 -2.27092,1.08008 -0.0325,0 -0.0837,-0.0779 -0.11389,-0.17305 z m -9.53832,-0.81633 c -0.13706,-1.31119 -0.10659,-2.01901 0.0955,-2.21945 0.27293,-0.27071 1.8751,-1.00753 1.97454,-0.90809 0.13165,0.13163 0.24362,2.37942 0.13926,2.79523 -0.0722,0.28766 -0.29132,0.45756 -1.0006,0.77579 -0.49948,0.2241 -0.95576,0.40745 -1.01397,0.40745 -0.0582,0 -0.14583,-0.38292 -0.19474,-0.85093 z m -7.84045,-0.7816 0.001,-1.48234 0.8521,-0.44416 c 0.46865,-0.24427 0.90422,-0.41192 0.96796,-0.37253 0.14933,0.0923 0.1477,2.55953 -0.002,2.79525 -0.0624,0.0984 -0.49753,0.36048 -0.96696,0.58248 l -0.85348,0.40364 z m 33.25158,1.04235 c -0.1787,-0.21533 -0.36327,-3.43834 -0.20832,-3.63786 0.18747,-0.24139 2.66558,-1.20358 2.88398,-1.11976 0.1124,0.0431 0.20442,0.15825 0.20448,0.25581 7e-5,0.0976 0.0639,0.84989 0.14183,1.67185 0.0811,0.85501 0.0904,1.58625 0.0216,1.70899 -0.0842,0.15054 -2.61187,1.28702 -2.88082,1.2953 -0.01,3e-4 -0.083,-0.0782 -0.1628,-0.17433 z m -39.89567,-2.97463 c 0.001,-1.65608 0.0479,-3.07829 0.10383,-3.16047 0.15192,-0.22314 1.52766,-0.9627 1.61969,-0.87067 0.0438,0.0438 0.0317,1.47481 -0.027,3.17999 l -0.10661,3.10034 -0.6922,0.3777 c -0.38071,0.20774 -0.73892,0.37916 -0.79603,0.38094 -0.0571,0.002 -0.10287,-1.35174 -0.10171,-3.00783 z m 27.22673,2.21504 c -0.1188,-0.20532 -0.24832,-2.87962 -0.15168,-3.13151 0.12879,-0.33559 2.42,-1.40327 2.55223,-1.18932 0.15284,0.2473 0.27162,3.06205 0.13963,3.30869 -0.0665,0.12415 -0.60861,0.42653 -1.2048,0.67197 -1.16288,0.47871 -1.24335,0.49921 -1.33538,0.34017 z m -9.6949,-1.17674 c -0.0489,-0.62817 -0.0893,-2.27837 -0.0897,-3.6671 l -8.3e-4,-2.52499 1.12248,-0.56437 c 0.61737,-0.31039 1.19981,-0.53469 1.29432,-0.49842 0.12667,0.0486 0.19778,0.9701 0.2705,3.50558 0.0543,1.8918 0.0616,3.53625 0.0163,3.65431 -0.0679,0.177 -2.16293,1.2393 -2.44079,1.23762 -0.0458,-2.8e-4 -0.12332,-0.51446 -0.17222,-1.14263 z m -15.45523,-0.41532 c 0.001,-0.70431 0.0479,-1.35027 0.10383,-1.43546 0.0938,-0.14284 1.4518,-0.8834 1.61994,-0.8834 0.0406,0 0.0738,0.61841 0.0738,1.37424 v 1.37423 l -0.74366,0.42548 c -0.40902,0.23401 -0.81395,0.42547 -0.89986,0.42547 -0.10486,0 -0.1555,-0.42083 -0.15407,-1.28056 z m 41.82567,0.81451 c -0.18832,-0.23362 -0.46356,-3.38267 -0.31834,-3.64219 0.0674,-0.12051 0.76978,-0.48733 1.56074,-0.81517 1.09533,-0.45397 1.47436,-0.55696 1.59016,-0.43206 0.21407,0.2309 0.51085,3.37059 0.34637,3.66447 -0.18879,0.33737 -3.01617,1.42683 -3.17893,1.22495 z m -13.35467,-0.60685 c -0.034,-0.0571 -0.10449,-0.78911 -0.15674,-1.62667 -0.073,-1.17105 -0.0527,-1.57504 0.0882,-1.74884 0.27145,-0.33491 2.37251,-1.23948 2.52493,-1.08705 0.18064,0.18065 0.36595,3.04658 0.2152,3.32825 -0.0682,0.12751 -0.65112,0.45825 -1.2953,0.73498 -1.27593,0.54813 -1.28603,0.55106 -1.37629,0.39933 z m -26.19761,-0.21511 c -0.0396,-0.10313 -0.0538,-0.7404 -0.0316,-1.41614 l 0.0403,-1.22861 0.78997,-0.46823 c 0.43446,-0.25753 0.85499,-0.42805 0.93447,-0.37893 0.15557,0.0961 0.203,2.25137 0.0579,2.62959 -0.0476,0.12419 -0.45394,0.41119 -0.90286,0.63781 -0.62951,0.31777 -0.83268,0.36912 -0.88818,0.22451 z m 16.50691,-0.0578 c -0.059,-0.0954 -0.14352,-2.41481 -0.10609,-2.91025 0.0196,-0.25952 3.60628,-2.02005 3.67393,-1.80337 0.1043,0.33409 0.18674,2.9745 0.0974,3.11886 -0.0851,0.13748 -2.76268,1.44117 -3.32936,1.62103 -0.14697,0.0466 -0.29811,0.0348 -0.33587,-0.0263 z m -14.21392,-2.45932 v -1.45162 l 0.82669,-0.41732 c 0.45468,-0.22951 0.89076,-0.4173 0.96908,-0.4173 0.15548,0 0.20329,2.31058 0.0557,2.69504 -0.0716,0.18649 -1.53189,1.04282 -1.77835,1.04282 -0.0402,0 -0.0732,-0.65323 -0.0732,-1.45162 z m 27.36767,1.20935 c -0.11741,-0.20423 -0.23627,-3.2908 -0.13212,-3.43118 0.18176,-0.24504 2.59171,-1.28753 2.71341,-1.17376 0.18262,0.17069 0.3994,3.14794 0.24958,3.42763 -0.0715,0.13357 -0.68202,0.47646 -1.35663,0.76199 -1.31144,0.55508 -1.3824,0.57507 -1.47424,0.41532 z m 16.44934,-0.47016 c -0.0388,-0.10309 -0.15348,-0.95665 -0.25468,-1.89682 -0.16481,-1.53068 -0.16117,-1.73504 0.0349,-1.95493 0.31798,-0.35665 3.16272,-1.47674 3.32879,-1.31067 0.15996,0.15996 0.55817,3.42453 0.4624,3.79077 -0.0591,0.22599 -0.92819,0.61815 -3.25962,1.47086 -0.1436,0.0525 -0.26968,0.0124 -0.31176,-0.0992 z m -25.23055,-0.36176 c -0.0513,-0.13254 -0.0958,-0.89511 -0.099,-1.6946 l -0.006,-1.45362 1.1564,-0.60177 c 0.63602,-0.33099 1.20439,-0.54903 1.26306,-0.48455 0.19416,0.21344 0.27906,3.04294 0.0985,3.28185 -0.0904,0.11966 -0.64943,0.43718 -1.24219,0.70562 -0.97484,0.44144 -1.08665,0.46505 -1.17095,0.24707 z m -23.06909,-0.27048 c -0.0472,-0.0472 -0.0859,-0.60502 -0.0859,-1.23953 0,-0.96093 0.0453,-1.19896 0.27114,-1.42479 0.24599,-0.246 1.27224,-0.83639 1.45384,-0.83639 0.0411,0 0.0747,0.62208 0.0747,1.3824 v 1.38241 l -0.81398,0.41089 c -0.44769,0.22599 -0.85262,0.37224 -0.89986,0.32501 z m 35.57004,-0.44253 c -0.13642,-0.22073 -0.36341,-3.149 -0.26416,-3.40765 0.1079,-0.28121 2.61001,-1.46807 2.87807,-1.36521 0.20815,0.0799 0.45888,2.96841 0.30088,3.4662 -0.0551,0.17365 -0.53045,0.45857 -1.36001,0.81516 -0.70141,0.30152 -1.31863,0.56707 -1.3716,0.59013 -0.053,0.0231 -0.13541,-0.0213 -0.18318,-0.0986 z m -9.29387,-0.75188 c -0.0392,-0.10208 -0.0839,-0.86523 -0.0995,-1.69588 l -0.0282,-1.51028 1.15186,-0.59944 c 0.63351,-0.32969 1.23169,-0.56881 1.32927,-0.53137 0.18643,0.0716 0.40337,2.85593 0.25304,3.24767 -0.0604,0.15743 -2.23016,1.27491 -2.47543,1.27491 -0.0329,0 -0.0918,-0.0835 -0.13099,-0.18561 z m 26.54019,-0.12587 c -0.2084,-0.57313 -0.44975,-3.41452 -0.31192,-3.67205 0.16163,-0.30201 3.21895,-1.59152 3.50924,-1.48013 0.28689,0.11008 0.75434,3.50709 0.53818,3.91097 -0.0904,0.16885 -0.76119,0.51166 -1.78397,0.91165 -0.90154,0.35258 -1.68396,0.64104 -1.73871,0.64104 -0.0548,0 -0.15053,-0.14017 -0.21282,-0.31148 z m -50.6872,-1.12068 c 0,-1.06076 0.0436,-1.33108 0.24227,-1.50122 0.49827,-0.42679 3.77425,-2.20412 3.90906,-2.1208 0.15981,0.0988 0.18979,2.41091 0.0343,2.64856 -0.11678,0.17855 -3.84955,2.26718 -4.05187,2.26718 -0.0766,0 -0.1338,-0.55345 -0.1338,-1.29372 z m 7.55246,1.04741 c -0.0422,-0.0422 -0.0767,-0.71629 -0.0767,-1.49799 v -1.42128 l 0.92837,-0.49297 c 0.5106,-0.27114 0.98021,-0.44113 1.04358,-0.37777 0.0633,0.0634 0.0972,0.73145 0.0753,1.48464 l -0.0399,1.36943 -0.92696,0.50633 c -0.50984,0.27848 -0.96149,0.47181 -1.00369,0.42961 z m 8.87689,-0.41323 c -0.11856,-0.20519 -0.2344,-2.87522 -0.13098,-3.01904 0.1791,-0.24903 2.22677,-1.32049 2.2993,-1.20312 0.0579,0.0937 0.14159,2.53841 0.10427,3.04583 -0.0148,0.20188 -2.1862,1.3258 -2.27259,1.17633 z m 20.83892,-0.34802 c -0.18607,-0.22833 -0.35163,-3.30282 -0.19063,-3.54012 0.18912,-0.27877 2.81875,-1.43479 2.95463,-1.2989 0.19793,0.19792 0.44144,3.20542 0.28699,3.54442 -0.0835,0.18325 -0.48145,0.44358 -1.01962,0.66701 -0.48546,0.20154 -1.11011,0.46326 -1.38808,0.58159 -0.39471,0.16804 -0.53562,0.1781 -0.64329,0.046 z m -9.75685,-0.47123 c -0.12318,-0.21127 -0.24617,-3.15796 -0.13834,-3.31451 0.1694,-0.24593 2.4026,-1.32337 2.59216,-1.25063 0.17938,0.0688 0.41497,2.9526 0.27172,3.32594 -0.041,0.10683 -0.58458,0.42577 -1.20797,0.70877 -1.49635,0.67928 -1.44187,0.66024 -1.51757,0.53043 z m 28.05514,-0.42687 c -0.20758,-0.13592 -0.62047,-3.62322 -0.46365,-3.91623 0.15521,-0.29001 3.48273,-1.68841 3.76231,-1.58112 0.27365,0.10501 0.77916,3.72815 0.56708,4.06437 -0.12611,0.19991 -3.23754,1.54154 -3.5641,1.53681 -0.0805,-0.001 -0.21619,-0.0479 -0.30164,-0.10383 z m -36.26006,-0.34379 c -0.0405,-0.10558 -0.0558,-0.84187 -0.0339,-1.63621 l 0.0397,-1.44426 1.10753,-0.57908 c 0.60913,-0.31852 1.14641,-0.53655 1.19397,-0.48456 0.13261,0.14506 0.27177,2.98083 0.15492,3.15698 -0.1104,0.16644 -1.56048,0.92225 -2.07639,1.08226 -0.20956,0.065 -0.33638,0.0337 -0.38583,-0.0951 z m 21.9932,-0.55395 c -0.0605,-0.0952 -0.17654,-0.88214 -0.2578,-1.7488 -0.17918,-1.91113 -0.21079,-1.85719 1.54654,-2.6384 1.34832,-0.5994 1.50881,-0.64067 1.64347,-0.4228 0.16321,0.26409 0.4252,3.29214 0.30718,3.55029 -0.0686,0.15012 -0.70303,0.49942 -1.53359,0.8444 -1.59135,0.66096 -1.55517,0.65216 -1.7058,0.41531 z m -36.28611,-1.37498 0.0395,-1.40959 0.76143,-0.45395 c 0.41877,-0.24968 0.84146,-0.45638 0.9393,-0.45935 0.13609,-0.004 0.16863,0.32578 0.13844,1.4042 l -0.0394,1.40961 -0.76142,0.45394 c -0.41879,0.24968 -0.84147,0.45638 -0.93931,0.45934 -0.1361,0.004 -0.16862,-0.32577 -0.13844,-1.4042 z m 26.02072,0.89045 c -0.15551,-0.30305 -0.32338,-2.86019 -0.20758,-3.16197 0.10378,-0.27043 2.68132,-1.49178 2.82926,-1.34061 0.0576,0.0589 0.14892,0.8698 0.20281,1.80196 l 0.098,1.69484 -1.34448,0.62403 c -0.73948,0.34321 -1.36907,0.624 -1.39908,0.624 -0.03,0 -0.11054,-0.109 -0.17891,-0.24225 z m -18.02099,-1.34036 c 0,-1.41863 0.007,-1.44891 0.3807,-1.71051 0.73285,-0.51265 3.61162,-1.97732 3.67374,-1.86913 0.13041,0.22717 0.2344,2.74764 0.12055,2.92212 -0.13586,0.20822 -3.73824,2.0992 -4.00194,2.10071 -0.12745,7.3e-4 -0.17305,-0.3796 -0.17305,-1.44319 z m 9.50265,0.92205 c -0.12566,-0.20333 -0.24169,-3.00872 -0.13085,-3.16366 0.0612,-0.0855 0.62667,-0.41402 1.25657,-0.72993 0.93394,-0.46837 1.15999,-0.53603 1.22498,-0.36664 0.0438,0.11424 0.0891,0.87879 0.10068,1.69901 l 0.021,1.49129 -1.10752,0.58363 c -1.18229,0.62302 -1.26265,0.65166 -1.36485,0.4863 z m 38.16266,-0.14044 c -0.21858,-0.13984 -0.74041,-3.76501 -0.5846,-4.0614 0.065,-0.12359 0.97279,-0.57696 2.01742,-1.0075 1.52775,-0.62965 1.93188,-0.7482 2.06571,-0.60594 0.0915,0.0973 0.27196,0.92325 0.40105,1.83551 0.12907,0.91225 0.2614,1.70188 0.29406,1.75472 0.0327,0.0529 -0.007,0.24299 -0.0893,0.42252 -0.11338,0.24882 -0.55,0.48075 -1.8361,0.97534 -2.19729,0.84501 -2.07751,0.80874 -2.26819,0.68675 z m -53.25616,-0.38406 c -0.11945,-0.31129 -0.10256,-2.45171 0.0208,-2.63342 0.11121,-0.16383 1.8464,-1.20196 1.89964,-1.1365 0.0955,0.11747 0.19023,2.69344 0.1037,2.8211 -0.056,0.0827 -0.51524,0.37995 -1.02042,0.66057 -0.78189,0.43433 -0.93117,0.47721 -1.00369,0.28825 z m 38.07004,-0.3133 c -0.13094,-0.21185 -0.39416,-3.1969 -0.31111,-3.52785 0.065,-0.25888 0.41171,-0.47787 1.63837,-1.03476 1.05447,-0.47873 1.60794,-0.66325 1.71729,-0.5725 0.19463,0.16154 0.54571,3.13101 0.42638,3.60645 -0.0689,0.27466 -0.37215,0.45725 -1.64683,0.99169 -1.66442,0.69784 -1.71541,0.71285 -1.8241,0.53697 z m -10.72442,-0.28912 c -0.10294,-0.0636 -0.1712,-0.70659 -0.19328,-1.8204 l -0.0341,-1.72203 1.31518,-0.65691 c 0.72334,-0.3613 1.37659,-0.63674 1.45164,-0.6121 0.24691,0.0811 0.58435,3.20186 0.37981,3.5127 -0.17438,0.26502 -2.74286,1.40772 -2.9192,1.29874 z m -9.08066,-0.60059 c -0.0866,-0.27942 -0.18466,-2.78735 -0.11632,-2.97528 0.0344,-0.0945 0.59181,-0.4604 1.23875,-0.81305 0.86064,-0.46913 1.21741,-0.60002 1.32966,-0.48777 0.0861,0.0861 0.17973,0.84147 0.21345,1.72236 l 0.06,1.56896 -1.20649,0.57892 c -1.31448,0.63074 -1.43908,0.66402 -1.5191,0.40586 z m -15.71979,-1.54547 v -1.44165 l 0.98124,-0.56573 c 0.53968,-0.31115 0.99888,-0.56573 1.02044,-0.56573 0.0917,0 0.22604,2.51078 0.14758,2.75796 -0.0812,0.2557 -1.67322,1.25679 -1.9987,1.25679 -0.0988,0 -0.15056,-0.4955 -0.15056,-1.44164 z m 7.94381,1.27657 c -0.1297,-0.20987 -0.24011,-2.38997 -0.14102,-2.78473 0.0643,-0.25613 0.36786,-0.49951 1.14783,-0.92022 0.60936,-0.32868 1.1122,-0.52026 1.1821,-0.45036 0.0669,0.0669 0.10385,0.80131 0.0821,1.63202 l -0.0395,1.51038 -1.07326,0.57523 c -0.62653,0.3358 -1.10862,0.51797 -1.15825,0.43768 z m 32.11117,-0.77268 c -0.18832,-0.1198 -0.55138,-3.3347 -0.41633,-3.68662 0.0497,-0.12961 0.69852,-0.51905 1.44174,-0.86544 1.75943,-0.81999 1.90003,-0.87144 2.07908,-0.76078 0.21164,0.13081 0.63846,3.55362 0.47872,3.83907 -0.0693,0.12383 -0.83266,0.53019 -1.69639,0.90301 -1.7061,0.73646 -1.65205,0.72011 -1.88682,0.57076 z m -11.45945,-0.19001 c -0.12786,-0.37568 -0.34587,-3.16205 -0.26408,-3.3752 0.10253,-0.26717 2.77919,-1.63269 3.01957,-1.54044 0.18595,0.0713 0.56023,3.20812 0.42476,3.55991 -0.0422,0.10958 -0.65216,0.46009 -1.35549,0.77891 -1.74443,0.79076 -1.75121,0.79292 -1.82476,0.57682 z m -9.55961,-1.39876 c -0.0515,-0.62817 -0.0727,-1.39044 -0.047,-1.69392 0.0455,-0.53983 0.0733,-0.56623 1.28022,-1.21869 1.00296,-0.54221 1.26519,-0.63318 1.40229,-0.48652 0.19216,0.20559 0.39546,3.00189 0.23578,3.24321 -0.13144,0.19865 -2.31606,1.29804 -2.57935,1.29804 -0.14852,0 -0.2218,-0.2867 -0.2919,-1.14212 z m -16.04466,0.64626 c -0.11857,-0.309 -0.10076,-2.44879 0.0219,-2.63468 0.18424,-0.27912 3.55297,-2.12605 3.66801,-2.01099 0.0619,0.0619 0.0947,0.75871 0.0728,1.54849 l -0.0397,1.43597 -1.66128,0.93012 c -0.91369,0.51157 -1.73247,0.93462 -1.8195,0.94012 -0.087,0.006 -0.19606,-0.0886 -0.24228,-0.20903 z m 7.86678,0.0366 c -0.0385,-0.10032 -0.0521,-0.83038 -0.0303,-1.62236 l 0.0397,-1.43995 1.08144,-0.59557 c 0.59479,-0.32757 1.13408,-0.56303 1.19844,-0.52326 0.15565,0.0962 0.33744,2.58408 0.21662,2.96472 -0.0615,0.19386 -0.47905,0.492 -1.18876,0.84882 -1.23344,0.62017 -1.22156,0.61685 -1.3172,0.3676 z m 50.91369,-0.76595 c -0.099,-0.0631 -0.26714,-0.63874 -0.3737,-1.27911 -0.10657,-0.64035 -0.26211,-1.52116 -0.34566,-1.95734 -0.099,-0.51695 -0.10546,-0.87984 -0.0185,-1.04232 0.16334,-0.30519 4.20466,-2.00329 4.49893,-1.89037 0.11434,0.0439 0.26786,0.37058 0.34117,0.72603 0.43802,2.12408 0.60299,3.22345 0.52833,3.52092 -0.0823,0.32775 -0.57076,0.55251 -4.31217,1.98404 -0.0761,0.0291 -0.21942,0.001 -0.3184,-0.0619 z m -17.02981,-0.34143 c -0.18163,-0.227 -0.60396,-3.46973 -0.49043,-3.76558 0.0832,-0.21672 0.67531,-0.52659 2.90403,-1.51971 0.38998,-0.17378 0.77274,-0.27619 0.85057,-0.22759 0.23295,0.14545 0.7087,3.64456 0.53383,3.92634 -0.0814,0.1312 -0.46116,0.37354 -0.84387,0.53855 -2.73336,1.17846 -2.82401,1.21062 -2.95413,1.04799 z m -12.13349,-0.12921 c -0.12451,-0.39452 -0.34025,-3.15749 -0.2624,-3.36038 0.11159,-0.2908 2.99813,-1.73395 3.20832,-1.60404 0.16355,0.10108 0.57551,3.27713 0.4672,3.60203 -0.0613,0.18381 -2.84806,1.53544 -3.16579,1.53544 -0.10599,0 -0.21729,-0.0779 -0.24733,-0.17305 z M 147.79,150.38961 c -0.15429,-0.41813 -0.3133,-2.80349 -0.20559,-3.08419 0.12413,-0.32346 2.80804,-1.64434 2.88631,-1.42048 0.10985,0.31413 0.31593,3.07313 0.24362,3.26156 -0.0386,0.10063 -0.68632,0.49217 -1.43935,0.87005 -1.36468,0.68483 -1.3695,0.68603 -1.48499,0.37306 z m -8.66369,-0.14094 c -0.0298,-0.0952 -0.0927,-0.76495 -0.13992,-1.48841 -0.0636,-0.97572 -0.0396,-1.37247 0.0931,-1.53655 0.0984,-0.12166 0.65932,-0.48011 1.24653,-0.79655 0.98869,-0.53278 1.07762,-0.55674 1.20222,-0.32395 0.13638,0.25486 0.26732,3.00803 0.1483,3.11866 -0.0994,0.0924 -2.33248,1.19985 -2.41945,1.19985 -0.0421,0 -0.10098,-0.0779 -0.13076,-0.17305 z m -6.65674,-0.69054 c -0.041,-0.10693 -0.0566,-0.81032 -0.0347,-1.56308 l 0.0399,-1.36868 1.01288,-0.59673 c 0.55709,-0.3282 1.07104,-0.56078 1.14212,-0.51685 0.0711,0.0439 0.12926,0.75377 0.12926,1.57741 v 1.49752 l -1.00368,0.53629 c -0.55203,0.29496 -1.05039,0.55705 -1.10745,0.58241 -0.0571,0.0254 -0.13732,-0.0414 -0.17836,-0.14829 z m 29.51563,-0.76308 c -0.13164,-0.21765 -0.39873,-3.21758 -0.31359,-3.5221 0.0672,-0.24046 0.46566,-0.49842 1.60936,-1.04195 0.83602,-0.39729 1.60685,-0.68903 1.71298,-0.64832 0.13154,0.0505 0.24383,0.52267 0.35286,1.48378 0.088,0.77536 0.18656,1.53983 0.21911,1.69883 0.0976,0.47646 -0.2124,0.72724 -1.78873,1.44714 -1.56306,0.71383 -1.68807,0.75447 -1.79199,0.58262 z m -19.51698,-0.13134 c -0.12236,-0.19799 -0.27051,-2.64391 -0.18158,-2.99818 0.0637,-0.25369 0.39391,-0.51116 1.26392,-0.98542 0.64776,-0.35308 1.23292,-0.60786 1.30037,-0.56617 0.15814,0.0977 0.34829,2.72538 0.22527,3.113 -0.0771,0.2429 -1.06307,0.84905 -2.448,1.50496 -0.0501,0.0237 -0.12212,-0.007 -0.15998,-0.0682 z m 8.99105,-0.28397 c -0.14769,-0.77052 -0.24973,-2.64867 -0.15937,-2.93339 0.10609,-0.33425 2.69811,-1.70875 2.93195,-1.55474 0.1984,0.13065 0.46117,3.07676 0.30167,3.38206 -0.13302,0.2546 -2.45507,1.48677 -2.80185,1.48677 -0.10969,0 -0.23226,-0.17131 -0.2724,-0.3807 z m 23.33981,0.26332 c -0.20974,-0.13188 -0.66216,-3.29329 -0.54057,-3.77748 0.11263,-0.44855 3.73632,-2.13262 3.97361,-1.84669 0.0825,0.0994 0.27335,0.97315 0.42404,1.94161 0.22605,1.45266 0.24294,1.80751 0.0965,2.02765 -0.0976,0.14674 -0.88659,0.57281 -1.75324,0.94682 -1.9165,0.82704 -1.97909,0.84718 -2.20035,0.70809 z m -39.41762,-1.71694 c -0.15563,-1.87764 -0.15962,-1.86821 1.1081,-2.61554 0.60913,-0.35908 1.14659,-0.61055 1.19435,-0.55881 0.12263,0.13285 0.24991,2.86312 0.14127,3.03056 -0.0889,0.13701 -2.11656,1.28592 -2.26947,1.28592 -0.0438,0 -0.12219,-0.51395 -0.17425,-1.14213 z m 10.51962,-0.10765 c -0.14521,-0.23497 -0.31644,-2.96043 -0.1998,-3.18028 0.0606,-0.11422 0.6681,-0.50387 1.35002,-0.86591 0.95907,-0.50918 1.27147,-0.61891 1.37954,-0.48454 0.17477,0.21733 0.35782,3.02508 0.21101,3.23664 -0.19341,0.27871 -2.65111,1.43915 -2.74077,1.29409 z m 9.55748,0.008 c -0.12557,-0.20321 -0.37705,-3.05763 -0.29734,-3.37518 0.0535,-0.21295 0.49716,-0.50814 1.55351,-1.03349 0.81328,-0.40448 1.52662,-0.6848 1.58518,-0.62293 0.15555,0.16432 0.43421,3.01514 0.3315,3.39148 -0.0659,0.24152 -0.45814,0.49776 -1.59285,1.04063 -0.82795,0.39612 -1.53895,0.66589 -1.58,0.59949 z m 11.03727,-0.17758 c -0.20607,-0.25801 -0.51475,-3.33425 -0.36195,-3.60728 0.07,-0.12505 0.86329,-0.58631 1.7629,-1.02504 1.52324,-0.74284 1.64798,-0.78084 1.81476,-0.55276 0.20641,0.28228 0.57274,3.27645 0.44241,3.61607 -0.074,0.19287 -3.11156,1.74206 -3.41571,1.74206 -0.0573,0 -0.16639,-0.0779 -0.24241,-0.17305 z m 13.56067,-0.22221 c -0.15616,-0.0991 -0.30092,-0.81069 -0.66619,-3.27501 -0.0632,-0.42665 -0.0229,-0.62214 0.17426,-0.84344 0.33735,-0.37875 3.71213,-1.87445 3.98937,-1.76807 0.2478,0.0951 0.26022,0.14109 0.61124,2.26565 0.21868,1.32354 0.23244,1.63403 0.082,1.84886 -0.0995,0.14199 -1.04223,0.62542 -2.09506,1.07428 -1.05283,0.44886 -1.91455,0.81515 -1.91495,0.81399 -3.9e-4,-0.001 -0.0817,-0.0535 -0.18066,-0.11626 z m -41.46247,-0.12002 c -0.12123,-0.209 -0.23986,-2.87854 -0.1346,-3.02872 0.18453,-0.26324 2.30639,-1.44188 2.40247,-1.3345 0.0504,0.0563 0.13026,0.72957 0.17753,1.49618 0.0626,1.01473 0.0391,1.45201 -0.0862,1.60766 -0.24177,0.30037 -2.28339,1.39019 -2.35925,1.25938 z m 10.91157,-1.4185 c -0.15092,-0.24419 -0.33167,-2.96689 -0.21125,-3.18207 0.16599,-0.29661 2.67642,-1.67039 2.81207,-1.53885 0.14768,0.14318 0.41683,2.86136 0.3211,3.24278 -0.0526,0.20958 -0.46671,0.49251 -1.39769,0.95498 -1.46852,0.72949 -1.40928,0.70915 -1.52423,0.52316 z m 10.07691,-0.17746 c -0.18077,-0.27933 -0.43888,-3.19331 -0.30541,-3.44812 0.0661,-0.12616 0.80647,-0.58046 1.64532,-1.00953 1.52353,-0.7793 1.52529,-0.77981 1.65346,-0.46281 0.1765,0.43655 0.44177,3.08857 0.3364,3.36317 -0.0677,0.17641 -2.9005,1.73032 -3.15441,1.73032 -0.0348,0 -0.11375,-0.0779 -0.17536,-0.17303 z m -17.82536,-0.27688 c -0.15465,-0.49898 -0.1778,-2.86802 -0.0298,-3.04886 0.20476,-0.25015 2.1342,-1.3466 2.36963,-1.3466 0.12554,0 0.20417,0.41152 0.27196,1.42343 0.0524,0.78289 0.0602,1.51489 0.0172,1.62666 -0.0661,0.17203 -2.28472,1.51841 -2.50206,1.51841 -0.0403,0 -0.0975,-0.0779 -0.12696,-0.17304 z m 29.41464,-0.16479 c -0.18432,-0.48482 -0.47971,-3.17913 -0.37769,-3.44501 0.10459,-0.27259 3.35656,-1.92574 3.66958,-1.86546 0.17366,0.0335 0.28015,0.42477 0.48002,1.76376 0.14126,0.94644 0.22371,1.85279 0.18323,2.01412 -0.0546,0.21745 -0.52196,0.49732 -1.80668,1.08187 -0.95319,0.43371 -1.79762,0.78855 -1.87653,0.78855 -0.0789,0 -0.20128,-0.15202 -0.27193,-0.33783 z m 14.43727,-0.32505 c -0.0907,-0.0577 -0.2337,-0.50839 -0.31771,-1.00156 -0.42147,-2.47403 -0.44192,-2.67042 -0.30864,-2.96293 0.19977,-0.43845 4.17182,-2.23225 4.39834,-1.98633 0.16698,0.1813 0.75695,3.08823 0.75222,3.70647 -0.002,0.19036 -0.0484,0.41612 -0.10435,0.50169 -0.0922,0.14112 -3.94999,1.85467 -4.16417,1.84967 -0.0499,-0.001 -0.16497,-0.0493 -0.25569,-0.10701 z m -32.36876,-1.033 c -0.12181,-0.34568 -0.33936,-3.00485 -0.26227,-3.20574 0.0436,-0.1135 0.7115,-0.55446 1.48432,-0.97992 1.2447,-0.68526 1.42365,-0.74826 1.56728,-0.55182 0.16896,0.23106 0.41024,2.96851 0.28938,3.28342 -0.0616,0.16047 -2.69974,1.62711 -2.92679,1.62711 -0.05,0 -0.11839,-0.0779 -0.15192,-0.17305 z m -8.1517,-0.96908 c -0.1034,-0.88068 -0.14779,-2.44453 -0.0712,-2.50718 0.44254,-0.36194 2.55325,-1.45319 2.64101,-1.36542 0.0651,0.0651 0.13298,0.82762 0.1508,1.69443 l 0.0324,1.57601 -1.17674,0.66164 c -0.6472,0.3639 -1.24743,0.66292 -1.33383,0.66449 -0.087,0.002 -0.19517,-0.32143 -0.24243,-0.72397 z m 18.67954,0.27689 c -0.24256,-1.44025 -0.34825,-2.89802 -0.22661,-3.12528 0.1768,-0.33039 3.10974,-1.84876 3.37469,-1.74709 0.23543,0.0904 0.61171,3.00335 0.45896,3.55295 -0.066,0.23735 -0.47372,0.49713 -1.64274,1.04659 -0.85524,0.40198 -1.63003,0.72904 -1.72176,0.72681 -0.0917,-0.002 -0.20087,-0.20653 -0.24254,-0.45398 z m 12.52707,0.0373 c -0.1925,-0.11898 -0.72825,-3.41621 -0.6141,-3.7795 0.0779,-0.24803 3.46193,-2.03762 3.85299,-2.03762 0.29797,0 0.32459,0.0842 0.63117,1.9952 0.18511,1.15386 0.23758,1.83796 0.15309,1.99583 -0.16543,0.3091 -3.80484,1.96102 -4.02315,1.82609 z m -19.11491,-1.6104 c -0.0757,-0.199 -0.15199,-1.01348 -0.16962,-1.80996 l -0.0321,-1.44815 1.49033,-0.82728 c 0.81968,-0.45498 1.54344,-0.79442 1.60837,-0.75429 0.15877,0.0981 0.47683,3.04086 0.36631,3.38908 -0.0535,0.16849 -0.64446,0.57445 -1.51994,1.04404 -0.78784,0.4226 -1.47145,0.76835 -1.51914,0.76835 -0.0477,0 -0.14859,-0.16281 -0.22424,-0.36179 z m -8.48852,-0.0219 c -0.12586,-0.20365 -0.24161,-3.00886 -0.13072,-3.16811 0.20635,-0.29635 14.62742,-8.49851 14.74151,-8.3844 0.0621,0.0621 0.20674,0.82434 0.32143,1.69388 0.19574,1.48413 0.19364,1.59583 -0.0343,1.82309 -0.26712,0.2663 -14.48558,8.14234 -14.6992,8.14234 -0.073,0 -0.16238,-0.0481 -0.19869,-0.1068 z m 19.7376,-0.34312 c -0.24112,-0.29215 -0.52578,-3.36969 -0.33315,-3.60179 0.25661,-0.3092 3.18856,-1.78734 3.44668,-1.73763 0.18421,0.0355 0.2821,0.3855 0.477,1.70565 0.13487,0.91356 0.21175,1.77196 0.17083,1.90757 -0.0658,0.21805 -3.15945,1.89925 -3.49491,1.89925 -0.068,0 -0.1879,-0.0779 -0.26645,-0.17305 z m 13.1485,-0.49933 c -0.21053,-0.13427 -0.77356,-3.38085 -0.66283,-3.82202 0.10624,-0.42333 7.06021,-3.7937 7.39356,-3.58343 0.29818,0.18809 0.92434,3.58035 0.73722,3.99386 -0.0841,0.18579 -1.25279,0.79317 -3.55242,1.84617 -4.038,1.84901 -3.68941,1.70965 -3.91553,1.56542 z m -20.24442,-1.02351 c -0.19206,-1.10932 -0.35436,-3.27041 -0.25901,-3.4486 0.0691,-0.12912 0.60866,-0.49731 1.19901,-0.81818 0.59035,-0.32089 1.2621,-0.69574 1.49277,-0.83302 0.23067,-0.13727 0.48942,-0.20627 0.575,-0.15332 0.0856,0.0529 0.24336,0.83579 0.35063,1.73968 0.17477,1.47282 0.17257,1.66904 -0.0213,1.88998 -0.36034,0.41077 -3.29954,1.84064 -3.33714,1.62346 z m 11.86402,-0.76141 c -0.14108,-0.2285 -0.52216,-3.27387 -0.4471,-3.57294 0.0613,-0.24421 0.51118,-0.53871 1.89547,-1.24084 1.14491,-0.58071 1.86361,-0.87213 1.94647,-0.78926 0.0722,0.0722 0.25422,0.88749 0.40436,1.81164 0.21026,1.29406 0.23708,1.7474 0.11672,1.9723 -0.0938,0.17536 -0.84569,0.61789 -1.88158,1.10748 -1.76972,0.83645 -1.92395,0.89039 -2.03434,0.71162 z m -7.37919,-1.52951 c -0.19149,-0.1211 -0.5326,-2.92024 -0.41364,-3.39423 0.0676,-0.26933 0.43857,-0.53957 1.63443,-1.19063 0.85085,-0.46322 1.62851,-0.84222 1.72813,-0.84222 0.21107,0 0.2581,0.18699 0.47578,1.89154 0.0891,0.69771 0.1249,1.41639 0.0796,1.59705 -0.0626,0.24956 -0.47503,0.53355 -1.71654,1.18205 -0.89874,0.46947 -1.70322,0.80987 -1.78771,0.75644 z m 12.42015,-1.17006 c -0.24472,-0.61895 -0.58057,-3.28135 -0.4446,-3.52433 0.0725,-0.12949 2.20915,-1.30903 4.74817,-2.62118 3.53315,-1.82591 4.6536,-2.34717 4.7749,-2.22139 0.29564,0.30654 0.83676,3.54868 0.64846,3.88516 -0.11291,0.20177 -9.18647,4.79322 -9.47229,4.79322 -0.0723,0 -0.18693,-0.14016 -0.25464,-0.31148 z m -7.91493,-1.24596 c -0.008,-0.0191 -0.12255,-0.78218 -0.25457,-1.69588 -0.17719,-1.22622 -0.20059,-1.72607 -0.0893,-1.90866 0.20086,-0.32961 3.35263,-2.04793 3.58958,-1.95699 0.28215,0.10827 0.74246,3.44311 0.51336,3.71916 -0.35475,0.42745 -3.67084,2.05272 -3.75905,1.84237 z m -5.58657,-2.17117 c -0.15703,-0.25407 -0.51173,-2.95052 -0.43064,-3.27364 0.0907,-0.36125 3.21845,-2.23558 3.40884,-2.04276 0.14602,0.1479 0.54738,3.20507 0.45304,3.45089 -0.039,0.10175 -0.67258,0.50844 -1.40787,0.90378 -0.7353,0.39534 -1.4713,0.80591 -1.63555,0.91238 -0.19852,0.12866 -0.32857,0.14521 -0.38782,0.0494 z m 10.4524,-0.61662 c -0.21903,-0.57609 -0.5379,-3.18216 -0.41738,-3.41114 0.15507,-0.29462 11.32408,-6.365 11.55092,-6.27796 0.10146,0.0389 0.21408,0.26901 0.25027,0.51129 0.0362,0.24228 0.17005,1.00073 0.29748,1.68548 0.12744,0.68473 0.19976,1.37226 0.1607,1.52786 -0.0524,0.2089 -1.55911,1.05992 -5.76163,3.25431 -3.12985,1.63429 -5.74812,2.99207 -5.81839,3.01729 -0.0703,0.0252 -0.18815,-0.11299 -0.26197,-0.30713 z m -6.15769,-2.68057 c -0.0508,-0.43782 -0.15793,-1.14616 -0.23809,-1.57411 -0.10399,-0.5551 -0.1025,-0.85893 0.005,-1.06025 0.0831,-0.15521 0.87923,-0.70031 1.76925,-1.21136 1.91017,-1.09679 1.87383,-1.10947 2.11706,0.73939 0.087,0.66154 0.18502,1.33288 0.21775,1.49188 0.0328,0.15902 -0.017,0.3878 -0.11053,0.50843 -0.21231,0.27379 -3.17302,1.90204 -3.45856,1.90204 -0.15243,0 -0.23506,-0.21772 -0.30213,-0.79602 z m 4.76736,-2.16229 c 0,-0.18039 -0.0964,-0.88079 -0.21423,-1.55646 -0.11783,-0.67566 -0.18095,-1.36111 -0.14027,-1.52321 0.0504,-0.20097 0.62484,-0.60866 1.80558,-1.28156 0.95236,-0.54275 1.79575,-0.98683 1.87417,-0.98683 0.21025,0 0.36349,0.50453 0.47535,1.56499 0.0546,0.51811 0.15427,1.13349 0.22139,1.36752 0.18115,0.63161 -0.0589,0.86764 -1.89364,1.86177 -1.79356,0.97183 -2.12835,1.05895 -2.12835,0.55378 z m 5.06622,-2.61387 c -0.2915,-1.06543 -0.54727,-3.30687 -0.4004,-3.50913 0.2287,-0.31497 6.69005,-3.92183 6.8889,-3.84552 0.11281,0.0433 0.24352,0.3063 0.29047,0.58448 0.0469,0.27818 0.17937,0.99103 0.29428,1.58413 0.26679,1.37702 0.19288,1.65378 -0.54416,2.0375 -0.32415,0.16876 -1.81646,0.98515 -3.31625,1.81421 -1.49977,0.82906 -2.82555,1.50737 -2.94617,1.50737 -0.12063,0 -0.24064,-0.0779 -0.26667,-0.17304 z"
     style="fill:#000000"
     id="path1932" />
  <path
     d="m 187.54917,159.02204 c 4.12299,12.14508 -7.78299,23.48663 -2.05351,36.66973 11.5354,26.54209 -6.53516,40.12986 -5.28044,61.3118 0.65796,11.10751 8.9458,31.59061 22.53211,38.74765"
     style="fill:none;fill-rule:evenodd;stroke:#ffff80;stroke-width:0.821402;stroke-linecap:butt;stroke-linejoin:miter;stroke-opacity:1"
     id="path2015" />
  <path
     d="m 203.02746,294.16053 c -1.0642,-0.65727 -2.69648,1.68826 -1.46312,2.4642 1.19918,0.75444 4.14276,2.36466 5.62147,3.28561 1.56434,0.97427 3.00806,-1.55873 1.43745,-2.48988 -1.5375,-0.9115 -4.50789,-2.58804 -5.5958,-3.25993 z"
     style="fill:#ffff80;fill-opacity:1;fill-rule:evenodd;stroke:none;stroke-width:3.5;stroke-linecap:butt;stroke-linejoin:miter;stroke-miterlimit:4;stroke-dasharray:none;stroke-opacity:1"
     id="path2907" />
  <path
     style="color:#000000;display:inline;overflow:visible;visibility:visible;fill:url(#radialGradient2373);fill-opacity:1;fill-rule:nonzero;stroke:none;stroke-width:10;stroke-linecap:butt;stroke-linejoin:miter;stroke-miterlimit:4;stroke-dashoffset:0;stroke-opacity:1;marker:none;marker-start:none;marker-mid:none;marker-end:none"
     d="m 70.15618,319.54002 h 152.20889 v 76.60186 H 70.15618 Z"
     id="rect2371" />
  <path
     style="color:#000000;display:inline;overflow:visible;visibility:visible;fill:url(#radialGradient2361);fill-opacity:1;fill-rule:nonzero;stroke:none;stroke-width:10;stroke-linecap:butt;stroke-linejoin:miter;stroke-miterlimit:4;stroke-dashoffset:0;stroke-opacity:1;marker:none;marker-start:none;marker-mid:none;marker-end:none"
     d="m 0,340.4418 h 98.488104 v 45.76215 H 0 Z"
     id="rect2353" />
  <path
     style="color:#000000;display:inline;overflow:visible;visibility:visible;fill:url(#radialGradient2365);fill-opacity:1;fill-rule:nonzero;stroke:none;stroke-width:10;stroke-linecap:butt;stroke-linejoin:miter;stroke-miterlimit:4;stroke-dashoffset:0;stroke-opacity:1;marker:none;marker-start:none;marker-mid:none;marker-end:none"
     d="m 21.38885,334.47281 h 98.48811 v 45.76215 H 21.38885 Z"
     id="rect2363" />
  <path
     style="color:#000000;display:inline;overflow:visible;visibility:visible;fill:url(#radialGradient2369);fill-opacity:1;fill-rule:nonzero;stroke:none;stroke-width:10;stroke-linecap:butt;stroke-linejoin:miter;stroke-miterlimit:4;stroke-dashoffset:0;stroke-opacity:1;marker:none;marker-start:none;marker-mid:none;marker-end:none"
     d="m 61.18202,329.47799 h 98.48811 v 45.76215 H 61.18202 Z"
     id="rect2367" />
  <path
     style="color:#000000;display:inline;overflow:visible;visibility:visible;fill:url(#radialGradient2377);fill-opacity:1;fill-rule:nonzero;stroke:none;stroke-width:10;stroke-linecap:butt;stroke-linejoin:miter;stroke-miterlimit:4;stroke-dashoffset:0;stroke-opacity:1;marker:none;marker-start:none;marker-mid:none;marker-end:none"
     d="m 203.44264,367.30218 h 98.48811 v 45.76215 h -98.48811 z"
     id="rect2375" />
  <path
     style="color:#000000;display:inline;overflow:visible;visibility:visible;fill:url(#radialGradient2381);fill-opacity:1;fill-rule:nonzero;stroke:none;stroke-width:10;stroke-linecap:butt;stroke-linejoin:miter;stroke-miterlimit:4;stroke-dashoffset:0;stroke-opacity:1;marker:none;marker-start:none;marker-mid:none;marker-end:none"
     d="m 181.55639,361.3332 h 98.48811 v 45.76215 h -98.48811 z"
     id="rect2379" />
  <path
     style="color:#000000;display:inline;overflow:visible;visibility:visible;fill:url(#radialGradient2385);fill-opacity:1;fill-rule:nonzero;stroke:none;stroke-width:10;stroke-linecap:butt;stroke-linejoin:miter;stroke-miterlimit:4;stroke-dashoffset:0;stroke-opacity:1;marker:none;marker-start:none;marker-mid:none;marker-end:none"
     d="m 158.67531,348.40043 h 98.48811 v 45.76215 h -98.48811 z"
     id="rect2383" />
</svg>
