<?xml version="1.0" encoding="UTF-8" standalone="no"?>
<!-- Created with Inkscape (http://www.inkscape.org/) -->

<svg
   width="278.27109"
   height="247.72635"
   id="svg3249"
   sodipodi:version="0.32"
   inkscape:version="1.4 (e7c3feb100, 2024-10-09)"
   sodipodi:docname="stage_audience1.svg"
   inkscape:output_extension="org.inkscape.output.svg.inkscape"
   version="1.1"
   xmlns:inkscape="http://www.inkscape.org/namespaces/inkscape"
   xmlns:sodipodi="http://sodipodi.sourceforge.net/DTD/sodipodi-0.dtd"
   xmlns="http://www.w3.org/2000/svg"
   xmlns:svg="http://www.w3.org/2000/svg"
   xmlns:rdf="http://www.w3.org/1999/02/22-rdf-syntax-ns#"
   xmlns:cc="http://creativecommons.org/ns#"
   xmlns:dc="http://purl.org/dc/elements/1.1/">
  <defs
     id="defs3251" />
  <sodipodi:namedview
     id="base"
     pagecolor="#ffffff"
     bordercolor="#666666"
     borderopacity="1.0"
     gridtolerance="10000"
     guidetolerance="10"
     objecttolerance="10"
     inkscape:pageopacity="0.0"
     inkscape:pageshadow="2"
     inkscape:zoom="0.35"
     inkscape:cx="335.71429"
     inkscape:cy="600"
     inkscape:document-units="px"
     inkscape:current-layer="layer1"
     inkscape:window-width="1239"
     inkscape:window-height="761"
     inkscape:window-x="427"
     inkscape:window-y="244"
     inkscape:showpageshadow="2"
     inkscape:pagecheckerboard="0"
     inkscape:deskcolor="#d1d1d1"
     inkscape:window-maximized="0" />
  <metadata
     id="metadata3254">
    <rdf:RDF>
      <cc:Work
         rdf:about="">
        <dc:format>image/svg+xml</dc:format>
        <dc:type
           rdf:resource="http://purl.org/dc/dcmitype/StillImage" />
      </cc:Work>
    </rdf:RDF>
  </metadata>
  <g
     inkscape:label="Layer 1"
     inkscape:groupmode="layer"
     id="layer1"
     transform="translate(139.13522,122.92949)">
    <g
       id="yleiso1"
       transform="matrix(0.7844778,0,0,0.7844778,-1023.124,-443.46103)"
       style="fill:#000000"
       inkscape:export-filename="H:\new\rect2273.png"
       inkscape:export-xdpi="90"
       inkscape:export-ydpi="90">
      <path
         style="fill:#000000;fill-opacity:1"
         d="m 1181.224,723.79257 c 17.8661,-5.1827 3.8156,-26.068 6.1451,-38.9613 -2.6811,-18.56792 -15.9987,-33.39896 -20.3878,-51.57126 -6.8606,-15.87369 -8.1323,-33.33072 -13.6211,-49.48749 -4.5966,-12.71726 -9.3908,-25.46798 -16.5487,-36.62423 -8.2626,-12.91413 -13.2192,-27.92799 -7.4933,-43.22144 2.7035,-18.14405 7.7047,-35.78277 10.4398,-53.93215 7.4171,-11.14202 -5.8674,-36.22176 5.2186,-41.10752 -2.3197,22.42403 5.0015,2.60799 11.9276,11.6082 7.0053,-5.59071 5.4872,1.85751 8.2299,3.91882 5.932,-16.05448 9.7357,-3.85379 2.8631,5.00313 -9.8818,12.56195 -16.6266,32.14007 -15.296,48.89211 -1.4747,7.65925 1.4117,26.30935 3.6016,7.87451 2.6364,-8.08828 3.9759,7.07011 6.1598,7.5432 -13.0443,13.63184 20.3862,-2.18868 6.6467,10.94557 -3.039,8.74305 -19.6494,14.16534 -10.5833,23.66988 9.7308,11.67224 15.9374,26.7058 28.0739,36.1503 4.168,-0.62987 17.2037,-10.21636 14.9916,-15.40038 -3.7473,-12.40615 -10.4687,-27.14869 3.4638,-38.99508 11.3759,-6.02073 27.7425,-16.02154 38.4941,-5.54071 3.1119,16.39526 10.7156,33.21291 6.8445,50.16753 -1.9278,7.23379 -10.0675,25.98563 4.5899,18.54624 16.5134,-6.70982 20.1994,-21.1921 21.762,-37.42171 2.7436,-15.10347 11.0587,-31.98909 2.3918,-46.56641 -5.3185,-7.59752 -4.9737,-18.57102 2.3855,-6.93359 4.5245,-4.57537 5.5908,-33.1298 8.0527,-13.59432 1.503,4.2079 6.7245,-11.21855 7.2771,2.5917 12.0837,11.81526 0.4373,26.77552 1.5752,40.85819 -0.014,7.78552 -4.7837,31.21381 7.5539,16.0691 11.9958,-9.6748 14.597,-25.80379 23.3684,-37.95453 8.3733,-15.34917 16.6062,-32.68858 15.9268,-50.43155 1.9069,-10.49015 -7.0382,-31.20329 6.6909,-20.54154 -0.2582,-10.75897 20.2058,-15.99327 6.9602,-3.43085 -6.5561,15.27727 21.0159,-20.22468 11.6813,1.41398 -6.6548,5.39657 -5.312,15.53618 5.7754,2.9525 6.4909,1.94151 -10.0792,20.7174 -11.8877,28.74115 -11.2917,20.12314 -14.4477,43.50898 -22.3348,64.94192 -5.8098,15.78781 -13.6934,29.6345 -22.3551,43.97912 -9.5882,15.87913 -19.7814,31.59179 -31.1869,46.15679 -8.9458,10.99517 14.8617,1.14758 21.0201,6.78637 12.518,-7.87375 29.385,-1.07316 31.7442,13.9051 8.5354,6.87189 -2.959,27.20699 4.826,28.253 6.9599,-8.35669 30.6898,-10.22278 16.3911,-23.6599 -4.8799,-13.60995 -13.4899,-32.95924 2.9589,-42.5777 18.9802,-11.06226 29.1286,12.4481 34.5443,24.513 -1.1144,6.3124 -10.9945,24.16482 1.2989,23.0916 11.9703,5.11124 17.1415,-2.56675 9.7766,-12.99185 -5.6125,-7.61373 -1.994,-15.69956 2.4401,-3.88548 5.3211,8.43408 -3.2996,-25.65986 4.9774,-6.97215 1.2142,-0.66102 4.7324,-10.09149 5.0899,1.39026 1.3293,10.43455 4.5795,7.41882 7.2281,0.22402 3.133,9.794 -0.6183,21.94637 3.857,31.04505 15.1548,17.0439 34.661,30.4834 46.3055,50.3897 2.0219,10.6027 -2.3476,23.8758 -9.9945,30.7373 -96.6193,-0.1457 -193.2469,0.4071 -289.8601,-0.5562 z m 273.9725,-30.6938 c -5.4576,-7.6635 -15.9194,-5.3671 -3.5491,0.3557 0.497,0.7237 3.5906,1.4873 3.5491,-0.3557 z m -137.0451,-21.3848 c 8.1886,-16.11829 -15.8898,-22.27477 -13.8783,-38.63465 -0.2795,-7.03902 -1.2234,-20.4328 -8.3873,-7.61676 -8.7788,6.78734 8.6785,17.01782 2.351,27.10748 1.7752,8.92004 -7.3166,21.13593 7.9872,20.12463 3.789,1.2155 9.1084,3.1197 11.9274,-0.9807 z"
         id="path2504"
         sodipodi:nodetypes="ccccccccccccccccccccccccccccccccccccsscccccccccccccccccccccccccc" />
    </g>
  </g>
</svg>
