<?xml version="1.0" encoding="UTF-8" standalone="no"?>
<!-- Created with Inkscape (http://www.inkscape.org/) -->

<svg
   width="91.239273"
   height="93.827469"
   id="svg3249"
   sodipodi:version="0.32"
   inkscape:version="1.4 (e7c3feb100, 2024-10-09)"
   sodipodi:docname="stage_bassdrum.svg"
   inkscape:output_extension="org.inkscape.output.svg.inkscape"
   version="1.1"
   xmlns:inkscape="http://www.inkscape.org/namespaces/inkscape"
   xmlns:sodipodi="http://sodipodi.sourceforge.net/DTD/sodipodi-0.dtd"
   xmlns:xlink="http://www.w3.org/1999/xlink"
   xmlns="http://www.w3.org/2000/svg"
   xmlns:svg="http://www.w3.org/2000/svg"
   xmlns:rdf="http://www.w3.org/1999/02/22-rdf-syntax-ns#"
   xmlns:cc="http://creativecommons.org/ns#"
   xmlns:dc="http://purl.org/dc/elements/1.1/">
  <defs
     id="defs3251">
    <linearGradient
       id="linearGradient2762">
      <stop
         id="stop2764"
         offset="0"
         style="stop-color:yellow;stop-opacity:1" />
      <stop
         id="stop2766"
         offset="1"
         style="stop-color:#f10;stop-opacity:0.14432989" />
    </linearGradient>
    <linearGradient
       id="linearGradient3026">
      <stop
         id="stop3028"
         offset="0"
         style="stop-color:black;stop-opacity:1;" />
      <stop
         style="stop-color:#650000;stop-opacity:1;"
         offset="0.21045917"
         id="stop3040" />
      <stop
         style="stop-color:white;stop-opacity:1;"
         offset="0.26785713"
         id="stop3034" />
      <stop
         id="stop3036"
         offset="0.32015306"
         style="stop-color:#862721;stop-opacity:1;" />
      <stop
         id="stop3030"
         offset="1"
         style="stop-color:black;stop-opacity:1;" />
    </linearGradient>
    <linearGradient
       id="linearGradient3189">
      <stop
         id="stop3191"
         offset="0"
         style="stop-color:#202020;stop-opacity:1;" />
      <stop
         id="stop3193"
         offset="1"
         style="stop-color:black;stop-opacity:1;" />
    </linearGradient>
    <linearGradient
       inkscape:collect="always"
       xlink:href="#linearGradient3026"
       id="linearGradient2933"
       gradientUnits="userSpaceOnUse"
       gradientTransform="matrix(0.1717678,0,0,0.165521,-515.97116,-149.11539)"
       x1="2782.0347"
       y1="690.1499"
       x2="3297.7461"
       y2="800.95081" />
    <linearGradient
       inkscape:collect="always"
       xlink:href="#linearGradient3189"
       id="linearGradient4404"
       gradientUnits="userSpaceOnUse"
       gradientTransform="matrix(0.1681894,0,0,0.1658573,-688.39124,-112.54955)"
       x1="2974.4622"
       y1="996.84381"
       x2="2981.9832"
       y2="848.20502" />
    <radialGradient
       inkscape:collect="always"
       xlink:href="#linearGradient2762"
       id="radialGradient2623"
       gradientUnits="userSpaceOnUse"
       gradientTransform="matrix(3.629584,0.00655713,-8.427706e-5,0.04665013,-1393.015,-1.045949)"
       cx="431.67523"
       cy="198.44926"
       fx="431.67523"
       fy="198.44926"
       r="340.46094" />
    <radialGradient
       inkscape:collect="always"
       xlink:href="#linearGradient2762"
       id="radialGradient2626"
       gradientUnits="userSpaceOnUse"
       gradientTransform="matrix(0.521524,0,0,0.729052,-51.3585,-97.98673)"
       cx="69.479897"
       cy="146.89619"
       fx="69.479897"
       fy="146.89619"
       r="24.515623" />
    <radialGradient
       inkscape:collect="always"
       xlink:href="#linearGradient2762"
       id="radialGradient2301"
       gradientUnits="userSpaceOnUse"
       gradientTransform="matrix(3.629584,0.00655713,-8.427706e-5,0.04665013,-1356.821,-0.253999)"
       cx="431.67523"
       cy="198.44926"
       fx="431.67523"
       fy="198.44926"
       r="340.46094" />
    <radialGradient
       inkscape:collect="always"
       xlink:href="#linearGradient2762"
       id="radialGradient2303"
       gradientUnits="userSpaceOnUse"
       gradientTransform="matrix(0.521524,0,0,0.729052,-15.16402,-97.19473)"
       cx="69.479897"
       cy="146.89619"
       fx="69.479897"
       fy="146.89619"
       r="24.515623" />
    <radialGradient
       inkscape:collect="always"
       xlink:href="#linearGradient2762"
       id="radialGradient2559"
       gradientUnits="userSpaceOnUse"
       gradientTransform="matrix(2.212091,0.00399632,-5.13636e-5,0.02843144,-943.3442,9.830765)"
       cx="431.67523"
       cy="198.44926"
       fx="431.67523"
       fy="198.44926"
       r="340.46094" />
    <radialGradient
       inkscape:collect="always"
       xlink:href="#linearGradient2762"
       id="radialGradient2561"
       gradientUnits="userSpaceOnUse"
       gradientTransform="matrix(0.910761,0,0,1.171321,-212.5841,-189.64)"
       cx="232.86505"
       cy="175.56206"
       fx="232.86505"
       fy="175.56206"
       r="9.3900862" />
  </defs>
  <sodipodi:namedview
     id="base"
     pagecolor="#ffffff"
     bordercolor="#666666"
     borderopacity="1.0"
     gridtolerance="10000"
     guidetolerance="10"
     objecttolerance="10"
     inkscape:pageopacity="0.0"
     inkscape:pageshadow="2"
     inkscape:zoom="5.6"
     inkscape:cx="38.571429"
     inkscape:cy="61.071429"
     inkscape:document-units="px"
     inkscape:current-layer="layer1"
     inkscape:window-width="1280"
     inkscape:window-height="979"
     inkscape:window-x="0"
     inkscape:window-y="14"
     inkscape:showpageshadow="2"
     inkscape:pagecheckerboard="0"
     inkscape:deskcolor="#d1d1d1"
     inkscape:window-maximized="0" />
  <metadata
     id="metadata3254">
    <rdf:RDF>
      <cc:Work
         rdf:about="">
        <dc:format>image/svg+xml</dc:format>
        <dc:type
           rdf:resource="http://purl.org/dc/dcmitype/StillImage" />
      </cc:Work>
    </rdf:RDF>
  </metadata>
  <g
     inkscape:label="Layer 1"
     inkscape:groupmode="layer"
     id="layer1"
     style="display:inline"
     transform="translate(45.619637,41.35518)">
    <path
       style="color:#000000;display:inline;overflow:visible;visibility:visible;fill:url(#linearGradient2933);fill-opacity:1;fill-rule:evenodd;stroke:#000000;stroke-width:0.763643;stroke-linecap:butt;stroke-linejoin:miter;stroke-miterlimit:4;stroke-dashoffset:0;stroke-opacity:1;marker:none;marker-start:none;marker-mid:none;marker-end:none"
       d="M -44.518818,7.8829515 C -45.528968,-20.301388 -30.615398,-41.446602 -0.30490161,-40.96533 30.199729,-41.034038 44.784639,-23.898271 44.667779,8.0923015"
       id="path3422"
       sodipodi:nodetypes="ccc" />
    <path
       transform="matrix(0.978354,0,0,0.9769451,-0.9882868,-15.074318)"
       style="color:#000000;display:inline;overflow:visible;visibility:visible;fill:url(#linearGradient4404);fill-opacity:1;fill-rule:nonzero;stroke:#000000;stroke-width:2.34421;stroke-linecap:butt;stroke-linejoin:miter;stroke-miterlimit:1;stroke-dashoffset:0;stroke-opacity:1;marker:none;marker-start:none;marker-mid:none;marker-end:none;enable-background:accumulate"
       d="m 46.467016,25.289589 c 0,23.558777 -20.364675,42.678944 -45.4568634,42.678944 -25.0921886,0 -45.4568636,-19.120167 -45.4568636,-42.678944 0,-23.558777 20.364675,-42.678944 45.4568636,-42.678944 25.0037234,0 45.3176964,18.9672309 45.4561664,42.442589"
       id="path4402" />
    <path
       style="font-style:normal;font-weight:normal;font-size:144px;font-family:'Seaweed Fire AOE';fill:url(#radialGradient2623);fill-opacity:1;stroke:url(#radialGradient2626);stroke-width:0.782287;stroke-linecap:butt;stroke-linejoin:miter;stroke-miterlimit:4;stroke-opacity:1"
       d="m -6.3956486,1.2769117 c -0.17115,0.2292514 -0.525606,0.519614 -1.063444,0.8710724 -0.293321,0.045874 -0.757808,-0.045823 -1.39344,-0.2750745 -0.366679,-0.213925 -0.62341,-0.8175681 -0.77004,-1.81091928 -0.097799,-0.7487987 -0.7089824,-1.14613172 -1.8334804,-1.19200572 -0.440105,0.13756402 -1.112343,0.25218502 -2.016856,0.34384402 -0.953419,-0.21391802 -2.004636,-0.35145902 -3.153577,-0.41261302 -1.246823,-0.061096 -2.029085,0.015311 -2.346867,0.22922802 -0.757883,0.534902 -1.07566,0.9551604 -0.953415,1.2607751 0.171081,0.3667977 0.391136,0.5501824 0.660014,0.5501542 0.12225,2.82e-5 0.256728,-0.0611034 0.403355,-0.1833924 -0.07327,0.36680538 -0.403355,1.00864938 -0.990013,1.92555008 -0.513384,0.7794057 -0.721217,1.4518181 -0.623408,2.0172245 0.04889,0.1681249 0.232198,0.3897181 0.550052,0.6647747 0.977868,-0.1986497 1.76013,-0.641826 2.346867,-1.3295444 0.195525,-0.3056122 0.378902,-0.5730491 0.55006,-0.8023006 -0.122258,0.290378 -0.305635,0.5578124 -0.55006,0.8023006 -1.393452,2.2159209 -2.06576,3.9275163 -2.016855,5.1347723 0.02445,0.3973543 0.440028,0.7259239 1.246741,0.9856933 1.637949,2.2e-5 2.652487,-0.2215621 3.043621,-0.6647682 0.146632,-0.1527997 0.647789,-1.0085899 1.503484,-2.5673856 0.586657,-1.0238789 1.393445,-1.7803351 2.42021,-2.2693857 -0.244504,0.2292565 -0.501231,0.6113011 -0.770114,1.1461514 -0.07335,0.1375627 -0.110027,0.2751029 -0.110027,0.4126215 0,0.2139695 0.122253,0.4890428 0.366762,0.8252347 0.293321,0.3820655 0.464407,0.6571462 0.513379,0.8252275 0.02438,0.336221 -0.03674,1.2684259 -0.183377,2.7966144 -0.122253,1.130893 -0.02445,2.055454 0.293329,2.773696 0.317782,0.779398 -0.03667,1.268426 -1.063364,1.467077 -0.660086,1.5e-5 -1.17347,-0.09168 -1.540152,-0.275073 -0.806792,-0.932197 -1.283498,-1.467062 -1.43013,-1.604625 -0.708983,-0.580695 -1.527923,-0.878701 -2.456889,-0.893997 -0.97786,0.137555 -1.466793,0.580731 -1.466793,1.329537 0,0.122274 0.01222,0.317125 0.03667,0.584538 0.02445,0.267459 0.03667,0.462303 0.03667,0.584547 0,0.290369 -0.0489,0.527244 -0.146699,0.710613 -0.293329,0.534889 -0.40336,1.245502 -0.330009,2.131847 0.07335,0.443192 0.305555,0.664775 0.696763,0.664775 0.146625,0 0.317783,-0.0382 0.513379,-0.11462 0.02438,0.519606 -0.0978,1.230219 -0.366754,2.131845 -0.268875,0.962783 -0.403355,1.665751 -0.403355,2.108927 0,0.427904 0.07335,0.832879 0.22005,1.214924 0.122178,0.320926 0.476713,0.389695 1.063371,0.20631 0.415582,-0.213948 0.67842,-0.649487 0.788451,-1.306619 0.109947,-0.657124 0.397238,-1.092655 0.861725,-1.306618 -0.07335,0.137548 -0.110032,0.29037 -0.110032,0.458466 0,0.290361 0.152814,0.813774 0.45837,1.570231 0.305561,0.756465 0.458377,1.33336 0.458377,1.730692 0,0.519599 -0.183379,0.970413 -0.550059,1.352463 -0.415587,0.290362 -1.014544,0.458467 -1.796806,0.50431 -0.733362,0.03056 -1.368994,-0.04967 -1.906831,-0.240696 -0.537835,-0.19102 -1.271192,-0.301812 -2.200158,-0.332383 -0.757811,-0.03056 -1.515703,-0.05348 -2.273514,-0.06877 -0.611183,-0.09169 -1.222367,-0.17574 -1.833476,-0.252154 -0.708982,-0.137534 -1.149021,-0.389688 -1.320094,-0.756465 -0.122245,-0.229221 -0.183377,-0.489012 -0.183377,-0.779383 0,-0.305635 0.0978,-0.779374 0.293326,-1.421231 0.195602,-0.641837 0.293411,-1.123222 0.293411,-1.444145 0,-0.382052 -0.09781,-0.725896 -0.293411,-1.031547 0.440028,0.626577 0.916734,1.61227 1.430126,2.957082 0.391128,0.336206 0.745661,0.389695 1.063443,0.160459 0.440028,-0.56543 0.763928,-1.482353 0.971751,-2.750779 0.207752,-1.268387 0.495045,-2.170038 0.861728,-2.704917 0.0489,-0.259784 0.07335,-0.527221 0.07335,-0.802311 0,-0.779375 -0.244509,-1.940802 -0.733447,-3.484308 -0.488927,-1.54347 -0.733357,-2.704912 -0.733357,-3.484317 0,-0.7946424 0.18338,-1.5358257 0.550062,-2.2235346 -0.146701,1.2378632 0.183295,1.9790462 0.990088,2.2235346 l 0.403352,-0.2979917 c 0.04891,-2.0783426 -0.281179,-3.6600347 -0.99009,-4.7450827 -0.611183,-0.9474664 -0.916734,-1.4594121 -0.916734,-1.5358497 0,-0.3820191 0.391129,-0.6341757 1.173385,-0.756457 0.07335,-0.1527984 0.110032,-0.2979771 0.110032,-0.4355464 0,-0.336178 -0.256651,-0.7258655 -0.770033,-1.1690701 -0.684539,-0.61125768 -1.075667,-0.98567248 -1.173467,-1.12323408 -1.075603,-0.8404857 -1.613431,-1.81089072 -1.613431,-2.91123072 0,-0.397301 0.07336,-0.809914 0.219973,-1.237846 0.09781,-0.290335 0.415593,-0.6723773 0.95342,-1.14616 0.783444,-0.525321 1.180025,-1.1143986 1.503474,-1.9484626 -0.373823,1.3126946 -0.879769,2.5834253 0,3.8510796 0.85561,0.641879 2.126812,0.787056 3.81366,0.435538 0.855616,-0.183349 1.882381,-0.588324 3.080225,-1.214921 1.589046,-0.8404813 2.542466,-1.321863 2.860254,-1.444152 -0.880072,0.5043387 -1.320105,0.9704407 -1.320105,1.398306 0,0.122289 0.03667,0.236904 0.110024,0.343844 0.660011,0.504339 1.552309,0.756495 2.676874,0.756467 0.635634,2.8e-5 1.234521,-0.091662 1.796805,-0.275082 1.2223694,-0.397297 2.6158144,-1.2072433 4.1803384,-2.429846 1.711299,-1.3600716 3.0191745,-2.2387866 3.9236868,-2.6361546 z m -0.293329,-5.0430901 c -7.2e-5,-0.183347 -0.17115,-0.275036 -0.513379,-0.275065 -0.366759,2.9e-5 -0.635637,0.114644 -0.806792,0.343844 -0.244424,0.13757 -0.256651,0.320954 -0.036673,0.550154 0.317854,0.045872 0.62341,0.00385 0.916739,-0.12608 0.293401,-0.129868 0.440033,-0.29415 0.440105,-0.492853 z m -1.210143,2.704927 c 0,-0.015244 -0.146701,-0.084016 -0.44003,-0.206303 -0.220058,0.030592 -0.330005,0.206339 -0.330005,0.52723702 0.024375,0.106998 0.207752,0.160487 0.55006,0.160456 0.195524,-0.13751 0.268875,-0.297969 0.219975,-0.48139002 z m -8.4707174,-2.017225 c -0.146699,-0.076386 -0.268875,-0.091659 -0.366682,-0.045843 -0.0978,0.061155 -0.12225,0.145204 -0.07335,0.252146 0.195599,-0.015244 0.342229,-0.084021 0.440028,-0.206303 z m -6.527194,2.017225 c -0.171156,-0.2292 -0.427807,-0.320887 -0.770043,-0.275075 -0.244501,0.061158 -0.366757,0.275111 -0.366682,0.64185202 0.07328,0.122281 0.158859,0.236894 0.256658,0.343844 0.122246,0.15285 0.305551,0.206339 0.55006,0.160464 0.146619,-0.061103 0.256651,-0.351458 0.330007,-0.87108502 z m 8.654089,13.2495564 c -7.5e-5,-0.18337 -0.207836,-0.259777 -0.623418,-0.229236 -0.02445,0.0153 0.01223,0.129918 0.110026,0.343851 0.268883,0.168118 0.440033,0.12991 0.513392,-0.114615 z m -5.390493,12.332627 c -0.0489,-0.152822 -0.195604,-0.267437 -0.440031,-0.343852 -0.07335,0.0917 -0.06112,0.194853 0.03668,0.309458 0.0978,0.114623 0.232205,0.126081 0.403356,0.03439 z M -23.08042,23.97077 c -0.219973,-0.137526 -0.40335,-0.19102 -0.549979,-0.160459 0,7e-6 -0.134478,0.145186 -0.403358,0.435538 0.09774,0.183393 0.330012,0.252157 0.696686,0.206306 0.219984,-0.122253 0.305561,-0.282713 0.256651,-0.481385 z"
       id="path3691" />
    <path
       style="font-style:normal;font-weight:normal;font-size:144px;font-family:'Seaweed Fire AOE';display:inline;fill:url(#radialGradient2301);fill-opacity:1;stroke:url(#radialGradient2303);stroke-width:0.782287;stroke-linecap:butt;stroke-linejoin:miter;stroke-miterlimit:4;stroke-opacity:1"
       d="m 29.798828,2.0688635 c -0.17115,0.229251 -0.525605,0.5196136 -1.063443,0.8710716 -0.293321,0.045874 -0.757808,-0.045823 -1.39344,-0.275074 -0.36668,-0.2139246 -0.62341,-0.8175676 -0.77004,-1.81091918 -0.0978,-0.7487987 -0.708983,-1.1461317 -1.833481,-1.1920057 -0.440105,0.137564 -1.112343,0.252185 -2.016856,0.343844 -0.95342,-0.213918 -2.004637,-0.351459 -3.153578,-0.412613 -1.246823,-0.061096 -2.029085,0.015311 -2.346867,0.229228 -0.757883,0.534902 -1.07566,0.9551604 -0.953415,1.26077508 0.171081,0.3667977 0.391136,0.5501822 0.660014,0.5501542 0.12225,2.8e-5 0.256728,-0.061103 0.403355,-0.1833924 -0.07327,0.3668054 -0.403355,1.0086494 -0.990013,1.925549 -0.513384,0.779406 -0.721217,1.451818 -0.623408,2.017225 0.04889,0.168125 0.232198,0.389718 0.550052,0.664775 0.977868,-0.19865 1.76013,-0.641827 2.346867,-1.329545 0.195525,-0.305612 0.378902,-0.573049 0.55006,-0.802301 -0.122258,0.290378 -0.305635,0.557813 -0.55006,0.802301 -1.393452,2.215921 -2.06576,3.927516 -2.016855,5.134772 0.02445,0.3973549 0.440028,0.7259239 1.246741,0.9856939 1.637949,2.2e-5 2.652487,-0.221562 3.043621,-0.664768 0.146632,-0.1528 0.647789,-1.0085899 1.503484,-2.5673859 0.586658,-1.023879 1.393446,-1.780335 2.420211,-2.269386 -0.244503,0.229257 -0.501231,0.611301 -0.770114,1.146152 -0.07335,0.137562 -0.110026,0.275102 -0.110026,0.412621 0,0.21397 0.122253,0.489043 0.366762,0.825235 0.293321,0.382065 0.464407,0.657146 0.513378,0.825227 0.02438,0.336221 -0.03674,1.268426 -0.183377,2.7966149 -0.122253,1.130893 -0.02445,2.055453 0.293329,2.773696 0.317783,0.779398 -0.03667,1.268426 -1.063364,1.467077 -0.660086,1.5e-5 -1.17347,-0.09168 -1.540153,-0.275073 -0.806792,-0.932197 -1.283498,-1.467063 -1.43013,-1.604625 -0.708983,-0.580695 -1.527923,-0.878702 -2.456889,-0.893998 -0.97786,0.137555 -1.466793,0.580732 -1.466793,1.329537 0,0.122274 0.01222,0.317126 0.03667,0.584539 0.02445,0.267459 0.03667,0.462303 0.03667,0.584547 0,0.290369 -0.0489,0.527243 -0.146699,0.710612 -0.293329,0.534889 -0.40336,1.245502 -0.330009,2.131847 0.07335,0.443192 0.305555,0.664775 0.696763,0.664775 0.146625,0 0.317783,-0.0382 0.513379,-0.11462 0.02438,0.519606 -0.0978,1.230219 -0.366754,2.131845 -0.268875,0.962783 -0.403355,1.665751 -0.403355,2.108927 0,0.427904 0.07335,0.832879 0.22005,1.214924 0.122178,0.320926 0.476713,0.389695 1.063371,0.20631 0.415582,-0.213948 0.67842,-0.649487 0.788451,-1.306619 0.109947,-0.657124 0.397238,-1.092655 0.861725,-1.306618 -0.07335,0.137548 -0.110032,0.29037 -0.110032,0.458466 0,0.290361 0.152814,0.813774 0.45837,1.570231 0.305561,0.756465 0.458377,1.33336 0.458377,1.730692 0,0.519599 -0.183379,0.970413 -0.550059,1.352463 -0.415587,0.290362 -1.014544,0.458467 -1.796806,0.50431 -0.733362,0.03056 -1.368994,-0.04967 -1.906831,-0.240696 -0.537835,-0.19102 -1.271192,-0.301812 -2.200158,-0.332383 -0.757811,-0.03056 -1.515703,-0.05348 -2.273514,-0.06877 -0.611183,-0.09169 -1.222367,-0.17574 -1.833476,-0.252154 -0.7089816,-0.137534 -1.1490206,-0.389688 -1.3200936,-0.756465 -0.122245,-0.229221 -0.183377,-0.489012 -0.183377,-0.779383 0,-0.305635 0.097799,-0.779374 0.293326,-1.421231 0.195602,-0.641837 0.293411,-1.123222 0.293411,-1.444145 0,-0.382052 -0.097809,-0.725896 -0.293411,-1.031547 0.440028,0.626577 0.916734,1.61227 1.4301256,2.957082 0.391128,0.336206 0.745661,0.389695 1.063443,0.160459 0.440028,-0.56543 0.763928,-1.482353 0.971751,-2.750779 0.207752,-1.268387 0.495045,-2.170038 0.861728,-2.704917 0.0489,-0.259784 0.07335,-0.527221 0.07335,-0.802311 0,-0.779375 -0.244509,-1.940801 -0.733447,-3.484308 -0.488927,-1.54347 -0.733357,-2.704911 -0.733357,-3.484316 0,-0.794643 0.18338,-1.5358259 0.550062,-2.2235349 -0.146701,1.237863 0.183295,1.9790459 0.990088,2.2235349 l 0.403352,-0.297992 c 0.04891,-2.0783429 -0.281179,-3.6600349 -0.99009,-4.7450829 -0.611183,-0.947466 -0.916734,-1.459412 -0.916734,-1.535849 0,-0.38202 0.391129,-0.634176 1.173385,-0.756457 0.07335,-0.152799 0.110032,-0.297978 0.110032,-0.435547 0,-0.336177 -0.256651,-0.7258646 -0.770033,-1.1690686 -0.684539,-0.6112582 -1.075667,-0.985673 -1.173467,-1.12323458 -1.075603,-0.8404857 -1.6134306,-1.8108907 -1.6134306,-2.91123072 0,-0.397301 0.073356,-0.809914 0.219973,-1.237846 0.09781,-0.290335 0.4155926,-0.672377 0.9534196,-1.14616 0.783444,-0.525321 1.180025,-1.114399 1.503474,-1.9484632 -0.373823,1.3126952 -0.879769,2.5834262 0,3.8510802 0.85561,0.641879 2.126812,0.787056 3.81366,0.435538 0.855616,-0.183349 1.882381,-0.588324 3.080225,-1.214921 1.589046,-0.840481 2.542466,-1.321863 2.860254,-1.444152 -0.880072,0.504339 -1.320105,0.970441 -1.320105,1.398306 0,0.122289 0.03667,0.236904 0.110024,0.343844 0.660011,0.504339 1.552309,0.756495 2.676874,0.756467 0.635636,2.8e-5 1.234523,-0.091662 1.796806,-0.275082 1.22237,-0.397297 2.615815,-1.207243 4.180338,-2.429846 1.7113,-1.3600722 3.019175,-2.2387862 3.923687,-2.6361542 z m -0.293329,-5.0430903 c -7.1e-5,-0.183347 -0.17115,-0.275036 -0.513379,-0.275065 -0.366759,2.9e-5 -0.635637,0.114644 -0.806792,0.343844 -0.244424,0.13757 -0.256651,0.320954 -0.03667,0.550154 0.317855,0.045872 0.62341,0.00385 0.916739,-0.12608 0.293401,-0.129868 0.440034,-0.29415 0.440105,-0.492853 z m -1.210142,2.70492702 c 0,-0.015244 -0.146702,-0.084016 -0.440031,-0.206303 -0.220057,0.030592 -0.330004,0.206339 -0.330004,0.527237 0.02437,0.106998 0.207751,0.160487 0.550059,0.160456 0.195525,-0.13751 0.268876,-0.297969 0.219976,-0.48139 z M 19.824638,-2.2865248 c -0.146699,-0.076386 -0.268875,-0.091659 -0.366682,-0.045843 -0.0978,0.061155 -0.12225,0.145204 -0.07335,0.252146 0.195599,-0.015244 0.342229,-0.084021 0.440028,-0.206303 z m -6.527194,2.01722502 c -0.171156,-0.2292 -0.427807,-0.320887 -0.770043,-0.275075 -0.244501,0.061158 -0.366757,0.275111 -0.366682,0.641852 0.07328,0.122281 0.158859,0.236894 0.256658,0.343844 0.122246,0.15285 0.305551,0.206339 0.55006,0.160464 0.146619,-0.061103 0.256651,-0.351458 0.330007,-0.871085 z M 21.951533,12.980256 c -7.5e-5,-0.183371 -0.207836,-0.259778 -0.623418,-0.229237 -0.02445,0.0153 0.01223,0.129918 0.110026,0.343851 0.268883,0.168118 0.440033,0.129911 0.513392,-0.114614 z M 16.56104,25.312882 c -0.0489,-0.152822 -0.195604,-0.267437 -0.440031,-0.343852 -0.07335,0.0917 -0.06112,0.194853 0.03667,0.309458 0.0978,0.114623 0.232205,0.126081 0.403356,0.03439 z M 13.114056,24.76272 c -0.219973,-0.137526 -0.40335,-0.19102 -0.549979,-0.160459 0,7e-6 -0.134478,0.145186 -0.403358,0.435538 0.09774,0.183393 0.330012,0.252157 0.696686,0.206306 0.219984,-0.122253 0.305561,-0.282713 0.256651,-0.481385 z"
       id="path2299" />
    <path
       d="m 7.5236179,18.371587 c -0.7598758,0.977957 -1.7059665,2.510087 -2.8382892,4.596378 -0.014919,0.121077 0.081923,0.181624 0.2905329,0.181615 0.1191821,9e-6 0.2681738,-0.02328 0.4469747,-0.06986 -0.074519,0.158345 -0.1564598,0.544872 -0.2458328,1.159572 -0.059619,0.475008 -0.2607606,0.838247 -0.6034257,1.089718 -1.4005333,1.015208 -3.329973,1.490216 -5.7883277,1.425015 -2.0113993,-0.05588 -3.4417143,-0.498287 -4.2909633,-1.327217 -1.624016,-1.583351 -2.704207,-3.469393 -3.240573,-5.658154 0.163882,0.344614 0.320333,0.51693 0.469324,0.516921 0.029801,9e-6 0.052142,-0.0047 0.067042,-0.01397 0.119191,-0.06519 0.178791,-0.61471 0.178791,-1.648552 0,-2.440204 -0.260732,-4.396111 -0.782208,-5.867708 0.342675,0.624031 0.603417,0.936042 0.782208,0.936042 0.074491,-0.01862 0.119192,-0.06519 0.134092,-0.139711 0.432074,-1.275984 0.864158,-2.547327 1.296233,-3.8140144 0.640657,-1.4343124 1.556956,-2.5286933 2.748898,-3.2831226 -0.238392,0.3260069 -0.357584,0.6147273 -0.357584,0.8661748 0,0.3260202 0.163892,0.5681711 0.491675,0.7264928 0.730058,0.037266 1.482466,-0.1583217 2.2572232,-0.5867775 0.55126618,-0.363213 1.10254101,-0.7311144 1.65380661,-1.1036908 0.0446908,0.083843 0.022341,0.2282128 -0.0670413,0.4330974 -0.0894004,0.2421777 -0.1341006,0.3958578 -0.1340913,0.4610338 -9.3e-6,0.1769816 0.1564324,0.2608041 0.4693244,0.2514742 0.253274,-0.00929 0.61830679,0.053565 1.09509049,0.1886056 0.4767657,0.1350671 0.81944,0.2025973 1.0280412,0.2025705 C 2.912312,7.8935506 3.195395,7.7817783 3.4337958,7.5582271 3.4635781,7.4464816 3.478478,7.3207445 3.4784867,7.1810158 3.478478,7.0133909 3.4337778,6.7526068 3.3443954,6.3986636 3.2549863,6.0447538 3.2102948,5.7746465 3.2103042,5.5883614 c -9.4e-6,-0.1210687 0.014891,-0.2374825 0.0447,-0.3492815 0.253274,0.3539499 0.409715,0.6240507 0.4693244,0.8103088 0.089382,0.3353234 0.6480985,1.6718552 1.676157,4.0096023 0.7002486,1.620624 1.0503729,3.022352 1.050391,4.205196 -1.81e-5,0.195605 -0.00747,0.386537 -0.022341,0.572797 -0.014918,0.195604 -0.014918,0.98262 0,2.361059 -1.81e-5,0.07452 0.067023,0.125749 0.2011332,0.153682 0.119182,0.02795 0.1787734,0.0093 0.1787915,-0.05589 0.029782,-0.167625 0.052132,-0.754402 0.06705,-1.760312 -1.81e-5,-0.707835 0.1266232,-1.28064 0.3799246,-1.718398 0.3724651,1.164246 0.5586977,2.198079 0.5587159,3.101509 -1.82e-5,0.605411 -0.096859,1.089727 -0.290533,1.452957 z M 4.8417704,14.725224 C 4.7374608,14.55758 4.5959189,14.497041 4.4171362,14.5436 4.238336,14.5995 4.1712854,14.73455 4.2160036,14.948753 c -1.8e-5,-0.0093 0.1117234,0.04192 0.3352332,0.153681 0.1936739,9e-6 0.2905148,-0.12573 0.2905336,-0.37721 z m -0.02235,-1.215459 C 4.6257099,12.494578 4.4841687,11.828633 4.3947957,11.51195 4.1712854,10.776167 3.8509614,10.156805 3.4337958,9.6538498 3.195395,9.2719902 2.7484204,8.9972346 2.092872,8.8295629 1.8544711,8.7643869 1.2436048,8.6712545 0.26026451,8.5501456 -1.5276514,8.7178107 -2.4290412,8.8063015 -2.4439412,8.8155914 c -1.02805,0.1769883 -1.758107,0.5309114 -2.190173,1.0617828 -0.521475,0.8289418 -0.782217,1.2387578 -0.782217,1.2294208 0,0.08384 0.059609,0.116441 0.178801,0.09779 0.208582,-0.01861 0.417174,-0.116413 0.625766,-0.293382 0.208582,-0.176941 0.379925,-0.288713 0.514025,-0.335296 -1.564425,1.993173 -2.346632,3.641718 -2.346632,4.945647 0,0.325989 0.05215,0.614718 0.15645,0.866189 0.044691,0.05588 0.089391,0.08383 0.134091,0.08382 0.089392,9e-6 0.193683,-0.181615 0.312884,-0.544854 0.148982,-0.419114 0.283083,-0.679902 0.402274,-0.782372 -0.342683,1.322581 -0.514025,2.524068 -0.514025,3.604459 0,0.856872 0.126642,1.527475 0.379934,2.01179 0.134091,0.167654 0.290523,0.656624 0.469324,1.466928 0.148992,0.624028 0.387365,0.936045 0.715158,0.936036 0.0745,9e-6 0.141541,-0.0047 0.201142,-0.01397 0.268174,-0.09313 0.461874,-0.279412 0.581066,-0.558825 0.163891,-0.419124 0.260732,-0.647315 0.290542,-0.684574 0.014891,0.475007 0.067041,0.908102 0.156432,1.299283 0.208583,0.931391 0.603417,1.550755 1.1844919,1.85811 0.6406566,0.09313 1.01313068,0.08382 1.11743158,-0.02794 0.1042909,-0.223528 -0.0149005,-0.493624 -0.35757418,-0.810304 0.1042822,-0.05588 0.2085824,-0.08382 0.31288268,-0.08383 0.1340825,9e-6 0.312874,0.09548 0.53637503,0.286398 0.2234736,0.190942 0.4246148,0.286407 0.603407,0.286407 0.089391,0 0.1862327,-0.01863 0.2905423,-0.05588 0.95353059,-0.530883 1.49734619,-1.420351 1.63145619,-2.668414 0.1638735,-1.508832 0.4171655,-2.482127 0.759858,-2.919884 0.029791,0.372556 0.119182,0.908102 0.2681824,1.606638 0.1042822,0.07452 0.253274,0.04191 0.446984,-0.0978 0.6406479,-1.033834 0.9609812,-2.02109 0.9609906,-2.961807 -9.4e-6,-0.568124 -0.1266601,-1.089699 -0.3799247,-1.564716 -0.9237677,-1.713735 -1.3856327,-2.915212 -1.385624,-3.604459 -8.7e-6,-0.204878 0.022332,-0.414451 0.067041,-0.628679 0.029791,-0.26077 0.029791,-0.58675 0,-0.97794 0.3873652,0.260798 0.603407,0.656629 0.6481165,1.187507 0.089382,0.875504 0.1340826,1.336538 0.1340913,1.383101 0.089382,0.242178 0.3352244,0.377227 0.7375076,0.40515 0.2979741,1.8e-5 0.432066,-0.102433 0.4022837,-0.307356 z M 4.5735778,23.876058 c -0.029809,-0.0093 -0.040984,-0.04889 -0.033516,-0.118754 0.00743,-0.06985 -0.033534,-0.104774 -0.122926,-0.104774 -0.044709,0.279412 -0.044709,0.428432 0,0.447057 0.089392,9e-6 0.1303579,-0.03259 0.122926,-0.09779 -0.00747,-0.06519 0.00371,-0.107105 0.033516,-0.125739 z M 3.769029,24.798132 c -0.089409,-0.09314 -0.2011506,-0.12574 -0.3352332,-0.0978 -0.1341093,0.04657 -0.2458507,0.195594 -0.3352425,0.447056 0,0.149028 0.134092,0.209566 0.4022932,0.181624 0.2234642,-0.08382 0.3128646,-0.260788 0.2681825,-0.530883 z m -7.6209352,-0.74045 c -0.0447,-0.111759 -0.126651,-0.158336 -0.245833,-0.13971 -0.059609,0.01863 -0.08941,0.09314 -0.0894,0.223528 0.044691,0.05588 0.126641,0.07917 0.245833,0.06986 0.10429,-0.0093 0.134091,-0.06054 0.0894,-0.153674 z"
       style="font-style:normal;font-weight:normal;font-size:144px;font-family:'Seaweed Fire AOE';fill:url(#radialGradient2559);fill-opacity:1;stroke:url(#radialGradient2561);stroke-width:0.476774;stroke-linecap:butt;stroke-linejoin:miter;stroke-miterlimit:4;stroke-dasharray:none;stroke-opacity:1"
       id="path3681" />
  </g>
  <g
     inkscape:groupmode="layer"
     id="layer2"
     inkscape:label="rummut"
     style="display:inline"
     transform="translate(45.619637,41.35518)" />
</svg>
