<?xml version="1.0" encoding="UTF-8" standalone="no"?>
<!-- Created with Inkscape (http://www.inkscape.org/) -->

<svg
   version="1.0"
   width="264.90726"
   height="274.08804"
   id="svg3972"
   sodipodi:version="0.32"
   inkscape:version="1.4 (e7c3feb100, 2024-10-09)"
   sodipodi:docname="esc.svg"
   xmlns:inkscape="http://www.inkscape.org/namespaces/inkscape"
   xmlns:sodipodi="http://sodipodi.sourceforge.net/DTD/sodipodi-0.dtd"
   xmlns:xlink="http://www.w3.org/1999/xlink"
   xmlns="http://www.w3.org/2000/svg"
   xmlns:svg="http://www.w3.org/2000/svg"
   xmlns:rdf="http://www.w3.org/1999/02/22-rdf-syntax-ns#"
   xmlns:cc="http://creativecommons.org/ns#"
   xmlns:dc="http://purl.org/dc/elements/1.1/">
  <metadata
     id="metadata2301">
    <rdf:RDF>
      <cc:Work
         rdf:about="">
        <dc:format>image/svg+xml</dc:format>
        <dc:type
           rdf:resource="http://purl.org/dc/dcmitype/StillImage" />
      </cc:Work>
    </rdf:RDF>
  </metadata>
  <sodipodi:namedview
     inkscape:window-height="761"
     inkscape:window-width="1239"
     inkscape:pageshadow="2"
     inkscape:pageopacity="0.0"
     borderopacity="1.0"
     bordercolor="#666666"
     pagecolor="#ffffff"
     id="base"
     inkscape:zoom="1.0051974"
     inkscape:cx="139.77354"
     inkscape:cy="170.11584"
     inkscape:window-x="176"
     inkscape:window-y="176"
     inkscape:current-layer="svg3972"
     inkscape:showpageshadow="2"
     inkscape:pagecheckerboard="0"
     inkscape:deskcolor="#d1d1d1"
     inkscape:window-maximized="0" />
  <defs
     id="defs3974">
    <linearGradient
       id="linearGradient3213">
      <stop
         style="stop-color:#bba300;stop-opacity:1;"
         offset="0"
         id="stop3215" />
      <stop
         style="stop-color:#675a00;stop-opacity:1;"
         offset="1"
         id="stop3217" />
    </linearGradient>
    <linearGradient
       id="linearGradient3112">
      <stop
         style="stop-color:#000000;stop-opacity:0.54385966;"
         offset="0"
         id="stop3114" />
      <stop
         style="stop-color:#000000;stop-opacity:0;"
         offset="1"
         id="stop3116" />
    </linearGradient>
    <radialGradient
       inkscape:collect="always"
       xlink:href="#linearGradient3112"
       id="radialGradient3118"
       cx="-154.20419"
       cy="122.36085"
       fx="-154.20419"
       fy="122.36085"
       r="253.82281"
       gradientTransform="matrix(0.521835,0,0,0.269392,212.92277,172.74724)"
       gradientUnits="userSpaceOnUse" />
    <linearGradient
       inkscape:collect="always"
       xlink:href="#linearGradient3213"
       id="linearGradient3219"
       x1="-30.932739"
       y1="-9.999609"
       x2="47.638783"
       y2="4.0694041"
       gradientUnits="userSpaceOnUse"
       gradientTransform="translate(132.45361,107.38947)" />
  </defs>
  <path
     style="color:#000000;display:inline;overflow:visible;visibility:visible;fill:url(#radialGradient3118);fill-opacity:1;fill-rule:nonzero;stroke:none;stroke-width:10;stroke-linecap:butt;stroke-linejoin:miter;stroke-miterlimit:4;stroke-dashoffset:0;stroke-opacity:0.118421;marker:none;marker-start:none;marker-mid:none;marker-end:none"
     d="M 0,137.33239 H 264.90725 V 274.08803 H 0 Z"
     id="rect3110" />
  <path
     d="M 117.51538,171.55251 C 61.356766,154.63509 36.544305,151.92109 34.4606,148.91966 c -1.55905,-2.24568 -1.62844,-2.55313 -1.61524,-7.15605 0.01157,-4.03391 0.85168,-9.01436 5.209323,-30.88241 2.857544,-14.340073 5.863263,-28.600232 6.679373,-31.689243 2.559119,-9.686374 4.220907,-12.66155 15.950395,-28.556771 C 64.074768,46.040795 70.529687,37.155774 75.028718,30.890695 88.890565,11.587527 93.45376,5.5974535 95.697656,3.7587535 c 6.104044,-5.0018 10.482774,-5.00772 30.539404,-0.0413 28.86734,7.1481295 40.66073,9.3750905 68.79505,12.9906585 8.73947,1.123116 17.28276,2.366968 18.98509,2.764116 5.67637,1.324273 8.85241,3.203569 10.31358,6.102642 0.75705,1.50204 -20.00115,128.86441 -22.56779,138.63646 -1.47157,5.60273 -29.93557,23.70233 -84.24761,7.34118 z"
     style="fill:#ffff80;fill-opacity:1"
     id="path3964"
     sodipodi:nodetypes="csssssssssssss" />
  <path
     d="m 185.44409,198.61346 c -3.06292,-0.34575 -8.87236,-1.47115 -12.90986,-2.5009 -11.68256,-2.97959 -111.395073,-32.80081 -119.793079,-35.896 -8.739858,-3.22118 -14.402933,-6.48451 -15.755871,-8.30811 -0.603361,-0.81326 0.315538,-5.82104 2.44412,-16.52196 1.490132,-7.49128 3.183946,-15.78481 3.764039,-18.43006 0.580089,-2.64526 1.865926,-8.79643 2.857413,-13.66927 0.991492,-4.872837 2.001575,-9.067023 2.24463,-9.320405 0.954777,-0.995366 7.738767,-0.576271 12.379745,0.764785 2.506031,0.724142 6.834631,1.900159 9.619111,2.613365 2.784479,0.713212 9.12883,2.690905 14.098559,4.394875 21.143743,7.24956 50.867833,14.69747 71.967173,18.0327 7.65645,1.21027 9.40356,1.32215 15.82599,1.01342 5.3624,-0.25776 7.77158,-0.59064 9.36598,-1.2941 1.1806,-0.52089 3.73483,-1.22271 5.67605,-1.5596 4.24626,-0.73691 8.97035,-2.85118 11.45791,-5.12801 4.91591,-4.49945 8.73768,-16.078538 19.15502,-58.035348 3.95175,-15.916019 5.09342,-21.700355 5.09342,-25.80605 0,-1.878273 0.30202,-4.912234 0.5449,-4.641547 2.93321,30.601179 -23.26259,135.434255 -38.03525,174.292215 z"
     style="fill:url(#linearGradient3219);fill-opacity:1"
     id="path3962" />
  <path
     d="m 188.44069,199.01481 c -1.67069,-0.23328 -4.01946,-0.56323 -5.2195,-0.73322 l -2.18188,-0.30908 0.42356,-16.12264 c 0.0566,-7.98582 0.42342,-19.53174 0.81508,-25.6576 0.39165,-6.12585 0.84642,-14.39754 1.0106,-18.38154 l 0.29851,-7.24362 3.37469,-1.69947 c 3.71275,-1.86971 6.34825,-4.58365 11.26154,-11.5967 6.79091,-9.6931 8.42718,-13.1977 12.08367,-25.8811 3.0412,-10.549127 12.25033,-48.970018 12.9608,-53.611133 0.33967,-2.218911 -0.0657,-13.60992 0.23488,-13.507321 2.32309,0.792911 4.28039,23.74486 8.28344,56.788132 0.77301,6.380791 0.40735,10.293881 -7.47045,50.722272 -7.59051,38.95407 -9.18918,46.02312 -12.67121,53.80934 -2.34178,5.23651 -3.86598,7.09335 -6.8812,9.5096 -2.79052,2.23618 -3.8456,2.73847 -7.58255,3.60981 -2.38755,0.5567 -5.14422,0.82411 -5.34227,0.79016 -0.19806,-0.034 -1.72702,-0.25261 -3.39771,-0.48589 z M 163.44783,43.161152 c -5.30047,-0.587439 -10.36706,-3.557299 -11.1085,-6.511399 -0.75039,-2.989812 1.73191,-7.196741 5.25612,-8.907905 2.85617,-1.386797 8.05579,-1.487544 12.25156,-0.237384 4.57513,1.36319 8.06256,5.440134 4.61217,5.391805 -1.00542,-0.01408 -1.67598,-0.470501 -2.41351,-1.642741 -1.44312,-2.293723 -3.45595,-3.147313 -7.42161,-3.147313 -2.62438,0 -3.6928,0.233395 -4.77827,1.043821 -2.27905,1.701555 -3.35942,3.53881 -3.60913,6.137615 -0.20634,2.147401 -0.0681,2.614318 1.12767,3.810135 0.74956,0.749557 2.16435,1.627356 3.14398,1.95066 2.63629,0.870053 7.3015,0.393183 8.96655,-0.91655 1.42042,-1.117295 3.31451,-0.961091 3.73762,0.308237 0.44144,1.324344 -6.0486,3.132864 -9.76465,2.721019 z m -29.3636,-6.515809 c -5.42215,-1.341906 -8.35344,-3.296651 -8.35344,-5.570548 0,-1.884627 2.66162,-1.277201 3.69652,0.843601 0.944,1.934529 4.59807,3.52872 8.08823,3.52872 3.60233,0 4.92213,-0.621962 4.92213,-2.319568 0,-1.455108 -0.6865,-1.910659 -7.07543,-4.695209 -3.01509,-1.314092 -4.5197,-2.277689 -5.06024,-3.240735 -0.73034,-1.301187 -0.6992,-1.440659 0.61516,-2.755009 1.19317,-1.19317 1.8824,-1.412582 4.98871,-1.5881 5.93185,-0.335181 13.1133,2.277846 13.1133,4.771378 0,1.274582 -2.82112,0.867087 -3.74356,-0.540736 -1.11907,-1.707904 -3.23211,-2.713491 -6.51185,-3.098964 -3.46179,-0.406863 -5.05997,0.318793 -4.83644,2.195998 0.1367,1.147904 0.86299,1.628783 5.63711,3.732351 6.6088,2.911958 7.01874,3.222433 6.82268,5.167205 -0.25773,2.55643 -2.29991,3.621347 -7.15037,3.728635 -2.27698,0.05036 -4.59561,-0.0212 -5.15251,-0.159019 z M 105.2269,29.685451 C 99.101044,28.241536 93.814198,26.88956 93.47835,26.681058 c -0.422163,-0.26209 1.202986,-3.069529 5.265461,-9.096079 3.231849,-4.794342 6.126579,-8.9922465 6.432729,-9.3286775 0.43132,-0.473987 3.05571,-0.07147 11.65771,1.7879995 6.35493,1.373728 11.18898,2.663388 11.30667,3.016469 0.31309,0.93927 -1.12543,0.773166 -10.00416,-1.155163 -4.48727,-0.974567 -8.65813,-1.767848 -9.26859,-1.762845 -0.76779,0.0063 -1.61711,0.784765 -2.7553,2.525465 -1.94028,2.967388 -2.05373,3.930562 -0.50627,4.298461 0.62651,0.148948 4.54262,1.023164 8.70247,1.9427 6.95385,1.53715 8.96623,2.362976 7.2664,2.981945 -0.35983,0.131022 -4.52719,-0.631667 -9.2608,-1.694872 -4.73362,-1.063206 -8.88286,-1.939714 -9.22055,-1.947794 -0.75468,-0.01806 -4.701853,5.697242 -4.701853,6.808047 0,1.056978 0.264222,1.143343 10.884783,3.557841 6.67728,1.518022 9.11284,2.268181 9.11284,2.806771 0,1.209188 -1.5175,1.009065 -13.16299,-1.735875 z"
     style="fill:#070707"
     id="path3960" />
</svg>
