<?xml version="1.0" encoding="UTF-8" standalone="no"?>
<!-- Created with Inkscape (http://www.inkscape.org/) -->

<svg
   width="508.55066"
   height="424.12848"
   id="svg3784"
   sodipodi:version="0.32"
   inkscape:version="1.4 (e7c3feb100, 2024-10-09)"
   sodipodi:docname="keyboard.svg"
   version="1.1"
   xmlns:inkscape="http://www.inkscape.org/namespaces/inkscape"
   xmlns:sodipodi="http://sodipodi.sourceforge.net/DTD/sodipodi-0.dtd"
   xmlns:xlink="http://www.w3.org/1999/xlink"
   xmlns="http://www.w3.org/2000/svg"
   xmlns:svg="http://www.w3.org/2000/svg"
   xmlns:rdf="http://www.w3.org/1999/02/22-rdf-syntax-ns#"
   xmlns:cc="http://creativecommons.org/ns#"
   xmlns:dc="http://purl.org/dc/elements/1.1/">
  <defs
     id="defs3786">
    <linearGradient
       inkscape:collect="always"
       id="linearGradient3160">
      <stop
         style="stop-color:#66ff00;stop-opacity:1;"
         offset="0"
         id="stop3162" />
      <stop
         style="stop-color:#66ff00;stop-opacity:0;"
         offset="1"
         id="stop3164" />
    </linearGradient>
    <linearGradient
       inkscape:collect="always"
       id="linearGradient3152">
      <stop
         style="stop-color:#ff2a2a;stop-opacity:1;"
         offset="0"
         id="stop3154" />
      <stop
         style="stop-color:#ff2a2a;stop-opacity:0;"
         offset="1"
         id="stop3156" />
    </linearGradient>
    <linearGradient
       inkscape:collect="always"
       id="linearGradient3144">
      <stop
         style="stop-color:#ffff00;stop-opacity:1;"
         offset="0"
         id="stop3146" />
      <stop
         style="stop-color:#ffff00;stop-opacity:0;"
         offset="1"
         id="stop3148" />
    </linearGradient>
    <linearGradient
       inkscape:collect="always"
       id="linearGradient3136">
      <stop
         style="stop-color:#2a7fff;stop-opacity:1;"
         offset="0"
         id="stop3138" />
      <stop
         style="stop-color:#2a7fff;stop-opacity:0;"
         offset="1"
         id="stop3140" />
    </linearGradient>
    <linearGradient
       inkscape:collect="always"
       id="linearGradient3128">
      <stop
         style="stop-color:#d42aff;stop-opacity:1;"
         offset="0"
         id="stop3130" />
      <stop
         style="stop-color:#d42aff;stop-opacity:0;"
         offset="1"
         id="stop3132" />
    </linearGradient>
    <linearGradient
       inkscape:collect="always"
       id="linearGradient3120">
      <stop
         style="stop-color:#ff6600;stop-opacity:1;"
         offset="0"
         id="stop3122" />
      <stop
         style="stop-color:#ff6600;stop-opacity:0;"
         offset="1"
         id="stop3124" />
    </linearGradient>
    <linearGradient
       id="linearGradient3112">
      <stop
         style="stop-color:#000000;stop-opacity:0.54385966;"
         offset="0"
         id="stop3114" />
      <stop
         style="stop-color:#000000;stop-opacity:0;"
         offset="1"
         id="stop3116" />
    </linearGradient>
    <linearGradient
       inkscape:collect="always"
       id="linearGradient3094">
      <stop
         style="stop-color:#ffffff;stop-opacity:1;"
         offset="0"
         id="stop3096" />
      <stop
         style="stop-color:#ffffff;stop-opacity:0;"
         offset="1"
         id="stop3098" />
    </linearGradient>
    <radialGradient
       inkscape:collect="always"
       xlink:href="#linearGradient3094"
       id="radialGradient3100"
       cx="-108.6656"
       cy="-53.16415"
       fx="-108.6656"
       fy="-53.16415"
       r="146.34"
       gradientTransform="matrix(1,0,0,0.97611,0,-1.270084)"
       gradientUnits="userSpaceOnUse" />
    <radialGradient
       inkscape:collect="always"
       xlink:href="#linearGradient3112"
       id="radialGradient3118"
       cx="-154.20419"
       cy="122.36085"
       fx="-154.20419"
       fy="122.36085"
       r="253.82281"
       gradientTransform="matrix(1,0,0,0.336022,135.0993,101.7146)"
       gradientUnits="userSpaceOnUse" />
    <linearGradient
       inkscape:collect="always"
       xlink:href="#linearGradient3120"
       id="linearGradient3126"
       x1="47.892593"
       y1="29.96438"
       x2="75.940994"
       y2="29.96438"
       gradientUnits="userSpaceOnUse" />
    <linearGradient
       inkscape:collect="always"
       xlink:href="#linearGradient3128"
       id="linearGradient3134"
       x1="-63.737003"
       y1="-50.365746"
       x2="-45.319183"
       y2="-50.365746"
       gradientUnits="userSpaceOnUse" />
    <linearGradient
       inkscape:collect="always"
       xlink:href="#linearGradient3136"
       id="linearGradient3142"
       x1="-89.383636"
       y1="-57.647411"
       x2="-70.965462"
       y2="-57.647411"
       gradientUnits="userSpaceOnUse" />
    <linearGradient
       inkscape:collect="always"
       xlink:href="#linearGradient3144"
       id="linearGradient3150"
       x1="-106.2216"
       y1="-62.608189"
       x2="-87.805336"
       y2="-62.608189"
       gradientUnits="userSpaceOnUse" />
    <linearGradient
       inkscape:collect="always"
       xlink:href="#linearGradient3152"
       id="linearGradient3158"
       x1="-122.31142"
       y1="-67.472908"
       x2="-103.74605"
       y2="-67.472908"
       gradientUnits="userSpaceOnUse" />
    <linearGradient
       inkscape:collect="always"
       xlink:href="#linearGradient3160"
       id="linearGradient3166"
       x1="-138.10632"
       y1="-71.628197"
       x2="-120.03091"
       y2="-71.628197"
       gradientUnits="userSpaceOnUse" />
  </defs>
  <sodipodi:namedview
     id="base"
     pagecolor="#ffffff"
     bordercolor="#666666"
     borderopacity="1.0"
     gridtolerance="10000"
     guidetolerance="10"
     objecttolerance="10"
     inkscape:pageopacity="0.0"
     inkscape:pageshadow="2"
     inkscape:zoom="1.0363281"
     inkscape:cx="381.63589"
     inkscape:cy="272.59707"
     inkscape:document-units="px"
     inkscape:current-layer="layer1"
     inkscape:window-width="1327"
     inkscape:window-height="884"
     inkscape:window-x="65"
     inkscape:window-y="121"
     showguides="true"
     inkscape:guide-bbox="true"
     inkscape:showpageshadow="2"
     inkscape:pagecheckerboard="0"
     inkscape:deskcolor="#d1d1d1"
     inkscape:window-maximized="0" />
  <metadata
     id="metadata3789">
    <rdf:RDF>
      <cc:Work
         rdf:about="">
        <dc:format>image/svg+xml</dc:format>
        <dc:type
           rdf:resource="http://purl.org/dc/dcmitype/StillImage" />
      </cc:Work>
    </rdf:RDF>
  </metadata>
  <g
     inkscape:label="Layer 1"
     inkscape:groupmode="layer"
     id="layer1"
     transform="translate(272.92776,196.00811)">
    <path
       style="fill:url(#radialGradient3100);fill-opacity:1;stroke:none;stroke-width:10;stroke-miterlimit:4;stroke-opacity:0.118421"
       d="m -118.48744,-1.5197728 -61.88396,78.7090738 29.98901,-94.613823 -99.60778,21.7010297 85.70856,-53.7572037 -90.72399,-45.461165 101.32412,12.253003 -39.38946,-91.351582 69.52901,72.5299 30.375848,-94.49757 5.200498,98.86925 85.9279545,-53.4271 L -63.599016,-71.619385 37.6744,-58.976884 -61.843611,-36.892958 7.3883165,35.903581 -83.520744,-9.2084598 -78.724697,89.679805 Z"
       id="path2892" />
    <path
       style="color:#000000;display:inline;overflow:visible;visibility:visible;fill:url(#radialGradient3118);fill-opacity:1;fill-rule:nonzero;stroke:none;stroke-width:10;stroke-linecap:butt;stroke-linejoin:miter;stroke-miterlimit:4;stroke-dashoffset:0;stroke-opacity:0.118421;marker:none;marker-start:none;marker-mid:none;marker-end:none"
       d="M -272.92776,57.540508 H 234.71786 V 228.12036 h -507.64562 z"
       id="rect3110" />
    <path
       id="path1955"
       d="M -5.4530915,78.117334 C -121.98939,38.764886 -219.01474,5.9957857 -221.06499,5.297108 l -3.72774,-1.270321 -2.28898,-4.17505845 c -1.25895,-2.29627975 -2.29899,-4.34811485 -2.3112,-4.55963385 -0.0122,-0.2115165 0.96755,-1.6205984 2.17722,-3.1312919 1.20969,-1.5106934 2.29809,-3.0822128 2.41865,-3.4922628 0.12057,-0.41005 0.58776,-1.148143 1.03821,-1.640203 0.45043,-0.492059 2.12267,-2.532574 3.71607,-4.534476 1.59341,-2.001902 3.12238,-3.718682 3.39773,-3.815064 0.53319,-0.186627 2.68184,-2.998652 3.19165,-4.177026 0.46357,-1.071474 7.08216,-9.344006 7.62929,-9.535794 0.58895,-0.206451 3.10276,-3.400533 3.39098,-4.308637 0.26976,-0.849931 6.57618,-8.676319 7.46653,-9.2661 0.81084,-0.537116 3.12699,-3.559743 3.12699,-4.080795 0,-0.482072 6.46705,-8.503422 7.16877,-8.891706 0.76878,-0.425405 2.60594,-2.911593 2.83967,-3.842914 0.10866,-0.432897 0.3572,-0.886024 0.5523,-1.006942 0.1951,-0.120921 1.66282,-1.870497 3.2616,-3.887947 1.59877,-2.017452 3.0824,-3.735452 3.29693,-3.817782 0.58081,-0.222879 4.54136,-5.263481 4.79522,-6.102893 0.12071,-0.399144 0.58669,-1.128313 1.03555,-1.620374 0.44883,-0.492059 1.85155,-2.210535 3.11713,-3.818836 1.26559,-1.608303 2.47592,-2.991277 2.6896,-3.073277 0.21368,-0.082 2.18467,-2.416664 4.37997,-5.188146 2.57708,-3.253466 4.19072,-5.044062 4.55381,-5.053179 0.3093,-0.0078 31.5104,8.768043 69.335777,19.501797 37.82538,10.733756 125.337993,35.567398 194.472483,55.185874 69.13447,19.6184759 125.81484,35.785497 125.95634,35.926712 0.14422,0.143903 -1.85197,11.836137 -4.5414,26.600524 -2.63933,14.489072 -8.0165,43.987582 -11.94929,65.552234 l -7.15053,39.20848 -1.84538,2.6912 c -2.11064,3.07807 -2.92125,4.04146 -3.37708,4.01359 -0.17643,-0.0108 -95.66867,-32.21708 -212.2049715,-71.569526 z"
       style="fill:#ffff80;fill-opacity:1;stroke:none;stroke-width:10;stroke-miterlimit:4;stroke-dasharray:none;stroke-opacity:1" />
    <path
       style="fill:url(#linearGradient3166);fill-opacity:1;stroke:none;stroke-width:10;stroke-miterlimit:4;stroke-opacity:1"
       d="m -131.06253,-78.698882 c 1.54462,-0.156904 10.82906,2.37851 11.02498,3.359382 0.23356,1.169311 -5.77496,10.788948 -5.77496,10.788948 0,0 -11.12982,-4.298965 -12.18453,-6.177579 -1.0249,-1.825495 5.4587,-7.820837 6.93451,-7.970751 z"
       id="rect2872"
       sodipodi:nodetypes="czczz" />
    <path
       style="fill:url(#linearGradient3126);fill-opacity:1;stroke:none;stroke-width:10;stroke-miterlimit:4;stroke-opacity:1"
       d="m 58.779673,13.977955 c 1.131693,-0.951279 16.618962,4.323633 17.147215,5.099679 0.465643,0.684058 -10.747979,26.987507 -10.747979,26.987507 L 47.892595,39.574484 c 0,0 9.671947,-24.575113 10.887078,-25.596529 z"
       id="rect2869"
       sodipodi:nodetypes="czccz" />
    <path
       style="fill:url(#linearGradient3158);fill-opacity:1;stroke:none;stroke-width:10;stroke-miterlimit:4;stroke-opacity:1"
       d="m -116.47583,-74.678578 c 0.80577,-0.499305 12.84599,1.265731 12.72893,3.776678 -0.11875,2.547479 -6.01838,10.719398 -6.01838,10.719398 0,0 -12.20822,-3.374621 -12.53228,-6.655724 -0.32096,-3.249853 5.03193,-7.350932 5.82173,-7.840352 z"
       id="path2877"
       sodipodi:nodetypes="czczz" />
    <path
       style="fill:url(#linearGradient3150);fill-opacity:1;stroke:none;stroke-width:10;stroke-miterlimit:4;stroke-opacity:1"
       d="m -99.944429,-69.930046 c 0.805767,-0.499308 12.206663,0.921481 12.138792,3.875036 -0.06787,2.855196 -5.870846,10.866931 -5.870846,10.866931 0,0 -12.208227,-3.374616 -12.532277,-6.655723 -0.32097,-3.249853 5.47453,-7.596824 6.264331,-8.086244 z"
       id="path2879"
       sodipodi:nodetypes="czczz" />
    <path
       style="fill:url(#linearGradient3142);fill-opacity:1;stroke:none;stroke-width:10;stroke-miterlimit:4;stroke-opacity:1"
       d="m -83.301868,-65.226036 c 1.199196,-0.302592 12.452552,1.954228 12.335503,4.465177 -0.11875,2.547481 -6.018381,10.719399 -6.018381,10.719399 0,0 -12.060689,-3.128725 -12.384744,-6.409831 -0.320967,-3.249853 4.914601,-8.483803 6.067622,-8.774745 z"
       id="path2881"
       sodipodi:nodetypes="czczz" />
    <path
       style="fill:url(#linearGradient3134);fill-opacity:1;stroke:none;stroke-width:10;stroke-miterlimit:4;stroke-opacity:1"
       d="m -57.50807,-57.943825 c 1.199196,-0.302594 12.305018,1.85587 12.187967,4.366819 -0.118751,2.54748 -5.870846,10.817755 -5.870846,10.817755 0,0 -12.208223,-2.391049 -12.532279,-5.672156 -0.320966,-3.249853 5.062135,-9.221475 6.215158,-9.512418 z"
       id="path2883"
       sodipodi:nodetypes="czczz" />
    <path
       style="fill:#000000;stroke:none;stroke-width:10;stroke-miterlimit:4;stroke-dasharray:none;stroke-opacity:1"
       d="m -151.29989,-84.39795 c -0.35609,-0.02242 -0.94372,0.706808 -2.93558,3.280402 -1.54023,1.990049 -3.10051,3.737577 -3.46679,3.87684 -0.48154,0.183081 -2.01429,-0.144411 -5.545,-1.183553 -2.68561,-0.790424 -5.11817,-1.54137 -5.4052,-1.658841 -0.43805,-0.179265 -0.5234,-0.04814 -0.50325,0.792141 0.0132,0.550615 0.18095,1.602956 0.37277,2.339151 l 0.35414,1.341983 5.06971,1.53769 c 6.3429,1.924037 6.71833,1.94084 7.79095,0.475285 0.45017,-0.615075 1.07295,-1.386716 1.37926,-1.714756 0.30632,-0.32804 1.4312,-1.787836 2.5069,-3.243126 l 1.95706,-2.637369 -0.39141,-1.202191 c -0.21783,-0.660023 -0.60408,-1.45787 -0.85738,-1.770672 -0.10919,-0.134845 -0.20748,-0.225511 -0.32618,-0.232984 z m 31.22906,9.030425 c -0.18836,0.06105 -1.50278,1.704542 -2.91695,3.653176 -1.41416,1.948638 -2.82996,3.659512 -3.14993,3.802284 -0.41374,0.184619 -2.20069,-0.225052 -6.18803,-1.416537 -3.08357,-0.92142 -5.6626,-1.615784 -5.73138,-1.547009 -0.24774,0.24773 0.48586,3.903366 0.85737,4.268252 0.20915,0.205408 2.85924,1.093779 5.88982,1.985018 6.14245,1.806376 6.19581,1.805833 7.54865,-0.130471 0.45476,-0.650893 0.95343,-1.102631 1.109,-1.00649 0.15556,0.09614 0.36614,0.845324 0.47529,1.668162 0.10915,0.822836 0.41566,1.739519 0.68031,2.031612 0.27804,0.306884 2.73947,1.193178 5.82457,2.096849 6.2131,1.81991 6.8055,1.818356 8.23829,0.0093 0.51573,-0.651168 1.03874,-1.121748 1.16491,-1.043763 0.12618,0.07798 0.31404,0.905628 0.41005,1.835907 0.096,0.930284 0.30381,1.82285 0.46597,1.985015 0.16217,0.16217 2.88112,1.062531 6.04824,2.003656 4.264891,1.267323 5.918184,1.638806 6.3651,1.435175 0.629368,-0.28676 6.215991,-8.669941 6.215991,-9.328643 0,-0.874927 -0.801649,-3.136546 -1.109001,-3.131292 -0.183709,0.0031 -1.405195,1.631268 -2.711925,3.615897 -1.306727,1.984628 -2.654702,3.789846 -3.000821,4.01663 -0.559074,0.366319 -1.234596,0.241901 -5.983006,-1.127639 -2.939718,-0.847876 -5.507718,-1.66998 -5.712748,-1.826587 -0.67835,-0.518161 -0.39381,-1.380456 1.30471,-3.932757 l 1.6868,-2.525537 -0.5778,-1.407218 c -0.31675,-0.771826 -0.71797,-1.44462 -0.88534,-1.50041 -0.16737,-0.05579 -1.41781,1.514413 -2.78648,3.494748 -1.36867,1.98033 -2.72872,3.730555 -3.01946,3.886157 -0.90121,0.482315 -1.95813,0.326348 -6.17871,-0.922615 -6.02723,-1.783594 -6.00237,-1.771993 -6.35578,-2.432344 -0.34066,-0.636523 -0.32867,-0.658029 2.5069,-4.631704 l 0.89465,-1.258109 -0.52188,-1.360622 c -0.28689,-0.751221 -0.66901,-1.319159 -0.85738,-1.258108 z m -42.66386,5.572957 c -0.19102,0 -1.45227,1.455141 -2.80513,3.233805 -1.35286,1.778661 -2.78366,3.544324 -3.1872,3.923435 l -0.73623,0.689631 -5.3027,-1.574965 c -2.91463,-0.86794 -5.52883,-1.693769 -5.80593,-1.835907 -0.29921,-0.15349 -0.5743,-0.143591 -0.68032,0.02796 -0.27397,0.443274 0.69994,3.46053 1.27675,3.960711 0.42419,0.367826 2.70902,1.105029 11.46278,3.690453 0.34058,0.100595 0.8683,-0.220757 1.52836,-0.941252 1.09766,-1.19815 1.16551,-1.177823 1.65884,0.661671 0.29445,1.097947 0.52079,1.344919 1.89183,1.994336 0.85756,0.406205 2.30373,0.889391 3.20584,1.081042 0.90211,0.191649 2.99452,0.742228 4.65966,1.220832 1.66515,0.478609 3.24325,0.866697 3.50407,0.866697 0.26083,0 0.83832,-0.402595 1.27675,-0.894655 0.43843,-0.492061 0.89947,-0.894655 1.03444,-0.894655 0.13497,0 0.34035,0.551838 0.44733,1.220832 0.2471,1.54526 1.50783,2.437319 4.436,3.140613 1.14814,0.275763 3.44651,0.883116 5.10699,1.351301 3.8703,1.09126 4.08448,1.079266 4.83673,-0.195705 0.94651,-1.604209 1.29782,-1.432962 1.66816,0.801462 0.23013,1.388494 1.74096,2.331043 4.93924,3.084695 1.23015,0.289878 3.59562,0.910104 5.2561,1.37926 1.66048,0.469154 3.2295,0.848059 3.49475,0.848059 0.26524,0 0.78504,-0.462408 1.15559,-1.034445 0.37055,-0.572037 0.82991,-1.041736 1.01581,-1.043763 0.36621,-0.004 0.69244,0.932691 0.69895,2.003656 0.006,0.965084 2.24346,2.263346 5.02311,2.907629 1.25641,0.291214 3.56744,0.905391 5.12563,1.360622 3.45527,1.009464 3.07514,0.948566 3.60658,0.503243 0.97518,-0.817151 5.936411,-8.767601 5.936411,-9.515033 0,-0.916233 -0.794843,-2.935588 -1.155595,-2.935588 -0.138845,0 -1.361469,1.670395 -2.711926,3.709094 -1.35045,2.038696 -2.70068,3.931391 -3.00082,4.203013 -0.51165,0.463036 -0.89612,0.381772 -6.16007,-1.211511 -5.94694,-1.800003 -6.65401,-2.067782 -6.654,-2.544175 0,-0.164543 0.80519,-1.499951 1.78931,-2.963547 0.98412,-1.463596 1.7806,-2.960979 1.77999,-3.336316 -10e-4,-0.749287 -1.02446,-2.628052 -1.43518,-2.628052 -0.14184,0 -1.45113,1.743568 -2.90763,3.867522 -1.64829,2.403641 -2.89173,3.916738 -3.28972,4.01663 -0.60966,0.153013 -10.73312,-2.711803 -12.02193,-3.401555 -0.33855,-0.181189 -0.61508,-0.514152 -0.61507,-0.745548 0,-0.231398 0.86931,-1.658086 1.93842,-3.168567 2.04792,-2.893389 2.07433,-2.988289 1.109,-4.88333 l -0.45665,-0.894654 -0.69895,0.894654 c -0.3848,0.490435 -1.73831,2.294421 -3.01014,4.01663 -1.48221,2.007096 -2.53978,3.166675 -2.94491,3.224488 -0.69111,0.09862 -10.76639,-2.824844 -11.36957,-3.29904 -0.6542,-0.5143 -0.41578,-1.08221 1.56564,-3.709094 1.06613,-1.413432 1.92972,-2.785395 1.9291,-3.047418 -0.001,-0.625796 -1.09927,-2.413707 -1.48177,-2.413707 -0.16426,0 -1.53739,1.671599 -3.05674,3.709094 -1.65963,2.225598 -3.0283,3.770385 -3.42951,3.876839 -0.71708,0.190266 -10.46943,-2.575233 -11.63052,-3.299044 -0.36905,-0.230058 -0.67187,-0.581579 -0.671,-0.78282 9e-4,-0.201247 0.79073,-1.397589 1.76136,-2.65601 2.4045,-3.117377 2.4319,-3.175872 1.90115,-4.501231 -0.24631,-0.615078 -0.61046,-1.118321 -0.80146,-1.118322 z m 91.42257,8.359435 c -0.153032,0 -1.329116,1.680765 -2.618731,3.727728 -1.609328,2.554438 -2.59746,3.825064 -3.14993,4.053908 -0.686684,0.284435 -1.623199,0.08556 -6.393059,-1.323345 -3.0752,-0.908336 -5.70147,-1.582256 -5.833895,-1.50041 -0.321972,0.198986 -0.298804,3.435611 0.02796,3.951395 0.141962,0.224084 2.852672,1.188449 6.029605,2.143443 3.176936,0.954991 5.815581,1.741965 5.861854,1.752034 0.04627,0.01007 0.522064,-0.160222 1.053084,-0.382094 0.767597,-0.320723 1.527209,-1.312888 3.71841,-4.827409 2.031784,-3.25883 2.701604,-4.576478 2.562815,-5.032436 -0.423426,-1.391042 -0.996451,-2.562811 -1.258109,-2.562814 z m -92.31723,7.14792 c -0.18084,0 -1.544,1.608858 -3.01946,3.569304 -2.54702,3.384231 -3.41485,4.184375 -4.53852,4.184375 -0.41454,0 -17.68486,-5.229392 -19.23508,-5.824577 -0.80242,-0.308067 -0.89263,0.43293 -0.29822,2.404385 l 0.5312,1.779992 1.9291,0.652352 c 1.06226,0.35499 5.6452,1.793091 10.18603,3.196529 9.09125,2.809844 9.44464,2.84453 10.50288,1.053084 0.29311,-0.496218 0.68548,-0.855129 0.87601,-0.792142 0.19053,0.06299 0.5545,0.913156 0.80146,1.882504 0.5176,2.031556 -0.1766,1.666992 7.96803,4.137779 5.0381,1.528382 5.22242,1.52407 6.33714,-0.279581 0.95742,-1.549141 1.37346,-1.339949 1.79863,0.913297 0.42844,2.270689 0.11128,2.052388 5.21882,3.541341 1.96824,0.573785 4.3838,1.290715 5.36793,1.593606 2.31822,0.713495 3.43519,0.452825 4.29621,-1.006486 0.34601,-0.586453 0.7892,-1.016789 0.98785,-0.950573 0.19864,0.06621 0.51871,0.898937 0.70827,1.845228 0.18956,0.946288 0.53011,1.891318 0.75486,2.106166 0.22475,0.214846 1.88623,0.814305 3.69045,1.323344 1.80422,0.509039 4.28689,1.248023 5.51704,1.64952 1.23015,0.401494 2.45238,0.738207 2.72125,0.745547 0.83439,0.02277 1.61087,-0.889291 4.56647,-5.358613 2.4856,-3.758625 2.83032,-4.441176 2.66532,-5.218821 -0.25771,-1.214605 -0.98918,-2.593495 -1.31402,-2.47894 -0.14594,0.05147 -1.51246,1.891623 -3.0381,4.091184 -1.52565,2.199562 -3.0486,4.102062 -3.38292,4.221654 -0.36826,0.131735 -1.48495,-0.05707 -2.83307,-0.475288 -1.22387,-0.379667 -3.79574,-1.175515 -5.72207,-1.770671 -4.51294,-1.394313 -4.55562,-1.502861 -2.04093,-5.106989 0.99938,-1.432341 1.81726,-2.846245 1.81727,-3.140612 0,-0.762875 -0.94571,-2.648245 -1.32334,-2.63737 -0.17465,0.005 -1.25625,1.380324 -2.40439,3.04742 -2.86394,4.158422 -3.32109,4.659152 -4.41736,4.84605 -1.29025,0.219968 -11.94165,-3.078249 -12.06853,-3.737049 -0.0483,-0.251059 0.7796,-1.662022 1.83591,-3.131296 1.05632,-1.46927 1.9605,-2.875944 2.01297,-3.121974 0.14585,-0.683887 -0.88235,-2.982184 -1.33266,-2.982184 -0.2189,0 -1.3918,1.371861 -2.60941,3.04742 -2.95807,4.070604 -3.80215,5.004478 -4.51987,5.004478 -0.63555,0 -10.16313,-2.857907 -10.99681,-3.299042 -0.95503,-0.505339 -0.8153,-1.335826 0.54985,-3.140611 2.927,-3.869629 2.91832,-3.844507 2.31119,-5.190866 -0.2946,-0.653283 -0.67655,-1.192874 -0.85738,-1.192874 z m 118.206316,0.307539 c -0.128512,0 -1.250913,1.7325 -2.49758,3.848882 -1.725223,2.928798 -2.460174,3.920072 -3.084697,4.137781 -0.662757,0.231038 -1.927,-0.03063 -6.579443,-1.369942 -4.875489,-1.403525 -5.809741,-1.595608 -6.057561,-1.230151 -0.327593,0.4831 -0.130972,3.512883 0.251621,3.895477 0.135392,0.135393 2.66081,0.971979 5.610235,1.863865 5.882461,1.778827 6.925848,1.933444 7.837552,1.155598 0.729973,-0.622799 5.423848,-8.59756 5.423846,-9.216814 0,-0.804145 -0.668873,-3.084693 -0.903973,-3.084696 z m 17.203474,5.060393 c -0.193261,6.6e-5 -1.314977,1.727357 -2.49758,3.830242 -1.45564,2.588396 -2.397828,3.933461 -2.907629,4.165741 -0.793232,0.361417 -0.656087,0.390179 -9.104981,-2.078212 -1.722211,-0.503152 -3.264373,-1.029911 -3.420192,-1.174232 -0.15582,-0.144326 -0.390666,-0.270263 -0.521882,-0.270263 -0.392805,0 -0.268662,4.017994 0.139789,4.547831 0.208151,0.270012 2.809175,1.208504 5.889814,2.124805 3.034372,0.902542 5.943692,1.647848 6.467611,1.658841 1.394482,0.02926 2.106684,-0.799185 4.70626,-5.489083 l 2.311192,-4.165737 -0.354134,-1.574965 c -0.193588,-0.865043 -0.515005,-1.575029 -0.708268,-1.574968 z m -53.101513,3.280402 c -0.182744,4.15e-4 -1.393229,1.690687 -2.693287,3.75569 -1.300063,2.064998 -2.652844,3.950266 -3.010142,4.184376 -0.58789,0.385203 -1.224426,0.254641 -6.616719,-1.36994 -3.277243,-0.98736 -6.041739,-1.798631 -6.150755,-1.798631 -0.109019,0 -0.195708,0.784018 -0.195708,1.742713 0,1.85723 0.160657,2.117123 1.938422,3.075378 0.492059,0.265234 1.901142,0.715164 3.131292,1.006486 1.230151,0.291329 3.624931,0.914871 5.321334,1.379261 3.393986,0.929113 3.886229,0.863183 4.641024,-0.596437 0.236914,-0.458136 0.63818,-0.997071 0.885335,-1.202191 0.381975,-0.317012 0.467595,-0.227381 0.605758,0.615075 0.08939,0.545109 0.198988,1.390444 0.242301,1.882504 0.06839,0.77697 0.33886,1.0254 2.022293,1.863865 1.066133,0.531007 3.146205,1.231626 4.622388,1.556328 1.476179,0.3247 3.489153,0.85277 4.473276,1.174234 0.984119,0.321462 2.048818,0.560231 2.367109,0.5312 0.75904,-0.06923 6.132114,-8.863483 6.132114,-10.036911 0,-1.123034 -0.591861,-2.693314 -1.006487,-2.683966 -0.188978,0.0043 -1.409082,1.768513 -2.721243,3.923435 -1.312162,2.154921 -2.601544,4.052445 -2.861034,4.212334 -0.339598,0.209254 -1.927272,-0.147472 -5.666149,-1.276747 -6.308789,-1.905481 -7.427502,-2.338287 -7.427502,-2.861032 0,-0.222505 0.738093,-1.546521 1.640203,-2.944907 0.90211,-1.398385 1.640199,-2.773687 1.640199,-3.056739 0,-0.84244 -0.9553,-3.076188 -1.314022,-3.075378 z m 70.099961,1.640203 c -0.13546,0 -1.114096,1.610379 -2.180721,3.578621 -2.238908,4.131454 -2.732692,4.728473 -3.886159,4.687619 -0.462227,-0.01637 -3.321407,-0.768 -6.35578,-1.668159 -3.034372,-0.90016 -5.601218,-1.547331 -5.703427,-1.435174 -0.32045,0.351653 -0.522455,3.522493 -0.251622,3.960712 0.141991,0.229746 2.779086,1.176593 5.861856,2.106166 6.129369,1.848239 7.179829,2.00245 8.079854,1.220832 0.33052,-0.287035 1.629593,-2.467757 2.888991,-4.84605 l 2.292553,-4.324165 -0.251621,-1.640203 c -0.136571,-0.902109 -0.358468,-1.640199 -0.493924,-1.640199 z m -190.281978,4.920603 c -0.55129,0 0.43942,3.580665 1.1556,4.175057 0.78354,0.650261 27.61364,8.98676 28.28415,8.788124 0.35646,-0.105602 1.07582,-0.687521 1.5936,-1.286067 0.51778,-0.598541 1.02286,-1.007146 1.12764,-0.903974 0.10479,0.103168 0.41881,1.040159 0.69895,2.078209 l 0.51256,1.891824 5.51704,1.724076 c 3.03378,0.950506 5.86116,1.8053 6.28123,1.901142 0.77666,0.177204 1.14248,-0.09761 2.64669,-1.96638 0.72483,-0.900498 1.05425,-0.567424 1.34198,1.351302 0.10329,0.688807 0.35977,1.485249 0.56848,1.770672 0.33288,0.455231 4.71802,1.98166 10.39105,3.615901 2.30217,0.663195 3.54734,0.409504 4.45464,-0.922615 0.38746,-0.568882 0.8374,-0.993292 0.99716,-0.941252 0.15976,0.05204 0.44416,0.870981 0.63372,1.817269 0.18956,0.946289 0.53011,1.897799 0.75486,2.115485 0.22475,0.217685 1.81913,0.810572 3.54134,1.314025 1.72222,0.503453 4.33908,1.311305 5.81526,1.798631 3.1666,1.0453723 3.10448,1.0413789 3.89548,0.382091 1.08265,-0.902358 6.39305,-9.455304 6.39306,-10.297853 0,-0.998233 -0.91873,-2.934938 -1.33267,-2.814435 -0.17318,0.05042 -1.44822,1.789116 -2.84239,3.867518 -2.94556,4.391172 -3.46806,4.995158 -4.26825,4.995158 -0.32456,0 -3.10314,-0.804206 -6.17871,-1.78931 -4.58092,-1.467267 -5.61809,-1.899872 -5.75003,-2.404386 -0.11371,-0.434836 0.45793,-1.54345 1.95706,-3.765007 l 2.12481,-3.140612 -0.72691,-1.369941 c -0.40099,-0.749339 -0.88998,-1.403341 -1.08104,-1.463133 -0.19106,-0.05979 -1.58779,1.700209 -3.10334,3.914115 -1.92466,2.811546 -3.0176,4.128403 -3.62521,4.380083 -0.77358,0.320426 -1.42024,0.193794 -5.84322,-1.202192 -2.73555,-0.863397 -5.39,-1.747916 -5.89913,-1.957058 -1.55921,-0.640507 -1.44398,-1.287999 0.81078,-4.482597 1.12818,-1.598424 2.05957,-3.148278 2.05957,-3.448148 0,-0.814122 -0.97105,-2.677223 -1.33267,-2.562816 -0.17318,0.05479 -1.60917,1.896972 -3.19652,4.100504 -1.82576,2.534504 -3.17001,4.109718 -3.65318,4.28689 -0.60996,0.223663 -1.88208,-0.06772 -6.31851,-1.472454 -6.9529,-2.201548 -6.88151,-2.116001 -4.40803,-5.498402 2.77562,-3.795578 2.71041,-3.628402 2.06889,-5.051074 -0.30341,-0.672823 -0.70022,-1.230153 -0.88534,-1.230153 -0.18511,0 -1.58952,1.681724 -3.12197,3.737049 -2.91041,3.903447 -3.36294,4.314849 -4.66899,4.314849 -0.4371,0 -6.73126,-1.878776 -13.99762,-4.175058 -7.26639,-2.29628 -13.29361,-4.175057 -13.39187,-4.175057 z m 207.8768645,0.251621 c -0.310921,0.0493 -0.798982,0.951157 -2.255278,3.858201 -1.750348,3.494031 -2.248907,4.266028 -2.88899,4.426679 -0.79557903,0.19968 -12.5219335,-3.010536 -12.8327115,-3.513385 -0.376256,-0.608801 -0.689265,-0.124757 -0.876014,1.369942 -0.389314,3.115953 -0.469535,3.050661 6.4489705,5.153586 6.02919697,1.832615 7.293189,2.020658 8.256923,1.220832 0.236115,-0.195958 1.422674,-2.346153 2.63737,-4.771495 2.322928,-4.638118 2.711037,-6.288117 1.78931,-7.548653 -0.094861,-0.129728 -0.175941,-0.21214 -0.27958,-0.195707 z m -53.6420365,3.401555 c -0.170315,0.05677 -1.325645,1.844464 -2.562813,3.970033 -1.237172,2.125561 -2.394216,3.96136 -2.572134,4.081863 -0.635221,0.430234 -1.763182,0.201824 -7.138603,-1.416537 -2.996382,-0.90211 -5.680667,-1.640203 -5.964368,-1.640203 -0.443254,0 -0.504982,0.267215 -0.428689,1.863867 l 0.09319,1.854545 1.705437,0.820103 c 0.938765,0.449344 2.616242,1.037088 3.72773,1.304705 1.111485,0.267612 3.095879,0.79181 4.40804,1.174233 1.312162,0.382427 2.844518,0.673085 3.410873,0.643033 1.005136,-0.05333 1.097483,-0.165333 3.699772,-4.771494 l 2.665326,-4.715578 -0.372772,-1.640202 c -0.201211,-0.899104 -0.500676,-1.58514 -0.670992,-1.528368 z m -50.436185,1.202194 c -0.177826,0.05927 -1.469516,1.836809 -2.870353,3.951391 -1.89139,2.855096 -2.75777,3.914595 -3.3736,4.109823 -0.65586,0.207927 -1.97361,-0.08792 -6.28122,-1.407217 -2.99557,-0.917461 -5.69364,-1.668161 -5.99233,-1.668161 -0.48707,0 -0.51779,0.176781 -0.32617,1.714758 0.1175,0.943115 0.32606,1.937173 0.46596,2.199361 0.15522,0.290885 1.79206,0.909824 4.1937,1.593603 2.16467,0.616316 4.67005,1.376154 5.57296,1.686799 2.90679,1.000083 4.06711,0.719542 5.1629,-1.230153 0.94379,-1.679254 1.339194,-1.514263 1.565649,0.652355 0.294297,2.815695 0.474772,2.975853 4.948561,4.249612 2.151744,0.612636 4.615186,1.354759 5.470444,1.658838 2.176957,0.774002 3.584713,0.750507 4.482595,-0.07455 0.668308,-0.614107 5.871173,-8.862634 5.871173,-9.310008 0,-0.46204 -1.296324,-3.140613 -1.51905,-3.140613 -0.13523,0 -1.359484,1.815364 -2.721242,4.02595 -1.802121,2.925444 -2.702812,4.115054 -3.317679,4.370762 -0.742377,0.308732 -1.537563,0.138513 -6.560804,-1.388577 -5.612756,-1.706307 -6.756512,-2.222218 -6.756512,-3.028782 0,-0.22211 0.738093,-1.546522 1.640203,-2.944908 0.902109,-1.398382 1.640199,-2.802968 1.640199,-3.121974 0,-0.91762 -0.938722,-3.017197 -1.295384,-2.898307 z m 131.542272,3.5693 c -0.157576,0.05252 -1.027241,1.699809 -1.9291,3.662494 -1.797152,3.911085 -2.359133,4.690085 -3.410875,4.687621 -0.38499,-9e-4 -3.306448,-0.765458 -6.48625,-1.696117 -3.179802,-0.930656 -5.944621,-1.626111 -6.150754,-1.547009 -0.469408,0.180128 -0.91879,3.712914 -0.521882,4.109823 0.157097,0.157099 2.894053,1.071057 6.0762,2.031614 6.307299,1.903902 7.350993,2.062534 8.247603,1.276746 0.327517,-0.287035 1.553911,-2.606067 2.721243,-5.162906 1.9589,-4.290651 2.106331,-4.764518 1.9291,-6.057561 -0.105616,-0.770537 -0.317714,-1.357232 -0.475285,-1.304705 z m -63.958528,0.344815 c -0.02171,4.84e-4 -0.04647,0.007 -0.06524,0.01864 -0.150168,0.09281 -1.303835,2.04745 -2.562815,4.342807 -1.84984,3.372593 -2.405579,4.166099 -2.926268,4.165736 -0.354376,-2.43e-4 -3.2599,-0.808191 -6.458293,-1.798627 -3.198392,-0.990438 -6.016555,-1.829424 -6.262585,-1.863867 -0.357935,-0.05011 -0.447328,0.32197 -0.447328,1.863867 0,2.108032 -0.169048,1.895128 2.534857,3.149929 1.438336,0.667492 4.496149,1.624179 5.218821,1.630883 0.32804,0.003 1.602924,0.324723 2.833075,0.717589 3.815129,1.218405 3.432342,1.459742 6.374418,-3.960713 2.646963,-4.876739 2.944016,-5.870033 2.273916,-7.632529 -0.143249,-0.376774 -0.360571,-0.637101 -0.512563,-0.633713 z m 81.954143,4.650342 c -0.23219,0 -1.170729,1.987403 -3.252444,6.868344 -1.009771,2.367577 -0.807776,2.352049 -7.436821,0.428688 -3.243699,-0.941131 -6.211504,-1.904649 -6.598081,-2.143444 -0.944145,-0.583205 -1.196267,-0.244116 -1.40722,1.873184 -0.126602,1.270652 -0.05843,1.925549 0.232984,2.311192 0.264245,0.34969 2.649661,1.207302 6.803107,2.432343 4.180056,1.232889 6.569632,1.802951 6.87766,1.640203 0.745101,-0.393666 1.041365,-0.884604 1.994338,-3.271084 0.491224,-1.230151 1.382127,-3.26562 1.975695,-4.529191 0.834261,-1.775959 1.08104,-2.672811 1.081043,-3.951394 0,-0.909695 -0.124098,-1.658841 -0.270261,-1.658841 z m -264.27741,0.372774 c -0.19629,-0.01358 -0.2704,0.118583 -0.27026,0.41937 3.2e-4,0.798144 1.00728,3.334668 1.50972,3.802284 0.23512,0.218826 6.53471,2.373828 13.99763,4.790132 7.46292,2.416304 15.36751,4.980087 17.56693,5.694109 4.39666,1.4273546 4.49409,1.42171 5.80594,-0.298219 0.44386,-0.581922 0.92308,-1.062404 1.0624,-1.062404 0.13932,0 0.42233,0.704543 0.6244,1.565647 0.20205,0.8611055 0.47459,1.7961094 0.61507,2.0688913 0.16019,0.3110452 2.48389,1.2318779 6.22532,2.4789405 6.79898,2.266191 7.19883,2.2872585 8.6856,0.41005 0.51844,-0.6545847 1.0406,-1.084199 1.16492,-0.9505722 0.12432,0.133632 0.38228,0.9729417 0.56848,1.8638655 0.18619,0.8909213 0.47797,1.7935339 0.65235,2.0036559 0.17438,0.2101191 3.07204,1.2647269 6.43965,2.34846815 6.81562,2.19336745 7.11715,2.20863605 8.5831,0.3354973 0.39593,-0.505903 0.81025,-0.8299469 0.92261,-0.7175887 0.11236,0.1123581 0.35451,0.9803303 0.54052,1.92910055 l 0.34482,1.724075 6.37442,2.1434448 c 7.27489,2.4466406 7.51553,2.4536366 9.0677,0.1491093 0.4619,-0.685783 0.94898,-1.2487897 1.09036,-1.2487897 0.14138,0 0.34801,0.704541 0.45665,1.5656466 0.41329,3.2758634 0.1939,3.1092314 7.02677,5.3399737 3.35104,1.094026 6.24046,1.997983 6.42101,2.012974 0.18055,0.01499 0.73903,-0.114441 1.23948,-0.288899 0.95951,-0.334491 1.45105,-1.029772 5.25609,-7.334309 l 2.012977,-3.3176797 -0.773505,-1.52836975 c -0.423595,-0.8359277 -0.889432,-1.5190505 -1.034442,-1.5190505 -0.14501,0 -1.43207,1.8844074 -2.86103,4.18437775 -2.68073,4.3147129 -3.34988,5.0603939 -4.55715,5.0603939 -0.3883,0 -3.25727,-0.817912 -6.3651,-1.817269 -7.40644,-2.3816166 -7.26155,-2.1869547 -4.61307,-6.29986395 1.08298,-1.68178705 1.97569,-3.35896675 1.9757,-3.73704905 0,-0.9224973 -1.14652,-3.1227917 -1.50973,-2.8983109 -0.15897,0.098253 -1.50159,2.0372509 -2.98219,4.30553 -1.99578,3.05754895 -2.92752,4.2238187 -3.59726,4.5012332 -0.82286,0.3408429 -1.43033,0.2001848 -6.87766,-1.53768855 -3.28917,-1.0493537 -6.04893,-2.08013375 -6.13211,-2.29255535 -0.0832,-0.2124162 0.87426,-1.9246255 2.1248,-3.8022839 1.25054,-1.8776557 2.27391,-3.6170509 2.27392,-3.8675187 0,-0.5889187 -1.41821,-2.8330765 -1.78931,-2.8330765 -0.15634,0 -1.57438,1.878267 -3.14993,4.175058 -1.57556,2.2967958 -3.11468,4.3097693 -3.4202,4.4732758 -0.94421,0.5053314 -1.67557,0.3606695 -7.35294,-1.5097301 -7.09067,-2.3360065 -6.95484,-2.1264591 -4.02595,-6.3744177 1.1764,-1.706218 2.14344,-3.25653 2.14344,-3.438831 0,-0.680156 -1.24085,-2.721546 -1.58428,-2.609409 -0.19622,0.06406 -1.64627,1.917199 -3.21517,4.119139 -3.74996,5.2630466 -3.16262,5.1154498 -10.82906,2.64669 -5.41522,-1.743823 -5.84207,-1.927177 -5.66614,-2.497579 0.10465,-0.33935 1.18594,-2.017316 2.39505,-3.718411 1.20914,-1.701095 2.1875,-3.177275 2.18073,-3.280402 -0.0384,-0.585579 -1.38895,-2.870353 -1.69612,-2.870353 -0.2006,0 -1.77705,1.915358 -3.50406,4.249614 -2.09173,2.827212 -3.37349,4.298038 -3.84889,4.417358 -0.48243,0.121083 -6.25922,-1.604516 -17.82786,-5.339972 -9.41252,-3.039253 -17.341,-5.613912 -17.62284,-5.722067 -0.0928,-0.0356 -0.17687,-0.06071 -0.2423,-0.06523 z m 200.244328,0.316856 c -0.218625,-0.02421 -0.66286,0.825813 -2.646687,4.519873 -1.645167,3.063442 -2.236375,3.911999 -2.777159,3.988671 -0.377407,0.05351 -3.447921,-0.73306 -6.821746,-1.742714 -3.373825,-1.009654 -6.239558,-1.72033 -6.374418,-1.584286 -0.309903,0.312628 -0.449925,3.155769 -0.177067,3.597263 0.112255,0.181633 0.701233,0.492263 1.314024,0.689629 0.612791,0.19736 1.260101,0.477202 1.435177,0.615076 0.453837,0.357395 4.031453,1.449226 4.762175,1.453812 0.337228,0.0021 1.679211,0.327681 2.982184,0.726909 4.000358,1.225704 3.579184,1.501315 6.542165,-4.184377 2.393712,-4.593314 2.565009,-5.043136 2.376429,-6.188031 -0.11185,-0.679056 -0.305837,-1.423434 -0.428691,-1.649521 -0.07041,-0.129583 -0.113509,-0.234232 -0.186386,-0.242304 z m -51.032623,1.248791 c -0.201103,0 -1.410344,1.746533 -2.683965,3.87684 -1.42566,2.384603 -2.616206,4.036961 -3.103336,4.305527 -0.738919,0.407387 -1.19524,0.320085 -6.803107,-1.416537 -3.302714,-1.022769 -6.137617,-1.774192 -6.309182,-1.668158 -0.401453,0.248109 -0.03703,3.730814 0.438008,4.184375 0.189211,0.180654 2.126422,0.82476 4.305527,1.435178 2.179113,0.610416 4.661782,1.354757 5.517042,1.658836 3.515836,1.25003 3.774767,1.087095 7.036089,-4.51055 l 2.786478,-4.780815 -0.41005,-1.547007 c -0.22625,-0.84629 -0.572403,-1.537689 -0.773504,-1.537689 z m 133.648439,3.578621 c -0.05974,0.0094 -0.138382,0.09295 -0.251621,0.242301 -0.224976,0.296732 -1.059618,2.15965 -1.854546,4.137782 -0.944993,2.351614 -1.685325,3.755667 -2.134125,4.053905 -0.639056,0.424655 -1.131894,0.324105 -7.101328,-1.407217 -3.526519,-1.022804 -6.581988,-1.786714 -6.793785,-1.705436 -0.747632,0.286891 -1.231946,4.350832 -0.521884,4.380082 0.105465,0.0043 3.080967,0.8651376 6.607401,1.9104621 5.703453,1.6906444 6.508093,1.8647972 7.287714,1.5470064 0.771193,-0.3143611 1.111253,-0.9482884 2.888991,-5.2654175 1.652994,-4.014233 2.021133,-5.209476 2.022294,-6.551486 8.6e-4,-0.998937 -0.01769,-1.362624 -0.149111,-1.341982 z m -64.8718205,0.447326 c -0.141793,0 -1.186623,1.85568 -2.320512,4.119143 -1.133891,2.263462 -2.26014903,4.276225 -2.49757803,4.473275 -0.345004,0.286329 -1.713086,-0.03237 -6.81242697,-1.593605 -3.509375,-1.074442 -6.5795115,-1.980068 -6.8217465,-2.012973 -0.320924,-0.04359 -0.494685,0.372713 -0.643034,1.547009 -0.111972,0.886361 -0.138295,1.788972 -0.05591,2.003653 0.08238,0.214679 0.85022,0.657382 1.696117,0.978531 0.845896,0.3211461 1.9402845,0.787227 2.4323435,1.0344425 0.49206,0.2472182 1.834042,0.6665938 2.982184,0.9412519 1.14814,0.2746633 2.959817,0.7400509 4.025947,1.0344454 3.798027,1.0487646 3.42955597,1.3179104 6.225311,-4.4453178 2.355991,-4.856692 2.439052,-5.105165 2.245956,-6.560804 -0.110386,-0.832115 -0.314853,-1.519051 -0.456647,-1.519051 z m -50.9580695,1.341984 c -0.227283,0 -1.403489,1.744577 -2.60941,3.876839 -2.338263,4.134423 -2.747669,4.6223841 -3.923436,4.6223841 -1.100677,0 -11.71805,-3.2819131 -12.329468,-3.8116021 -0.490428,-0.424874 -0.521882,-0.324584 -0.521882,1.649521 0,1.565046 0.133075,2.2581115 0.521882,2.7212416 0.356202,0.4242926 1.989335,1.0489949 5.144269,1.9663769 2.542312,0.739249 5.226276,1.5417825 5.964368,1.7799925 1.70372,0.5498508 1.631725,0.5399137 2.767839,0.055915 0.803973,-0.3424996 1.382689,-1.1879408 3.606578,-5.237459 l 2.656008,-4.836732 -0.428689,-1.388578 c -0.242297,-0.780214 -0.616604,-1.397899 -0.848059,-1.397899 z m -53.464967,0.447327 c -0.226003,0 -1.545057,1.810184 -2.926267,4.016628 -2.45978,3.9294305 -3.15773,4.6412 -4.53851,4.6317049 -0.36133,-0.00248 -3.1275,-0.7978289 -6.15076,-1.7706699 -3.02325,-0.972844 -5.62156,-1.693827 -5.76866,-1.602926 -0.24629,0.152219 -0.0738,2.529422 0.27026,3.7463696 0.10347,0.3659725 1.17847,0.8379098 3.63454,1.5936058 1.91664,0.5897204 4.71866,1.4754019 6.23463,1.9663769 3.41578,1.1062589 4.23929,0.9373008 5.75002,-1.1742355 l 1.01581,-1.4165367 0.2423,1.4910919 c 0.13657,0.8200999 0.37575,1.9773168 0.5312,2.5628137 l 0.2889,1.0624038 6.188031,1.95705905 c 3.405693,1.0773345 6.355609,1.97596105 6.551486,1.99433435 0.727337,0.068217 1.861536,-1.43377125 4.566468,-6.0296044 l 2.77716,-4.7155773 -0.521883,-1.6402022 c -0.290724,-0.922286 -0.656867,-1.582778 -0.848057,-1.519048 -0.186731,0.06224 -1.520342,2.050464 -2.954225,4.4173587 -1.78554,2.9473608 -2.829473,4.3820063 -3.327,4.5664693 -0.56325,0.2088278 -1.98935,-0.1261456 -6.346462,-1.4910919 -3.158245,-0.9893756 -5.942258,-2.0307146 -6.355778,-2.3857472 l -0.73623,-0.6337131 1.99434,-3.1965288 c 1.098536,-1.756224 1.997936,-3.348731 1.994335,-3.541345 -0.01391,-0.743782 -1.1753,-2.88899 -1.565648,-2.88899 z m 187.486182,3.382915 c -0.02855,0.0059 -0.06737,0.02865 -0.10252,0.06523 -0.14967,0.15582 -0.93029,2.019111 -1.73339,4.137782 -0.86931,2.2932892 -1.68699,4.0003779 -2.03161,4.221654 -0.49027,0.314795 -1.55874,0.080277 -6.961537,-1.5190506 -3.50851,-1.0385815 -6.475487,-2.0475638 -6.598081,-2.245957 -0.361681,-0.5851844 -0.797647,-0.08889 -1.155598,1.3326637 -0.398481,1.5824462 -0.417343,2.5568223 -0.06524,3.1126537 0.142072,0.2242373 3.063393,1.2507834 6.486251,2.2832333 3.422861,1.03245 6.573201,1.8959923 6.998811,1.9104624 1.13338,0.038531 1.62712,-0.7017398 2.91695,-4.3241655 0.63753,-1.7904853 1.43776,-3.8656557 1.77999,-4.603748 0.58779,-1.26763 0.89421,-4.458994 0.46597,-4.370763 z m -64.797268,0.382092 c -0.291028,0.07909 -0.841887,1.193622 -2.273916,4.2868891 -1.9966,4.3127678 -2.098352,4.4757424 -2.944908,4.4639582 -0.34896,-0.00486 -3.451876,-0.8649314 -6.896298,-1.9104623 -3.4637645,-1.0514057 -6.3858605,-1.7796037 -6.5328465,-1.6401998 -0.436738,0.4142073 -0.592266,3.2145377 -0.205025,3.6811319 0.191531,0.2307843 0.711267,0.5073505 1.155594,0.6150749 0.444329,0.1077271 1.347577,0.4491046 2.003657,0.754865 1.524398,0.7104385 5.0853095,1.7929148 5.9177705,1.7986309 0.351767,0.00242 1.448221,0.2667455 2.432344,0.5871164 3.073949,1.00069915 2.92316,1.11095625 5.544997,-4.4732759 2.285933,-4.8687924 2.588157,-5.9631924 2.09685,-7.7163994 -0.08529,-0.304369 -0.165934,-0.48328 -0.298219,-0.447329 z m -218.705921,1.025127 c -0.20743,0.0069 -1.78185,1.882348 -3.50407,4.1750582 -2.58879,3.4463621 -3.31213,4.2207095 -4.17505,4.4732758 -0.94589,0.2768414 -2.00179,-0.013779 -11.25775,-3.1126563 -11.39045,-3.8134937 -10.77025,-3.7675007 -9.60821,-0.6616716 l 0.61506,1.6308821 10.34446,3.448151 c 5.69212,1.8973445 10.57773,3.44814845 10.85701,3.44814845 0.89785,0 1.94788,-0.6413532 2.29255,-1.39789855 0.49505,-1.0864591 1.00442,-0.7059528 1.70544,1.27674925 l 0.6244,1.76135135 5.7873,1.9943356 c 3.18286,1.0953323 6.139,2.0011704 6.57012,2.0129744 0.59309,0.016238 1.11927,-0.3729759 2.16208,-1.5936048 0.75801,-0.8872653 1.37926,-1.736159 1.37926,-1.8918229 0,-0.155661 1.07359,-1.81101855 2.38575,-3.6718145 1.31216,-1.8607958 2.38575,-3.4803146 2.38575,-3.6065793 0,-0.5994007 -1.36543,-2.9355872 -1.71476,-2.9355872 -0.2176,0 -1.88147,2.0208118 -3.69977,4.4825962 -2.19843,2.97643355 -3.53715,4.5323409 -4.00731,4.6503431 -0.45943,0.115312 -2.67341,-0.48341815 -6.30918,-1.71475585 -7.22204,-2.44592475 -7.09433,-2.22038545 -3.70909,-6.75651185 1.33914,-1.7944655 2.43296,-3.4438136 2.43234,-3.6718116 -0.002,-0.646719 -1.13631,-2.353155 -1.55633,-2.339151 z m 167.030264,0.0466 c -0.160304,0.05343 -1.272987,1.908228 -2.469621,4.1191398 -1.589228,2.93627 -2.402317,4.1271085 -3.010143,4.4266791 -0.767334,0.3781855 -1.289245,0.2678835 -6.728552,-1.4165366 -3.244235,-1.0046635 -6.107083,-1.8265893 -6.365099,-1.8265893 -0.714609,0 -0.666477,3.6155476 0.05591,4.2402923 0.287035,0.248237 2.065162,0.870854 3.951395,1.3885808 1.886231,0.5177243 4.435998,1.26789995 5.666149,1.66815845 2.470146,0.8037191 3.342423,0.9065903 4.165738,0.4659671 0.302999,-0.1621623 1.714318,-2.47195955 3.140613,-5.13494755 l 2.600092,-4.8460496 -0.363454,-1.5936055 c -0.195676,-0.874376 -0.482726,-1.544527 -0.643033,-1.491089 z m 69.86698,4.4080377 c -0.139531,0 -1.121077,1.979426 -2.190043,4.3987234 -1.43127,3.2392651 -2.093586,4.41844915 -2.506899,4.47327585 C 36.82599,0.27568765 25.50492,-3.069108 23.996618,-3.7205543 c -0.657413,-0.2839388 -1.118321,0.8187292 -1.118321,2.6653275 v 1.30470505 l 1.714758,0.6243949 c 0.943114,0.34695315 2.11735,0.81888695 2.609411,1.04376415 0.492059,0.2248805 1.90114,0.6788168 3.131291,1.0064873 1.230152,0.3276703 3.176025,0.8603333 4.324168,1.1835542 2.474277,0.6965518 2.584014,0.7120353 3.010142,0.4286889 0.181225,-0.120504 1.288359,-2.4247006 2.4603,-5.11630975 1.765237,-4.05423105 2.134126,-5.16702905 2.134126,-6.48624945 0,-0.8758291 -0.121414,-1.5936058 -0.260939,-1.5936058 z m 67.816726,0.6803124 c -0.0332,0.00211 -0.0779,0.010535 -0.12114,0.037276 -0.13982,0.086416 -0.82733,1.8064004 -1.52838,3.820922 -1.2974,3.72829765 -1.73314,4.41275695 -2.82376,4.41736155 -0.3377,0.001426 -3.39955,-0.8178056 -6.812421,-1.81726885 -3.41287,-0.9994634 -6.3963,-1.7469929 -6.62604,-1.6588408 -0.50426,0.1935029 -1.4214,3.19547615 -1.17424,3.83956295 0.11359,0.2960505 2.46262,1.14597915 6.64468,2.40438615 3.557211,1.0703863 6.691551,1.9515292 6.970861,1.9663775 0.27934,0.014848 0.83494,-0.1232207 1.23947,-0.3075376 0.61492,-0.2801914 1.04237,-1.1967897 2.56281,-5.59159435 1.53697,-4.44252815 2.16594,-7.14239295 1.66816,-7.11064455 z M -9.5995495,-7.6067138 c -0.023233,-4.181e-4 -0.053033,0.00534 -0.074555,0.018641 -0.15348,0.094855 -1.2112215,2.044711 -2.3577895,4.3334859 -1.660391,3.31445805 -2.250717,4.22368125 -2.89831,4.4732751 -0.684154,0.2636877 -1.780121,0.020315 -6.924258,-1.53768785 -3.362412,-1.01837415 -6.282919,-2.05652165 -6.48625,-2.31119465 -0.519341,-0.6504803 -0.64399,-0.4107009 -0.857378,1.63088205 -0.176429,1.6879716 -0.136491,1.8455168 0.670992,2.69328615 0.685097,0.7192755 1.547515,1.0924218 4.286889,1.8452264 1.886232,0.5183543 4.435999,1.2565757 5.66615,1.6495205 4.386121,1.4010451 4.473069,1.3522921 7.446141,-4.58510675 1.3212215,-2.63855975 2.3950655,-5.15744675 2.3950655,-5.62887325 0,-1.0843525 -0.518223,-2.5751509 -0.866697,-2.5814546 z m -54.0893635,0.6150776 c -0.348699,-0.023145 -0.981149,1.0477088 -2.898309,4.3614417 -1.633622,2.82364995 -2.538314,4.0848895 -3.140612,4.3800842 -0.785015,0.3847465 -1.277399,0.281995 -6.737872,-1.41653835 -3.238143,-1.0072568 -6.097084,-1.83590705 -6.35578,-1.83590705 -0.371265,0 -0.463877,0.3298474 -0.447329,1.56564725 0.03549,2.65119445 -0.146885,2.52082525 6.411697,4.57578875 6.060274,1.8988284 7.210272,2.1361684 8.154409,1.6308814 0.294351,-0.15753 1.780113,-2.4475707 3.299042,-5.088351 2.928405,-5.0912733 2.984163,-5.3031762 2.106166,-7.5766101 -0.136896,-0.3544742 -0.23291,-0.5859176 -0.391412,-0.5964368 z m -164.607227,2.2832333 c -0.52079,0.01026 -0.0372,1.1971396 1.75202,4.49191415 1.08737,2.00234355 2.01431,3.68422085 2.06889,3.74636955 0.0546,0.062152 96.96326,32.8281712 215.3509655,72.8118862 C 109.26344,116.32549 206.35965,149.05374 206.63675,149.06978 c 0.51031,0.0295 4.71558,-5.6884 4.71558,-6.4117 0,-0.20679 -3.84317,-1.65208 -9.02111,-3.39223 C 197.36961,137.59839 98.620159,104.58425 -17.101606,65.894803 -132.82337,27.205354 -227.73512,-4.5351603 -228.01656,-4.643168 c -0.11437,-0.043884 -0.20519,-0.066701 -0.27958,-0.065235 z m 289.141368,1.8265868 c -0.02174,0.00114 -0.04298,0.00489 -0.06524,0.018641 -0.13534,0.083645 -1.017547,2.03884135 -1.966378,4.3428044 C 57.454761,4.7792007 56.951483,5.7026732 56.437186,5.8317538 56.062207,5.9258687 53.001144,5.1614901 49.251989,4.0331241 45.661507,2.9525151 42.56837,2.122752 42.374324,2.1972173 c -0.19405,0.074465 -0.504814,0.8436778 -0.689629,1.7054363 -0.273505,1.2753041 -0.262609,1.647851 0.07456,1.9850163 0.227835,0.2278358 2.963635,1.1853198 6.076199,2.1341258 3.112567,0.948805 5.911484,1.877392 6.22531,2.0595713 0.31383,0.182175 1.077525,0.330508 1.696118,0.335495 0.888213,0.0072 1.183023,-0.131773 1.407218,-0.6616723 1.768588,-4.180148 3.948298,-9.72323765 4.081865,-10.39104615 0.184563,-0.92282275 -0.07457,-2.26309735 -0.400732,-2.24595965 z M 8.5358565,-2.1362689 c -0.033583,0.00714 -0.067403,0.029991 -0.102511,0.065235 -0.068081,0.068344 -1.105648,2.13412545 -2.311193,4.5944274 -1.877425,3.8314982 -2.300844,4.4920072 -2.935586,4.5664692 -1.024713,0.120206 -12.575591,-3.4762899 -12.991141,-4.0445869 -0.4819725,-0.6591373 -0.7463335,-0.085732 -0.9319325,1.9663776 -0.237395,2.6247393 -0.02515,2.7729903 6.5048885,4.6783013 3.05268,0.8906983 5.870887,1.7537453 6.262587,1.9104623 1.731125,0.692621 2.137221,0.22735 4.892647,-5.6009153 2.115878,-4.4754972 2.291587,-4.998671 2.162083,-6.34646025 C 8.9693835,-1.5574831 8.7709305,-2.1862369 8.5358565,-2.1362689 Z m -169.4439665,0.046597 c -0.20169,0.00485 -1.43704,1.57368935 -2.74919,3.4854274 -3.03378,4.4200197 -3.86583,5.3748764 -4.86469,5.5915944 -0.55654,0.120749 -2.60924,-0.432422 -6.60741,-1.7706713 -3.19105,-1.068102 -5.90503,-1.8393008 -6.0296,-1.7147557 -0.25478,0.2547918 0.67772,3.492179 1.13695,3.951394 0.36452,0.364518 11.66615,4.1657381 12.38539,4.1657381 0.91436,0 1.92412,-0.617819 2.45098,-1.50973 0.78803,-1.3340271 1.22752,-1.0725871 1.80796,1.071722 0.2891,1.068024 0.67484,2.040962 0.85736,2.162083 0.18254,0.121121 2.95793,1.114478 6.16008,2.20868 3.20216,1.094202 6.02587,1.995937 6.27191,2.003655 0.24603,0.0077 0.66916,-0.158999 0.95057,-0.372773 0.69164,-0.525419 7.10132,-10.2402321 7.10132,-10.7638201 0,-0.836166 -1.19899,-3.1989831 -1.56564,-3.0846968 -0.205,0.063899 -1.78186,2.1861167 -3.50407,4.7062588 -1.74587,2.5547601 -3.41286,4.6751201 -3.76501,4.7994521 -0.43482,0.153524 -2.46201,-0.379816 -6.50488,-1.714755 -7.54218,-2.4903891 -7.34616,-2.1846171 -4.2403,-6.7378721 1.25806,-1.8443289 2.2844,-3.52549035 2.28324,-3.73705075 -0.004,-0.6768061 -1.1949,-2.74900995 -1.57497,-2.73988005 z m 290.4554,0.4380085 c -0.20938,-0.058553 -0.83883,1.49876105 -1.71476,4.3241663 -1.49127,4.810269 -0.64355,4.642652 -9.67345,1.9756969 -4.21926,-1.2461472 -7.79067,-2.1927342 -7.93075,-2.1061674 -0.5285,0.3266387 -1.29836,3.4350075 -0.97853,3.9420745 0.19152,0.303625 2.99369,1.292681 7.43682,2.62805 3.92372,1.1792631 7.40666,2.1627301 7.74437,2.1807221 0.33766,0.01799 0.84258,-0.13979 1.11832,-0.344815 0.50908,-0.378529 4.08646,-11.18334685 4.07253,-12.3015089 -0.002,-0.1906527 -0.0262,-0.2847063 -0.0745,-0.2982185 z m -175.426971,0.1491079 c -0.212649,0 -1.504308,2.02552235 -2.870353,4.4919155 -1.895772,3.4228079 -2.653664,4.5219189 -3.196528,4.6596629 -0.862162,0.218758 -11.411101,-2.9729903 -12.627685,-3.8209235 L -65.394348,3.250301 v 2.0316128 c 0,2.7808419 0.325997,3.1729159 3.513386,4.1284609 1.428042,0.428113 4.21047,1.2884743 6.178712,1.9197813 4.10543,1.31681 3.889351,1.281973 4.613065,0.894655 0.807644,-0.432238 5.973688,-9.9331991 5.973688,-10.9874842 0,-1.46366525 -0.357379,-2.7398825 -0.764184,-2.7398823 z m 127.59088,4.901966 c -0.01894,0.00113 -0.0443,0.015613 -0.06524,0.037277 -0.15063,0.1558192 -0.96581,2.0912566 -1.80795,4.3055283 -0.84217,2.214271 -1.705062,4.2091582 -1.919778,4.4266792 -0.323805,0.328005 -1.730327,-0.02184 -8.256922,-2.031613 -4.328178,-1.3328032 -8.062553,-2.4460822 -8.303518,-2.4789402 -0.416275,-0.05676 -0.838482,0.84796 -1.314025,2.8330752 -0.263208,1.098747 0.02152,1.22976 8.452629,3.792965 3.852204,1.171133 7.138941,2.264927 7.297032,2.423024 0.457347,0.45733 1.516993,0.326159 2.02229,-0.242302 0.255158,-0.287035 0.602762,-0.991576 0.764182,-1.565647 0.1614,-0.57407 0.97826,-2.743283 1.81727,-4.82741 1.15944,-2.8800502 1.52837,-4.170128 1.52837,-5.3586118 0,-0.8370262 -0.08176,-1.3219046 -0.21434,-1.3140247 z M 27.463405,3.7255864 c -0.09553,-0.00912 -0.202689,0.057703 -0.316857,0.2050253 -0.164896,0.2127877 -1.145255,2.219016 -2.171401,4.463957 -1.542934,3.3755463 -1.999803,4.1294393 -2.665328,4.3614443 -0.651724,0.227192 -1.994698,-0.07914 -7.054728,-1.640201 C 11.818603,10.05563 8.7778695,8.9803927 8.4985795,8.7300637 c -0.462116,-0.414201 -0.519475,-0.38947 -0.652351,0.251622 -0.898046,4.3328483 -0.822111,4.3965683 6.9801715,6.6353603 2.542312,0.729492 4.957881,1.465243 5.367931,1.630881 0.98077,0.396183 1.227202,0.39652 2.311194,0.01864 0.816595,-0.284665 1.155565,-0.849766 3.177889,-5.312016 1.73966,-3.8385543 2.258788,-5.2901683 2.255278,-6.3091834 -0.0041,-1.1881446 -0.188689,-1.8924331 -0.475287,-1.9197812 z m -55.030613,0.5032437 c -0.158914,0.052972 -1.320612,2.0438606 -2.581453,4.4173596 -1.669999,3.1437233 -2.515622,4.4115363 -3.094016,4.6876213 -0.711865,0.339796 -1.433507,0.184618 -6.989494,-1.565647 -3.408233,-1.073672 -6.374179,-1.8902893 -6.588763,-1.8079493 -0.261484,0.1003423 -0.382093,0.7468503 -0.382091,1.9477393 0,2.239468 0.02986,2.261349 5.36793,3.86752 2.214272,0.666253 4.831139,1.468045 5.815259,1.78931 2.130687,0.695553 2.201463,0.701162 3.308361,0.307538 0.729943,-0.259575 1.267201,-1.107223 3.485427,-5.442486 l 2.62805,-5.1349483 -0.344815,-1.5749657 c -0.18936,-0.8696345 -0.46548,-1.5440645 -0.624395,-1.4910919 z M -82.60714,4.8439055 c -0.171914,-0.057306 -1.355901,1.6781652 -2.628051,3.8582002 -1.272147,2.1800333 -2.530057,4.2140143 -2.795797,4.5198733 -1.085238,1.249082 -1.565252,1.193249 -8.005301,-0.876017 -3.923009,-1.260506 -6.218221,-1.861637 -6.402381,-1.677478 -0.44747,0.447476 0.0523,3.6301 0.6244,3.979352 0.26672,0.162842 3.034372,1.139244 6.150755,2.180721 3.116382,1.041478 5.950814,1.914562 6.309183,1.929101 1.582748,0.06421 2.066554,-0.476176 5.097671,-5.647511 l 3.000823,-5.1163093 -0.521885,-1.51905 C -82.062831,5.6360154 -82.435232,4.9012083 -82.60714,4.8439055 Z m 213.18888,3.3456372 c -0.0347,6e-6 -0.0539,0.0023 -0.0652,0.00932 -0.42451,0.262357 -1.47244,2.7052193 -1.47246,3.4295113 0,0.304762 0.14936,0.649141 0.3355,0.764185 0.18615,0.115044 3.37335,1.107004 7.08269,2.20868 8.13976,2.417517 8.15727,2.422554 9.17954,-0.605756 0.35706,-1.057718 0.65899,-2.235454 0.67099,-2.609411 l 0.028,-0.680311 -0.8667,0.643034 -0.86669,0.643033 -6.87766,-1.9943363 c -3.54852,-1.028255 -6.62769,-1.808029 -7.14792,-1.807949 z M -9.1894995,9.9322567 c -0.167767,-0.055746 -1.3084545,1.9265543 -2.5348555,4.4080413 -1.226402,2.48149 -2.510969,4.694194 -2.851714,4.920604 -0.552312,0.366993 -1.296546,0.201428 -6.859023,-1.547009 -3.533148,-1.110562 -6.408287,-2.178198 -6.62604,-2.460301 -0.336545,-0.436004 -0.414983,-0.436816 -0.661672,-0.0466 -0.391066,0.618592 -0.362583,3.09062 0.0466,3.988672 0.387349,0.850143 1.275847,1.249233 5.638191,2.534856 1.713253,0.504911 4.128461,1.254828 5.358612,1.65884 1.230151,0.404011 2.446496,0.738205 2.702603,0.745545 0.882029,0.02527 1.628717,-1.092495 4.119143,-6.169393 2.4394385,-4.972958 2.4916265,-5.127132 2.2366365,-6.514208 -0.14359,-0.781117 -0.400708,-1.4633003 -0.568478,-1.5190503 z M 103.47182,10.127963 c -0.29276,0 -0.58663,0.706265 -2.47894,6.020284 -0.50628,1.421711 -1.124181,2.6549 -1.369941,2.749201 -0.24573,0.0943 -3.60917,-0.773575 -7.48342,-1.938419 -7.82367,-2.352279 -7.34171,-2.358819 -8.11713,-0.0093 -0.21522,0.652186 -0.32081,1.374069 -0.23298,1.602924 0.09239,0.240796 2.77617,1.211225 6.37441,2.301873 3.41985,1.036572 6.56081,2.06685 6.97086,2.283234 1.03744,0.547455 1.90924,0.50252 2.43234,-0.111831 0.547021,-0.642422 3.724261,-9.885767 3.997991,-11.630518 0.12281,-0.782865 0.0921,-1.267428 -0.0932,-1.267428 z m -167.785127,0.447328 c -0.139516,0 -1.415752,2.015095 -2.833074,4.473275 -1.847431,3.204157 -2.810648,4.581476 -3.401554,4.864688 -0.753695,0.361238 -1.354893,0.222693 -6.998814,-1.593604 -3.459254,-1.113238 -6.329509,-2.202964 -6.532846,-2.478941 -0.329098,-0.446668 -0.382548,-0.449752 -0.54984,-0.01864 -0.239298,0.616666 0.330465,4.158092 0.736228,4.575789 0.171737,0.176786 3.028203,1.209727 6.346458,2.301873 6.382139,2.100568 7.117717,2.251575 8.219647,1.640202 0.821065,-0.455544 6.321182,-10.088804 6.299862,-11.034081 -0.01751,-0.776263 -0.93614,-2.730562 -1.286067,-2.730561 z m 118.86799,1.854545 c -0.286147,0.02993 -0.881543,1.303457 -2.003654,4.109823 -1.374963,3.438726 -2.370719,4.920602 -3.30836,4.920604 -1.00654,0 -21.184696,-6.376169 -21.527643,-6.803108 -0.550393,-0.685198 -0.881764,-0.15295 -1.118318,1.789311 -0.1888,1.550198 -0.144594,1.765867 0.531202,2.441663 0.479556,0.479558 1.823172,1.063137 3.830243,1.668159 9.846184,2.968081 15.981056,4.881639 16.374053,5.10699 0.753996,0.432353 2.283617,0.298617 2.926269,-0.251622 0.335241,-0.287035 1.485718,-2.691552 2.562814,-5.349292 1.551765,-3.828978 1.966373,-5.159298 1.966376,-6.402377 0,-0.8147 -0.06129,-1.248106 -0.232982,-1.230151 z m -200.691663,2.600092 c -0.25303,0.253027 0.23239,3.361303 0.60576,3.86752 0.2095,0.28405 14.07913,5.063537 33.76391,11.639836 18.370253,6.137142 33.550959,11.170284 33.735956,11.183191 0.184995,0.0129 0.787177,-0.168917 1.341985,-0.400731 0.871216,-0.364018 1.405562,-1.134429 3.914115,-5.647512 1.597488,-2.874002 2.907629,-5.487361 2.907629,-5.805939 0,-0.908138 -0.868256,-2.739882 -1.295384,-2.739881 -0.21223,0 -1.558878,2.082176 -2.991505,4.622385 -2.589861,4.592118 -3.11592,5.218822 -4.398721,5.218822 -0.679402,0 -3.483212,-0.903307 -44.518415,-14.49155 -12.60953,-4.175475 -22.98447,-7.526997 -23.06533,-7.446141 z M 9.6075795,16.036415 c -0.16402,0.04737 -1.18458,1.973597 -2.264597,4.286889 -1.080014,2.313292 -2.211713,4.390407 -2.516217,4.613066 -0.902579,0.659982 -1.782288,0.496211 -8.17305,-1.519049 -3.351238,-1.056782 -6.190358,-1.862744 -6.309182,-1.789311 -0.320146,0.197865 -0.6540825,2.991026 -0.4380055,3.671814 0.1411555,0.44474 1.0419265,0.852818 3.6811315,1.686797 1.920604,0.606905 4.90383,1.556769 6.62603897,2.106168 3.64924103,1.164138 3.25363903,1.103773 4.36144503,0.717589 0.769936,-0.2684 1.183299,-0.96701 3.373595,-5.684789 C 10.374669,18.900274 10.439562,18.714022 10.176057,17.35044 10.026998,16.579065 9.7715995,15.989045 9.6075795,16.036415 Z m -55.7295635,0.438009 c -0.186381,0.05944 -1.409083,2.061641 -2.721243,4.445317 -2.673809,4.857253 -3.00036,5.312015 -3.709091,5.312016 -0.990574,0 -12.48398,-3.877695 -12.869988,-4.342805 -0.35782,-0.431151 -0.408035,-0.422663 -0.605756,0.111831 -0.2873,0.776642 0.137851,3.862442 0.596437,4.324167 0.19748,0.198834 3.203379,1.321366 6.681955,2.497578 3.478581,1.176211 6.462019,2.143479 6.626041,2.152765 0.16402,0.0093 0.578565,-0.210536 0.922613,-0.493924 0.856784,-0.705719 6.085519,-10.562221 6.085519,-11.472089 0,-1.096881 -0.620447,-2.657982 -1.006487,-2.534856 z m 168.782294,0.01864 c -0.2131,0.0026 -0.73588,1.333836 -1.70544,4.296209 -0.70993,2.169118 -1.4522,4.00257 -1.65883,4.081864 -0.31126,0.119443 -3.0746,-0.667112 -14.73386,-4.203015 -0.3558,-0.107896 -0.6452,0.324248 -1.15559,1.724075 -0.61836,1.695873 -0.6416,1.889449 -0.20503,2.208679 0.26398,0.193013 3.46906,1.265942 7.11996,2.376429 3.65092,1.110484 6.84597,2.125923 7.092,2.264595 0.67947,0.382973 1.05262,0.321345 1.5377,-0.251621 0.55877,-0.659994 3.83025,-10.829948 3.83025,-11.910098 0,-0.386062 -0.0378,-0.588141 -0.12116,-0.587117 z m -46.829608,2.581454 c -0.153583,-0.08201 -2.502053,5.621415 -5.218824,12.674281 -4.352056,11.298112 -5.027511,12.841833 -5.619552,12.925904 -1.00134,0.142196 -15.893716,-4.632608 -16.364733,-5.24678 -0.344076,-0.448655 -0.426314,-0.462203 -0.680313,-0.07455 -0.160277,0.244616 -0.386166,1.150499 -0.493923,2.012973 -0.325607,2.606071 -0.322225,2.603644 8.117132,5.265419 4.079531,1.286687 7.619478,2.451933 7.86551,2.590772 1.624584,0.916795 1.970691,0.256263 7.474098,-14.193332 4.840654,-12.709407 5.712196,-15.531969 4.920605,-15.954683 z M 28.535128,21.75848 c -0.122484,0 -1.039296,1.845226 -2.040931,4.100503 -2.411334,5.429324 -2.497436,5.581888 -3.20585,5.684788 -0.904441,0.131375 -13.030843,-3.778999 -13.4664245,-4.342805 -0.633876,-0.82048 -1.050527,0.02253 -1.08104,2.171403 -0.03483,2.453077 0.01784,2.50244 4.5944255,3.904797 1.886233,0.57798 4.570199,1.433056 5.964368,1.901142 2.984041,1.00188 4.203053,1.093388 4.836729,0.372773 0.252408,-0.287035 1.48174,-2.886798 2.730562,-5.777981 2.073213,-4.79974 2.250755,-5.376541 2.078211,-6.63536 -0.103929,-0.758264 -0.287569,-1.37926 -0.41005,-1.37926 z m -55.776159,0.596438 c -0.140264,0 -1.350345,2.087803 -2.683966,4.631703 -2.358541,4.498945 -2.92085,5.209504 -4.091184,5.209504 -1.052994,0 -12.73867,-3.917866 -12.98182,-4.352126 -0.450372,-0.804354 -0.805878,-0.09307 -0.801462,1.612244 0.0077,2.962001 -0.08236,2.896348 7.306351,5.312016 3.606376,1.179069 6.611591,2.155748 6.681956,2.171402 0.07036,0.01565 0.5918,-0.131625 1.155596,-0.335495 0.938482,-0.339361 1.246363,-0.820922 3.671815,-5.66615 1.457095,-2.910787 2.656007,-5.614345 2.656007,-6.001646 0,-0.922499 -0.588298,-2.581454 -0.913293,-2.581452 z m 169.313501,2.506898 c -0.0979,0.02444 -0.37448,0.766929 -0.64304,1.724075 -0.28647,1.020954 -0.58902,2.032294 -0.67099,2.245958 -0.082,0.213667 -0.0762,0.382091 0.0186,0.382091 0.23275,0 1.49291,-4.1639 1.31402,-4.342805 -0.005,-0.0049 -0.0121,-0.01095 -0.0186,-0.0093 z m -44.145651,0.82942 c -0.04355,0.005 -0.1,0.04004 -0.16774,0.111832 -0.14703,0.155818 -0.90765,2.073318 -1.6868,4.258931 -0.77916,2.185616 -1.60223,4.165041 -1.83591,4.398722 -0.68999,0.689966 -1.59267,0.517695 -8.18237,-1.51905 -3.44934,-1.066131 -6.47038,-1.93842 -6.70991,-1.93842 -0.60864,0 -1.348322,1.932849 -1.239471,3.233805 l 0.09319,1.090362 6.85903,2.152763 c 3.77246,1.183928 7.01585,2.154861 7.21315,2.162084 0.64004,0.02341 1.84426,-0.652258 2.04093,-1.146276 2.28085,-5.729298 4.26918,-12.879537 3.615901,-12.804753 z m 26.681231,1.295385 c -0.0339,-0.0013 -0.0553,0.0032 -0.0652,0.0093 -0.32534,0.201082 -1.76134,2.945218 -1.76134,3.364276 0,0.384615 0.86034,0.691666 7.75367,2.75852 3.36241,1.008163 6.31479,1.948042 6.5608,2.087528 0.5537,0.313917 1.5225,0.338389 1.97571,0.0466 0.36749,-0.236628 1.30471,-3.111188 1.3047,-4.00731 0,-0.429584 -0.15632,-0.513646 -0.71759,-0.372774 -0.45851,0.115081 -3.25574,-0.580454 -7.77232,-1.938419 -3.63671,-1.093421 -6.77046,-1.928269 -7.27839,-1.94774 z M 48.059115,28.11426 c -0.169659,-0.05563 -1.024124,1.683053 -1.901145,3.8582 -0.877017,2.175146 -1.779916,4.264661 -2.012973,4.641025 -0.86815,1.401987 -1.375514,1.349864 -8.433988,-0.876017 -3.642461,-1.148647 -6.796734,-2.028861 -7.008135,-1.947738 -0.528338,0.202744 -0.906968,3.382735 -0.465963,3.914116 0.186119,0.224262 1.902899,0.903664 3.820922,1.50973 1.918017,0.606066 4.903829,1.556768 6.626039,2.106168 3.557725,1.134945 3.579844,1.134092 4.575789,0.68031 1.058661,-0.482356 5.331637,-10.819128 5.200184,-12.581088 -0.04926,-0.660173 -0.23107,-1.249074 -0.40073,-1.304706 z m -56.5310255,0.205026 c -0.145527,0 -1.378032,2.226188 -2.7305625,4.939241 -1.926362,3.864118 -2.607672,4.97026 -3.149933,5.10699 -0.857836,0.216304 -12.862988,-3.632956 -13.37323,-4.286889 -0.592906,-0.759884 -0.987849,-0.138462 -0.987849,1.547008 0,3.005057 -0.254219,2.824117 7.362267,5.339973 3.739673,1.235277 6.894263,2.249471 7.008133,2.255277 1.042143,0.05311 6.5038845,-10.502802 6.4955695,-12.55313 -0.00521,-1.284159 -0.285613,-2.348472 -0.624395,-2.34847 z M 117.52536,32.289318 c -0.0282,0.0062 -0.058,0.02483 -0.0932,0.0466 -0.15096,0.09329 -0.90277,2.046295 -1.66817,4.342806 -0.82999,2.490443 -1.58663,4.279693 -1.88249,4.435998 -0.63152,0.33363 -14.054871,-3.736861 -14.566111,-4.417359 -0.46391,-0.617527 -0.7853,-0.255186 -1.3979,1.593604 -0.40495,1.222045 -0.43106,1.620325 -0.12115,2.320512 0.2053,0.463727 0.65037,0.929141 0.97853,1.043765 0.32816,0.114623 3.414601,1.111582 6.859031,2.208679 3.44442,1.097092 6.47831,2.005784 6.74718,2.022294 0.94527,0.05804 1.70327,-1.006928 2.32051,-3.261765 0.33881,-1.237722 1.15279,-3.787489 1.80796,-5.666149 1.08342,-3.106746 1.43958,-4.761718 1.0158,-4.668981 z m -170.329301,0.922613 c -0.02251,0.0054 -0.05269,0.01444 -0.07455,0.02796 -0.148557,0.09181 -1.379483,2.242713 -2.739882,4.771495 -2.422609,4.503265 -3.026506,5.218821 -4.361443,5.218821 -0.28371,0 -3.28493,-0.927444 -6.672637,-2.059571 -3.387706,-1.132122 -6.234493,-1.975834 -6.327821,-1.882502 -0.325204,0.3252 -0.165016,3.23622 0.205024,3.737049 0.207138,0.280349 3.089202,1.425116 6.486251,2.572133 3.362412,1.13532 6.398143,2.074825 6.75651,2.087529 1.654773,0.05868 2.052223,-0.406672 5.013797,-5.945729 2.614915,-4.890696 2.87747,-5.523098 2.693284,-6.504889 -0.240958,-1.284424 -0.640906,-2.103434 -0.978529,-2.022294 z m 199.899521,0.260941 c -0.75203,-0.0182 -2.21611,3.006799 -1.76136,3.72773 0.20659,0.327476 2.96174,1.321629 7.74437,2.795798 4.08392,1.258804 7.62072,2.265242 7.86551,2.236638 1.00648,-0.117623 2.04931,-4.370764 1.07172,-4.370764 -0.38222,0 -8.58108,-2.411752 -14.84569,-4.370763 -0.0227,-0.0071 -0.0503,-0.01805 -0.0745,-0.01864 z m -136.099422,1.09968 c -0.375523,0.04126 -1.0721095,1.474168 -2.5721345,4.780815 -1.917149,4.226156 -2.705699,5.36793 -3.699769,5.36793 -0.269946,0 -3.34356,-0.910499 -6.831068,-2.031612 -4.180839,-1.343997 -6.488715,-2.232911 -6.765829,-2.609412 -0.412614,-0.560605 -0.421178,-0.566912 -0.661672,0.01864 -0.436947,1.063879 -0.293968,3.964963 0.223663,4.482595 0.260384,0.260384 3.279847,1.393136 6.709916,2.516218 3.43006797,1.123079 6.602072,2.052325 7.045409,2.068891 1.791709,0.06695 2.124655,-0.362295 4.696939,-6.038923 2.2096235,-4.876285 2.4400875,-5.549069 2.3205125,-6.831065 -0.1048,-1.123595 -0.209032,-1.752307 -0.465967,-1.724076 z m -44.537054,4.855369 c -0.173199,0.05774 -1.406409,2.246926 -2.739881,4.864687 -1.880622,3.691879 -2.617493,4.847916 -3.261764,5.153588 -0.762539,0.361783 -1.361202,0.21479 -7.306351,-1.761353 -3.561666,-1.183885 -6.578748,-2.331493 -6.709913,-2.553495 -0.580095,-0.981834 -0.869051,-0.343321 -0.754866,1.677478 0.08296,1.468239 0.276364,2.241511 0.643033,2.609412 0.286597,0.287562 3.369171,1.489113 6.849704,2.665326 3.480531,1.176209 6.496745,2.149148 6.709914,2.162083 0.21317,0.01293 0.781834,-0.186903 1.267429,-0.438008 0.707568,-0.365899 1.420772,-1.513909 3.569301,-5.80594 1.474502,-2.945557 2.675562,-5.591734 2.674646,-5.880494 -0.0032,-1.003048 -0.628173,-2.797642 -0.941252,-2.693284 z m 201.427886,0.521882 c -0.33552,0 -0.91195,0.628221 -1.52836,1.658839 -0.79717,1.332741 -0.91427,1.738272 -0.6244,2.08753 0.19783,0.238407 0.50949,0.428689 0.69895,0.428689 0.18949,0 3.6279,1.00414 7.64185,2.227319 4.01396,1.223181 7.50765,2.196118 7.75367,2.162082 0.54339,-0.07517 1.45107,-1.87426 1.6868,-3.326999 0.15589,-0.960594 0.11035,-1.062402 -0.51256,-1.062402 -0.37883,0 -3.81384,-0.939389 -7.63253,-2.08753 -3.81871,-1.14814 -7.18724,-2.087528 -7.48342,-2.087528 z m -30.30644,0.09319 c -0.13619,-0.136196 -1.67747,4.523983 -1.67748,5.069713 0,0.114552 0.063,0.205026 0.13979,0.205026 0.22262,0 1.70988,-5.102554 1.53769,-5.274739 z M 30.128732,40.937651 c -0.199045,0.04385 -0.656295,0.806345 -1.053084,1.770672 -2.219896,5.395105 -3.615129,8.267213 -4.081863,8.41535 -0.657533,0.208694 -13.494281,-3.921095 -13.932392,-4.482595 -0.182103,-0.233392 -0.475458,-0.428689 -0.652352,-0.428689 -0.4649795,0 -0.7857125,2.592863 -0.4752845,3.848882 l 0.2702605,1.071722 6.859023,2.292554 c 3.772462,1.261613 7.06032,2.297544 7.306349,2.301875 0.974855,0.01714 1.610158,-1.013686 3.904798,-6.355782 2.031032,-4.728395 2.369538,-5.765915 2.292554,-6.942897 -0.04977,-0.760913 -0.226249,-1.43378 -0.40073,-1.491092 -0.01091,-0.0036 -0.02401,-0.0029 -0.03728,0 z m 89.521438,2.590773 c -0.52391,0 -0.79917,0.288115 -1.16491,1.202192 -0.26384,0.659401 -0.47529,1.588789 -0.47529,2.068891 0,0.861765 0.0542,0.890564 4.2496,2.208679 2.33729,0.734339 5.52452,1.744271 7.08269,2.236638 3.35565,1.06034 3.36252,1.053869 4.44533,0.493924 0.70525,-0.364702 0.93808,-0.781963 1.36994,-2.544175 0.51767,-2.112501 0.44886,-2.806635 -0.21435,-2.143445 -0.62956,0.629582 -1.91787,0.385872 -8.31284,-1.584285 -3.46058,-1.066131 -6.60223,-1.938419 -6.98017,-1.938419 z m -134.039852,2.087528 c -0.151624,0 -1.40751,2.328815 -2.786479,5.172227 -1.436112,2.961239 -2.729897,5.253238 -3.02878,5.36793 -0.806219,0.309376 -13.309151,-3.888977 -13.932391,-4.678301 -0.464842,-0.588713 -0.520967,-0.599932 -0.708269,-0.111832 -0.333113,0.868078 0.01344,4.076659 0.493924,4.557149 0.242583,0.242583 3.388429,1.430786 6.989494,2.646691 3.601065,1.215904 6.700127,2.223912 6.886982,2.236636 0.186851,0.01273 0.619414,-0.216212 0.95989,-0.503244 0.855693,-0.721383 6.023576,-11.663301 5.871174,-12.431979 -0.375767,-1.895282 -0.495334,-2.255277 -0.745545,-2.255277 z m 202.751232,0.382093 c -0.38769,0.0091 -0.72883,0.392425 -1.38858,1.481772 -0.53306,0.880186 -0.9692,1.74159 -0.9692,1.919781 0,0.427556 1.31955,1.286926 1.99433,1.295386 0.29282,0.0037 3.55999,0.933294 7.25043,2.068891 3.69046,1.135605 7.08247,2.078655 7.53934,2.087529 0.71248,0.01383 0.91395,-0.192315 1.43518,-1.407219 0.33424,-0.779095 0.68858,-1.794788 0.78282,-2.264596 0.1498,-0.746933 0.0938,-0.833874 -0.41937,-0.670991 -0.3488,0.110701 -3.60557,-0.73592 -8.02394,-2.087529 -4.08903,-1.250853 -7.6959,-2.339595 -8.02394,-2.413705 -0.058,-0.0131 -0.12169,-0.01062 -0.17707,-0.0093 z m -46.21453,3.802284 c -0.33703,0.04307 -0.75406,0.551416 -1.14627,1.463134 -1.27644,2.967158 -1.10214,3.101359 7.4275,5.79662 3.85447,1.217969 7.22181,2.228077 7.48341,2.245959 0.74174,0.0507 1.45748,-0.957378 1.91046,-2.674648 0.43949,-1.66602 0.34443,-2.208643 -0.3355,-1.947738 -0.22914,0.08793 -3.45606,-0.776905 -7.17587,-1.919781 -3.71983,-1.142877 -6.92986,-2.07821 -7.12929,-2.07821 -0.19941,0 -0.43678,-0.201297 -0.53119,-0.447328 -0.12403,-0.323196 -0.30103,-0.463848 -0.50325,-0.438008 z M 63.193698,51.72011 c -0.02375,0.01039 -0.04689,0.02825 -0.07456,0.05592 -0.173305,0.173306 -1.110373,2.365101 -2.078208,4.864687 -1.848034,4.772824 -2.175599,5.377247 -2.89831,5.37725 -0.244342,0 -6.461534,-1.945879 -13.81124,-4.324165 -7.349702,-2.378291 -13.554265,-4.324168 -13.792601,-4.324168 -0.476635,0 -0.801463,1.22482 -0.801463,2.991504 v 1.127638 l 8.872,2.87967 c 4.879597,1.584759 11.019166,3.602634 13.643491,4.482597 2.624322,0.879962 5.052263,1.608616 5.395889,1.621561 0.343624,0.01295 0.833337,-0.21621 1.09036,-0.503243 0.257028,-0.287034 1.418887,-3.030397 2.581455,-6.104158 1.529267,-4.04331 2.115481,-5.982632 2.115484,-6.998813 0,-0.863232 -0.07608,-1.218997 -0.242301,-1.146277 z M 5.4138845,52.269951 c -0.174203,-0.05775 -1.30009,2.084135 -2.497582,4.752855 -1.197489,2.66872 -2.38783003,5.013793 -2.64668603,5.218824 -0.258854,0.205024 -0.810693,0.372767 -1.220832,0.37277 -1.19131797,0 -13.54870247,-4.187422 -13.94170947,-4.724897 -0.520687,-0.712077 -0.674833,-0.377017 -0.754866,1.64952 -0.113013,2.861677 -0.0898,2.878683 7.2317955,5.349293 6.593156,2.224805 7.51051097,2.422164 8.69492997,1.882504 0.679653,-0.309669 0.94213703,-0.82113 4.85537003,-9.720056 0.75342,-1.713322 0.902442,-2.385001 0.764183,-3.401553 -0.094855,-0.697423 -0.310405,-1.321513 -0.484603,-1.37926 z m 204.6057755,0.40073 c -0.30795,-0.0132 -0.38876,0.07871 -0.54052,0.205026 -0.22724,0.189145 -0.85826,0.933893 -1.40721,1.649521 -1.103,1.43786 -1.0009,2.19518 0.32617,2.376427 0.53885,0.07359 13.2626,3.772173 15.03208,4.370764 0.16402,0.05548 0.47117,0.05038 0.6896,-0.01864 0.21846,-0.06901 0.46055,-0.130474 0.53124,-0.130471 0.19832,0 1.61222,-3.301857 1.61222,-3.765009 0,-0.238018 -0.31584,-0.410052 -0.74555,-0.41005 -0.4073,0 -3.59451,-0.859548 -7.08267,-1.910459 -5.97171,-1.799147 -7.73785,-2.338078 -8.41536,-2.367109 z m -46.72709,4.370763 c -0.0386,-0.0017 -0.0686,0.0035 -0.0839,0.0093 -0.58401,0.224108 -1.65884,2.364789 -1.65885,3.299041 0,0.683279 0.27777,0.826396 3.80229,1.9291 2.09126,0.654289 5.27848,1.654703 7.08269,2.227319 1.80421,0.572612 3.69742,1.057308 4.21233,1.071723 1.24841,0.03496 2.02907,-0.710625 2.60941,-2.48826 0.70574,-2.161843 0.67001,-2.294183 -0.63372,-2.087528 -0.87765,0.139118 -2.60832,-0.290266 -8.04257,-1.975698 -3.57037,-1.107353 -6.70874,-1.959969 -7.28771,-1.985017 z M 25.086978,58.616412 c -0.193839,0.01908 -0.451492,0.488947 -0.931932,1.602923 -3.033878,7.034495 -3.874074,8.790606 -4.333485,9.077021 -0.698276,0.435335 -13.5332765,-3.745885 -14.3331235,-4.668979 -0.692817,-0.799586 -0.984091,-0.443569 -1.192873,1.444495 -0.128966,1.166238 -0.039207,1.730257 0.382093,2.423023 0.498401,0.819556 1.174326,1.111221 7.3622665,3.149933 3.746936,1.234488 6.961065,2.256762 7.147921,2.273916 0.861589,0.07909 1.746233,-1.422793 3.970033,-6.719236 2.371764,-5.648859 2.80029,-7.366051 2.106166,-8.461946 -0.05464,-0.08627 -0.112453,-0.127512 -0.177066,-0.12115 z m 159.351142,4.063226 c -0.34882,0.06277 -0.87926,0.737119 -1.70544,2.115485 -0.6619,1.104293 -0.66846,1.165936 -0.16774,2.087528 0.49172,0.905125 0.86128,1.059684 7.86551,3.233806 4.0418,1.254578 7.52182,2.294615 7.73503,2.311195 1.03969,0.08085 2.06819,-0.882748 2.69329,-2.51622 0.84613,-2.211091 0.83707,-2.338812 -0.27958,-2.115487 -0.68788,0.137577 -2.71094,-0.360757 -7.7164,-1.901142 -3.73102,-1.148178 -7.01487,-2.087532 -7.29703,-2.08753 -0.28218,0 -0.58521,-0.268398 -0.671,-0.596436 -0.10167,-0.388837 -0.24736,-0.568865 -0.45664,-0.531199 z m -78.01207,3.513383 c -0.16134,0 -0.98013,2.147236 -1.82659,4.771494 -1.00562,3.117595 -1.72433,4.875983 -2.06889,5.060395 -0.75405,0.403543 -14.874051,-4.100091 -15.106631,-4.818091 -0.29171,-0.900563 -0.94049,-0.24757 -1.41653,1.425857 -0.42491,1.493678 -0.42825,1.709628 0.01864,2.488259 0.4396,0.765971 1.21887,1.084199 7.80959,3.224488 7.247361,2.353522 7.816461,2.45343 8.583101,1.50973 0.33078,-0.407207 3.75597,-11.012759 4.1005,-12.692921 0.11717,-0.571265 0.0797,-0.969214 -0.0932,-0.969211 z m 30.69785,0.931934 c -0.28242,0.04191 -0.61384,0.537035 -1.11831,1.565645 -0.72322,1.474594 -0.75551,1.672652 -0.37277,2.544178 0.39742,0.905002 0.68359,1.036033 6.53284,2.898308 3.36241,1.07052 6.65027,2.126067 7.30634,2.348471 1.6454,0.557761 2.06223,0.534979 2.65602,-0.121152 0.44923,-0.496398 1.36994,-2.949142 1.36994,-3.653176 0,-0.13795 -0.34003,-0.251624 -0.74555,-0.251622 -1.18569,0 -14.88883,-4.466779 -15.15322,-4.93924 -0.15705,-0.280638 -0.30583,-0.416557 -0.47529,-0.391412 z m -80.574882,1.975698 c -0.202528,0.01507 -0.487998,0.460635 -0.820101,1.341981 -1.947433,5.168225 -3.389179,8.736464 -3.671814,9.077022 -0.178318,0.214861 -0.610949,0.391409 -0.95989,0.391412 -1.258933,0 -25.079711,-8.087025 -25.609503,-8.69493 -0.722963,-0.829559 -1.02427,-0.501654 -1.258111,1.369942 -0.384693,3.078997 -1.034803,2.71316 13.298678,7.520694 6.947953,2.330384 12.917773,4.245991 13.2614,4.258931 0.343625,0.01295 0.838839,-0.215018 1.09968,-0.503243 0.790438,-0.873424 4.985835,-12.236014 4.985838,-13.503701 0,-0.856627 -0.123648,-1.273184 -0.326177,-1.258108 z m 102.316872,5.805939 c -0.88479,0.100403 -2.1391,2.090239 -2.0223,3.205847 0.0716,0.683745 0.59616,0.898567 7.68845,3.177889 4.18251,1.344177 7.62085,2.453803 7.64184,2.469622 0.021,0.01582 0.51163,-0.173665 1.09969,-0.41937 0.9403,-0.392888 1.13988,-0.671469 1.64952,-2.311192 0.61907,-1.991792 0.48224,-2.559034 -0.50324,-2.031614 -0.50089,0.268073 -1.91807,-0.08326 -7.7164,-1.91978 -3.9039,-1.236485 -7.43163,-2.217469 -7.83756,-2.171402 z m -78.953321,2.059571 c -0.01928,0.0019 -0.04337,0.002 -0.06524,0.0093 -0.20786,0.06929 -1.17043,2.341594 -2.134122,5.041757 -1.684279,4.719038 -2.221627,5.65087 -3.233807,5.647508 -0.255692,-8.46e-4 -3.677408,-1.05789 -7.613888,-2.348467 -8.139371,-2.668493 -7.964483,-2.672511 -8.023939,0.13047 l -0.02796,1.714754 7.30635,2.469623 c 4.018495,1.356947 7.440548,2.476186 7.604571,2.488258 0.164019,0.01208 0.681219,-0.215136 1.155594,-0.503243 0.746799,-0.453569 1.137007,-1.30489 2.916949,-6.337142 2.055,-5.809859 2.71308,-8.370451 2.11549,-8.312835 z M 180.2351,80.591379 c -0.0804,0.009 -0.17691,0.07957 -0.31685,0.195706 -0.2469,0.20491 -0.80857,0.970166 -1.23948,1.705436 -0.75732,1.292278 -0.76366,1.376917 -0.29822,2.357789 0.35632,0.750878 0.77332,1.094925 1.5936,1.323344 0.60972,0.169779 3.99428,1.235954 7.52071,2.37643 3.52643,1.140475 6.58058,2.08075 6.79379,2.087528 1.08685,0.03455 2.12171,-0.92309 2.72124,-2.525537 0.81768,-2.185401 0.79904,-2.294552 -0.35414,-2.078211 -0.7341,0.137714 -2.72331,-0.375579 -8.10782,-2.078208 -3.92493,-1.24109 -7.29731,-2.255281 -7.49272,-2.255279 -0.19543,0 -0.42903,-0.288019 -0.52189,-0.643033 -0.0877,-0.335335 -0.16424,-0.480921 -0.29822,-0.465965 z m -79.60567,3.532025 c -0.0373,0.0017 -0.081,0.02618 -0.13979,0.08387 -0.12302,0.120761 -0.970551,2.447984 -1.882511,5.172227 -0.95913,2.865274 -1.87245,5.092045 -2.16208,5.274737 -0.68235,0.430412 -14.41895,-4.064504 -15.20914,-4.976519 -0.45836,-0.529026 -0.59341,-0.557522 -0.92261,-0.195708 -0.21162,0.23258 -0.54523,0.998718 -0.74555,1.705439 -0.31823,1.122757 -0.29636,1.407391 0.17707,2.217998 0.50005,0.856219 1.10597,1.111747 7.84687,3.382913 4.017,1.35343 7.44679,2.47532 7.62321,2.48826 0.82845,0.06075 1.67347,-1.75498 3.51339,-7.520693 1.614991,-5.06088 2.261271,-7.649016 1.901141,-7.632527 z m 31.24769,1.211512 c -0.0333,-0.0018 -0.0688,0.0028 -0.1025,0.0093 -0.57304,0.110361 -2.06523,3.479133 -1.66817,3.765009 0.15364,0.110614 0.4242,0.464101 0.60576,0.792144 0.24469,0.442089 2.25116,1.230329 7.75367,3.038098 4.08297,1.341401 7.56793,2.448536 7.74437,2.460302 0.83873,0.05594 2.218,-2.437403 2.218,-4.01663 0,-0.501451 -0.1405,-0.645124 -0.54053,-0.540519 -0.29532,0.07723 -3.66584,-0.874765 -7.49274,-2.115487 -3.82688,-1.240727 -7.15983,-2.255281 -7.39953,-2.255278 -0.23969,0 -0.50857,-0.269773 -0.59645,-0.605754 -0.0803,-0.306917 -0.2889,-0.518738 -0.52188,-0.531202 z m 70.65912,3.354957 c -0.0432,-0.0011 -0.0727,0.0028 -0.0932,0.0093 -0.7897,0.25065 -2.12479,2.264723 -2.12481,3.205848 0,0.709998 0.19397,0.846909 2.16208,1.435177 1.18915,0.355432 4.57767,1.420758 7.53003,2.376427 2.95235,0.955671 5.65895,1.756351 6.02028,1.770671 1.23048,0.04876 2.06797,-0.60994 2.87035,-2.245956 1.08769,-2.217758 1.0569,-2.476602 -0.31686,-2.292554 -0.85099,0.114013 -2.85132,-0.402637 -8.35011,-2.143446 -3.90758,-1.237062 -7.05018,-2.098355 -7.69777,-2.115485 z m -48.58164,4.706259 c -1.05847,0.153785 -2.48735,3.449482 -1.70544,3.932752 0.13414,0.0829 3.52266,1.22845 7.53003,2.54418 4.00739,1.315726 7.61869,2.389826 8.03325,2.395066 1.21799,0.0153 1.98446,-0.75959 2.62805,-2.665326 0.6407,-1.89717 0.52421,-2.25162 -0.59643,-1.83591 -0.53167,0.19722 -2.41713,-0.298 -7.99598,-2.096848 -4.01693,-1.295213 -7.56831,-2.321161 -7.89348,-2.273914 z m -51.71293,3.811602 c -0.56199,0 -1.2702,1.7719 -1.17423,2.926266 l 0.0932,1.09968 7.60457,2.57213 7.60457,2.57214 1.0624,-0.54052 c 0.91791,-0.46171 1.13201,-0.77942 1.56565,-2.33915 0.72389,-2.6037 0.67945,-2.89583 -0.2889,-2.13413 -0.43215,0.33995 -0.9268,0.61507 -1.09969,0.61507 -0.17287,0 -3.62127,-1.07358 -7.6698,-2.385736 -4.04852,-1.31216 -7.51695,-2.38575 -7.69776,-2.38575 z m 73.67859,2.36711 c -0.32756,-0.0096 -0.94467,0.568076 -1.54701,1.547006 -0.88529,1.43878 -1.00034,2.34846 -0.30754,2.34847 0.16918,0 0.30754,0.25904 0.30754,0.56848 0,0.47107 1.24944,0.96915 7.67913,3.09401 4.2235,1.39577 7.84801,2.55514 8.0612,2.57214 0.21317,0.017 0.79235,-0.17338 1.28607,-0.42869 0.83347,-0.43101 1.54719,-1.621 2.19936,-3.68114 0.21574,-0.68145 0.1733,-0.71323 -0.78282,-0.51256 -0.8023,0.16839 -2.56766,-0.28327 -8.8254,-2.26459 -4.72455,-1.4959 -7.82648,-2.62666 -7.82823,-2.851716 -0.002,-0.2668 -0.0934,-0.38703 -0.2423,-0.39141 z m -49.59746,4.883326 c -0.37873,0.002 -0.79594,0.55654 -1.31402,1.70543 -0.52699,1.16861 -0.5191,1.23601 0.0373,2.29256 l 0.56848,1.08104 18.48955,6.18803 c 10.16829,3.40382 18.69085,6.18708 18.93686,6.18803 1.0631,0.004 2.1993,-1.04076 2.71193,-2.49758 0.77379,-2.19879 0.74744,-2.3071 -0.54983,-2.09684 -0.9331,0.15122 -4.17752,-0.82764 -19.55195,-5.89914 -12.4785,-4.11621 -18.55185,-6.2524 -18.82504,-6.62604 -0.16214,-0.22172 -0.33108,-0.33651 -0.50325,-0.33549 z m 45.02167,14.55678 c -0.10566,0.005 -0.27558,0.16483 -0.61508,0.48461 -0.37537,0.35354 -0.93972,1.11075 -1.24878,1.68679 -0.52941,0.9867 -0.52684,1.10543 -0.0653,2.07821 0.48183,1.01538 0.62024,1.0788 8.46195,3.71841 4.38608,1.47643 7.99779,2.69898 8.03325,2.71193 0.0354,0.013 0.53833,-0.20316 1.10901,-0.47529 0.7473,-0.35637 1.1998,-0.87777 1.62157,-1.86386 1.01712,-2.37809 0.9862,-2.57999 -0.30755,-2.25528 -0.5801,0.1456 -2.93891,-0.51686 -8.70424,-2.42302 -6.49038,-2.14587 -7.93111,-2.71756 -8.06122,-3.21517 -0.0789,-0.30155 -0.118,-0.45193 -0.22366,-0.44733 z m 23.40082,8.90928 c -1.18999,0 -2.47893,1.52134 -2.47895,2.91694 v 0.9133 l 7.97735,2.68396 c 4.38754,1.4769 8.17864,2.69959 8.42467,2.71193 0.98511,0.0494 2.40202,-1.19486 3.18721,-2.7958 0.44112,-0.89942 0.71875,-1.72291 0.61507,-1.82659 -0.10365,-0.10367 -0.5638,-0.0611 -1.02512,0.0932 -0.69929,0.23397 -2.08382,-0.13585 -8.2942,-2.20868 -4.0969,-1.36742 -7.87768,-2.48826 -8.40603,-2.48826 z"
       id="path1953" />
    <g
       id="g2271"
       transform="translate(4.776236,-2.046958)">
      <path
         id="rect2263"
         d="m -84.948761,-124.29761 h 48.444679 c 10.584138,0 19.104943,8.52081 19.104943,19.10494 v 4.77624 c 0,10.584137 -8.520805,19.104941 -19.104943,19.104941 h -48.444679 c -10.584138,0 -19.104939,-8.520804 -19.104939,-19.104941 v -4.77624 c 0,-10.58413 8.520801,-19.10494 19.104939,-19.10494 z"
         style="color:#000000;display:inline;overflow:visible;visibility:visible;fill:#ffffff;fill-opacity:0.585526;fill-rule:nonzero;stroke:none;stroke-width:10;stroke-linecap:butt;stroke-linejoin:miter;stroke-miterlimit:4;stroke-dashoffset:0;stroke-opacity:0.118421;marker:none;marker-start:none;marker-mid:none;marker-end:none" />
      <path
         id="text1321"
         d="m -81.47276,-110.25072 -1.6875,0.80859 c -1.062514,-0.77342 -1.671888,-1.33201 -1.828125,-1.67578 -0.156263,-0.35154 -0.507825,-0.59764 -1.054687,-0.73828 l -5.085938,0.375 -0.375,6.44531 2.53125,0.36328 c 0.56249,-0.16405 1.019521,-0.16405 1.371094,0 0.359364,0.15626 0.683582,0.0547 0.972656,-0.30469 0.179676,-0.21873 0.359363,-0.60545 0.539063,-1.16015 0.187487,-0.56249 0.2578,-0.81249 0.210937,-0.75 l 1.03125,-0.11719 0.84375,5.56641 -1.21875,0.57421 c -0.500012,-0.14842 -0.816418,-0.28905 -0.949219,-0.42187 -0.132824,-0.1328 -0.285168,-0.31249 -0.457031,-0.53906 -0.257824,-0.35156 -0.562511,-0.59374 -0.914062,-0.72657 -0.351573,-0.1328 -0.757823,-0.1992 -1.21875,-0.19921 l -2.648438,0.38671 -0.46875,6.152354 c 0.187494,0.92188 0.515618,1.36719 0.984375,1.33594 0.468742,-0.03906 1.078117,0.09375 1.828125,0.39843 l -1.59375,2.21485 -6.410155,-0.46875 -0.80859,-1.16016 c 1.68749,-0.03906 2.46874,-0.92968 2.34375,-2.67187 l 0.937495,-9.011724 c 0.187496,-3.74999 0.124996,-5.71873 -0.1875,-5.90625 -0.312503,-0.18748 -0.687505,-0.29686 -1.124995,-0.32813 -0.43751,-0.0312 -0.82422,-0.15623 -1.16016,-0.375 v -1.125 l 14.472655,-0.70312 1.125,3.76172 m -3.28125,-1.69922 2.0625,0.28125 -0.164062,0.28125 -1.898438,-0.5625 m -9,10.875 1.875,1.312504 -0.28125,-0.562504 -1.59375,-0.75 m 23.765625,-1.72266 c -0.750011,-0.53124 -1.109385,-1.17186 -1.078125,-1.92187 0.03124,-0.7578 -0.265635,-1.06249 -0.890625,-0.91407 -0.335947,0.68752 -0.640634,1.08986 -0.914062,1.20703 -0.265634,0.10939 -0.527352,0.27345 -0.785157,0.49219 -0.22657,0.19533 -0.546882,0.41798 -0.960937,0.66797 -0.414069,0.2422 -0.71485,0.85548 -0.902344,1.83984 l -1.21875,1.582044 1.03125,-1.019544 0.46875,5.566414 c 0.187494,0.53125 0.382806,0.8711 0.585938,1.01953 0.21093,0.14063 0.414055,0.27735 0.609375,0.41016 0.117179,0.08594 0.195304,0.09766 0.234375,0.03515 0.04687,-0.07031 0.289054,-0.21874 0.726562,-0.44531 l 0.05859,1.81641 -7.277344,0.57422 0.152344,-1.60547 c 0.203123,-0.02344 0.398435,-0.04687 0.585937,-0.07031 0.195311,-0.03125 0.367185,-0.08203 0.515625,-0.15235 0.249998,-0.10937 0.417966,-0.26953 0.503907,-0.48047 0.09375,-0.21874 0.140621,-0.49999 0.140625,-0.84375 l -0.304688,-2.87109 c -0.125003,-2.578124 -0.281253,-4.414054 -0.46875,-5.507814 -0.187502,-1.10155 -0.750002,-1.46093 -1.6875,-1.07813 l -0.375,-2.15625 4.125,-0.67969 0.28125,1.92188 0.84375,0.45703 c 0.874994,-0.90624 1.484368,-1.37889 1.828125,-1.41797 0.343742,-0.0391 0.734367,-0.17186 1.171875,-0.39844 0.749991,-0.67967 1.81249,-1.09373 3.1875,-1.24218 1.0078,0.72658 1.601549,1.21095 1.78125,1.45312 0.187486,0.2422 0.312486,0.72267 0.375,1.44141 0.06249,0.71876 -0.04689,1.32423 -0.328125,1.8164 -0.281263,0.4922 -0.953138,0.66017 -2.015625,0.50391 m -8.625,-0.15234 2.0625,0.28125 -0.164062,0.28125 -1.898438,-0.5625 m 1.03125,7.031254 2.0625,0.28125 -0.164062,0.28125 -1.898438,-0.5625 m 23.589844,0.32812 c -0.273451,0.57032 -0.605482,1.10938 -0.996094,1.61719 -0.382824,0.50781 -0.820324,0.94141 -1.3125,1.30078 -0.523448,0.38281 -1.054697,0.67188 -1.59375,0.86719 -0.531259,0.19531 -1.144539,0.29297 -1.839844,0.29297 -1.156256,0 -2.156255,-0.21094 -3,-0.63282 -0.835941,-0.42187 -1.527346,-0.98828 -2.074218,-1.69921 -0.546877,-0.71094 -1.148439,-1.74609 -1.804688,-3.10547 l 1.03125,-1.40625 -1.03125,1.03125 c 0.117187,-0.88281 0.175781,-1.60937 0.175781,-2.17969 0,-1.023434 0.144531,-1.999994 0.433594,-2.929694 0.296874,-0.93749 0.714842,-1.77342 1.253906,-2.50781 0.531247,-0.71092 1.199215,-1.28514 2.003907,-1.72266 0.812494,-0.43748 1.718743,-0.65623 2.71875,-0.65625 1.093741,2e-5 1.992178,0.17189 2.695312,0.51563 0.703114,0.33595 1.285145,0.80079 1.746094,1.39453 0.4453,0.57814 0.769519,1.25392 0.972656,2.02734 0.203112,0.77345 0.304675,1.58595 0.304688,2.4375 v 0.972664 l -8.554688,1.125 c 0.0625,1.39063 0.29687,2.53907 0.703125,3.44531 0.406245,0.90625 1.671868,1.48047 3.796875,1.72266 0.93749,-0.47656 1.49999,-0.93359 1.6875,-1.3711 0.187489,-0.4453 0.531239,-1.02733 1.03125,-1.74609 l 1.652344,1.20703 m -2.308594,-6.140624 c -0.187511,-0.99999 -0.84376,-2.12499 -1.96875,-3.375 -1.125008,-0.62499 -2.218757,-0.59374 -3.28125,0.0937 -0.750005,0.75001 -1.234379,1.34376 -1.453125,1.78125 -0.218754,0.43751 -1.078128,0.56251 -2.578125,0.375 l 1.875,0.75 -0.375,1.03125 7.78125,-0.65625 m 14.953126,6.281254 c -0.812512,0.875 -1.500012,1.54687 -2.062501,2.01562 -0.562509,0.46875 -1.625008,0.92188 -3.1875,1.35938 -1.164068,-0.47656 -2.253911,-0.96875 -3.269531,-1.47657 -1.007815,-0.51562 -1.386721,-1.52343 -1.136719,-3.02343 l 1.03125,-7.125004 -3.375,-0.46875 0.5625,-1.875 3.1875,0.375 0.375,-1.82813 1.21875,0.0469 -1.21875,-0.375 0.375,-1.5 3.375,0.28125 -0.785156,4.35937 3.878907,0.42188 -0.09375,0.9375 -1.031251,-0.1875 1.031251,0.28125 -0.1875,0.75 -4.406251,-0.65625 v 1.5 l -1.96875,-1.125 1.6875,1.21875 -0.46875,2.812504 c -0.187505,1.9375 -0.14063,3.17188 0.140625,3.70312 0.281244,0.53125 1.203118,0.73438 2.765625,0.60938 1.49999,-1.6875 2.296865,-2.79687 2.390626,-3.32813 0.09374,-0.53124 0.796863,-0.48437 2.109375,0.14063 l -0.9375,2.15625 m -7.875001,-10.968754 1.40625,0.65625 0.5625,0.75 -1.96875,-1.40625 m 15.175782,-2.15625 c 0.757806,10e-6 1.496086,0.14064 2.214844,0.42187 0.726553,0.28127 1.289053,0.58205 1.6875,0.90235 l 0.351562,-1.01954 1.476563,-0.0469 0.65625,4.06641 -1.40625,0.71484 c -0.250011,-0.3203 -0.453136,-0.67968 -0.609375,-1.07813 -0.15626,-0.39842 -0.453135,-0.6367 -0.890625,-0.71484 -0.750009,-0.3203 -1.296883,-0.55858 -1.640625,-0.71484 -0.343758,-0.15624 -0.890632,-0.31639 -1.640625,-0.48047 -0.875006,1e-5 -1.531255,0.14064 -1.96875,0.42187 -0.437504,0.27345 -0.875004,0.76955 -1.3125,1.48828 0.249997,0.87502 0.515621,1.29298 0.796875,1.25391 0.281246,-0.0391 0.687495,-0.0898 1.21875,-0.15234 0.304682,0.20313 0.636713,0.37501 0.996093,0.51562 0.367182,0.13283 0.8164,0.30079 1.347657,0.50391 0.531242,0.19532 0.984366,0.39454 1.359375,0.59765 0.382803,0.20314 0.777334,0.52345 1.183593,0.96094 0.351553,0.39064 0.742177,0.79298 1.171875,1.207034 0.429677,0.40626 0.73827,1.16407 0.925782,2.27344 -0.187512,1.51563 -0.671887,2.63282 -1.453125,3.35156 -0.78126,0.71094 -1.953134,1.34375 -3.515625,1.89844 -1.000006,0.16406 -1.718755,0.16797 -2.15625,0.01172 -0.437505,-0.16406 -1.062504,-0.60547 -1.875,-1.32422 l -1.40625,1.3125 -0.9375,-2.97656 1.5,-1.07813 c 0.562497,0.39844 1.046872,0.79688 1.453125,1.19532 0.406246,0.39844 1.07812,0.69922 2.015625,0.90234 0.812493,-0.20312 1.406243,-0.36328 1.78125,-0.48047 0.374992,-0.125 1.093741,-0.5039 2.15625,-1.13672 -10e-6,-1.43749 -0.421884,-2.37499 -1.265625,-2.8125 -0.843758,-0.43749 -1.984381,-1.05468 -3.421875,-1.851564 -1.562503,-0.0781 -2.660159,-0.29296 -3.292969,-0.64453 -0.625001,-0.35155 -0.937501,-1.14062 -0.9375,-2.36719 -10e-7,-1.62499 0.499999,-2.8828 1.5,-3.77344 1.007809,-0.89842 2.320308,-1.34764 3.9375,-1.34765 m 0.386719,7.6875 2.0625,0.28125 -0.164063,0.28125 -1.898437,-0.5625"
         style="font-style:normal;font-variant:normal;font-weight:normal;font-stretch:normal;font-size:24px;line-height:125%;font-family:'Seriffic Grunge';text-align:start;writing-mode:lr-tb;text-anchor:start;fill:#000000;fill-opacity:1;stroke:none;stroke-width:1;stroke-linecap:butt;stroke-linejoin:miter;stroke-opacity:1" />
    </g>
    <g
       id="g2267"
       transform="translate(-1.364639,2.046958)">
      <path
         id="rect2261"
         d="m 103.71255,-82.334961 h 48.44468 c 10.58413,0 19.10494,8.520804 19.10494,19.104942 v 4.776234 c 0,10.584138 -8.52081,19.104942 -19.10494,19.104942 h -48.44468 c -10.584141,0 -19.104945,-8.520804 -19.104945,-19.104942 v -4.776234 c 0,-10.584138 8.520804,-19.104942 19.104945,-19.104942 z"
         style="color:#000000;display:inline;overflow:visible;visibility:visible;fill:#ffffff;fill-opacity:0.585526;fill-rule:nonzero;stroke:none;stroke-width:10;stroke-linecap:butt;stroke-linejoin:miter;stroke-miterlimit:4;stroke-dashoffset:0;stroke-opacity:0.118421;marker:none;marker-start:none;marker-mid:none;marker-end:none" />
      <path
         id="text1333"
         d="m 116.78546,-65.179166 c -1e-5,1.1172 -0.19533,2.08204 -0.58593,2.89453 -0.38283,0.81251 -0.91408,1.46876 -1.59375,1.96875 -0.70314,0.53126 -1.50783,0.91407 -2.41406,1.14844 -0.89845,0.23438 -1.91016,0.351569 -3.03516,0.351559 l -2.29688,0.59766 0.375,5.1914 c 0.37499,0.21876 0.61328,0.45313 0.71485,0.70313 0.10936,0.24219 0.31249,0.44141 0.60937,0.59766 0.15624,0.07031 0.41015,0.14843 0.76172,0.23437 0.35156,0.08594 0.64844,0.14063 0.89063,0.16406 v 1.11328 h -9.01172 v -1.11328 c 0.22656,-0.02343 0.52734,-0.0625 0.90234,-0.11718 0.375,-0.05469 0.63672,-0.11719 0.78516,-0.1875 0.30468,-0.14844 0.5039,-0.33203 0.59765,-0.55079 0.10156,-0.21874 0.28906,-0.46484 0.5625,-0.73828 l -0.28125,-10.687499 0.9375,-0.11718 -0.9375,-0.22266 c -0.0859,-2.46873 -0.24219,-4.41795 -0.46875,-5.84765 -0.625,-0.0703 -1.20313,0.04298 -1.73437,0.33984 -0.53125,0.28908 -0.79688,0.06252 -0.79688,-0.67969 l 0.375,-2.36718 5.25,-0.10547 2.15625,0.77343 -1.3125,-0.8789 c 3.875,0.56252 6.23436,1.04689 7.07813,1.45312 0.84373,0.40627 1.48436,1.1719 1.92187,2.29688 l -4.49999,-0.5625 4.76952,1.24219 c 0.18749,0.38283 0.28124,0.78517 0.28125,1.20702 -1e-5,0.42189 -1e-5,1.05471 0,1.89844 m -2.89453,0.5625 c -0.18751,-2.0703 -0.76564,-3.36326 -1.73436,-3.8789 -0.96876,-0.52342 -2.07814,-0.92967 -3.32814,-1.21875 h -3 l 0.5625,9.09374 1.5,-0.33984 c 1.49999,-0.21874 2.59375,-0.49218 3.28126,-0.82031 0.68749,-0.33593 1.59373,-1.28124 2.71874,-2.83594 m -9.5625,4.93359 2.0625,0.28125 -0.16406,0.28125 -1.89844,-0.5625 m 20.57813,9.374999 -7.3125,-0.59765 0.11718,-1.00781 c 0.20313,-0.01563 0.40235,-0.03516 0.59766,-0.0586 0.19531,-0.03125 0.36328,-0.07422 0.50391,-0.1289 0.24999,-0.10157 0.42577,-0.2461 0.52734,-0.4336 0.10156,-0.1875 0.33203,-0.51171 0.69141,-0.97265 l -0.1875,-2.80079 2.625,1.6875 -0.0937,-0.46875 -2.53125,-1.96875 c -1e-5,-2.812489 -0.0469,-4.359359 -0.14063,-4.640619 -0.0937,-0.28124 -0.60938,-0.20311 -1.54687,0.23437 l -0.1875,-0.75 1.5,-0.84375 -1.59375,0.28125 -0.1875,-0.75 c 1.99999,-0.68748 3.49999,-1.03123 4.5,-1.03125 l 1.21875,0.375 -0.375,4.875 -2.4375,-0.9375 2.625,1.499999 c 0.0781,3.82813 0.17577,5.84376 0.29297,6.04688 0.11718,0.20313 0.28514,0.35547 0.5039,0.45703 0.15624,0.07813 0.32812,0.14844 0.51563,0.21094 0.18749,0.05469 0.3828,0.09375 0.58593,0.11719 l -0.21093,1.60546 m -3.1875,-17.906239 c 0.18749,0.93751 0.10937,1.54689 -0.23438,1.82812 -0.34375,0.28126 -1.01563,0.39064 -2.01562,0.32812 -0.68751,-0.18748 -1.15626,-0.35935 -1.40625,-0.51562 -0.25,-0.15623 -0.60547,-0.49998 -1.06641,-1.03125 0.0234,-1.03123 0.23828,-1.73435 0.64453,-2.10937 0.40625,-0.37498 0.98437,-0.59373 1.73438,-0.65625 0.59374,0.40627 1.05468,0.7422 1.38281,1.00781 0.32812,0.26564 0.64843,0.64846 0.96094,1.14844 m -3.28125,-1.21875 2.90625,1.78125 -0.65625,-0.75 -2.25,-1.03125 m 14.16797,19.312489 c -1.08595,0 -2.04689,-0.19921 -2.88282,-0.59765 -0.82813,-0.39844 -1.51172,-0.9375 -2.05078,-1.61719 -0.8125,-1.33593 -1.28516,-2.3164 -1.41797,-2.94141 -0.125,-0.62499 -0.1875,-1.49608 -0.1875,-2.61328 -0.24219,-1.539049 -0.22265,-2.691389 0.0586,-3.457029 0.28125,-0.76561 0.82812,-1.59374 1.64062,-2.48437 0.6875,-1.01561 1.46875,-1.66014 2.34375,-1.9336 0.875,-0.27342 1.87499,-0.52732 3,-0.76172 1.68749,0.31252 2.83593,0.89455 3.44531,1.7461 0.60937,0.84376 0.91405,1.84376 0.91407,3 -2e-5,0.70313 -0.10158,1.20313 -0.30469,1.5 -0.20314,0.28907 -0.58595,0.47266 -1.14844,0.55078 -0.81251,-0.31249 -1.31251,-0.67968 -1.5,-1.10156 -0.18751,-0.42187 -0.31251,-0.79296 -0.375,-1.11328 -0.0625,-0.32031 -0.0156,-0.64843 0.14063,-0.98438 0.15624,-0.33592 0.42186,-0.72264 0.79687,-1.16016 -0.75001,-0.43748 -1.23438,-0.59373 -1.45312,-0.46875 -0.21095,0.11721 -0.45704,0.1758 -0.73828,0.17579 -0.35157,10e-6 -0.67189,0.10548 -0.96094,0.3164 -0.28907,0.20314 -0.5586,0.56251 -0.8086,1.07813 -0.24219,0.4922 -0.58203,1.10157 -1.01953,1.82812 -0.42969,0.71876 -0.67578,1.82032 -0.73828,3.304689 0,1.96875 0.48437,3.39453 1.45313,4.27734 0.97655,0.87501 1.91796,1.3125 2.82422,1.3125 0.86717,0 1.48045,-0.21875 1.83984,-0.65625 0.35936,-0.44531 0.85155,-1.04296 1.47656,-1.79297 l 1.03125,0.84375 c -0.18751,0.78126 -0.46876,1.30469 -0.84375,1.57032 -0.37501,0.25781 -0.79688,0.57812 -1.26562,0.96093 -0.4922,0.39844 -0.9922,0.70313 -1.5,0.91407 -0.50782,0.20312 -1.09767,0.30468 -1.76953,0.30468 m -6.2461,-10.218749 0.0937,-0.9375 2.34375,2.15625 0.1875,0.656249 -2.625,-1.874999 m 15.375,0.46875 2.0625,-0.65625 0.5625,1.125 0.90235,0.656249 c 0.15624,-0.234359 0.70311,-0.742169 1.64062,-1.523429 l 0.69141,-0.71485 c 0.87499,-1.2578 0.84764,-1.79686 -0.082,-1.61718 l 0.35156,-1.07813 6.36328,0.09375 -1.82813,1.06641 c -0.81251,-0.17187 -1.32032,-0.19921 -1.52343,-0.08203 -0.20314,0.11719 -0.45314,0.38673 -0.75,0.80859 -0.46095,0.77345 -0.83986,1.32813 -1.13672,1.66406 -0.28908,0.32814 -0.72267,0.69923 -1.30078,1.11328 0.64061,0.539069 1.74608,1.796879 3.3164,3.773439 l -1.30078,1.27734 1.91016,-0.29296 c 0.92967,1.07812 1.5703,1.76953 1.92187,2.07421 0.35155,0.29688 0.78905,0.32422 1.3125,0.08204 0.64061,0.29687 1.01952,0.95703 1.13672,1.98046 l -5.76562,-0.45703 c -0.1172,-1.25781 -0.66798,-2.41015 -1.65235,-3.45703 -0.97657,-1.05468 -2.04297,-2.3203 -3.19922,-3.79687 l -0.91406,-0.10547 0.35156,5.10937 c 0,0.26563 0.0469,0.49219 0.14063,0.67969 0.0937,0.1875 0.28124,0.34375 0.5625,0.46875 0.1328,0.0625 0.32812,0.125 0.58594,0.1875 0.2578,0.05469 0.51561,0.09766 0.77343,0.12891 v 0.8789 h -8.22656 v -0.8789 c 0.19531,-0.01563 0.72656,-0.08203 1.59375,-0.19922 0.89062,-0.29688 1.30859,-0.77734 1.25391,-1.44141 l -0.44531,-9.960939 0.70312,-0.98437 -0.78516,0.80859 c -0.0234,-0.82811 -0.0781,-1.33201 -0.16406,-1.51172 -0.0859,-0.17967 -0.27344,-0.34373 -0.5625,-0.49218 -0.22656,-0.10155 -0.5,-0.18358 -0.82031,-0.2461 -0.32031,-0.07029 -0.64844,0.10939 -0.98438,0.53907 l -0.25781,-2.14454 7.14844,0.25782 1.23047,1.4414 c -0.35157,2e-5 -0.5586,-0.0117 -0.6211,-0.03515 -0.0547,-0.03124 -0.19532,-0.0078 -0.42187,0.07031 -0.28126,0.09376 -0.77735,0.17189 -1.48828,0.23437 l -0.41016,3.9375 -1.875,1.21875"
         style="font-style:normal;font-variant:normal;font-weight:normal;font-stretch:normal;font-size:24px;line-height:125%;font-family:'Seriffic Grunge';text-align:start;writing-mode:lr-tb;text-anchor:start;fill:#000000;fill-opacity:1;stroke:none;stroke-width:1;stroke-linecap:butt;stroke-linejoin:miter;stroke-opacity:1" />
    </g>
  </g>
</svg>
