<?xml version="1.0" encoding="UTF-8" standalone="no"?>
<!-- Created with Inkscape (http://www.inkscape.org/) -->

<svg
   version="1.0"
   width="301.93076"
   height="413.06439"
   id="svg3777"
   sodipodi:version="0.32"
   inkscape:version="1.4 (e7c3feb100, 2024-10-09)"
   sodipodi:docname="pose.svg"
   xmlns:inkscape="http://www.inkscape.org/namespaces/inkscape"
   xmlns:sodipodi="http://sodipodi.sourceforge.net/DTD/sodipodi-0.dtd"
   xmlns:xlink="http://www.w3.org/1999/xlink"
   xmlns="http://www.w3.org/2000/svg"
   xmlns:svg="http://www.w3.org/2000/svg"
   xmlns:rdf="http://www.w3.org/1999/02/22-rdf-syntax-ns#"
   xmlns:cc="http://creativecommons.org/ns#"
   xmlns:dc="http://purl.org/dc/elements/1.1/">
  <metadata
     id="metadata2390">
    <rdf:RDF>
      <cc:Work
         rdf:about="">
        <dc:format>image/svg+xml</dc:format>
        <dc:type
           rdf:resource="http://purl.org/dc/dcmitype/StillImage" />
      </cc:Work>
    </rdf:RDF>
  </metadata>
  <sodipodi:namedview
     inkscape:window-height="1031"
     inkscape:window-width="1400"
     inkscape:pageshadow="2"
     inkscape:pageopacity="0.0"
     borderopacity="1.0"
     bordercolor="#666666"
     pagecolor="#ffffff"
     id="base"
     inkscape:zoom="1.0051974"
     inkscape:cx="0.99482947"
     inkscape:cy="172.1055"
     inkscape:window-x="0"
     inkscape:window-y="0"
     inkscape:current-layer="svg3777"
     inkscape:showpageshadow="2"
     inkscape:pagecheckerboard="0"
     inkscape:deskcolor="#d1d1d1"
     inkscape:window-maximized="0" />
  <defs
     id="defs3779">
    <linearGradient
       id="linearGradient2355">
      <stop
         style="stop-color:#000000;stop-opacity:0.41520467;"
         offset="0"
         id="stop2357" />
      <stop
         style="stop-color:#000000;stop-opacity:0;"
         offset="1"
         id="stop2359" />
    </linearGradient>
    <radialGradient
       inkscape:collect="always"
       xlink:href="#linearGradient2355"
       id="radialGradient2361"
       cx="-294.96695"
       cy="34.651642"
       fx="-294.96695"
       fy="34.651642"
       r="165.6391"
       gradientTransform="matrix(0.297297,0,0,0.138138,136.93696,358.53614)"
       gradientUnits="userSpaceOnUse" />
    <radialGradient
       inkscape:collect="always"
       xlink:href="#linearGradient2355"
       id="radialGradient2365"
       gradientUnits="userSpaceOnUse"
       gradientTransform="matrix(0.297297,0,0,0.138138,158.32582,352.56714)"
       cx="-294.96695"
       cy="34.651642"
       fx="-294.96695"
       fy="34.651642"
       r="165.6391" />
    <radialGradient
       inkscape:collect="always"
       xlink:href="#linearGradient2355"
       id="radialGradient2369"
       gradientUnits="userSpaceOnUse"
       gradientTransform="matrix(0.297297,0,0,0.138138,198.11899,347.57234)"
       cx="-294.96695"
       cy="34.651642"
       fx="-294.96695"
       fy="34.651642"
       r="165.6391" />
    <radialGradient
       inkscape:collect="always"
       xlink:href="#linearGradient2355"
       id="radialGradient2373"
       gradientUnits="userSpaceOnUse"
       gradientTransform="matrix(0.459459,0,0,0.231231,281.78607,349.82844)"
       cx="-294.96695"
       cy="34.651642"
       fx="-294.96695"
       fy="34.651642"
       r="165.6391" />
    <radialGradient
       inkscape:collect="always"
       xlink:href="#linearGradient2355"
       id="radialGradient2377"
       gradientUnits="userSpaceOnUse"
       gradientTransform="matrix(0.297297,0,0,0.138138,340.37957,385.39654)"
       cx="-294.96695"
       cy="34.651642"
       fx="-294.96695"
       fy="34.651642"
       r="165.6391" />
    <radialGradient
       inkscape:collect="always"
       xlink:href="#linearGradient2355"
       id="radialGradient2381"
       gradientUnits="userSpaceOnUse"
       gradientTransform="matrix(0.297297,0,0,0.138138,318.49327,379.42754)"
       cx="-294.96695"
       cy="34.651642"
       fx="-294.96695"
       fy="34.651642"
       r="165.6391" />
    <radialGradient
       inkscape:collect="always"
       xlink:href="#linearGradient2355"
       id="radialGradient2385"
       gradientUnits="userSpaceOnUse"
       gradientTransform="matrix(0.297297,0,0,0.138138,295.61227,366.49484)"
       cx="-294.96695"
       cy="34.651642"
       fx="-294.96695"
       fy="34.651642"
       r="165.6391" />
  </defs>
  <g
     id="layer1"
     transform="matrix(1.578854,0,0,1.578854,139.21471,182.88323)">
    <g
       transform="matrix(0.520252,0,0,0.520252,-177.4872,-201.7746)"
       id="g5568">
      <path
         d="m 384.52309,244.73864 12,4 23.5,94 -16.5,30 -97.50001,20.00001 -2.4375,-27.37501 1.875,-12.125 z"
         style="fill:#ffffff;fill-rule:evenodd;stroke:#ffffff;stroke-width:1;stroke-linecap:butt;stroke-linejoin:miter;stroke-miterlimit:4;stroke-dasharray:none;stroke-opacity:1"
         id="path2099" />
      <path
         d="m 328.02309,214.36364 4.25,20.375 39.125,4.25 8.125,-22.875 z"
         style="fill:#ffffff;fill-rule:evenodd;stroke:#ffffff;stroke-width:1;stroke-linecap:butt;stroke-linejoin:miter;stroke-miterlimit:4;stroke-dasharray:none;stroke-opacity:1"
         id="path2986" />
      <path
         d="m 317.99967,379.28979 c -0.0368,-0.95015 -0.008,-1.85141 0.0639,-2.0028 0.13745,-0.28941 2.15555,-1.17904 2.3731,-1.04613 0.16837,0.10287 0.15803,3.4545 -0.0115,3.7214 -0.10778,0.1697 -2.02676,1.05507 -2.28682,1.05507 -0.0395,0 -0.10192,-0.77739 -0.13869,-1.72754 z m -11.66748,0.58666 c -0.12563,-0.12565 -0.11864,-2.14927 0.0101,-2.92787 0.10339,-0.6252 0.16719,-0.67761 1.53807,-1.26351 l 0.54776,-0.2341 v 1.8286 1.82863 l -1.00043,0.43166 c -0.55024,0.23742 -1.04323,0.38888 -1.09552,0.33659 z m 14.77374,-2.07158 0.047,-2.20122 1.17955,-0.49738 c 0.64875,-0.27356 1.27446,-0.46096 1.39046,-0.41645 0.29773,0.11424 0.29794,4.023 2.3e-4,4.27 -0.18183,0.15087 -2.40282,1.04627 -2.59519,1.04627 -0.038,0 -0.0479,-0.99055 -0.0221,-2.20122 z m -12.0699,0.89898 c -0.15554,-0.15554 -0.11702,-3.13268 0.0438,-3.38633 0.18706,-0.29498 1.86738,-1.06729 2.06133,-0.94743 0.18456,0.11407 0.19995,3.10885 0.0174,3.39601 -0.16919,0.26621 -1.98978,1.07056 -2.12258,0.93775 z m 15.47642,-0.43613 c -0.0467,-0.12184 -0.0633,-1.0451 -0.0368,-2.05171 l 0.0481,-1.8302 1.169,-0.47875 c 0.64296,-0.26332 1.22211,-0.42082 1.28702,-0.35 0.21126,0.23051 0.28867,3.57018 0.0887,3.82709 -0.14577,0.18725 -2.14783,1.10507 -2.41053,1.10507 -0.0333,0 -0.0988,-0.0997 -0.14551,-0.2215 z m -12.7135,-2.48328 v -1.86659 l 1.05338,-0.47842 c 0.74778,-0.33961 1.0893,-0.42216 1.1772,-0.28455 0.14733,0.23065 0.16693,2.73188 0.0255,3.25912 -0.0544,0.20274 -0.29983,0.44185 -0.54546,0.53136 -0.24562,0.0895 -0.73101,0.28491 -1.07862,0.43421 l -0.63203,0.27147 z m 16.51346,1.06151 c -0.002,-0.0695 -0.0434,-0.92276 -0.0921,-1.89607 -0.0487,-0.97332 -0.0282,-1.85529 0.0456,-1.95991 0.0738,-0.10463 0.68684,-0.42475 1.36223,-0.71136 l 1.22797,-0.52113 0.16249,0.42739 c 0.18921,0.49767 0.21589,3.44111 0.0335,3.6975 -0.11503,0.16169 -2.34123,1.08999 -2.61397,1.08999 -0.0672,0 -0.12382,-0.0569 -0.12575,-0.12641 z m -13.64827,-2.36733 v -1.84228 l 0.99018,-0.44437 c 0.5446,-0.24441 1.07807,-0.44437 1.18549,-0.44437 0.13888,0 0.18149,0.52275 0.14747,1.80967 l -0.0478,1.80967 -0.75843,0.35809 c -1.61782,0.76384 -1.51687,0.8468 -1.51687,-1.24641 z m 17.28288,0.93442 c -0.14261,-0.45484 -0.25729,-3.76009 -0.13619,-3.92532 0.20226,-0.27596 2.64201,-1.24518 2.78569,-1.10664 0.17618,0.16987 0.36609,3.24132 0.23317,3.77094 -0.0652,0.2597 -0.28924,0.49235 -0.5717,0.59359 -0.25547,0.0916 -0.86512,0.32656 -1.35475,0.52215 -0.66413,0.26529 -0.907,0.3022 -0.95622,0.14528 z m -25.54137,-3.82019 c 0,-2.03176 0.0474,-3.81759 0.10531,-3.96853 0.10142,-0.26429 1.55432,-1.10148 1.91158,-1.10148 0.1907,0 0.25518,7.17703 0.0688,7.66264 -0.10142,0.26429 -1.55433,1.10148 -1.91159,1.10148 -0.11454,0 -0.17414,-1.2645 -0.17414,-3.69411 z m 11.56235,3.23391 c -0.13447,-0.1345 -0.13127,-3.1428 0.004,-3.49459 0.0895,-0.23323 2.23252,-1.35576 2.3469,-1.22932 0.0461,0.051 0.13609,3.31135 0.1002,3.63109 -0.0211,0.18827 -0.7092,0.55278 -1.98735,1.05283 -0.19903,0.0779 -0.40761,0.0959 -0.46349,0.04 z m -8.92188,-0.83195 c -0.14223,-0.14223 -0.14337,-1.05836 -0.003,-2.40126 l 0.10935,-1.0462 0.96588,-0.48757 c 0.53125,-0.26817 1.01293,-0.44055 1.07044,-0.38303 0.15716,0.15716 0.12069,3.13276 -0.0415,3.38861 -0.0775,0.12223 -0.53892,0.40665 -1.0254,0.63203 -1.0074,0.46674 -0.92828,0.44485 -1.07572,0.29742 z m 26.61466,-0.0808 c -0.12153,-0.3759 -0.21812,-3.82574 -0.11179,-3.99262 0.19808,-0.3109 2.73149,-1.25424 2.90428,-1.08145 0.20115,0.20114 0.40312,3.19652 0.25526,3.78562 -0.0992,0.39512 -0.50207,0.60684 -2.68046,1.40858 -0.17685,0.0651 -0.32285,0.0173 -0.36729,-0.12013 z m -14.49313,-0.43819 c -0.0544,-0.0544 -0.099,-0.92536 -0.099,-1.9354 V 369.704 l 1.09181,-0.49506 c 0.6005,-0.27227 1.16114,-0.49505 1.24588,-0.49505 0.22102,0 0.42956,3.27458 0.23113,3.62917 -0.17653,0.31544 -2.30909,1.29352 -2.46985,1.13276 z m -9.3687,-2.37546 v -1.8085 l 1.07776,-0.53146 c 0.59276,-0.29231 1.12366,-0.48555 1.17978,-0.42944 0.20046,0.20046 0.10693,3.17731 -0.10865,3.45798 -0.11587,0.15085 -0.64677,0.46454 -1.17979,0.69709 l -0.9691,0.42282 z m 27.74491,1.19502 c -0.1672,-0.56689 -0.18032,-3.90993 -0.016,-4.07012 0.35417,-0.34521 2.82877,-1.2123 2.99253,-1.04856 0.20543,0.20543 0.35997,3.91372 0.17355,4.16441 -0.10758,0.14467 -2.76424,1.24921 -3.0046,1.24921 -0.0322,0 -0.0977,-0.13271 -0.14551,-0.29494 z m -15.17926,-0.17319 c -0.1401,-0.14013 -0.10794,-3.63359 0.0353,-3.83629 0.13278,-0.18786 2.0795,-1.08887 2.35261,-1.08887 0.17925,0 0.41938,3.11737 0.28029,3.63868 -0.0868,0.32541 -2.47691,1.47778 -2.66823,1.28648 z m -9.70046,-2.39237 v -1.85378 l 1.03203,-0.52097 c 0.62396,-0.31497 1.09299,-0.46001 1.18621,-0.36678 0.0848,0.0848 0.13233,0.90189 0.10562,1.81574 -0.0541,1.85003 -0.0365,1.82383 -1.69237,2.51572 l -0.63149,0.26385 z m 13.42004,0.31133 c -0.14516,-0.72578 -0.12797,-3.22636 0.0236,-3.43975 0.0681,-0.0958 0.76225,-0.45896 1.54255,-0.80692 1.09578,-0.48861 1.45007,-0.58321 1.55641,-0.4156 0.17342,0.27332 0.1821,3.518 0.0101,3.78846 -0.0982,0.15441 -2.74887,1.4005 -2.97914,1.4005 -0.0266,0 -0.0957,-0.23701 -0.15361,-0.52669 z m -10.12045,-0.10633 c -0.1424,-0.1424 -0.11402,-3.29434 0.0317,-3.51663 0.1786,-0.27252 2.17033,-1.24772 2.29457,-1.12348 0.20819,0.20819 0.11315,3.53936 -0.10613,3.72002 -0.3565,0.29371 -2.11692,1.02329 -2.22011,0.92009 z m 28.13192,-0.0432 c -0.14777,-0.23911 -0.36081,-3.8156 -0.24665,-4.14101 0.13382,-0.38148 3.14515,-1.60245 3.34315,-1.35551 0.20528,0.25602 0.4074,4.01188 0.23006,4.27504 -0.10303,0.1529 -2.94067,1.3921 -3.18775,1.3921 -0.0183,0 -0.0808,-0.0768 -0.13881,-0.17062 z m -36.95711,-2.05574 0.048,-1.72075 0.9576,-0.53797 c 0.52668,-0.29589 1.0007,-0.49487 1.05338,-0.44219 0.14119,0.1412 0.11159,3.12568 -0.0332,3.34617 -0.11608,0.17678 -1.76901,1.07548 -1.97806,1.07548 -0.0527,0 -0.0742,-0.77433 -0.0478,-1.72074 z m 22.97918,0.83976 c -0.13079,-0.41869 -0.22612,-3.62421 -0.11322,-3.80688 0.18041,-0.29193 2.69379,-1.38329 2.79786,-1.2149 0.1604,0.25953 0.28432,3.78647 0.13971,3.97615 -0.0755,0.0991 -0.44071,0.30151 -0.8115,0.44985 -0.3708,0.14834 -0.96028,0.39134 -1.31001,0.54001 -0.49702,0.2113 -0.65046,0.22346 -0.70284,0.0558 z m -11.09424,-1.83986 c -0.0518,-0.94028 -0.0577,-1.80464 -0.0131,-1.9208 0.10859,-0.28295 2.29797,-1.2602 2.46626,-1.10081 0.0729,0.0691 0.11085,0.91537 0.0843,1.88064 l -0.0483,1.75505 -1.01123,0.54303 c -0.55618,0.29866 -1.09502,0.54515 -1.19741,0.54775 -0.11794,0.003 -0.22071,-0.62189 -0.28039,-1.70486 z m 29.44173,1.31309 c -0.12259,-0.31945 -0.35648,-3.85313 -0.27662,-4.17931 0.10077,-0.41159 3.25823,-1.69515 3.52939,-1.43475 0.13429,0.12896 0.2217,0.92535 0.25281,2.30328 l 0.0476,2.10615 -0.5899,0.28447 c -0.32444,0.15645 -1.10504,0.47662 -1.73469,0.71143 -0.8791,0.32788 -1.16424,0.37632 -1.22855,0.20873 z m -38.66368,-1.58384 c 10e-4,-0.90379 0.0583,-1.72812 0.1264,-1.83184 0.19131,-0.29133 1.88576,-1.10016 2.06837,-0.98731 0.17842,0.11027 0.22539,2.75334 0.0567,3.19286 -0.0871,0.22704 -1.86497,1.26956 -2.16501,1.26956 -0.049,0 -0.0879,-0.73948 -0.0865,-1.64327 z m 24.0214,0.42135 c -0.11858,-0.37428 -0.21082,-3.64114 -0.10725,-3.79839 0.1638,-0.24872 2.78695,-1.37848 2.90181,-1.24977 0.0581,0.0651 0.15442,0.91734 0.21403,1.89388 0.0804,1.31633 0.0531,1.84653 -0.10525,2.05004 -0.17022,0.21871 -2.47507,1.31492 -2.76469,1.31492 -0.0396,0 -0.10195,-0.0948 -0.13865,-0.21068 z m -11.61224,-0.99382 c -0.16686,-1.59629 -0.12976,-2.45801 0.11628,-2.70203 0.33228,-0.32957 2.28281,-1.2266 2.40387,-1.10554 0.16027,0.16026 0.29659,2.89678 0.16954,3.403 -0.0879,0.35021 -0.35467,0.55705 -1.21816,0.94447 -0.60809,0.27283 -1.16358,0.49605 -1.23444,0.49605 -0.0708,0 -0.17754,-0.46618 -0.23709,-1.03595 z m -9.5452,-0.95155 0.001,-1.80464 1.03737,-0.54073 c 0.57055,-0.29739 1.10083,-0.50149 1.17842,-0.45354 0.1818,0.11236 0.17982,3.11605 -0.002,3.40303 -0.076,0.11975 -0.60571,0.43886 -1.1772,0.70913 l -1.03906,0.4914 z m 40.48149,1.26899 c -0.21755,-0.26215 -0.44225,-4.18594 -0.25361,-4.42884 0.22823,-0.29388 3.24515,-1.46527 3.51104,-1.36323 0.13684,0.0525 0.24887,0.19266 0.24894,0.31143 9e-5,0.11879 0.0778,1.03469 0.17267,2.03536 0.0987,1.04092 0.11,1.93115 0.0264,2.08058 -0.10255,0.18327 -3.17977,1.56686 -3.5072,1.57694 -0.0118,3.6e-4 -0.10101,-0.0952 -0.1982,-0.21224 z m -48.57021,-3.6214 c 10e-4,-2.01617 0.0583,-3.74761 0.12641,-3.84765 0.18495,-0.27166 1.85982,-1.17202 1.97186,-1.05998 0.0533,0.0533 0.0386,1.79547 -0.0328,3.87141 l -0.1298,3.77445 -0.8427,0.45982 c -0.46349,0.25291 -0.89959,0.4616 -0.96911,0.46377 -0.0695,0.002 -0.12524,-1.64565 -0.12383,-3.66182 z m 33.14666,2.69665 c -0.14464,-0.24996 -0.30232,-3.50573 -0.18466,-3.81239 0.15679,-0.40856 2.94618,-1.70839 3.10716,-1.44792 0.18607,0.30107 0.33067,3.72784 0.16999,4.0281 -0.0809,0.15115 -0.74094,0.51928 -1.46676,0.81808 -1.41573,0.5828 -1.51369,0.60776 -1.62573,0.41413 z m -11.80287,-1.4326 c -0.0595,-0.76475 -0.10869,-2.77375 -0.10925,-4.46444 l -10e-4,-3.07399 1.36655,-0.68708 c 0.7516,-0.37789 1.46068,-0.65095 1.57574,-0.6068 0.15421,0.0592 0.24078,1.18103 0.32932,4.2678 0.0661,2.30314 0.075,4.30514 0.0198,4.44887 -0.0827,0.21549 -2.63322,1.50876 -2.97149,1.50672 -0.0558,-3.4e-4 -0.15014,-0.62632 -0.20967,-1.39108 z m -18.81567,-0.50562 c 10e-4,-0.85744 0.0583,-1.64386 0.1264,-1.74757 0.11419,-0.1739 1.76746,-1.07548 1.97216,-1.07548 0.0494,0 0.0899,0.75287 0.0899,1.67304 V 363.97 l -0.90535,0.51799 c -0.49795,0.2849 -0.99093,0.51799 -1.09552,0.51799 -0.12766,0 -0.18931,-0.51234 -0.18757,-1.559 z m 50.91985,0.99161 c -0.22927,-0.28442 -0.56436,-4.11816 -0.38756,-4.43411 0.0821,-0.14672 0.93716,-0.59329 1.9001,-0.99241 1.33348,-0.55268 1.79492,-0.67806 1.9359,-0.52601 0.26062,0.28111 0.62193,4.10346 0.42169,4.46124 -0.22984,0.41072 -3.67198,1.73707 -3.87013,1.49129 z m -16.25839,-0.7388 c -0.0413,-0.0695 -0.12721,-0.96068 -0.19082,-1.98035 -0.0889,-1.42567 -0.0641,-1.9175 0.10738,-2.12909 0.33047,-0.40774 2.88837,-1.50898 3.07393,-1.32341 0.21992,0.21992 0.44552,3.709 0.26199,4.05191 -0.0831,0.15523 -0.7927,0.55789 -1.57694,0.89479 -1.55335,0.66731 -1.56565,0.67088 -1.67554,0.48615 z m -31.89377,-0.26188 c -0.0482,-0.12555 -0.0655,-0.90138 -0.0385,-1.72405 l 0.0491,-1.49575 0.96173,-0.57004 c 0.52893,-0.31352 1.04089,-0.52111 1.13765,-0.46131 0.1894,0.11706 0.24714,2.74088 0.0704,3.20134 -0.058,0.15119 -0.55264,0.50059 -1.09917,0.77649 -0.76638,0.38686 -1.01372,0.44938 -1.08129,0.27332 z m 20.09602,-0.0703 c -0.0718,-0.11618 -0.17473,-2.93986 -0.12916,-3.54302 0.0239,-0.31595 4.3904,-2.45927 4.47276,-2.19548 0.12697,0.40673 0.22734,3.62125 0.11857,3.79699 -0.10362,0.16737 -3.36337,1.75453 -4.05327,1.9735 -0.17892,0.0568 -0.36293,0.0424 -0.4089,-0.032 z m -17.30446,-2.99405 v -1.76725 l 1.00643,-0.50805 c 0.55354,-0.27942 1.08444,-0.50804 1.17979,-0.50804 0.18929,0 0.24749,2.81297 0.0679,3.28103 -0.0871,0.22703 -1.86497,1.26956 -2.16501,1.26956 -0.049,0 -0.0891,-0.79526 -0.0891,-1.76725 z m 33.31824,1.4723 c -0.14294,-0.24863 -0.28764,-4.00632 -0.16085,-4.17722 0.22128,-0.29832 3.15523,-1.56748 3.30339,-1.42897 0.22232,0.2078 0.48624,3.83239 0.30385,4.1729 -0.0871,0.16261 -0.83032,0.58006 -1.65161,0.92767 -1.59659,0.67577 -1.68297,0.7001 -1.79478,0.50562 z m 20.02593,-0.57239 c -0.0473,-0.1255 -0.18685,-1.16465 -0.31006,-2.30924 -0.20064,-1.8635 -0.19621,-2.1123 0.0425,-2.37999 0.38712,-0.4342 3.85039,-1.79783 4.05257,-1.59566 0.19474,0.19475 0.67954,4.16913 0.56294,4.61501 -0.0719,0.27512 -1.13,0.75255 -3.96836,1.79067 -0.17482,0.064 -0.32831,0.0151 -0.37954,-0.12079 z m -30.71645,-0.44042 c -0.0624,-0.16135 -0.11663,-1.08973 -0.12051,-2.06305 l -0.007,-1.76968 1.40784,-0.73262 c 0.77431,-0.40296 1.46626,-0.6684 1.53769,-0.5899 0.23637,0.25984 0.33973,3.70457 0.11987,3.99542 -0.11011,0.14568 -0.79064,0.53224 -1.51228,0.85904 -1.18681,0.53743 -1.32292,0.56617 -1.42555,0.30079 z m -28.08501,-0.32928 c -0.0575,-0.0575 -0.10455,-0.73657 -0.10455,-1.50905 0,-1.16986 0.0551,-1.45965 0.33009,-1.73458 0.29948,-0.29949 1.54886,-1.01825 1.76995,-1.01825 0.05,0 0.091,0.75734 0.091,1.68298 v 1.68299 l -0.99096,0.50023 c -0.54504,0.27513 -1.03801,0.45318 -1.09552,0.39568 z m 43.30405,-0.53876 c -0.16608,-0.26872 -0.44242,-3.83368 -0.3216,-4.14857 0.13137,-0.34235 3.17751,-1.78727 3.50386,-1.66205 0.2534,0.0972 0.55865,3.61383 0.3663,4.21986 -0.0671,0.2114 -0.64579,0.55827 -1.65572,0.9924 -0.85392,0.36708 -1.60534,0.69037 -1.66983,0.71844 -0.0645,0.0281 -0.16485,-0.026 -0.22301,-0.12008 z m -11.31464,-0.91535 c -0.0477,-0.12428 -0.1022,-1.05336 -0.12113,-2.06462 l -0.0344,-1.83866 1.40231,-0.72978 c 0.77126,-0.40138 1.4995,-0.69249 1.6183,-0.64691 0.22696,0.0871 0.49107,3.4769 0.30806,3.95382 -0.0736,0.19166 -2.71507,1.55211 -3.01367,1.55211 -0.04,0 -0.11179,-0.10168 -0.15947,-0.22596 z m 32.31084,-0.15325 c -0.25371,-0.69774 -0.54754,-4.15693 -0.37974,-4.47046 0.19677,-0.36768 3.91885,-1.93757 4.27226,-1.80195 0.34926,0.13401 0.91835,4.26963 0.6552,4.76133 -0.11001,0.20556 -0.9267,0.62291 -2.17186,1.10987 -1.09757,0.42924 -2.05011,0.78042 -2.11677,0.78042 -0.0667,0 -0.18326,-0.17065 -0.25909,-0.37921 z m -61.70815,-1.36434 c 0,-1.29141 0.0531,-1.6205 0.29495,-1.82764 0.60661,-0.51958 4.59489,-2.68336 4.759,-2.58192 0.19456,0.12023 0.23106,2.93511 0.0418,3.22443 -0.14217,0.21738 -4.68656,2.76014 -4.93287,2.76014 -0.0932,0 -0.16289,-0.67379 -0.16289,-1.57501 z m 9.19459,1.27515 c -0.0514,-0.0514 -0.0934,-0.87204 -0.0934,-1.82371 v -1.73031 l 1.13023,-0.60015 c 0.62162,-0.33009 1.19334,-0.53705 1.27049,-0.45991 0.0771,0.0771 0.11838,0.89049 0.0917,1.80745 l -0.0486,1.66718 -1.12851,0.61643 c -0.62069,0.33903 -1.17055,0.57439 -1.22192,0.52302 z m 10.80701,-0.50309 c -0.14435,-0.2498 -0.28537,-3.50037 -0.15946,-3.67546 0.21804,-0.30318 2.71093,-1.60761 2.79923,-1.46472 0.0705,0.11403 0.17238,3.09034 0.12695,3.70809 -0.0181,0.24577 -2.66155,1.61407 -2.76672,1.43209 z m 25.36994,-0.42368 c -0.22653,-0.27798 -0.42809,-4.02096 -0.23209,-4.30986 0.23025,-0.33938 3.43164,-1.74675 3.59706,-1.58132 0.24097,0.24096 0.53743,3.90238 0.34939,4.31509 -0.10166,0.22309 -0.58613,0.54003 -1.24131,0.81204 -0.59102,0.24536 -1.35148,0.56399 -1.6899,0.70805 -0.48053,0.20457 -0.65208,0.21682 -0.78315,0.056 z m -11.87829,-0.57369 c -0.14997,-0.25721 -0.2997,-3.8446 -0.16842,-4.03519 0.20623,-0.2994 2.92499,-1.61111 3.15577,-1.52255 0.21839,0.0838 0.5052,3.59458 0.3308,4.04909 -0.0499,0.13006 -0.71169,0.51835 -1.47062,0.86288 -1.8217,0.82698 -1.75538,0.8038 -1.84753,0.64577 z m 34.15519,-0.51969 c -0.25272,-0.16547 -0.75538,-4.41102 -0.56447,-4.76774 0.18896,-0.35306 4.23999,-2.05552 4.58036,-1.9249 0.33315,0.12784 0.94857,4.53876 0.69037,4.94809 -0.15352,0.24338 -3.94148,1.87672 -4.33904,1.87096 -0.098,-10e-4 -0.2632,-0.0583 -0.36722,-0.12641 z m -44.14411,-0.41854 c -0.0493,-0.12853 -0.0679,-1.02492 -0.0413,-1.99197 l 0.0484,-1.75829 1.34833,-0.70499 c 0.74158,-0.38777 1.39568,-0.65321 1.45358,-0.58991 0.16144,0.17659 0.33086,3.62895 0.18861,3.8434 -0.13441,0.20263 -1.89978,1.12277 -2.52786,1.31757 -0.25513,0.0791 -0.40952,0.0411 -0.46973,-0.11581 z m 26.77519,-0.67439 c -0.0737,-0.11588 -0.21492,-1.07395 -0.31385,-2.12905 -0.21814,-2.32667 -0.25663,-2.261 1.8828,-3.21207 1.64149,-0.72972 1.83688,-0.77997 2.00081,-0.51473 0.1987,0.32151 0.51766,4.00796 0.37398,4.32224 -0.0835,0.18276 -0.8559,0.608 -1.86705,1.02799 -1.93735,0.80468 -1.89331,0.79396 -2.07669,0.50562 z m -44.17582,-1.67395 0.048,-1.71608 0.92698,-0.55265 c 0.50983,-0.30397 1.02442,-0.55561 1.14354,-0.55922 0.16568,-0.005 0.20529,0.39661 0.16854,1.70951 l -0.048,1.7161 -0.92698,0.55264 c -0.50984,0.30397 -1.02443,0.55562 -1.14354,0.55922 -0.1657,0.005 -0.20529,-0.3966 -0.16854,-1.70952 z m 31.67842,1.08406 c -0.18932,-0.36894 -0.39369,-3.48208 -0.25271,-3.84948 0.12634,-0.32923 3.26432,-1.81613 3.44442,-1.6321 0.0702,0.0717 0.1813,1.05892 0.24691,2.19377 l 0.11929,2.06335 -1.63682,0.75971 c -0.90026,0.41783 -1.66674,0.75968 -1.70328,0.75968 -0.0365,0 -0.13457,-0.13271 -0.21781,-0.29493 z m -21.93931,-1.63179 c 0,-1.72708 0.008,-1.76395 0.46348,-2.08243 0.8922,-0.62412 4.3969,-2.40725 4.47253,-2.27553 0.15876,0.27656 0.28536,3.34505 0.14676,3.55747 -0.16541,0.2535 -4.55105,2.55563 -4.87209,2.55747 -0.15516,8.9e-4 -0.21068,-0.46214 -0.21068,-1.75698 z m 11.56882,1.12253 c -0.15298,-0.24754 -0.29424,-3.66291 -0.1593,-3.85154 0.0745,-0.10415 0.76293,-0.50404 1.52979,-0.88863 1.13701,-0.57022 1.4122,-0.65258 1.49132,-0.44637 0.0534,0.13908 0.10854,1.06987 0.12258,2.06843 l 0.0256,1.81555 -1.34833,0.71052 c -1.43936,0.75849 -1.53719,0.79335 -1.66161,0.59204 z m 46.4604,-0.17097 c -0.26611,-0.17025 -0.9014,-4.58365 -0.71172,-4.94448 0.0791,-0.15046 1.18431,-0.70241 2.45608,-1.22656 1.85993,-0.76655 2.35193,-0.91088 2.51485,-0.73769 0.11139,0.11842 0.3311,1.12399 0.48825,2.2346 0.15714,1.11061 0.31824,2.07193 0.358,2.13626 0.0398,0.0643 -0.009,0.29582 -0.10877,0.51439 -0.13803,0.30292 -0.66959,0.58528 -2.23532,1.1874 -2.67505,1.02874 -2.52923,0.98459 -2.76137,0.83608 z m -64.83569,-0.46757 c -0.14542,-0.37898 -0.12486,-2.98479 0.0253,-3.20601 0.13539,-0.19945 2.24786,-1.4633 2.31268,-1.38361 0.11631,0.14301 0.23159,3.27908 0.12625,3.43449 -0.0682,0.10068 -0.62727,0.46257 -1.24229,0.8042 -0.9519,0.52877 -1.13364,0.58097 -1.22193,0.35093 z m 46.34764,-0.38142 c -0.15941,-0.25792 -0.47987,-3.89201 -0.37876,-4.29492 0.0791,-0.31517 0.50123,-0.58177 1.9946,-1.25975 1.28375,-0.58282 1.95756,-0.80745 2.09069,-0.69697 0.23695,0.19666 0.66436,3.81178 0.51908,4.3906 -0.0839,0.33438 -0.45306,0.55667 -2.0049,1.20731 -2.02631,0.84957 -2.08839,0.86785 -2.22071,0.65373 z m -13.05624,-0.35199 c -0.12532,-0.0774 -0.20843,-0.86022 -0.23531,-2.21621 l -0.0416,-2.09645 1.60114,-0.79974 c 0.88062,-0.43986 1.6759,-0.77519 1.76727,-0.74519 0.3006,0.0987 0.7114,3.89804 0.46239,4.27647 -0.21229,0.32264 -3.33924,1.7138 -3.55392,1.58112 z m -11.05508,-0.73117 c -0.10545,-0.34018 -0.22481,-3.39341 -0.14161,-3.6222 0.0418,-0.11508 0.72049,-0.5605 1.50809,-0.98983 1.04777,-0.57114 1.48212,-0.73048 1.61877,-0.59383 0.10485,0.10484 0.21881,1.02443 0.25986,2.09685 l 0.0731,1.9101 -1.46882,0.7048 c -1.60029,0.76788 -1.75198,0.8084 -1.8494,0.49411 z m -19.13775,-1.88151 v -1.75511 l 1.19459,-0.68873 c 0.65703,-0.3788 1.21607,-0.68874 1.24232,-0.68874 0.11162,0 0.27518,3.0567 0.17966,3.35763 -0.0988,0.31129 -2.03702,1.53005 -2.43328,1.53005 -0.12028,0 -0.18329,-0.60323 -0.18329,-1.7551 z m 9.67104,1.55414 c -0.1579,-0.2555 -0.29232,-2.90962 -0.17169,-3.39022 0.0783,-0.31181 0.44785,-0.60811 1.39741,-1.1203 0.74185,-0.40014 1.35403,-0.63338 1.43912,-0.54828 0.0814,0.0815 0.12643,0.97554 0.1,1.98687 l -0.0481,1.83878 -1.30661,0.7003 c -0.76276,0.40882 -1.34967,0.6306 -1.41009,0.53285 z m 39.09312,-0.94068 c -0.22926,-0.14585 -0.67127,-4.05977 -0.50685,-4.48821 0.0605,-0.15779 0.8504,-0.63191 1.75522,-1.05361 2.14198,-0.99828 2.31315,-1.06092 2.53113,-0.9262 0.25766,0.15925 0.77729,4.32629 0.58281,4.6738 -0.0844,0.15076 -1.01371,0.64547 -2.06523,1.09936 -2.07706,0.89659 -2.01126,0.87668 -2.29708,0.69486 z m -13.95108,-0.23133 c -0.15566,-0.45736 -0.42108,-3.84958 -0.3215,-4.10907 0.12482,-0.32526 3.38347,-1.98769 3.67611,-1.87538 0.22639,0.0869 0.68204,3.90567 0.51712,4.33395 -0.0514,0.1334 -0.79396,0.56012 -1.65021,0.94826 -2.12373,0.9627 -2.13198,0.96533 -2.22152,0.70224 z m -11.63817,-1.70289 c -0.0627,-0.76476 -0.0884,-1.69276 -0.0573,-2.06223 0.0555,-0.65721 0.0892,-0.68935 1.55859,-1.48367 1.22103,-0.66011 1.54027,-0.77086 1.70718,-0.59231 0.23395,0.25029 0.48145,3.6546 0.28705,3.94839 -0.16002,0.24184 -2.81964,1.58027 -3.14018,1.58027 -0.18081,0 -0.27003,-0.34904 -0.35537,-1.39045 z m -19.53326,0.78678 c -0.14435,-0.37619 -0.12267,-2.98124 0.0267,-3.20754 0.2243,-0.33982 4.32549,-2.58832 4.46555,-2.44825 0.0753,0.0753 0.11525,0.92368 0.0887,1.88518 l -0.0483,1.7482 -2.02249,1.13236 c -1.11236,0.6228 -2.10917,1.13783 -2.21512,1.14452 -0.10596,0.007 -0.23869,-0.10784 -0.29496,-0.25447 z m 9.57726,0.0445 c -0.0469,-0.12214 -0.0634,-1.01093 -0.0368,-1.97511 l 0.0484,-1.75304 1.31658,-0.72507 c 0.72411,-0.39879 1.38066,-0.68545 1.45902,-0.63703 0.18949,0.11711 0.4108,3.14594 0.26372,3.60934 -0.0749,0.23601 -0.58322,0.59897 -1.44724,1.03338 -1.50162,0.75501 -1.48716,0.75097 -1.6036,0.44753 z m 61.98389,-0.9325 c -0.12049,-0.0769 -0.32523,-0.77762 -0.45495,-1.55722 -0.12974,-0.77959 -0.3191,-1.85191 -0.42082,-2.38293 -0.12055,-0.62935 -0.12839,-1.07114 -0.0225,-1.26895 0.19885,-0.37155 5.11888,-2.43887 5.47713,-2.3014 0.1392,0.0534 0.32611,0.45116 0.41535,0.88389 0.53326,2.58593 0.7341,3.92433 0.64321,4.28648 -0.10016,0.39901 -0.69486,0.67264 -5.24977,2.41543 -0.0927,0.0355 -0.26713,0.002 -0.38763,-0.0753 z m -20.73261,-0.41566 c -0.22113,-0.27636 -0.73528,-4.22416 -0.59707,-4.58434 0.10124,-0.26384 0.82215,-0.64108 3.53546,-1.85014 0.47477,-0.21156 0.94075,-0.33624 1.03551,-0.27707 0.2836,0.17707 0.86279,4.437 0.6499,4.78004 -0.0991,0.15973 -0.56143,0.45477 -1.02735,0.65565 -3.32768,1.4347 -3.43804,1.47385 -3.59645,1.27586 z m -14.77169,-0.1573 c -0.15158,-0.48031 -0.41423,-3.84403 -0.31945,-4.09104 0.13585,-0.35402 3.65001,-2.11096 3.90591,-1.9528 0.19911,0.12305 0.70064,3.98967 0.56878,4.38522 -0.0746,0.22378 -3.46732,1.86929 -3.85413,1.86929 -0.12904,0 -0.26454,-0.0948 -0.30111,-0.21067 z m -12.03639,-0.33404 c -0.18784,-0.50905 -0.38142,-3.41306 -0.25029,-3.75479 0.15112,-0.39379 3.41859,-2.00187 3.51388,-1.72934 0.13373,0.38243 0.38462,3.74132 0.29659,3.97072 -0.047,0.12252 -0.83555,0.59919 -1.75231,1.05923 -1.66141,0.83373 -1.66727,0.8352 -1.80787,0.45418 z m -10.54744,-0.17159 c -0.0363,-0.11587 -0.1129,-0.93127 -0.17035,-1.81203 -0.0775,-1.18788 -0.0482,-1.67089 0.11332,-1.87065 0.11977,-0.14811 0.80268,-0.5845 1.51757,-0.96974 1.20365,-0.64862 1.31192,-0.6778 1.46361,-0.39439 0.16604,0.31027 0.32545,3.66207 0.18055,3.79675 -0.12106,0.11254 -2.83963,1.46074 -2.94551,1.46074 -0.0513,0 -0.12294,-0.0948 -0.15919,-0.21068 z m -8.10412,-0.84068 c -0.05,-0.13018 -0.069,-0.98651 -0.0422,-1.90295 l 0.0486,-1.66627 1.23311,-0.72647 c 0.67821,-0.39957 1.30392,-0.68272 1.39045,-0.62923 0.0866,0.0535 0.15736,0.91766 0.15736,1.92038 v 1.82313 l -1.22191,0.6529 c -0.67206,0.35909 -1.27877,0.67817 -1.34824,0.70904 -0.0695,0.0309 -0.16718,-0.0503 -0.21714,-0.18053 z m 35.93323,-0.929 c -0.16026,-0.26498 -0.48543,-3.91718 -0.38178,-4.28791 0.0819,-0.29275 0.56691,-0.60679 1.95929,-1.2685 1.01779,-0.48368 1.95623,-0.83885 2.08543,-0.78929 0.16014,0.0615 0.29685,0.63631 0.42959,1.8064 0.10707,0.94395 0.22712,1.87464 0.26675,2.06821 0.11877,0.58006 -0.25859,0.88536 -2.17766,1.76179 -1.90292,0.86904 -2.0551,0.91852 -2.18162,0.7093 z m -23.76057,-0.1599 c -0.14897,-0.24104 -0.32933,-3.21877 -0.22106,-3.65007 0.0775,-0.30886 0.47955,-0.62231 1.53873,-1.19968 0.7886,-0.42986 1.501,-0.74003 1.58311,-0.68928 0.19253,0.11899 0.42402,3.31796 0.27425,3.78987 -0.0939,0.29571 -1.29421,1.03365 -2.98027,1.83218 -0.061,0.0289 -0.14867,-0.008 -0.19476,-0.083 z m 10.94598,-0.34571 c -0.17981,-0.93806 -0.30403,-3.22457 -0.19402,-3.5712 0.12915,-0.40693 3.28476,-2.08028 3.56944,-1.89279 0.24154,0.15906 0.56145,3.74574 0.36727,4.11742 -0.16195,0.30996 -2.98888,1.81005 -3.41106,1.81005 -0.13354,0 -0.28277,-0.20856 -0.33163,-0.46348 z m 28.4146,0.32057 c -0.25535,-0.16055 -0.80614,-4.00935 -0.65811,-4.59882 0.13712,-0.54608 4.54871,-2.59631 4.8376,-2.24822 0.10047,0.12105 0.33278,1.18475 0.51624,2.36378 0.2752,1.76851 0.29576,2.20052 0.11749,2.46852 -0.11885,0.17865 -1.07936,0.69736 -2.13445,1.15269 -2.33321,1.00687 -2.40941,1.03139 -2.67877,0.86205 z m -47.98822,-2.09025 c -0.18947,-2.2859 -0.19433,-2.27442 1.34903,-3.18424 0.74158,-0.43716 1.3959,-0.7433 1.45404,-0.68031 0.1493,0.16173 0.30425,3.48564 0.17199,3.68949 -0.10822,0.1668 -2.57677,1.56552 -2.76292,1.56552 -0.0533,0 -0.14876,-0.6257 -0.21214,-1.39046 z m 12.80691,-0.13106 c -0.17679,-0.28606 -0.38525,-3.60412 -0.24324,-3.87177 0.0738,-0.13906 0.81336,-0.61343 1.64355,-1.05418 1.1676,-0.6199 1.54793,-0.75348 1.67949,-0.5899 0.21278,0.26458 0.43563,3.68283 0.25689,3.94039 -0.23546,0.33931 -3.22754,1.75206 -3.33669,1.57546 z m 11.63557,0.0102 c -0.15288,-0.24739 -0.45903,-3.72245 -0.36199,-4.10905 0.0651,-0.25925 0.60525,-0.61862 1.89129,-1.2582 0.99011,-0.49242 1.85855,-0.83369 1.92984,-0.75837 0.18938,0.20004 0.52862,3.67072 0.40358,4.12889 -0.0803,0.29403 -0.55775,0.60599 -1.93918,1.26689 -1.00798,0.48225 -1.87357,0.81068 -1.92354,0.72984 z m 13.43711,-0.21619 c -0.25088,-0.31411 -0.62667,-4.05922 -0.44065,-4.39162 0.0852,-0.15223 1.05099,-0.71379 2.14621,-1.24791 1.85444,-0.90435 2.0063,-0.95062 2.20934,-0.67295 0.25129,0.34366 0.69727,3.98886 0.53861,4.40232 -0.0901,0.2348 -3.78811,2.12083 -4.15839,2.12083 -0.0698,0 -0.20257,-0.0948 -0.29512,-0.21067 z m 16.50918,-0.27052 c -0.19012,-0.1206 -0.36635,-0.98697 -0.81104,-3.9871 -0.077,-0.51942 -0.0278,-0.75741 0.21214,-1.02683 0.4107,-0.46111 4.51927,-2.28202 4.85679,-2.15251 0.30168,0.11577 0.31679,0.17177 0.74414,2.75828 0.26623,1.61131 0.28298,1.98932 0.0998,2.25085 -0.12109,0.17287 -1.26885,0.76141 -2.55059,1.30787 -1.28175,0.54645 -2.33084,0.99239 -2.33132,0.99097 -4.8e-4,-0.001 -0.0994,-0.0651 -0.21994,-0.14153 z m -50.47769,-0.14612 c -0.14759,-0.25444 -0.29201,-3.50443 -0.16386,-3.68726 0.22465,-0.32048 2.80786,-1.75539 2.92484,-1.62466 0.0613,0.0685 0.15858,0.8882 0.21612,1.8215 0.0762,1.23536 0.0476,1.76772 -0.10488,1.95721 -0.29433,0.36568 -2.77986,1.69246 -2.87222,1.53321 z m 13.28408,-1.72687 c -0.18373,-0.29728 -0.40379,-3.61199 -0.25718,-3.87395 0.20208,-0.3611 3.25835,-2.03359 3.4235,-1.87345 0.17979,0.17432 0.50746,3.48351 0.39092,3.94786 -0.064,0.25515 -0.56819,0.5996 -1.7016,1.16263 -1.78782,0.8881 -1.71569,0.86334 -1.85564,0.63691 z m 12.26794,-0.21605 c -0.22007,-0.34006 -0.5343,-3.88763 -0.37181,-4.19784 0.0805,-0.1536 0.98182,-0.70667 2.00306,-1.22904 1.85479,-0.94874 1.85693,-0.94936 2.01297,-0.56343 0.21488,0.53146 0.53783,3.76011 0.40955,4.09442 -0.0824,0.21477 -3.53116,2.10655 -3.84028,2.10655 -0.0424,0 -0.13848,-0.0948 -0.21349,-0.21066 z m -21.70114,-0.33708 c -0.18828,-0.60747 -0.21646,-3.49162 -0.0363,-3.71177 0.24929,-0.30454 2.59824,-1.6394 2.88487,-1.6394 0.15283,0 0.24856,0.501 0.33109,1.73293 0.0638,0.95311 0.0733,1.84427 0.021,1.98035 -0.0805,0.20943 -2.78149,1.84855 -3.04608,1.84855 -0.0491,0 -0.11865,-0.0948 -0.15457,-0.21066 z m 35.81029,-0.20062 c -0.2244,-0.59024 -0.58402,-3.87037 -0.45982,-4.19406 0.12734,-0.33186 4.08638,-2.34446 4.46746,-2.27107 0.21142,0.0407 0.34107,0.51713 0.5844,2.14726 0.17197,1.15222 0.27235,2.25564 0.22306,2.45205 -0.0664,0.26473 -0.63544,0.60545 -2.1995,1.3171 -1.16045,0.52801 -2.18848,0.96 -2.28455,0.96 -0.0961,0 -0.24504,-0.18507 -0.33105,-0.41128 z m 17.57637,-0.39572 c -0.11045,-0.0702 -0.28451,-0.61893 -0.38679,-1.21934 -0.51311,-3.01196 -0.538,-3.25105 -0.37575,-3.60716 0.24321,-0.53378 5.07891,-2.71761 5.35468,-2.41821 0.20329,0.22071 0.92153,3.7597 0.91577,4.51236 -0.002,0.23175 -0.0589,0.5066 -0.12704,0.61078 -0.1123,0.1718 -4.80883,2.25793 -5.06958,2.25184 -0.0607,-10e-4 -0.20084,-0.06 -0.31129,-0.13027 z m -39.40672,-1.25761 c -0.1483,-0.42084 -0.41315,-3.6582 -0.3193,-3.90277 0.053,-0.13817 0.8662,-0.67502 1.80706,-1.19298 1.51533,-0.83426 1.73319,-0.91096 1.90806,-0.67181 0.20569,0.28131 0.49943,3.61396 0.35229,3.99734 -0.075,0.19536 -3.28674,1.98089 -3.56316,1.98089 -0.0609,0 -0.14413,-0.0948 -0.18495,-0.21067 z m -9.92413,-1.17979 c -0.12588,-1.07216 -0.17993,-2.97604 -0.0867,-3.05232 0.53876,-0.44063 3.1084,-1.76915 3.21525,-1.6623 0.0793,0.0793 0.16189,1.00757 0.18358,2.06285 l 0.0394,1.91868 -1.43259,0.8055 c -0.78792,0.44303 -1.51866,0.80706 -1.62385,0.80897 -0.10592,0.002 -0.2376,-0.39131 -0.29514,-0.88138 z m 22.74104,0.33709 c -0.29529,-1.7534 -0.42397,-3.52813 -0.27588,-3.80481 0.21524,-0.40222 3.78589,-2.25073 4.10845,-2.12696 0.28662,0.10999 0.74472,3.65637 0.55875,4.32547 -0.0803,0.28896 -0.57671,0.60523 -1.99991,1.27415 -1.0412,0.48939 -1.98445,0.88756 -2.09613,0.88484 -0.11167,-0.003 -0.24455,-0.25143 -0.29528,-0.55269 z m 15.25084,0.0453 c -0.23435,-0.14484 -0.88659,-4.15899 -0.74762,-4.60128 0.0949,-0.30195 4.21466,-2.48065 4.69075,-2.48065 0.36276,0 0.39517,0.10247 0.76841,2.42901 0.22535,1.40475 0.28923,2.23759 0.18637,2.42979 -0.2014,0.37631 -4.63213,2.3874 -4.89791,2.22313 z M 363.028,336.41925 c -0.0921,-0.24227 -0.18503,-1.23384 -0.2065,-2.2035 l -0.039,-1.76302 1.81437,-1.00715 c 0.99791,-0.55391 1.87904,-0.96715 1.95809,-0.9183 0.19328,0.11945 0.5805,3.70203 0.44595,4.12597 -0.0651,0.20513 -0.78459,0.69935 -1.85042,1.27105 -0.95914,0.51448 -1.79139,0.93541 -1.84945,0.93541 -0.058,0 -0.1809,-0.19821 -0.273,-0.44046 z m -10.33418,-0.0266 c -0.15322,-0.24792 -0.29414,-3.66307 -0.15914,-3.85695 0.25121,-0.36079 17.80787,-10.34635 17.94677,-10.20743 0.0756,0.0756 0.25169,1.00358 0.39132,2.06219 0.23829,1.80682 0.23574,1.94281 -0.0418,2.21948 -0.3252,0.3242 -17.6352,9.91274 -17.89526,9.91274 -0.0888,0 -0.19769,-0.0585 -0.2419,-0.13003 z m 24.02916,-0.41772 c -0.29355,-0.35567 -0.6401,-4.10236 -0.40559,-4.38493 0.31241,-0.37643 3.88186,-2.17596 4.1961,-2.11544 0.22426,0.0432 0.34344,0.46932 0.58071,2.0765 0.1642,1.1122 0.25779,2.15724 0.20798,2.32234 -0.0801,0.26546 -3.84641,2.31221 -4.25482,2.31221 -0.0828,0 -0.22875,-0.0948 -0.32438,-0.21068 z m 16.00739,-0.6079 c -0.25631,-0.16347 -0.94176,-4.11595 -0.80695,-4.65305 0.12934,-0.51537 8.59532,-4.61856 9.00115,-4.36257 0.36301,0.22898 1.12532,4.35882 0.89751,4.86225 -0.10236,0.22618 -1.52519,0.96562 -4.32483,2.24758 -4.91598,2.25104 -4.4916,2.08138 -4.76688,1.90579 z m -24.64618,-1.24605 c -0.23382,-1.35052 -0.43141,-3.9815 -0.31532,-4.19843 0.0841,-0.1572 0.741,-0.60544 1.45971,-0.99608 0.71871,-0.39066 1.53651,-0.84702 1.81734,-1.01414 0.28083,-0.16712 0.59584,-0.25112 0.70002,-0.18666 0.1042,0.0644 0.29628,1.01752 0.42687,2.11794 0.21277,1.79306 0.21009,2.03194 -0.0259,2.30092 -0.43869,0.50008 -4.01696,2.24085 -4.06274,1.97645 z m 14.44362,-0.92697 c -0.17175,-0.27818 -0.63569,-3.98571 -0.54431,-4.3498 0.0746,-0.29731 0.62232,-0.65585 2.3076,-1.51064 1.39385,-0.70697 2.26882,-1.06176 2.3697,-0.96087 0.088,0.088 0.30949,1.08046 0.49228,2.20555 0.25597,1.57542 0.28863,2.12733 0.1421,2.40114 -0.11425,0.21348 -1.02957,0.75223 -2.2907,1.34828 -2.15451,1.01831 -2.34227,1.08399 -2.47667,0.86634 z m -8.98365,-1.86207 c -0.23312,-0.14743 -0.6484,-3.55519 -0.50358,-4.13224 0.0823,-0.32789 0.53393,-0.65689 1.98981,-1.44951 1.03585,-0.56394 1.98259,-1.02534 2.10388,-1.02534 0.25696,0 0.31421,0.22764 0.57923,2.30282 0.10846,0.84941 0.15205,1.72435 0.0968,1.94429 -0.0763,0.30383 -0.57832,0.64956 -2.08977,1.43907 -1.09416,0.57155 -2.07355,0.98596 -2.17641,0.92091 z m 15.12067,-1.42447 c -0.29793,-0.75352 -0.7068,-3.99481 -0.54127,-4.29062 0.0882,-0.15765 2.68949,-1.59366 5.78057,-3.19111 4.30137,-2.22292 5.66543,-2.85751 5.81311,-2.70438 0.35992,0.37318 1.0187,4.32027 0.78946,4.72991 -0.13747,0.24564 -11.1839,5.83541 -11.53186,5.83541 -0.0881,0 -0.22757,-0.17064 -0.31001,-0.37921 z m -9.63588,-1.51686 c -0.01,-0.0232 -0.14919,-0.95226 -0.30992,-2.06462 -0.21572,-1.49284 -0.2442,-2.10137 -0.10874,-2.32366 0.24453,-0.40128 4.08159,-2.49321 4.37007,-2.3825 0.3435,0.13181 0.90389,4.19175 0.62498,4.52782 -0.43189,0.52039 -4.469,2.49904 -4.57639,2.24296 z m -6.80126,-2.64326 c -0.19117,-0.30931 -0.623,-3.59205 -0.52427,-3.98542 0.11039,-0.4398 3.91824,-2.72167 4.15002,-2.48692 0.17777,0.18006 0.6664,3.90195 0.55155,4.20122 -0.0475,0.12387 -0.81882,0.61899 -1.71399,1.10029 -0.89517,0.48129 -1.7912,0.98113 -1.99117,1.11075 -0.24168,0.15664 -0.40001,0.17679 -0.47214,0.0601 z m 12.72507,-0.75069 c -0.26665,-0.70135 -0.65485,-3.87405 -0.50813,-4.15282 0.18879,-0.35868 13.78629,-7.74895 14.06245,-7.64299 0.12352,0.0474 0.26062,0.32751 0.30468,0.62247 0.0441,0.29496 0.20703,1.21832 0.36217,2.05195 0.15515,0.83361 0.24319,1.67063 0.19564,1.86006 -0.0638,0.25433 -1.89811,1.29039 -7.01439,3.9619 -3.81037,1.98964 -6.99794,3.64264 -7.08348,3.67334 -0.0856,0.0307 -0.22907,-0.13755 -0.31894,-0.37391 z m -7.49656,-3.2634 c -0.0618,-0.53302 -0.19226,-1.39537 -0.28985,-1.91637 -0.12661,-0.6758 -0.12479,-1.04569 0.006,-1.29078 0.10111,-0.18896 1.0704,-0.85259 2.15394,-1.47475 2.32549,-1.33527 2.28125,-1.35071 2.57737,0.90016 0.10595,0.80537 0.22525,1.62268 0.2651,1.81626 0.0399,0.19359 -0.0207,0.47211 -0.13457,0.61897 -0.25847,0.33332 -3.86293,2.3156 -4.21056,2.3156 -0.18557,0 -0.28616,-0.26505 -0.36782,-0.96909 z m 5.80393,-2.63244 c 0,-0.21961 -0.11736,-1.0723 -0.26081,-1.89488 -0.14345,-0.82257 -0.22029,-1.65706 -0.17076,-1.85441 0.0614,-0.24467 0.76069,-0.741 2.19816,-1.56021 1.15944,-0.66076 2.1862,-1.20139 2.28168,-1.20139 0.25596,0 0.44252,0.61422 0.5787,1.90526 0.0665,0.63076 0.18781,1.37995 0.26953,1.66486 0.22053,0.76895 -0.0717,1.0563 -2.30538,2.26658 -2.18353,1.18313 -2.59112,1.2892 -2.59112,0.67419 z m 6.16778,-3.18221 c -0.35489,-1.29708 -0.66627,-4.02588 -0.48746,-4.27212 0.27842,-0.38345 8.14467,-4.77456 8.38675,-4.68166 0.13734,0.0527 0.29647,0.3729 0.35363,0.71157 0.0571,0.33866 0.21837,1.20651 0.35827,1.92857 0.3248,1.67642 0.23482,2.01336 -0.66248,2.48051 -0.39463,0.20546 -2.21141,1.19936 -4.0373,2.20868 -1.82587,1.00932 -3.43991,1.83512 -3.58676,1.83512 -0.14686,0 -0.29296,-0.0948 -0.32465,-0.21067 z"
         style="fill:#000000"
         id="path1932" />
      <path
         d="m 459.74385,643.85878 c -3.16448,-0.30195 -5.91749,-2.97601 -7.95178,-5.25462 -0.15849,-0.63145 1.65474,-4.13153 3.27623,-6.3241 4.15708,-7.68973 17.33318,-17.71783 18.06219,-19.62326 0.52462,-1.37121 -12.25905,-17.04188 -21.2374,-21.50587 -1.88715,-3.82153 -3.11309,-7.95812 -5.21536,-11.70653 -7.6094,-7.0641 -15.99727,-13.38341 -24.35807,-19.55494 -6.41765,-4.39046 -12.05189,-9.82832 -18.36334,-14.34864 -4.65959,-3.33791 -8.28039,-7.83599 -11.87583,-12.24165 -6.45053,-10.16889 -11.19619,-22.74427 -13.13383,-34.58392 -0.003,-0.35393 -0.19271,-1.05759 -0.42242,-1.56366 -2.33016,-8.43337 -2.62924,-17.25074 -4.83602,-25.71061 -1.28388,-5.73255 -3.95946,-10.96832 -5.99533,-16.41999 -2.93643,-6.66573 -6.93826,-13.30974 -12.65153,-17.89685 -5.86833,2.6937 -10.39643,7.83643 -14.52078,12.66584 -9.19961,11.1268 -16.21174,23.81614 -23.61757,36.15717 -0.77801,1.40881 -1.05748,1.22338 -2.25876,1.13826 -0.91423,-0.0648 -5.56904,8.6072 -9.73205,12.83188 -2.30947,2.34369 -3.76336,5.23242 -5.32697,8.07125 -7.06753,11.64022 -15.50128,22.47909 -21.10629,34.96992 -0.1173,0.51439 -0.58074,1.43997 -1.02987,2.05685 -4.46788,6.49377 -7.88078,13.63069 -11.93323,20.39102 -1.41409,2.11071 -2.20498,4.52199 -3.22181,6.82006 -0.56115,1.14658 -0.43644,1.10301 -1.3883,1.14389 -0.61357,0.0263 -5.50695,5.63333 -8.76032,8.84485 -1.74967,1.72716 -1.67228,1.69603 -1.59194,4.34072 0.0278,0.91501 -0.0579,1.99209 -0.19036,2.39354 -0.30908,0.93651 -6.67399,7.30962 -7.30023,7.30962 -1.26312,-0.60827 -1.88968,-0.88546 -3.27606,-0.33361 -0.65495,0.41003 -1.69191,1.29402 -1.97698,1.4188 -1.19656,0.52369 -2.31622,1.72664 -4.02946,4.32918 -3.40019,4.19703 -12.34412,9.84237 -14.17214,10.17435 -1.91451,0.34769 -7.38271,0.25008 -11.00952,-0.4576 -2.47461,-0.77912 -9.07825,-1.29905 -8.45311,-5.01764 0.92892,-2.15723 1.69687,-4.36966 2.56848,-6.54107 4.43265,-9.68453 13.71873,-16.18976 21.75742,-22.72792 2.86185,-2.22709 2.98171,-2.3726 2.80678,-3.40798 -0.11701,-0.69261 -0.046,-0.95836 0.41936,-1.56842 2.87947,-4.79973 5.20225,-9.91008 7.73,-14.90056 0.78009,-2.86656 1.16049,-5.83231 2.14921,-8.65534 0.35215,-0.96794 0.58595,-1.93921 0.9678,-2.89978 0.58176,-1.2082 1.1512,-2.42188 1.62383,-3.67353 1.92182,-2.47891 3.59477,-5.12024 5.11131,-7.87726 1.25865,-2.90948 2.45419,-5.82903 3.84646,-8.678 4.52327,-8.56543 9.12584,-17.08766 13.58214,-25.69238 2.54801,-4.21844 5.8664,-7.89568 8.74196,-11.889 2.97096,-5.15056 7.39862,-9.4143 10.44942,-14.47168 3.68587,-7.46554 5.81772,-15.56399 8.93339,-23.26887 2.98605,-8.1278 6.44546,-16.10786 9.52511,-24.21162 -0.92415,-2.09601 -2.52228,-3.8261 -3.17366,-5.99748 0.36602,-2.32673 1.3103,-4.49648 1.56961,-6.27806 0.81129,-5.57382 1.19168,-11.41642 1.37702,-17.10503 0.16585,-6.10496 1.57737,-11.97549 1.7426,-18.10989 -0.37539,-3.88051 1.00524,-7.50272 1.51557,-11.28483 0.0957,-2.0646 0.94848,-3.37758 2.70907,-1.88248 0.0779,0.24545 0.0309,2.75533 -0.10441,5.57751 -0.42136,8.78704 -0.60973,16.80014 -0.40431,17.19912 0.98067,0.7427 2.04807,2.24624 3.25571,1.84973 19.90771,-6.53645 33.836,-10.93495 54.4465,-17.70704 5.04767,-1.65854 -1.38649,-6.58925 1.68444,-12.30658 3.94003,-7.33539 6.74384,-8.21436 11.2183,-10.81917 4.06267,-2.36509 17.86219,2.68477 14.88399,5.94582 -1.80984,1.98172 -5.18658,-0.12016 -5.85112,0.88497 -1.816,2.74673 -0.0524,3.69316 4.71284,7.64682 4.90351,-1.66287 12.45443,-3.54235 19.0353,-5.7694 -3.31319,-16.59346 -3.396,-17.17545 -5.76068,-29.86375 0.53351,-1.68992 2.44827,-3.52726 2.55229,-4.91733 0.17983,-2.40293 -7.09954,-47.25815 -7.34006,-48.62943 0.31358,-2.62749 1.51323,-4.95418 1.34078,-6.15583 -0.17069,-1.18948 -2.06964,-12.49927 -2.85759,-18.09577 6.52151,3.36158 18.06486,9.29216 24.68986,17.02182 3.36894,6.80781 2.84774,14.86254 3.57588,22.24326 1.77886,8.60796 1.17058,17.03209 0.54801,25.65643 -0.38803,8.79446 -3.18272,17.38681 -2.94337,26.19771 0.16583,5.2958 -0.0871,9.02468 -0.74113,10.92561 -0.3687,1.07158 -0.4356,1.82026 -0.43432,4.85939 0.21694,5.18114 -1.69157,10.07874 -3.17263,14.95943 -0.36632,2.1431 -2.74348,2.20814 -2.65073,4.26752 0.66166,3.16262 2.01538,6.25629 2.50298,9.4624 -0.86549,0.74062 -1.91049,1.26532 -2.81617,1.95261 2.21595,10.24249 3.0232,20.78022 4.53071,31.16043 l 0.47715,12.94433 c -2.30882,2.48593 -4.3326,5.18353 -6.03269,8.11287 -0.22435,4.10886 0.0859,8.29148 0.12019,12.42505 -0.30279,16.06567 4.17775,31.96198 4.87306,47.93534 -0.11234,2.96675 1.59027,5.5149 2.77368,8.14076 2.13949,4.82945 2.34559,5.12765 3.67494,5.31757 6.86129,2.71193 13.35045,7.40544 18.60044,12.63717 20.03716,20.2234 39.53402,41.58935 56.90149,64.24233 1.74596,2.3625 2.20652,2.74096 4.00543,3.2915 0.89311,0.27334 2.19351,0.75599 2.88981,1.07259 2.66864,1.75959 3.40108,5.63008 4.38941,8.59499 1.30547,5.43775 3.74614,10.80266 4.11168,16.43571 -0.12287,0.48955 -5.71636,5.75893 -8.21682,7.74071 l -1.04786,0.83049 c -2.51845,-0.0236 -4.62723,-0.49409 -6.02935,1.85423 -5.83202,7.37845 -15.10496,11.58943 -24.11434,13.8865 -5.93071,1.20208 -11.73473,-0.15511 -17.63193,-0.40095 z M 322.32096,361.14491 c -1.38482,0.42259 -1.80984,0.18649 -3.03939,-1.68841 -1.91875,-1.94741 -0.99494,-7.56752 -3.35085,-8.59239 -1.50465,0.81286 -5.7868,2.89771 -8.11813,4.25686 -1.18769,0.6977 -1.42684,0.72531 -1.87566,0.21651 0.22373,-5.02369 1.30443,-9.19185 -0.64171,-14.5603 -0.97211,-2.47384 -1.27747,-2.46007 -2.01782,-3.12667 -2.80034,-2.52139 -8.21008,-21.08152 -10.35043,-31.19016 0.11216,-1.52173 2.90478,-5.20785 3.80206,-8.07312 -0.37905,-0.96646 -2.64454,-0.88094 -1.8176,-1.90652 0.78257,-0.97054 4.15549,-3.43184 4.25604,-4.14562 0.10303,-0.73138 0.002,-5.91719 0.21651,-9.04131 0.18942,-1.33028 3.30597,-5.12038 4.65497,-7.84921 -1.28154,-1.80882 -3.05168,-3.07013 -3.68282,-5.17773 0.6448,-5.2521 1.71287,-10.47603 2.79868,-15.65737 0.49909,-2.08652 0.83324,-1.94258 0.41882,-3.37608 -0.39066,-1.35131 5.77713,-8.96102 6.92887,-9.97625 1.01447,-0.89423 14.38815,-1.19258 21.62561,-1.49992 0.63199,-0.83366 -0.34644,-5.85209 -1.63857,-9.59769 -1.08922,-3.79331 -1.40667,-7.65505 -2.7819,-11.3605 -1.46915,-2.34435 0.18292,-13.92936 0.0236,-20.76481 -1.40216,-4.18928 5.96491,-13.97162 8.78407,-20.76499 2.47542,-3.44267 5.51912,-7.06883 9.01198,-9.51037 1.20445,0 6.33528,2.92493 6.70845,3.52873 5.93753,-2.35674 11.78211,-5.69633 18.32162,-5.59276 4.59574,2.35353 8.10939,11.10515 8.84571,11.8338 1.99524,1.97446 3.67619,-2.71414 5.92489,-3.06908 1.85641,0.4978 2.85951,8.28629 4.14786,12.59552 0.76638,1.93718 0.75681,3.99739 1.50102,5.90886 1.22231,5.41036 -0.73666,12.56938 -2.07883,17.90724 -0.40072,3.1885 -1.50994,6.08741 -2.57629,9.09343 -2.82286,4.26957 -1.54521,10.20083 -4.11759,14.41693 -0.47912,0.68397 -0.87112,1.46839 -0.87112,1.74316 0.66119,2.24688 1.60368,4.51133 2.93064,6.46066 3.55949,8.98108 3.72347,19.08168 6.4893,28.36735 1.02551,1.25059 2.0667,2.43885 2.79523,3.87711 1.76734,9.48092 3.3539,18.69432 5.10996,28.20317 -21.3045,12.6726 -44.74082,25.96215 -66.24647,38.35409 l -3.14284,1.79972 0.45569,0.79791 c 1.19701,2.50741 1.41956,5.32684 2.04071,8.01056 0.4338,1.69257 0.8071,5.45497 0.90262,9.09719 0.058,2.21331 0.0523,2.24215 -0.54881,2.7605 -3.67072,1.4081 -6.11006,-3.75819 -9.79809,-2.70804 z m 40.69783,-125.193 c 2.03762,-0.60895 3.66169,-1.31671 5.00955,-2.6629 1.3349,-1.33323 1.23044,-3.16738 1.86718,-5.73766 0.22763,-0.91885 0.72932,-1.03852 3.22496,-3.38581 1.53546,-1.44419 2.58227,-2.32273 3.18935,-3.14276 0.33315,-0.45003 -0.0413,-0.62516 -0.49071,-0.62516 -0.14554,0 -1.08101,1.06358 -2.29705,2.25439 -1.74445,1.70824 -2.51844,2.07581 -3.00032,2.07581 -0.3359,0 -0.73704,-0.15218 -0.8914,-0.33818 -0.33196,-0.39999 -1.08875,-0.93305 -2.04036,-1.47402 -0.006,-0.003 -0.0122,-0.007 -0.0183,-0.0104 -1.17274,-0.66506 -2.63759,-1.34084 -3.96738,-1.79489 -1.08857,-0.37169 -2.35406,-0.5642 -3.74279,-0.57691 -1.36505,-0.0125 -2.84918,0.14871 -4.40142,0.48422 -4.23238,0.91481 -4.08519,0.90076 -5.76647,0.55021 -1.73555,-0.36188 -3.20381,-1.10696 -5.65751,-2.87095 -2.37624,-1.7083 -3.95303,-1.43732 -8.457,-1.91043 -2.22115,-0.23332 -3.96795,-1.22251 -5.05846,-1.46202 -0.80044,-0.17581 -1.47182,0.28662 -1.28244,0.8833 0.59877,0.69932 1.63725,0.57075 2.25015,1.25236 0.0656,0.26141 0.14708,1.96485 -0.0372,3.02155 -0.66197,3.79604 -0.37612,7.23136 0.93915,8.89571 1.30804,1.6552 4.24074,3.17894 7.15629,3.18107 1.57972,0.001 2.02687,0.0917 3.15755,-0.44325 1.97065,-0.93228 3.09753,-2.89062 4.37668,-6.52133 0.2727,-0.77403 0.34628,-1.48735 0.97143,-2.0351 0.59039,-0.5173 1.36458,-0.25859 2.43836,0.0397 1.00958,0.28042 1.24735,0.6889 1.56688,4.06477 0.4011,4.23754 1.40958,6.33823 3.57929,7.45578 2.3468,1.20877 4.90603,1.57287 7.38201,0.83293 z m -4.36242,-0.49671 c -4.81653,-1.36801 -5.17359,-3.64746 -5.70267,-7.74161 -0.34721,-2.63119 0.51699,-4.52633 1.24525,-4.90819 0.83568,-0.43818 3.88933,-1.12657 7.27663,-0.50598 3.47372,0.63643 4.32487,0.82784 6.77216,2.95705 0.47204,0.54595 0.58771,1.95809 0.45193,3.47917 -0.18004,2.01688 -1.18113,3.71015 -2.89091,5.13695 -2.06427,1.93904 -4.5128,1.97776 -7.15239,1.58261 z m -21.74639,-4.15271 c -2.50028,-0.70574 -3.43362,-1.4981 -4.20218,-2.94866 -0.61971,-1.16964 -1.06802,-1.45304 -0.94231,-4.36483 0.18679,-4.32626 1.42114,-5.57751 2.87692,-5.86657 0.5538,-0.10996 2.58902,-0.66255 4.96914,0.18076 2.76724,0.98047 4.76543,1.551 6.55616,3.81909 0.67711,0.85762 -0.41038,4.76567 -0.8031,6.13453 -0.37581,1.30995 -1.88549,2.5305 -3.64518,3.10325 -1.33576,0.63127 -3.45275,0.32243 -4.80945,-0.0576 z"
         style="fill:#000000;stroke:#ffffff;stroke-width:1;stroke-miterlimit:4;stroke-dasharray:none;stroke-opacity:1"
         id="path2095" />
      <path
         d="m 400,358.79076 c 5.01946,14.78579 -9.47525,28.59335 -2.50001,44.64285 14.04356,32.31316 -7.9561,48.85533 -6.42856,74.64287 0.80101,13.52262 10.89089,38.45938 27.43128,47.17258"
         style="fill:none;fill-rule:evenodd;stroke:#ffffff;stroke-width:1;stroke-linecap:butt;stroke-linejoin:miter;stroke-opacity:1"
         id="path2015" />
      <path
         d="m 418.84375,523.3125 c -1.2956,-0.80017 -3.28278,2.05534 -1.78125,3 1.45992,0.91848 5.04352,2.87881 6.84375,4 1.90447,1.18611 3.6621,-1.89765 1.75,-3.03125 -1.8718,-1.1097 -5.48805,-3.15076 -6.8125,-3.96875 z"
         style="fill:#ffffff;fill-opacity:1;fill-rule:evenodd;stroke:none;stroke-width:3.5;stroke-linecap:butt;stroke-linejoin:miter;stroke-miterlimit:4;stroke-dasharray:none;stroke-opacity:1"
         id="path2907" />
    </g>
  </g>
  <path
     style="color:#000000;display:inline;overflow:visible;visibility:visible;fill:url(#radialGradient2373);fill-opacity:1;fill-rule:nonzero;stroke:none;stroke-width:10;stroke-linecap:butt;stroke-linejoin:miter;stroke-miterlimit:4;stroke-dashoffset:0;stroke-opacity:1;marker:none;marker-start:none;marker-mid:none;marker-end:none"
     d="m 70.15618,319.54007 h 152.20889 v 76.60186 H 70.15618 Z"
     id="rect2371" />
  <path
     style="color:#000000;display:inline;overflow:visible;visibility:visible;fill:url(#radialGradient2361);fill-opacity:1;fill-rule:nonzero;stroke:none;stroke-width:10;stroke-linecap:butt;stroke-linejoin:miter;stroke-miterlimit:4;stroke-dashoffset:0;stroke-opacity:1;marker:none;marker-start:none;marker-mid:none;marker-end:none"
     d="M 0,340.44185 H 98.488104 V 386.204 H 0 Z"
     id="rect2353" />
  <path
     style="color:#000000;display:inline;overflow:visible;visibility:visible;fill:url(#radialGradient2365);fill-opacity:1;fill-rule:nonzero;stroke:none;stroke-width:10;stroke-linecap:butt;stroke-linejoin:miter;stroke-miterlimit:4;stroke-dashoffset:0;stroke-opacity:1;marker:none;marker-start:none;marker-mid:none;marker-end:none"
     d="m 21.38885,334.47286 h 98.48811 v 45.76215 H 21.38885 Z"
     id="rect2363" />
  <path
     style="color:#000000;display:inline;overflow:visible;visibility:visible;fill:url(#radialGradient2369);fill-opacity:1;fill-rule:nonzero;stroke:none;stroke-width:10;stroke-linecap:butt;stroke-linejoin:miter;stroke-miterlimit:4;stroke-dashoffset:0;stroke-opacity:1;marker:none;marker-start:none;marker-mid:none;marker-end:none"
     d="m 61.18202,329.47804 h 98.48811 v 45.76215 H 61.18202 Z"
     id="rect2367" />
  <path
     style="color:#000000;display:inline;overflow:visible;visibility:visible;fill:url(#radialGradient2377);fill-opacity:1;fill-rule:nonzero;stroke:none;stroke-width:10;stroke-linecap:butt;stroke-linejoin:miter;stroke-miterlimit:4;stroke-dashoffset:0;stroke-opacity:1;marker:none;marker-start:none;marker-mid:none;marker-end:none"
     d="m 203.44264,367.30223 h 98.48811 v 45.76215 h -98.48811 z"
     id="rect2375" />
  <path
     style="color:#000000;display:inline;overflow:visible;visibility:visible;fill:url(#radialGradient2381);fill-opacity:1;fill-rule:nonzero;stroke:none;stroke-width:10;stroke-linecap:butt;stroke-linejoin:miter;stroke-miterlimit:4;stroke-dashoffset:0;stroke-opacity:1;marker:none;marker-start:none;marker-mid:none;marker-end:none"
     d="M 181.55639,361.33325 H 280.0445 V 407.0954 H 181.55639 Z"
     id="rect2379" />
  <path
     style="color:#000000;display:inline;overflow:visible;visibility:visible;fill:url(#radialGradient2385);fill-opacity:1;fill-rule:nonzero;stroke:none;stroke-width:10;stroke-linecap:butt;stroke-linejoin:miter;stroke-miterlimit:4;stroke-dashoffset:0;stroke-opacity:1;marker:none;marker-start:none;marker-mid:none;marker-end:none"
     d="m 158.67531,348.40048 h 98.48811 v 45.76215 h -98.48811 z"
     id="rect2383" />
</svg>
